%TF.GenerationSoftware,KiCad,Pcbnew,8.0.8-8.0.8-0~ubuntu24.04.1*%
%TF.CreationDate,2025-02-07T13:21:18-05:00*%
%TF.ProjectId,snowboard,736e6f77-626f-4617-9264-2e6b69636164,rev?*%
%TF.SameCoordinates,Original*%
%TF.FileFunction,Legend,Top*%
%TF.FilePolarity,Positive*%
%FSLAX46Y46*%
G04 Gerber Fmt 4.6, Leading zero omitted, Abs format (unit mm)*
G04 Created by KiCad (PCBNEW 8.0.8-8.0.8-0~ubuntu24.04.1) date 2025-02-07 13:21:18*
%MOMM*%
%LPD*%
G01*
G04 APERTURE LIST*
%ADD10C,0.150000*%
%ADD11C,0.125000*%
%ADD12C,0.120000*%
%ADD13C,0.127000*%
%ADD14C,0.200000*%
%ADD15C,0.100000*%
%ADD16C,0.152400*%
G04 APERTURE END LIST*
D10*
X177360588Y-122417438D02*
X177265350Y-122369819D01*
X177265350Y-122369819D02*
X177122493Y-122369819D01*
X177122493Y-122369819D02*
X176979636Y-122417438D01*
X176979636Y-122417438D02*
X176884398Y-122512676D01*
X176884398Y-122512676D02*
X176836779Y-122607914D01*
X176836779Y-122607914D02*
X176789160Y-122798390D01*
X176789160Y-122798390D02*
X176789160Y-122941247D01*
X176789160Y-122941247D02*
X176836779Y-123131723D01*
X176836779Y-123131723D02*
X176884398Y-123226961D01*
X176884398Y-123226961D02*
X176979636Y-123322200D01*
X176979636Y-123322200D02*
X177122493Y-123369819D01*
X177122493Y-123369819D02*
X177217731Y-123369819D01*
X177217731Y-123369819D02*
X177360588Y-123322200D01*
X177360588Y-123322200D02*
X177408207Y-123274580D01*
X177408207Y-123274580D02*
X177408207Y-122941247D01*
X177408207Y-122941247D02*
X177217731Y-122941247D01*
X177836779Y-123369819D02*
X177836779Y-122369819D01*
X177836779Y-122369819D02*
X178408207Y-123369819D01*
X178408207Y-123369819D02*
X178408207Y-122369819D01*
X178884398Y-123369819D02*
X178884398Y-122369819D01*
X178884398Y-122369819D02*
X179122493Y-122369819D01*
X179122493Y-122369819D02*
X179265350Y-122417438D01*
X179265350Y-122417438D02*
X179360588Y-122512676D01*
X179360588Y-122512676D02*
X179408207Y-122607914D01*
X179408207Y-122607914D02*
X179455826Y-122798390D01*
X179455826Y-122798390D02*
X179455826Y-122941247D01*
X179455826Y-122941247D02*
X179408207Y-123131723D01*
X179408207Y-123131723D02*
X179360588Y-123226961D01*
X179360588Y-123226961D02*
X179265350Y-123322200D01*
X179265350Y-123322200D02*
X179122493Y-123369819D01*
X179122493Y-123369819D02*
X178884398Y-123369819D01*
X160360588Y-109917438D02*
X160265350Y-109869819D01*
X160265350Y-109869819D02*
X160122493Y-109869819D01*
X160122493Y-109869819D02*
X159979636Y-109917438D01*
X159979636Y-109917438D02*
X159884398Y-110012676D01*
X159884398Y-110012676D02*
X159836779Y-110107914D01*
X159836779Y-110107914D02*
X159789160Y-110298390D01*
X159789160Y-110298390D02*
X159789160Y-110441247D01*
X159789160Y-110441247D02*
X159836779Y-110631723D01*
X159836779Y-110631723D02*
X159884398Y-110726961D01*
X159884398Y-110726961D02*
X159979636Y-110822200D01*
X159979636Y-110822200D02*
X160122493Y-110869819D01*
X160122493Y-110869819D02*
X160217731Y-110869819D01*
X160217731Y-110869819D02*
X160360588Y-110822200D01*
X160360588Y-110822200D02*
X160408207Y-110774580D01*
X160408207Y-110774580D02*
X160408207Y-110441247D01*
X160408207Y-110441247D02*
X160217731Y-110441247D01*
X160836779Y-110869819D02*
X160836779Y-109869819D01*
X160836779Y-109869819D02*
X161408207Y-110869819D01*
X161408207Y-110869819D02*
X161408207Y-109869819D01*
X161884398Y-110869819D02*
X161884398Y-109869819D01*
X161884398Y-109869819D02*
X162122493Y-109869819D01*
X162122493Y-109869819D02*
X162265350Y-109917438D01*
X162265350Y-109917438D02*
X162360588Y-110012676D01*
X162360588Y-110012676D02*
X162408207Y-110107914D01*
X162408207Y-110107914D02*
X162455826Y-110298390D01*
X162455826Y-110298390D02*
X162455826Y-110441247D01*
X162455826Y-110441247D02*
X162408207Y-110631723D01*
X162408207Y-110631723D02*
X162360588Y-110726961D01*
X162360588Y-110726961D02*
X162265350Y-110822200D01*
X162265350Y-110822200D02*
X162122493Y-110869819D01*
X162122493Y-110869819D02*
X161884398Y-110869819D01*
X155039160Y-138822200D02*
X155182017Y-138869819D01*
X155182017Y-138869819D02*
X155420112Y-138869819D01*
X155420112Y-138869819D02*
X155515350Y-138822200D01*
X155515350Y-138822200D02*
X155562969Y-138774580D01*
X155562969Y-138774580D02*
X155610588Y-138679342D01*
X155610588Y-138679342D02*
X155610588Y-138584104D01*
X155610588Y-138584104D02*
X155562969Y-138488866D01*
X155562969Y-138488866D02*
X155515350Y-138441247D01*
X155515350Y-138441247D02*
X155420112Y-138393628D01*
X155420112Y-138393628D02*
X155229636Y-138346009D01*
X155229636Y-138346009D02*
X155134398Y-138298390D01*
X155134398Y-138298390D02*
X155086779Y-138250771D01*
X155086779Y-138250771D02*
X155039160Y-138155533D01*
X155039160Y-138155533D02*
X155039160Y-138060295D01*
X155039160Y-138060295D02*
X155086779Y-137965057D01*
X155086779Y-137965057D02*
X155134398Y-137917438D01*
X155134398Y-137917438D02*
X155229636Y-137869819D01*
X155229636Y-137869819D02*
X155467731Y-137869819D01*
X155467731Y-137869819D02*
X155610588Y-137917438D01*
X156610588Y-138774580D02*
X156562969Y-138822200D01*
X156562969Y-138822200D02*
X156420112Y-138869819D01*
X156420112Y-138869819D02*
X156324874Y-138869819D01*
X156324874Y-138869819D02*
X156182017Y-138822200D01*
X156182017Y-138822200D02*
X156086779Y-138726961D01*
X156086779Y-138726961D02*
X156039160Y-138631723D01*
X156039160Y-138631723D02*
X155991541Y-138441247D01*
X155991541Y-138441247D02*
X155991541Y-138298390D01*
X155991541Y-138298390D02*
X156039160Y-138107914D01*
X156039160Y-138107914D02*
X156086779Y-138012676D01*
X156086779Y-138012676D02*
X156182017Y-137917438D01*
X156182017Y-137917438D02*
X156324874Y-137869819D01*
X156324874Y-137869819D02*
X156420112Y-137869819D01*
X156420112Y-137869819D02*
X156562969Y-137917438D01*
X156562969Y-137917438D02*
X156610588Y-137965057D01*
X157515350Y-138869819D02*
X157039160Y-138869819D01*
X157039160Y-138869819D02*
X157039160Y-137869819D01*
X162658207Y-122119819D02*
X162324874Y-121643628D01*
X162086779Y-122119819D02*
X162086779Y-121119819D01*
X162086779Y-121119819D02*
X162467731Y-121119819D01*
X162467731Y-121119819D02*
X162562969Y-121167438D01*
X162562969Y-121167438D02*
X162610588Y-121215057D01*
X162610588Y-121215057D02*
X162658207Y-121310295D01*
X162658207Y-121310295D02*
X162658207Y-121453152D01*
X162658207Y-121453152D02*
X162610588Y-121548390D01*
X162610588Y-121548390D02*
X162562969Y-121596009D01*
X162562969Y-121596009D02*
X162467731Y-121643628D01*
X162467731Y-121643628D02*
X162086779Y-121643628D01*
X162991541Y-121119819D02*
X163658207Y-122119819D01*
X163658207Y-121119819D02*
X162991541Y-122119819D01*
X182193922Y-127619819D02*
X182527255Y-128619819D01*
X182527255Y-128619819D02*
X182860588Y-127619819D01*
X183527255Y-128096009D02*
X183670112Y-128143628D01*
X183670112Y-128143628D02*
X183717731Y-128191247D01*
X183717731Y-128191247D02*
X183765350Y-128286485D01*
X183765350Y-128286485D02*
X183765350Y-128429342D01*
X183765350Y-128429342D02*
X183717731Y-128524580D01*
X183717731Y-128524580D02*
X183670112Y-128572200D01*
X183670112Y-128572200D02*
X183574874Y-128619819D01*
X183574874Y-128619819D02*
X183193922Y-128619819D01*
X183193922Y-128619819D02*
X183193922Y-127619819D01*
X183193922Y-127619819D02*
X183527255Y-127619819D01*
X183527255Y-127619819D02*
X183622493Y-127667438D01*
X183622493Y-127667438D02*
X183670112Y-127715057D01*
X183670112Y-127715057D02*
X183717731Y-127810295D01*
X183717731Y-127810295D02*
X183717731Y-127905533D01*
X183717731Y-127905533D02*
X183670112Y-128000771D01*
X183670112Y-128000771D02*
X183622493Y-128048390D01*
X183622493Y-128048390D02*
X183527255Y-128096009D01*
X183527255Y-128096009D02*
X183193922Y-128096009D01*
X184193922Y-127619819D02*
X184193922Y-128429342D01*
X184193922Y-128429342D02*
X184241541Y-128524580D01*
X184241541Y-128524580D02*
X184289160Y-128572200D01*
X184289160Y-128572200D02*
X184384398Y-128619819D01*
X184384398Y-128619819D02*
X184574874Y-128619819D01*
X184574874Y-128619819D02*
X184670112Y-128572200D01*
X184670112Y-128572200D02*
X184717731Y-128524580D01*
X184717731Y-128524580D02*
X184765350Y-128429342D01*
X184765350Y-128429342D02*
X184765350Y-127619819D01*
X185193922Y-128572200D02*
X185336779Y-128619819D01*
X185336779Y-128619819D02*
X185574874Y-128619819D01*
X185574874Y-128619819D02*
X185670112Y-128572200D01*
X185670112Y-128572200D02*
X185717731Y-128524580D01*
X185717731Y-128524580D02*
X185765350Y-128429342D01*
X185765350Y-128429342D02*
X185765350Y-128334104D01*
X185765350Y-128334104D02*
X185717731Y-128238866D01*
X185717731Y-128238866D02*
X185670112Y-128191247D01*
X185670112Y-128191247D02*
X185574874Y-128143628D01*
X185574874Y-128143628D02*
X185384398Y-128096009D01*
X185384398Y-128096009D02*
X185289160Y-128048390D01*
X185289160Y-128048390D02*
X185241541Y-128000771D01*
X185241541Y-128000771D02*
X185193922Y-127905533D01*
X185193922Y-127905533D02*
X185193922Y-127810295D01*
X185193922Y-127810295D02*
X185241541Y-127715057D01*
X185241541Y-127715057D02*
X185289160Y-127667438D01*
X185289160Y-127667438D02*
X185384398Y-127619819D01*
X185384398Y-127619819D02*
X185622493Y-127619819D01*
X185622493Y-127619819D02*
X185765350Y-127667438D01*
X133360588Y-136167438D02*
X133265350Y-136119819D01*
X133265350Y-136119819D02*
X133122493Y-136119819D01*
X133122493Y-136119819D02*
X132979636Y-136167438D01*
X132979636Y-136167438D02*
X132884398Y-136262676D01*
X132884398Y-136262676D02*
X132836779Y-136357914D01*
X132836779Y-136357914D02*
X132789160Y-136548390D01*
X132789160Y-136548390D02*
X132789160Y-136691247D01*
X132789160Y-136691247D02*
X132836779Y-136881723D01*
X132836779Y-136881723D02*
X132884398Y-136976961D01*
X132884398Y-136976961D02*
X132979636Y-137072200D01*
X132979636Y-137072200D02*
X133122493Y-137119819D01*
X133122493Y-137119819D02*
X133217731Y-137119819D01*
X133217731Y-137119819D02*
X133360588Y-137072200D01*
X133360588Y-137072200D02*
X133408207Y-137024580D01*
X133408207Y-137024580D02*
X133408207Y-136691247D01*
X133408207Y-136691247D02*
X133217731Y-136691247D01*
X133836779Y-137119819D02*
X133836779Y-136119819D01*
X133836779Y-136119819D02*
X134408207Y-137119819D01*
X134408207Y-137119819D02*
X134408207Y-136119819D01*
X134884398Y-137119819D02*
X134884398Y-136119819D01*
X134884398Y-136119819D02*
X135122493Y-136119819D01*
X135122493Y-136119819D02*
X135265350Y-136167438D01*
X135265350Y-136167438D02*
X135360588Y-136262676D01*
X135360588Y-136262676D02*
X135408207Y-136357914D01*
X135408207Y-136357914D02*
X135455826Y-136548390D01*
X135455826Y-136548390D02*
X135455826Y-136691247D01*
X135455826Y-136691247D02*
X135408207Y-136881723D01*
X135408207Y-136881723D02*
X135360588Y-136976961D01*
X135360588Y-136976961D02*
X135265350Y-137072200D01*
X135265350Y-137072200D02*
X135122493Y-137119819D01*
X135122493Y-137119819D02*
X134884398Y-137119819D01*
X180836779Y-137988866D02*
X181598684Y-137988866D01*
X181217731Y-138369819D02*
X181217731Y-137607914D01*
X182408207Y-137846009D02*
X182551064Y-137893628D01*
X182551064Y-137893628D02*
X182598683Y-137941247D01*
X182598683Y-137941247D02*
X182646302Y-138036485D01*
X182646302Y-138036485D02*
X182646302Y-138179342D01*
X182646302Y-138179342D02*
X182598683Y-138274580D01*
X182598683Y-138274580D02*
X182551064Y-138322200D01*
X182551064Y-138322200D02*
X182455826Y-138369819D01*
X182455826Y-138369819D02*
X182074874Y-138369819D01*
X182074874Y-138369819D02*
X182074874Y-137369819D01*
X182074874Y-137369819D02*
X182408207Y-137369819D01*
X182408207Y-137369819D02*
X182503445Y-137417438D01*
X182503445Y-137417438D02*
X182551064Y-137465057D01*
X182551064Y-137465057D02*
X182598683Y-137560295D01*
X182598683Y-137560295D02*
X182598683Y-137655533D01*
X182598683Y-137655533D02*
X182551064Y-137750771D01*
X182551064Y-137750771D02*
X182503445Y-137798390D01*
X182503445Y-137798390D02*
X182408207Y-137846009D01*
X182408207Y-137846009D02*
X182074874Y-137846009D01*
X183027255Y-138084104D02*
X183503445Y-138084104D01*
X182932017Y-138369819D02*
X183265350Y-137369819D01*
X183265350Y-137369819D02*
X183598683Y-138369819D01*
X183789160Y-137369819D02*
X184360588Y-137369819D01*
X184074874Y-138369819D02*
X184074874Y-137369819D01*
X184551065Y-137369819D02*
X185122493Y-137369819D01*
X184836779Y-138369819D02*
X184836779Y-137369819D01*
X160658207Y-130369819D02*
X160324874Y-129893628D01*
X160086779Y-130369819D02*
X160086779Y-129369819D01*
X160086779Y-129369819D02*
X160467731Y-129369819D01*
X160467731Y-129369819D02*
X160562969Y-129417438D01*
X160562969Y-129417438D02*
X160610588Y-129465057D01*
X160610588Y-129465057D02*
X160658207Y-129560295D01*
X160658207Y-129560295D02*
X160658207Y-129703152D01*
X160658207Y-129703152D02*
X160610588Y-129798390D01*
X160610588Y-129798390D02*
X160562969Y-129846009D01*
X160562969Y-129846009D02*
X160467731Y-129893628D01*
X160467731Y-129893628D02*
X160086779Y-129893628D01*
X161086779Y-129846009D02*
X161420112Y-129846009D01*
X161562969Y-130369819D02*
X161086779Y-130369819D01*
X161086779Y-130369819D02*
X161086779Y-129369819D01*
X161086779Y-129369819D02*
X161562969Y-129369819D01*
X161943922Y-130322200D02*
X162086779Y-130369819D01*
X162086779Y-130369819D02*
X162324874Y-130369819D01*
X162324874Y-130369819D02*
X162420112Y-130322200D01*
X162420112Y-130322200D02*
X162467731Y-130274580D01*
X162467731Y-130274580D02*
X162515350Y-130179342D01*
X162515350Y-130179342D02*
X162515350Y-130084104D01*
X162515350Y-130084104D02*
X162467731Y-129988866D01*
X162467731Y-129988866D02*
X162420112Y-129941247D01*
X162420112Y-129941247D02*
X162324874Y-129893628D01*
X162324874Y-129893628D02*
X162134398Y-129846009D01*
X162134398Y-129846009D02*
X162039160Y-129798390D01*
X162039160Y-129798390D02*
X161991541Y-129750771D01*
X161991541Y-129750771D02*
X161943922Y-129655533D01*
X161943922Y-129655533D02*
X161943922Y-129560295D01*
X161943922Y-129560295D02*
X161991541Y-129465057D01*
X161991541Y-129465057D02*
X162039160Y-129417438D01*
X162039160Y-129417438D02*
X162134398Y-129369819D01*
X162134398Y-129369819D02*
X162372493Y-129369819D01*
X162372493Y-129369819D02*
X162515350Y-129417438D01*
X162943922Y-129846009D02*
X163277255Y-129846009D01*
X163420112Y-130369819D02*
X162943922Y-130369819D01*
X162943922Y-130369819D02*
X162943922Y-129369819D01*
X162943922Y-129369819D02*
X163420112Y-129369819D01*
X163705827Y-129369819D02*
X164277255Y-129369819D01*
X163991541Y-130369819D02*
X163991541Y-129369819D01*
X155741541Y-142869819D02*
X156360588Y-142869819D01*
X156360588Y-142869819D02*
X156027255Y-143250771D01*
X156027255Y-143250771D02*
X156170112Y-143250771D01*
X156170112Y-143250771D02*
X156265350Y-143298390D01*
X156265350Y-143298390D02*
X156312969Y-143346009D01*
X156312969Y-143346009D02*
X156360588Y-143441247D01*
X156360588Y-143441247D02*
X156360588Y-143679342D01*
X156360588Y-143679342D02*
X156312969Y-143774580D01*
X156312969Y-143774580D02*
X156265350Y-143822200D01*
X156265350Y-143822200D02*
X156170112Y-143869819D01*
X156170112Y-143869819D02*
X155884398Y-143869819D01*
X155884398Y-143869819D02*
X155789160Y-143822200D01*
X155789160Y-143822200D02*
X155741541Y-143774580D01*
X156646303Y-142869819D02*
X156979636Y-143869819D01*
X156979636Y-143869819D02*
X157312969Y-142869819D01*
X157551065Y-142869819D02*
X158170112Y-142869819D01*
X158170112Y-142869819D02*
X157836779Y-143250771D01*
X157836779Y-143250771D02*
X157979636Y-143250771D01*
X157979636Y-143250771D02*
X158074874Y-143298390D01*
X158074874Y-143298390D02*
X158122493Y-143346009D01*
X158122493Y-143346009D02*
X158170112Y-143441247D01*
X158170112Y-143441247D02*
X158170112Y-143679342D01*
X158170112Y-143679342D02*
X158122493Y-143774580D01*
X158122493Y-143774580D02*
X158074874Y-143822200D01*
X158074874Y-143822200D02*
X157979636Y-143869819D01*
X157979636Y-143869819D02*
X157693922Y-143869819D01*
X157693922Y-143869819D02*
X157598684Y-143822200D01*
X157598684Y-143822200D02*
X157551065Y-143774580D01*
X157039160Y-136572200D02*
X157182017Y-136619819D01*
X157182017Y-136619819D02*
X157420112Y-136619819D01*
X157420112Y-136619819D02*
X157515350Y-136572200D01*
X157515350Y-136572200D02*
X157562969Y-136524580D01*
X157562969Y-136524580D02*
X157610588Y-136429342D01*
X157610588Y-136429342D02*
X157610588Y-136334104D01*
X157610588Y-136334104D02*
X157562969Y-136238866D01*
X157562969Y-136238866D02*
X157515350Y-136191247D01*
X157515350Y-136191247D02*
X157420112Y-136143628D01*
X157420112Y-136143628D02*
X157229636Y-136096009D01*
X157229636Y-136096009D02*
X157134398Y-136048390D01*
X157134398Y-136048390D02*
X157086779Y-136000771D01*
X157086779Y-136000771D02*
X157039160Y-135905533D01*
X157039160Y-135905533D02*
X157039160Y-135810295D01*
X157039160Y-135810295D02*
X157086779Y-135715057D01*
X157086779Y-135715057D02*
X157134398Y-135667438D01*
X157134398Y-135667438D02*
X157229636Y-135619819D01*
X157229636Y-135619819D02*
X157467731Y-135619819D01*
X157467731Y-135619819D02*
X157610588Y-135667438D01*
X158039160Y-136619819D02*
X158039160Y-135619819D01*
X158039160Y-135619819D02*
X158277255Y-135619819D01*
X158277255Y-135619819D02*
X158420112Y-135667438D01*
X158420112Y-135667438D02*
X158515350Y-135762676D01*
X158515350Y-135762676D02*
X158562969Y-135857914D01*
X158562969Y-135857914D02*
X158610588Y-136048390D01*
X158610588Y-136048390D02*
X158610588Y-136191247D01*
X158610588Y-136191247D02*
X158562969Y-136381723D01*
X158562969Y-136381723D02*
X158515350Y-136476961D01*
X158515350Y-136476961D02*
X158420112Y-136572200D01*
X158420112Y-136572200D02*
X158277255Y-136619819D01*
X158277255Y-136619819D02*
X158039160Y-136619819D01*
X158991541Y-136334104D02*
X159467731Y-136334104D01*
X158896303Y-136619819D02*
X159229636Y-135619819D01*
X159229636Y-135619819D02*
X159562969Y-136619819D01*
X160693922Y-115869819D02*
X161265350Y-115869819D01*
X160979636Y-116869819D02*
X160979636Y-115869819D01*
X161503446Y-115869819D02*
X162170112Y-116869819D01*
X162170112Y-115869819D02*
X161503446Y-116869819D01*
X138857142Y-137454819D02*
X138523809Y-136978628D01*
X138285714Y-137454819D02*
X138285714Y-136454819D01*
X138285714Y-136454819D02*
X138666666Y-136454819D01*
X138666666Y-136454819D02*
X138761904Y-136502438D01*
X138761904Y-136502438D02*
X138809523Y-136550057D01*
X138809523Y-136550057D02*
X138857142Y-136645295D01*
X138857142Y-136645295D02*
X138857142Y-136788152D01*
X138857142Y-136788152D02*
X138809523Y-136883390D01*
X138809523Y-136883390D02*
X138761904Y-136931009D01*
X138761904Y-136931009D02*
X138666666Y-136978628D01*
X138666666Y-136978628D02*
X138285714Y-136978628D01*
X139809523Y-137454819D02*
X139238095Y-137454819D01*
X139523809Y-137454819D02*
X139523809Y-136454819D01*
X139523809Y-136454819D02*
X139428571Y-136597676D01*
X139428571Y-136597676D02*
X139333333Y-136692914D01*
X139333333Y-136692914D02*
X139238095Y-136740533D01*
X140714285Y-136454819D02*
X140238095Y-136454819D01*
X140238095Y-136454819D02*
X140190476Y-136931009D01*
X140190476Y-136931009D02*
X140238095Y-136883390D01*
X140238095Y-136883390D02*
X140333333Y-136835771D01*
X140333333Y-136835771D02*
X140571428Y-136835771D01*
X140571428Y-136835771D02*
X140666666Y-136883390D01*
X140666666Y-136883390D02*
X140714285Y-136931009D01*
X140714285Y-136931009D02*
X140761904Y-137026247D01*
X140761904Y-137026247D02*
X140761904Y-137264342D01*
X140761904Y-137264342D02*
X140714285Y-137359580D01*
X140714285Y-137359580D02*
X140666666Y-137407200D01*
X140666666Y-137407200D02*
X140571428Y-137454819D01*
X140571428Y-137454819D02*
X140333333Y-137454819D01*
X140333333Y-137454819D02*
X140238095Y-137407200D01*
X140238095Y-137407200D02*
X140190476Y-137359580D01*
X162488095Y-133704819D02*
X162488095Y-134514342D01*
X162488095Y-134514342D02*
X162535714Y-134609580D01*
X162535714Y-134609580D02*
X162583333Y-134657200D01*
X162583333Y-134657200D02*
X162678571Y-134704819D01*
X162678571Y-134704819D02*
X162869047Y-134704819D01*
X162869047Y-134704819D02*
X162964285Y-134657200D01*
X162964285Y-134657200D02*
X163011904Y-134609580D01*
X163011904Y-134609580D02*
X163059523Y-134514342D01*
X163059523Y-134514342D02*
X163059523Y-133704819D01*
X163440476Y-133704819D02*
X164059523Y-133704819D01*
X164059523Y-133704819D02*
X163726190Y-134085771D01*
X163726190Y-134085771D02*
X163869047Y-134085771D01*
X163869047Y-134085771D02*
X163964285Y-134133390D01*
X163964285Y-134133390D02*
X164011904Y-134181009D01*
X164011904Y-134181009D02*
X164059523Y-134276247D01*
X164059523Y-134276247D02*
X164059523Y-134514342D01*
X164059523Y-134514342D02*
X164011904Y-134609580D01*
X164011904Y-134609580D02*
X163964285Y-134657200D01*
X163964285Y-134657200D02*
X163869047Y-134704819D01*
X163869047Y-134704819D02*
X163583333Y-134704819D01*
X163583333Y-134704819D02*
X163488095Y-134657200D01*
X163488095Y-134657200D02*
X163440476Y-134609580D01*
X180083333Y-121859580D02*
X180035714Y-121907200D01*
X180035714Y-121907200D02*
X179892857Y-121954819D01*
X179892857Y-121954819D02*
X179797619Y-121954819D01*
X179797619Y-121954819D02*
X179654762Y-121907200D01*
X179654762Y-121907200D02*
X179559524Y-121811961D01*
X179559524Y-121811961D02*
X179511905Y-121716723D01*
X179511905Y-121716723D02*
X179464286Y-121526247D01*
X179464286Y-121526247D02*
X179464286Y-121383390D01*
X179464286Y-121383390D02*
X179511905Y-121192914D01*
X179511905Y-121192914D02*
X179559524Y-121097676D01*
X179559524Y-121097676D02*
X179654762Y-121002438D01*
X179654762Y-121002438D02*
X179797619Y-120954819D01*
X179797619Y-120954819D02*
X179892857Y-120954819D01*
X179892857Y-120954819D02*
X180035714Y-121002438D01*
X180035714Y-121002438D02*
X180083333Y-121050057D01*
X181035714Y-121954819D02*
X180464286Y-121954819D01*
X180750000Y-121954819D02*
X180750000Y-120954819D01*
X180750000Y-120954819D02*
X180654762Y-121097676D01*
X180654762Y-121097676D02*
X180559524Y-121192914D01*
X180559524Y-121192914D02*
X180464286Y-121240533D01*
X167833333Y-110954819D02*
X167500000Y-110478628D01*
X167261905Y-110954819D02*
X167261905Y-109954819D01*
X167261905Y-109954819D02*
X167642857Y-109954819D01*
X167642857Y-109954819D02*
X167738095Y-110002438D01*
X167738095Y-110002438D02*
X167785714Y-110050057D01*
X167785714Y-110050057D02*
X167833333Y-110145295D01*
X167833333Y-110145295D02*
X167833333Y-110288152D01*
X167833333Y-110288152D02*
X167785714Y-110383390D01*
X167785714Y-110383390D02*
X167738095Y-110431009D01*
X167738095Y-110431009D02*
X167642857Y-110478628D01*
X167642857Y-110478628D02*
X167261905Y-110478628D01*
X168690476Y-109954819D02*
X168500000Y-109954819D01*
X168500000Y-109954819D02*
X168404762Y-110002438D01*
X168404762Y-110002438D02*
X168357143Y-110050057D01*
X168357143Y-110050057D02*
X168261905Y-110192914D01*
X168261905Y-110192914D02*
X168214286Y-110383390D01*
X168214286Y-110383390D02*
X168214286Y-110764342D01*
X168214286Y-110764342D02*
X168261905Y-110859580D01*
X168261905Y-110859580D02*
X168309524Y-110907200D01*
X168309524Y-110907200D02*
X168404762Y-110954819D01*
X168404762Y-110954819D02*
X168595238Y-110954819D01*
X168595238Y-110954819D02*
X168690476Y-110907200D01*
X168690476Y-110907200D02*
X168738095Y-110859580D01*
X168738095Y-110859580D02*
X168785714Y-110764342D01*
X168785714Y-110764342D02*
X168785714Y-110526247D01*
X168785714Y-110526247D02*
X168738095Y-110431009D01*
X168738095Y-110431009D02*
X168690476Y-110383390D01*
X168690476Y-110383390D02*
X168595238Y-110335771D01*
X168595238Y-110335771D02*
X168404762Y-110335771D01*
X168404762Y-110335771D02*
X168309524Y-110383390D01*
X168309524Y-110383390D02*
X168261905Y-110431009D01*
X168261905Y-110431009D02*
X168214286Y-110526247D01*
X158238095Y-125704819D02*
X158809523Y-125704819D01*
X158523809Y-126704819D02*
X158523809Y-125704819D01*
X159142857Y-126704819D02*
X159142857Y-125704819D01*
X159142857Y-125704819D02*
X159523809Y-125704819D01*
X159523809Y-125704819D02*
X159619047Y-125752438D01*
X159619047Y-125752438D02*
X159666666Y-125800057D01*
X159666666Y-125800057D02*
X159714285Y-125895295D01*
X159714285Y-125895295D02*
X159714285Y-126038152D01*
X159714285Y-126038152D02*
X159666666Y-126133390D01*
X159666666Y-126133390D02*
X159619047Y-126181009D01*
X159619047Y-126181009D02*
X159523809Y-126228628D01*
X159523809Y-126228628D02*
X159142857Y-126228628D01*
X160095238Y-125800057D02*
X160142857Y-125752438D01*
X160142857Y-125752438D02*
X160238095Y-125704819D01*
X160238095Y-125704819D02*
X160476190Y-125704819D01*
X160476190Y-125704819D02*
X160571428Y-125752438D01*
X160571428Y-125752438D02*
X160619047Y-125800057D01*
X160619047Y-125800057D02*
X160666666Y-125895295D01*
X160666666Y-125895295D02*
X160666666Y-125990533D01*
X160666666Y-125990533D02*
X160619047Y-126133390D01*
X160619047Y-126133390D02*
X160047619Y-126704819D01*
X160047619Y-126704819D02*
X160666666Y-126704819D01*
X130011905Y-117704819D02*
X130583333Y-117704819D01*
X130297619Y-118704819D02*
X130297619Y-117704819D01*
X130916667Y-118704819D02*
X130916667Y-117704819D01*
X130916667Y-117704819D02*
X131297619Y-117704819D01*
X131297619Y-117704819D02*
X131392857Y-117752438D01*
X131392857Y-117752438D02*
X131440476Y-117800057D01*
X131440476Y-117800057D02*
X131488095Y-117895295D01*
X131488095Y-117895295D02*
X131488095Y-118038152D01*
X131488095Y-118038152D02*
X131440476Y-118133390D01*
X131440476Y-118133390D02*
X131392857Y-118181009D01*
X131392857Y-118181009D02*
X131297619Y-118228628D01*
X131297619Y-118228628D02*
X130916667Y-118228628D01*
X132440476Y-118704819D02*
X131869048Y-118704819D01*
X132154762Y-118704819D02*
X132154762Y-117704819D01*
X132154762Y-117704819D02*
X132059524Y-117847676D01*
X132059524Y-117847676D02*
X131964286Y-117942914D01*
X131964286Y-117942914D02*
X131869048Y-117990533D01*
X133345238Y-117704819D02*
X132869048Y-117704819D01*
X132869048Y-117704819D02*
X132821429Y-118181009D01*
X132821429Y-118181009D02*
X132869048Y-118133390D01*
X132869048Y-118133390D02*
X132964286Y-118085771D01*
X132964286Y-118085771D02*
X133202381Y-118085771D01*
X133202381Y-118085771D02*
X133297619Y-118133390D01*
X133297619Y-118133390D02*
X133345238Y-118181009D01*
X133345238Y-118181009D02*
X133392857Y-118276247D01*
X133392857Y-118276247D02*
X133392857Y-118514342D01*
X133392857Y-118514342D02*
X133345238Y-118609580D01*
X133345238Y-118609580D02*
X133297619Y-118657200D01*
X133297619Y-118657200D02*
X133202381Y-118704819D01*
X133202381Y-118704819D02*
X132964286Y-118704819D01*
X132964286Y-118704819D02*
X132869048Y-118657200D01*
X132869048Y-118657200D02*
X132821429Y-118609580D01*
X184204819Y-115916666D02*
X183728628Y-116249999D01*
X184204819Y-116488094D02*
X183204819Y-116488094D01*
X183204819Y-116488094D02*
X183204819Y-116107142D01*
X183204819Y-116107142D02*
X183252438Y-116011904D01*
X183252438Y-116011904D02*
X183300057Y-115964285D01*
X183300057Y-115964285D02*
X183395295Y-115916666D01*
X183395295Y-115916666D02*
X183538152Y-115916666D01*
X183538152Y-115916666D02*
X183633390Y-115964285D01*
X183633390Y-115964285D02*
X183681009Y-116011904D01*
X183681009Y-116011904D02*
X183728628Y-116107142D01*
X183728628Y-116107142D02*
X183728628Y-116488094D01*
X183204819Y-115583332D02*
X183204819Y-114916666D01*
X183204819Y-114916666D02*
X184204819Y-115345237D01*
X185954819Y-131083333D02*
X186669104Y-131083333D01*
X186669104Y-131083333D02*
X186811961Y-131130952D01*
X186811961Y-131130952D02*
X186907200Y-131226190D01*
X186907200Y-131226190D02*
X186954819Y-131369047D01*
X186954819Y-131369047D02*
X186954819Y-131464285D01*
X186954819Y-130083333D02*
X186954819Y-130654761D01*
X186954819Y-130369047D02*
X185954819Y-130369047D01*
X185954819Y-130369047D02*
X186097676Y-130464285D01*
X186097676Y-130464285D02*
X186192914Y-130559523D01*
X186192914Y-130559523D02*
X186240533Y-130654761D01*
X176109580Y-128416666D02*
X176157200Y-128464285D01*
X176157200Y-128464285D02*
X176204819Y-128607142D01*
X176204819Y-128607142D02*
X176204819Y-128702380D01*
X176204819Y-128702380D02*
X176157200Y-128845237D01*
X176157200Y-128845237D02*
X176061961Y-128940475D01*
X176061961Y-128940475D02*
X175966723Y-128988094D01*
X175966723Y-128988094D02*
X175776247Y-129035713D01*
X175776247Y-129035713D02*
X175633390Y-129035713D01*
X175633390Y-129035713D02*
X175442914Y-128988094D01*
X175442914Y-128988094D02*
X175347676Y-128940475D01*
X175347676Y-128940475D02*
X175252438Y-128845237D01*
X175252438Y-128845237D02*
X175204819Y-128702380D01*
X175204819Y-128702380D02*
X175204819Y-128607142D01*
X175204819Y-128607142D02*
X175252438Y-128464285D01*
X175252438Y-128464285D02*
X175300057Y-128416666D01*
X175204819Y-128083332D02*
X175204819Y-127464285D01*
X175204819Y-127464285D02*
X175585771Y-127797618D01*
X175585771Y-127797618D02*
X175585771Y-127654761D01*
X175585771Y-127654761D02*
X175633390Y-127559523D01*
X175633390Y-127559523D02*
X175681009Y-127511904D01*
X175681009Y-127511904D02*
X175776247Y-127464285D01*
X175776247Y-127464285D02*
X176014342Y-127464285D01*
X176014342Y-127464285D02*
X176109580Y-127511904D01*
X176109580Y-127511904D02*
X176157200Y-127559523D01*
X176157200Y-127559523D02*
X176204819Y-127654761D01*
X176204819Y-127654761D02*
X176204819Y-127940475D01*
X176204819Y-127940475D02*
X176157200Y-128035713D01*
X176157200Y-128035713D02*
X176109580Y-128083332D01*
X155738095Y-117454819D02*
X156309523Y-117454819D01*
X156023809Y-118454819D02*
X156023809Y-117454819D01*
X156642857Y-118454819D02*
X156642857Y-117454819D01*
X156642857Y-117454819D02*
X157023809Y-117454819D01*
X157023809Y-117454819D02*
X157119047Y-117502438D01*
X157119047Y-117502438D02*
X157166666Y-117550057D01*
X157166666Y-117550057D02*
X157214285Y-117645295D01*
X157214285Y-117645295D02*
X157214285Y-117788152D01*
X157214285Y-117788152D02*
X157166666Y-117883390D01*
X157166666Y-117883390D02*
X157119047Y-117931009D01*
X157119047Y-117931009D02*
X157023809Y-117978628D01*
X157023809Y-117978628D02*
X156642857Y-117978628D01*
X157690476Y-118454819D02*
X157880952Y-118454819D01*
X157880952Y-118454819D02*
X157976190Y-118407200D01*
X157976190Y-118407200D02*
X158023809Y-118359580D01*
X158023809Y-118359580D02*
X158119047Y-118216723D01*
X158119047Y-118216723D02*
X158166666Y-118026247D01*
X158166666Y-118026247D02*
X158166666Y-117645295D01*
X158166666Y-117645295D02*
X158119047Y-117550057D01*
X158119047Y-117550057D02*
X158071428Y-117502438D01*
X158071428Y-117502438D02*
X157976190Y-117454819D01*
X157976190Y-117454819D02*
X157785714Y-117454819D01*
X157785714Y-117454819D02*
X157690476Y-117502438D01*
X157690476Y-117502438D02*
X157642857Y-117550057D01*
X157642857Y-117550057D02*
X157595238Y-117645295D01*
X157595238Y-117645295D02*
X157595238Y-117883390D01*
X157595238Y-117883390D02*
X157642857Y-117978628D01*
X157642857Y-117978628D02*
X157690476Y-118026247D01*
X157690476Y-118026247D02*
X157785714Y-118073866D01*
X157785714Y-118073866D02*
X157976190Y-118073866D01*
X157976190Y-118073866D02*
X158071428Y-118026247D01*
X158071428Y-118026247D02*
X158119047Y-117978628D01*
X158119047Y-117978628D02*
X158166666Y-117883390D01*
X160488095Y-122954819D02*
X161059523Y-122954819D01*
X160773809Y-123954819D02*
X160773809Y-122954819D01*
X161392857Y-123954819D02*
X161392857Y-122954819D01*
X161392857Y-122954819D02*
X161773809Y-122954819D01*
X161773809Y-122954819D02*
X161869047Y-123002438D01*
X161869047Y-123002438D02*
X161916666Y-123050057D01*
X161916666Y-123050057D02*
X161964285Y-123145295D01*
X161964285Y-123145295D02*
X161964285Y-123288152D01*
X161964285Y-123288152D02*
X161916666Y-123383390D01*
X161916666Y-123383390D02*
X161869047Y-123431009D01*
X161869047Y-123431009D02*
X161773809Y-123478628D01*
X161773809Y-123478628D02*
X161392857Y-123478628D01*
X162535714Y-123383390D02*
X162440476Y-123335771D01*
X162440476Y-123335771D02*
X162392857Y-123288152D01*
X162392857Y-123288152D02*
X162345238Y-123192914D01*
X162345238Y-123192914D02*
X162345238Y-123145295D01*
X162345238Y-123145295D02*
X162392857Y-123050057D01*
X162392857Y-123050057D02*
X162440476Y-123002438D01*
X162440476Y-123002438D02*
X162535714Y-122954819D01*
X162535714Y-122954819D02*
X162726190Y-122954819D01*
X162726190Y-122954819D02*
X162821428Y-123002438D01*
X162821428Y-123002438D02*
X162869047Y-123050057D01*
X162869047Y-123050057D02*
X162916666Y-123145295D01*
X162916666Y-123145295D02*
X162916666Y-123192914D01*
X162916666Y-123192914D02*
X162869047Y-123288152D01*
X162869047Y-123288152D02*
X162821428Y-123335771D01*
X162821428Y-123335771D02*
X162726190Y-123383390D01*
X162726190Y-123383390D02*
X162535714Y-123383390D01*
X162535714Y-123383390D02*
X162440476Y-123431009D01*
X162440476Y-123431009D02*
X162392857Y-123478628D01*
X162392857Y-123478628D02*
X162345238Y-123573866D01*
X162345238Y-123573866D02*
X162345238Y-123764342D01*
X162345238Y-123764342D02*
X162392857Y-123859580D01*
X162392857Y-123859580D02*
X162440476Y-123907200D01*
X162440476Y-123907200D02*
X162535714Y-123954819D01*
X162535714Y-123954819D02*
X162726190Y-123954819D01*
X162726190Y-123954819D02*
X162821428Y-123907200D01*
X162821428Y-123907200D02*
X162869047Y-123859580D01*
X162869047Y-123859580D02*
X162916666Y-123764342D01*
X162916666Y-123764342D02*
X162916666Y-123573866D01*
X162916666Y-123573866D02*
X162869047Y-123478628D01*
X162869047Y-123478628D02*
X162821428Y-123431009D01*
X162821428Y-123431009D02*
X162726190Y-123383390D01*
X172083333Y-117954819D02*
X171750000Y-117478628D01*
X171511905Y-117954819D02*
X171511905Y-116954819D01*
X171511905Y-116954819D02*
X171892857Y-116954819D01*
X171892857Y-116954819D02*
X171988095Y-117002438D01*
X171988095Y-117002438D02*
X172035714Y-117050057D01*
X172035714Y-117050057D02*
X172083333Y-117145295D01*
X172083333Y-117145295D02*
X172083333Y-117288152D01*
X172083333Y-117288152D02*
X172035714Y-117383390D01*
X172035714Y-117383390D02*
X171988095Y-117431009D01*
X171988095Y-117431009D02*
X171892857Y-117478628D01*
X171892857Y-117478628D02*
X171511905Y-117478628D01*
X172559524Y-117954819D02*
X172750000Y-117954819D01*
X172750000Y-117954819D02*
X172845238Y-117907200D01*
X172845238Y-117907200D02*
X172892857Y-117859580D01*
X172892857Y-117859580D02*
X172988095Y-117716723D01*
X172988095Y-117716723D02*
X173035714Y-117526247D01*
X173035714Y-117526247D02*
X173035714Y-117145295D01*
X173035714Y-117145295D02*
X172988095Y-117050057D01*
X172988095Y-117050057D02*
X172940476Y-117002438D01*
X172940476Y-117002438D02*
X172845238Y-116954819D01*
X172845238Y-116954819D02*
X172654762Y-116954819D01*
X172654762Y-116954819D02*
X172559524Y-117002438D01*
X172559524Y-117002438D02*
X172511905Y-117050057D01*
X172511905Y-117050057D02*
X172464286Y-117145295D01*
X172464286Y-117145295D02*
X172464286Y-117383390D01*
X172464286Y-117383390D02*
X172511905Y-117478628D01*
X172511905Y-117478628D02*
X172559524Y-117526247D01*
X172559524Y-117526247D02*
X172654762Y-117573866D01*
X172654762Y-117573866D02*
X172845238Y-117573866D01*
X172845238Y-117573866D02*
X172940476Y-117526247D01*
X172940476Y-117526247D02*
X172988095Y-117478628D01*
X172988095Y-117478628D02*
X173035714Y-117383390D01*
X171166666Y-142204819D02*
X171166666Y-142919104D01*
X171166666Y-142919104D02*
X171119047Y-143061961D01*
X171119047Y-143061961D02*
X171023809Y-143157200D01*
X171023809Y-143157200D02*
X170880952Y-143204819D01*
X170880952Y-143204819D02*
X170785714Y-143204819D01*
X171595238Y-142300057D02*
X171642857Y-142252438D01*
X171642857Y-142252438D02*
X171738095Y-142204819D01*
X171738095Y-142204819D02*
X171976190Y-142204819D01*
X171976190Y-142204819D02*
X172071428Y-142252438D01*
X172071428Y-142252438D02*
X172119047Y-142300057D01*
X172119047Y-142300057D02*
X172166666Y-142395295D01*
X172166666Y-142395295D02*
X172166666Y-142490533D01*
X172166666Y-142490533D02*
X172119047Y-142633390D01*
X172119047Y-142633390D02*
X171547619Y-143204819D01*
X171547619Y-143204819D02*
X172166666Y-143204819D01*
X138333333Y-140359580D02*
X138285714Y-140407200D01*
X138285714Y-140407200D02*
X138142857Y-140454819D01*
X138142857Y-140454819D02*
X138047619Y-140454819D01*
X138047619Y-140454819D02*
X137904762Y-140407200D01*
X137904762Y-140407200D02*
X137809524Y-140311961D01*
X137809524Y-140311961D02*
X137761905Y-140216723D01*
X137761905Y-140216723D02*
X137714286Y-140026247D01*
X137714286Y-140026247D02*
X137714286Y-139883390D01*
X137714286Y-139883390D02*
X137761905Y-139692914D01*
X137761905Y-139692914D02*
X137809524Y-139597676D01*
X137809524Y-139597676D02*
X137904762Y-139502438D01*
X137904762Y-139502438D02*
X138047619Y-139454819D01*
X138047619Y-139454819D02*
X138142857Y-139454819D01*
X138142857Y-139454819D02*
X138285714Y-139502438D01*
X138285714Y-139502438D02*
X138333333Y-139550057D01*
X138666667Y-139454819D02*
X139333333Y-139454819D01*
X139333333Y-139454819D02*
X138904762Y-140454819D01*
X159357142Y-118454819D02*
X159023809Y-117978628D01*
X158785714Y-118454819D02*
X158785714Y-117454819D01*
X158785714Y-117454819D02*
X159166666Y-117454819D01*
X159166666Y-117454819D02*
X159261904Y-117502438D01*
X159261904Y-117502438D02*
X159309523Y-117550057D01*
X159309523Y-117550057D02*
X159357142Y-117645295D01*
X159357142Y-117645295D02*
X159357142Y-117788152D01*
X159357142Y-117788152D02*
X159309523Y-117883390D01*
X159309523Y-117883390D02*
X159261904Y-117931009D01*
X159261904Y-117931009D02*
X159166666Y-117978628D01*
X159166666Y-117978628D02*
X158785714Y-117978628D01*
X160309523Y-118454819D02*
X159738095Y-118454819D01*
X160023809Y-118454819D02*
X160023809Y-117454819D01*
X160023809Y-117454819D02*
X159928571Y-117597676D01*
X159928571Y-117597676D02*
X159833333Y-117692914D01*
X159833333Y-117692914D02*
X159738095Y-117740533D01*
X161166666Y-117788152D02*
X161166666Y-118454819D01*
X160928571Y-117407200D02*
X160690476Y-118121485D01*
X160690476Y-118121485D02*
X161309523Y-118121485D01*
X166166667Y-130157200D02*
X166309524Y-130204819D01*
X166309524Y-130204819D02*
X166547619Y-130204819D01*
X166547619Y-130204819D02*
X166642857Y-130157200D01*
X166642857Y-130157200D02*
X166690476Y-130109580D01*
X166690476Y-130109580D02*
X166738095Y-130014342D01*
X166738095Y-130014342D02*
X166738095Y-129919104D01*
X166738095Y-129919104D02*
X166690476Y-129823866D01*
X166690476Y-129823866D02*
X166642857Y-129776247D01*
X166642857Y-129776247D02*
X166547619Y-129728628D01*
X166547619Y-129728628D02*
X166357143Y-129681009D01*
X166357143Y-129681009D02*
X166261905Y-129633390D01*
X166261905Y-129633390D02*
X166214286Y-129585771D01*
X166214286Y-129585771D02*
X166166667Y-129490533D01*
X166166667Y-129490533D02*
X166166667Y-129395295D01*
X166166667Y-129395295D02*
X166214286Y-129300057D01*
X166214286Y-129300057D02*
X166261905Y-129252438D01*
X166261905Y-129252438D02*
X166357143Y-129204819D01*
X166357143Y-129204819D02*
X166595238Y-129204819D01*
X166595238Y-129204819D02*
X166738095Y-129252438D01*
X167071429Y-129204819D02*
X167309524Y-130204819D01*
X167309524Y-130204819D02*
X167500000Y-129490533D01*
X167500000Y-129490533D02*
X167690476Y-130204819D01*
X167690476Y-130204819D02*
X167928572Y-129204819D01*
X168261905Y-129300057D02*
X168309524Y-129252438D01*
X168309524Y-129252438D02*
X168404762Y-129204819D01*
X168404762Y-129204819D02*
X168642857Y-129204819D01*
X168642857Y-129204819D02*
X168738095Y-129252438D01*
X168738095Y-129252438D02*
X168785714Y-129300057D01*
X168785714Y-129300057D02*
X168833333Y-129395295D01*
X168833333Y-129395295D02*
X168833333Y-129490533D01*
X168833333Y-129490533D02*
X168785714Y-129633390D01*
X168785714Y-129633390D02*
X168214286Y-130204819D01*
X168214286Y-130204819D02*
X168833333Y-130204819D01*
X171735714Y-131612295D02*
X171469047Y-131231342D01*
X171278571Y-131612295D02*
X171278571Y-130812295D01*
X171278571Y-130812295D02*
X171583333Y-130812295D01*
X171583333Y-130812295D02*
X171659523Y-130850390D01*
X171659523Y-130850390D02*
X171697618Y-130888485D01*
X171697618Y-130888485D02*
X171735714Y-130964676D01*
X171735714Y-130964676D02*
X171735714Y-131078961D01*
X171735714Y-131078961D02*
X171697618Y-131155152D01*
X171697618Y-131155152D02*
X171659523Y-131193247D01*
X171659523Y-131193247D02*
X171583333Y-131231342D01*
X171583333Y-131231342D02*
X171278571Y-131231342D01*
X172497618Y-131612295D02*
X172040475Y-131612295D01*
X172269047Y-131612295D02*
X172269047Y-130812295D01*
X172269047Y-130812295D02*
X172192856Y-130926580D01*
X172192856Y-130926580D02*
X172116666Y-131002771D01*
X172116666Y-131002771D02*
X172040475Y-131040866D01*
X172992857Y-130812295D02*
X173069047Y-130812295D01*
X173069047Y-130812295D02*
X173145238Y-130850390D01*
X173145238Y-130850390D02*
X173183333Y-130888485D01*
X173183333Y-130888485D02*
X173221428Y-130964676D01*
X173221428Y-130964676D02*
X173259523Y-131117057D01*
X173259523Y-131117057D02*
X173259523Y-131307533D01*
X173259523Y-131307533D02*
X173221428Y-131459914D01*
X173221428Y-131459914D02*
X173183333Y-131536104D01*
X173183333Y-131536104D02*
X173145238Y-131574200D01*
X173145238Y-131574200D02*
X173069047Y-131612295D01*
X173069047Y-131612295D02*
X172992857Y-131612295D01*
X172992857Y-131612295D02*
X172916666Y-131574200D01*
X172916666Y-131574200D02*
X172878571Y-131536104D01*
X172878571Y-131536104D02*
X172840476Y-131459914D01*
X172840476Y-131459914D02*
X172802380Y-131307533D01*
X172802380Y-131307533D02*
X172802380Y-131117057D01*
X172802380Y-131117057D02*
X172840476Y-130964676D01*
X172840476Y-130964676D02*
X172878571Y-130888485D01*
X172878571Y-130888485D02*
X172916666Y-130850390D01*
X172916666Y-130850390D02*
X172992857Y-130812295D01*
X174109580Y-128416666D02*
X174157200Y-128464285D01*
X174157200Y-128464285D02*
X174204819Y-128607142D01*
X174204819Y-128607142D02*
X174204819Y-128702380D01*
X174204819Y-128702380D02*
X174157200Y-128845237D01*
X174157200Y-128845237D02*
X174061961Y-128940475D01*
X174061961Y-128940475D02*
X173966723Y-128988094D01*
X173966723Y-128988094D02*
X173776247Y-129035713D01*
X173776247Y-129035713D02*
X173633390Y-129035713D01*
X173633390Y-129035713D02*
X173442914Y-128988094D01*
X173442914Y-128988094D02*
X173347676Y-128940475D01*
X173347676Y-128940475D02*
X173252438Y-128845237D01*
X173252438Y-128845237D02*
X173204819Y-128702380D01*
X173204819Y-128702380D02*
X173204819Y-128607142D01*
X173204819Y-128607142D02*
X173252438Y-128464285D01*
X173252438Y-128464285D02*
X173300057Y-128416666D01*
X173300057Y-128035713D02*
X173252438Y-127988094D01*
X173252438Y-127988094D02*
X173204819Y-127892856D01*
X173204819Y-127892856D02*
X173204819Y-127654761D01*
X173204819Y-127654761D02*
X173252438Y-127559523D01*
X173252438Y-127559523D02*
X173300057Y-127511904D01*
X173300057Y-127511904D02*
X173395295Y-127464285D01*
X173395295Y-127464285D02*
X173490533Y-127464285D01*
X173490533Y-127464285D02*
X173633390Y-127511904D01*
X173633390Y-127511904D02*
X174204819Y-128083332D01*
X174204819Y-128083332D02*
X174204819Y-127464285D01*
X146738095Y-138454819D02*
X146738095Y-139264342D01*
X146738095Y-139264342D02*
X146785714Y-139359580D01*
X146785714Y-139359580D02*
X146833333Y-139407200D01*
X146833333Y-139407200D02*
X146928571Y-139454819D01*
X146928571Y-139454819D02*
X147119047Y-139454819D01*
X147119047Y-139454819D02*
X147214285Y-139407200D01*
X147214285Y-139407200D02*
X147261904Y-139359580D01*
X147261904Y-139359580D02*
X147309523Y-139264342D01*
X147309523Y-139264342D02*
X147309523Y-138454819D01*
X148261904Y-138454819D02*
X147785714Y-138454819D01*
X147785714Y-138454819D02*
X147738095Y-138931009D01*
X147738095Y-138931009D02*
X147785714Y-138883390D01*
X147785714Y-138883390D02*
X147880952Y-138835771D01*
X147880952Y-138835771D02*
X148119047Y-138835771D01*
X148119047Y-138835771D02*
X148214285Y-138883390D01*
X148214285Y-138883390D02*
X148261904Y-138931009D01*
X148261904Y-138931009D02*
X148309523Y-139026247D01*
X148309523Y-139026247D02*
X148309523Y-139264342D01*
X148309523Y-139264342D02*
X148261904Y-139359580D01*
X148261904Y-139359580D02*
X148214285Y-139407200D01*
X148214285Y-139407200D02*
X148119047Y-139454819D01*
X148119047Y-139454819D02*
X147880952Y-139454819D01*
X147880952Y-139454819D02*
X147785714Y-139407200D01*
X147785714Y-139407200D02*
X147738095Y-139359580D01*
X166166667Y-122157200D02*
X166309524Y-122204819D01*
X166309524Y-122204819D02*
X166547619Y-122204819D01*
X166547619Y-122204819D02*
X166642857Y-122157200D01*
X166642857Y-122157200D02*
X166690476Y-122109580D01*
X166690476Y-122109580D02*
X166738095Y-122014342D01*
X166738095Y-122014342D02*
X166738095Y-121919104D01*
X166738095Y-121919104D02*
X166690476Y-121823866D01*
X166690476Y-121823866D02*
X166642857Y-121776247D01*
X166642857Y-121776247D02*
X166547619Y-121728628D01*
X166547619Y-121728628D02*
X166357143Y-121681009D01*
X166357143Y-121681009D02*
X166261905Y-121633390D01*
X166261905Y-121633390D02*
X166214286Y-121585771D01*
X166214286Y-121585771D02*
X166166667Y-121490533D01*
X166166667Y-121490533D02*
X166166667Y-121395295D01*
X166166667Y-121395295D02*
X166214286Y-121300057D01*
X166214286Y-121300057D02*
X166261905Y-121252438D01*
X166261905Y-121252438D02*
X166357143Y-121204819D01*
X166357143Y-121204819D02*
X166595238Y-121204819D01*
X166595238Y-121204819D02*
X166738095Y-121252438D01*
X167071429Y-121204819D02*
X167309524Y-122204819D01*
X167309524Y-122204819D02*
X167500000Y-121490533D01*
X167500000Y-121490533D02*
X167690476Y-122204819D01*
X167690476Y-122204819D02*
X167928572Y-121204819D01*
X168833333Y-122204819D02*
X168261905Y-122204819D01*
X168547619Y-122204819D02*
X168547619Y-121204819D01*
X168547619Y-121204819D02*
X168452381Y-121347676D01*
X168452381Y-121347676D02*
X168357143Y-121442914D01*
X168357143Y-121442914D02*
X168261905Y-121490533D01*
X181545180Y-134475205D02*
X182545180Y-134475205D01*
X182545180Y-134475205D02*
X182545180Y-134713300D01*
X182545180Y-134713300D02*
X182497561Y-134856157D01*
X182497561Y-134856157D02*
X182402323Y-134951395D01*
X182402323Y-134951395D02*
X182307085Y-134999014D01*
X182307085Y-134999014D02*
X182116609Y-135046633D01*
X182116609Y-135046633D02*
X181973752Y-135046633D01*
X181973752Y-135046633D02*
X181783276Y-134999014D01*
X181783276Y-134999014D02*
X181688038Y-134951395D01*
X181688038Y-134951395D02*
X181592800Y-134856157D01*
X181592800Y-134856157D02*
X181545180Y-134713300D01*
X181545180Y-134713300D02*
X181545180Y-134475205D01*
X181545180Y-135999014D02*
X181545180Y-135427586D01*
X181545180Y-135713300D02*
X182545180Y-135713300D01*
X182545180Y-135713300D02*
X182402323Y-135618062D01*
X182402323Y-135618062D02*
X182307085Y-135522824D01*
X182307085Y-135522824D02*
X182259466Y-135427586D01*
X180795180Y-132760800D02*
X180557085Y-132760800D01*
X180652323Y-132522705D02*
X180557085Y-132760800D01*
X180557085Y-132760800D02*
X180652323Y-132998895D01*
X180366609Y-132617943D02*
X180557085Y-132760800D01*
X180557085Y-132760800D02*
X180366609Y-132903657D01*
X179704819Y-132760799D02*
X179942914Y-132760799D01*
X179847676Y-132998894D02*
X179942914Y-132760799D01*
X179942914Y-132760799D02*
X179847676Y-132522704D01*
X180133390Y-132903656D02*
X179942914Y-132760799D01*
X179942914Y-132760799D02*
X180133390Y-132617942D01*
X173704819Y-137392857D02*
X173228628Y-137726190D01*
X173704819Y-137964285D02*
X172704819Y-137964285D01*
X172704819Y-137964285D02*
X172704819Y-137583333D01*
X172704819Y-137583333D02*
X172752438Y-137488095D01*
X172752438Y-137488095D02*
X172800057Y-137440476D01*
X172800057Y-137440476D02*
X172895295Y-137392857D01*
X172895295Y-137392857D02*
X173038152Y-137392857D01*
X173038152Y-137392857D02*
X173133390Y-137440476D01*
X173133390Y-137440476D02*
X173181009Y-137488095D01*
X173181009Y-137488095D02*
X173228628Y-137583333D01*
X173228628Y-137583333D02*
X173228628Y-137964285D01*
X173704819Y-136440476D02*
X173704819Y-137011904D01*
X173704819Y-136726190D02*
X172704819Y-136726190D01*
X172704819Y-136726190D02*
X172847676Y-136821428D01*
X172847676Y-136821428D02*
X172942914Y-136916666D01*
X172942914Y-136916666D02*
X172990533Y-137011904D01*
X173704819Y-135488095D02*
X173704819Y-136059523D01*
X173704819Y-135773809D02*
X172704819Y-135773809D01*
X172704819Y-135773809D02*
X172847676Y-135869047D01*
X172847676Y-135869047D02*
X172942914Y-135964285D01*
X172942914Y-135964285D02*
X172990533Y-136059523D01*
X130738095Y-129204819D02*
X131309523Y-129204819D01*
X131023809Y-130204819D02*
X131023809Y-129204819D01*
X131642857Y-130204819D02*
X131642857Y-129204819D01*
X131642857Y-129204819D02*
X132023809Y-129204819D01*
X132023809Y-129204819D02*
X132119047Y-129252438D01*
X132119047Y-129252438D02*
X132166666Y-129300057D01*
X132166666Y-129300057D02*
X132214285Y-129395295D01*
X132214285Y-129395295D02*
X132214285Y-129538152D01*
X132214285Y-129538152D02*
X132166666Y-129633390D01*
X132166666Y-129633390D02*
X132119047Y-129681009D01*
X132119047Y-129681009D02*
X132023809Y-129728628D01*
X132023809Y-129728628D02*
X131642857Y-129728628D01*
X133071428Y-129538152D02*
X133071428Y-130204819D01*
X132833333Y-129157200D02*
X132595238Y-129871485D01*
X132595238Y-129871485D02*
X133214285Y-129871485D01*
X176238095Y-113204819D02*
X176238095Y-114014342D01*
X176238095Y-114014342D02*
X176285714Y-114109580D01*
X176285714Y-114109580D02*
X176333333Y-114157200D01*
X176333333Y-114157200D02*
X176428571Y-114204819D01*
X176428571Y-114204819D02*
X176619047Y-114204819D01*
X176619047Y-114204819D02*
X176714285Y-114157200D01*
X176714285Y-114157200D02*
X176761904Y-114109580D01*
X176761904Y-114109580D02*
X176809523Y-114014342D01*
X176809523Y-114014342D02*
X176809523Y-113204819D01*
X177238095Y-113300057D02*
X177285714Y-113252438D01*
X177285714Y-113252438D02*
X177380952Y-113204819D01*
X177380952Y-113204819D02*
X177619047Y-113204819D01*
X177619047Y-113204819D02*
X177714285Y-113252438D01*
X177714285Y-113252438D02*
X177761904Y-113300057D01*
X177761904Y-113300057D02*
X177809523Y-113395295D01*
X177809523Y-113395295D02*
X177809523Y-113490533D01*
X177809523Y-113490533D02*
X177761904Y-113633390D01*
X177761904Y-113633390D02*
X177190476Y-114204819D01*
X177190476Y-114204819D02*
X177809523Y-114204819D01*
X158238095Y-124204819D02*
X158809523Y-124204819D01*
X158523809Y-125204819D02*
X158523809Y-124204819D01*
X159142857Y-125204819D02*
X159142857Y-124204819D01*
X159142857Y-124204819D02*
X159523809Y-124204819D01*
X159523809Y-124204819D02*
X159619047Y-124252438D01*
X159619047Y-124252438D02*
X159666666Y-124300057D01*
X159666666Y-124300057D02*
X159714285Y-124395295D01*
X159714285Y-124395295D02*
X159714285Y-124538152D01*
X159714285Y-124538152D02*
X159666666Y-124633390D01*
X159666666Y-124633390D02*
X159619047Y-124681009D01*
X159619047Y-124681009D02*
X159523809Y-124728628D01*
X159523809Y-124728628D02*
X159142857Y-124728628D01*
X160047619Y-124204819D02*
X160666666Y-124204819D01*
X160666666Y-124204819D02*
X160333333Y-124585771D01*
X160333333Y-124585771D02*
X160476190Y-124585771D01*
X160476190Y-124585771D02*
X160571428Y-124633390D01*
X160571428Y-124633390D02*
X160619047Y-124681009D01*
X160619047Y-124681009D02*
X160666666Y-124776247D01*
X160666666Y-124776247D02*
X160666666Y-125014342D01*
X160666666Y-125014342D02*
X160619047Y-125109580D01*
X160619047Y-125109580D02*
X160571428Y-125157200D01*
X160571428Y-125157200D02*
X160476190Y-125204819D01*
X160476190Y-125204819D02*
X160190476Y-125204819D01*
X160190476Y-125204819D02*
X160095238Y-125157200D01*
X160095238Y-125157200D02*
X160047619Y-125109580D01*
X130011905Y-122204819D02*
X130583333Y-122204819D01*
X130297619Y-123204819D02*
X130297619Y-122204819D01*
X130916667Y-123204819D02*
X130916667Y-122204819D01*
X130916667Y-122204819D02*
X131297619Y-122204819D01*
X131297619Y-122204819D02*
X131392857Y-122252438D01*
X131392857Y-122252438D02*
X131440476Y-122300057D01*
X131440476Y-122300057D02*
X131488095Y-122395295D01*
X131488095Y-122395295D02*
X131488095Y-122538152D01*
X131488095Y-122538152D02*
X131440476Y-122633390D01*
X131440476Y-122633390D02*
X131392857Y-122681009D01*
X131392857Y-122681009D02*
X131297619Y-122728628D01*
X131297619Y-122728628D02*
X130916667Y-122728628D01*
X132440476Y-123204819D02*
X131869048Y-123204819D01*
X132154762Y-123204819D02*
X132154762Y-122204819D01*
X132154762Y-122204819D02*
X132059524Y-122347676D01*
X132059524Y-122347676D02*
X131964286Y-122442914D01*
X131964286Y-122442914D02*
X131869048Y-122490533D01*
X132821429Y-122300057D02*
X132869048Y-122252438D01*
X132869048Y-122252438D02*
X132964286Y-122204819D01*
X132964286Y-122204819D02*
X133202381Y-122204819D01*
X133202381Y-122204819D02*
X133297619Y-122252438D01*
X133297619Y-122252438D02*
X133345238Y-122300057D01*
X133345238Y-122300057D02*
X133392857Y-122395295D01*
X133392857Y-122395295D02*
X133392857Y-122490533D01*
X133392857Y-122490533D02*
X133345238Y-122633390D01*
X133345238Y-122633390D02*
X132773810Y-123204819D01*
X132773810Y-123204819D02*
X133392857Y-123204819D01*
X163833333Y-127204819D02*
X163500000Y-126728628D01*
X163261905Y-127204819D02*
X163261905Y-126204819D01*
X163261905Y-126204819D02*
X163642857Y-126204819D01*
X163642857Y-126204819D02*
X163738095Y-126252438D01*
X163738095Y-126252438D02*
X163785714Y-126300057D01*
X163785714Y-126300057D02*
X163833333Y-126395295D01*
X163833333Y-126395295D02*
X163833333Y-126538152D01*
X163833333Y-126538152D02*
X163785714Y-126633390D01*
X163785714Y-126633390D02*
X163738095Y-126681009D01*
X163738095Y-126681009D02*
X163642857Y-126728628D01*
X163642857Y-126728628D02*
X163261905Y-126728628D01*
X164785714Y-127204819D02*
X164214286Y-127204819D01*
X164500000Y-127204819D02*
X164500000Y-126204819D01*
X164500000Y-126204819D02*
X164404762Y-126347676D01*
X164404762Y-126347676D02*
X164309524Y-126442914D01*
X164309524Y-126442914D02*
X164214286Y-126490533D01*
X179909524Y-130862295D02*
X179909524Y-130062295D01*
X179909524Y-130062295D02*
X180100000Y-130062295D01*
X180100000Y-130062295D02*
X180214286Y-130100390D01*
X180214286Y-130100390D02*
X180290476Y-130176580D01*
X180290476Y-130176580D02*
X180328571Y-130252771D01*
X180328571Y-130252771D02*
X180366667Y-130405152D01*
X180366667Y-130405152D02*
X180366667Y-130519438D01*
X180366667Y-130519438D02*
X180328571Y-130671819D01*
X180328571Y-130671819D02*
X180290476Y-130748009D01*
X180290476Y-130748009D02*
X180214286Y-130824200D01*
X180214286Y-130824200D02*
X180100000Y-130862295D01*
X180100000Y-130862295D02*
X179909524Y-130862295D01*
X180633333Y-130062295D02*
X181128571Y-130062295D01*
X181128571Y-130062295D02*
X180861905Y-130367057D01*
X180861905Y-130367057D02*
X180976190Y-130367057D01*
X180976190Y-130367057D02*
X181052381Y-130405152D01*
X181052381Y-130405152D02*
X181090476Y-130443247D01*
X181090476Y-130443247D02*
X181128571Y-130519438D01*
X181128571Y-130519438D02*
X181128571Y-130709914D01*
X181128571Y-130709914D02*
X181090476Y-130786104D01*
X181090476Y-130786104D02*
X181052381Y-130824200D01*
X181052381Y-130824200D02*
X180976190Y-130862295D01*
X180976190Y-130862295D02*
X180747619Y-130862295D01*
X180747619Y-130862295D02*
X180671428Y-130824200D01*
X180671428Y-130824200D02*
X180633333Y-130786104D01*
X178557533Y-132804761D02*
X178557533Y-132195238D01*
X178862295Y-132499999D02*
X178252771Y-132499999D01*
X161857142Y-114954819D02*
X161523809Y-114478628D01*
X161285714Y-114954819D02*
X161285714Y-113954819D01*
X161285714Y-113954819D02*
X161666666Y-113954819D01*
X161666666Y-113954819D02*
X161761904Y-114002438D01*
X161761904Y-114002438D02*
X161809523Y-114050057D01*
X161809523Y-114050057D02*
X161857142Y-114145295D01*
X161857142Y-114145295D02*
X161857142Y-114288152D01*
X161857142Y-114288152D02*
X161809523Y-114383390D01*
X161809523Y-114383390D02*
X161761904Y-114431009D01*
X161761904Y-114431009D02*
X161666666Y-114478628D01*
X161666666Y-114478628D02*
X161285714Y-114478628D01*
X162809523Y-114954819D02*
X162238095Y-114954819D01*
X162523809Y-114954819D02*
X162523809Y-113954819D01*
X162523809Y-113954819D02*
X162428571Y-114097676D01*
X162428571Y-114097676D02*
X162333333Y-114192914D01*
X162333333Y-114192914D02*
X162238095Y-114240533D01*
X163190476Y-114050057D02*
X163238095Y-114002438D01*
X163238095Y-114002438D02*
X163333333Y-113954819D01*
X163333333Y-113954819D02*
X163571428Y-113954819D01*
X163571428Y-113954819D02*
X163666666Y-114002438D01*
X163666666Y-114002438D02*
X163714285Y-114050057D01*
X163714285Y-114050057D02*
X163761904Y-114145295D01*
X163761904Y-114145295D02*
X163761904Y-114240533D01*
X163761904Y-114240533D02*
X163714285Y-114383390D01*
X163714285Y-114383390D02*
X163142857Y-114954819D01*
X163142857Y-114954819D02*
X163761904Y-114954819D01*
X130738095Y-131454819D02*
X131309523Y-131454819D01*
X131023809Y-132454819D02*
X131023809Y-131454819D01*
X131642857Y-132454819D02*
X131642857Y-131454819D01*
X131642857Y-131454819D02*
X132023809Y-131454819D01*
X132023809Y-131454819D02*
X132119047Y-131502438D01*
X132119047Y-131502438D02*
X132166666Y-131550057D01*
X132166666Y-131550057D02*
X132214285Y-131645295D01*
X132214285Y-131645295D02*
X132214285Y-131788152D01*
X132214285Y-131788152D02*
X132166666Y-131883390D01*
X132166666Y-131883390D02*
X132119047Y-131931009D01*
X132119047Y-131931009D02*
X132023809Y-131978628D01*
X132023809Y-131978628D02*
X131642857Y-131978628D01*
X133119047Y-131454819D02*
X132642857Y-131454819D01*
X132642857Y-131454819D02*
X132595238Y-131931009D01*
X132595238Y-131931009D02*
X132642857Y-131883390D01*
X132642857Y-131883390D02*
X132738095Y-131835771D01*
X132738095Y-131835771D02*
X132976190Y-131835771D01*
X132976190Y-131835771D02*
X133071428Y-131883390D01*
X133071428Y-131883390D02*
X133119047Y-131931009D01*
X133119047Y-131931009D02*
X133166666Y-132026247D01*
X133166666Y-132026247D02*
X133166666Y-132264342D01*
X133166666Y-132264342D02*
X133119047Y-132359580D01*
X133119047Y-132359580D02*
X133071428Y-132407200D01*
X133071428Y-132407200D02*
X132976190Y-132454819D01*
X132976190Y-132454819D02*
X132738095Y-132454819D01*
X132738095Y-132454819D02*
X132642857Y-132407200D01*
X132642857Y-132407200D02*
X132595238Y-132359580D01*
X171904761Y-111050057D02*
X171809523Y-111002438D01*
X171809523Y-111002438D02*
X171714285Y-110907200D01*
X171714285Y-110907200D02*
X171571428Y-110764342D01*
X171571428Y-110764342D02*
X171476190Y-110716723D01*
X171476190Y-110716723D02*
X171380952Y-110716723D01*
X171428571Y-110954819D02*
X171333333Y-110907200D01*
X171333333Y-110907200D02*
X171238095Y-110811961D01*
X171238095Y-110811961D02*
X171190476Y-110621485D01*
X171190476Y-110621485D02*
X171190476Y-110288152D01*
X171190476Y-110288152D02*
X171238095Y-110097676D01*
X171238095Y-110097676D02*
X171333333Y-110002438D01*
X171333333Y-110002438D02*
X171428571Y-109954819D01*
X171428571Y-109954819D02*
X171619047Y-109954819D01*
X171619047Y-109954819D02*
X171714285Y-110002438D01*
X171714285Y-110002438D02*
X171809523Y-110097676D01*
X171809523Y-110097676D02*
X171857142Y-110288152D01*
X171857142Y-110288152D02*
X171857142Y-110621485D01*
X171857142Y-110621485D02*
X171809523Y-110811961D01*
X171809523Y-110811961D02*
X171714285Y-110907200D01*
X171714285Y-110907200D02*
X171619047Y-110954819D01*
X171619047Y-110954819D02*
X171428571Y-110954819D01*
X172809523Y-110954819D02*
X172238095Y-110954819D01*
X172523809Y-110954819D02*
X172523809Y-109954819D01*
X172523809Y-109954819D02*
X172428571Y-110097676D01*
X172428571Y-110097676D02*
X172333333Y-110192914D01*
X172333333Y-110192914D02*
X172238095Y-110240533D01*
X167083333Y-119204819D02*
X166750000Y-118728628D01*
X166511905Y-119204819D02*
X166511905Y-118204819D01*
X166511905Y-118204819D02*
X166892857Y-118204819D01*
X166892857Y-118204819D02*
X166988095Y-118252438D01*
X166988095Y-118252438D02*
X167035714Y-118300057D01*
X167035714Y-118300057D02*
X167083333Y-118395295D01*
X167083333Y-118395295D02*
X167083333Y-118538152D01*
X167083333Y-118538152D02*
X167035714Y-118633390D01*
X167035714Y-118633390D02*
X166988095Y-118681009D01*
X166988095Y-118681009D02*
X166892857Y-118728628D01*
X166892857Y-118728628D02*
X166511905Y-118728628D01*
X167988095Y-118204819D02*
X167511905Y-118204819D01*
X167511905Y-118204819D02*
X167464286Y-118681009D01*
X167464286Y-118681009D02*
X167511905Y-118633390D01*
X167511905Y-118633390D02*
X167607143Y-118585771D01*
X167607143Y-118585771D02*
X167845238Y-118585771D01*
X167845238Y-118585771D02*
X167940476Y-118633390D01*
X167940476Y-118633390D02*
X167988095Y-118681009D01*
X167988095Y-118681009D02*
X168035714Y-118776247D01*
X168035714Y-118776247D02*
X168035714Y-119014342D01*
X168035714Y-119014342D02*
X167988095Y-119109580D01*
X167988095Y-119109580D02*
X167940476Y-119157200D01*
X167940476Y-119157200D02*
X167845238Y-119204819D01*
X167845238Y-119204819D02*
X167607143Y-119204819D01*
X167607143Y-119204819D02*
X167511905Y-119157200D01*
X167511905Y-119157200D02*
X167464286Y-119109580D01*
D11*
X169666666Y-124177190D02*
X169642857Y-124201000D01*
X169642857Y-124201000D02*
X169571428Y-124224809D01*
X169571428Y-124224809D02*
X169523809Y-124224809D01*
X169523809Y-124224809D02*
X169452381Y-124201000D01*
X169452381Y-124201000D02*
X169404762Y-124153380D01*
X169404762Y-124153380D02*
X169380952Y-124105761D01*
X169380952Y-124105761D02*
X169357143Y-124010523D01*
X169357143Y-124010523D02*
X169357143Y-123939095D01*
X169357143Y-123939095D02*
X169380952Y-123843857D01*
X169380952Y-123843857D02*
X169404762Y-123796238D01*
X169404762Y-123796238D02*
X169452381Y-123748619D01*
X169452381Y-123748619D02*
X169523809Y-123724809D01*
X169523809Y-123724809D02*
X169571428Y-123724809D01*
X169571428Y-123724809D02*
X169642857Y-123748619D01*
X169642857Y-123748619D02*
X169666666Y-123772428D01*
X170095238Y-123724809D02*
X170000000Y-123724809D01*
X170000000Y-123724809D02*
X169952381Y-123748619D01*
X169952381Y-123748619D02*
X169928571Y-123772428D01*
X169928571Y-123772428D02*
X169880952Y-123843857D01*
X169880952Y-123843857D02*
X169857143Y-123939095D01*
X169857143Y-123939095D02*
X169857143Y-124129571D01*
X169857143Y-124129571D02*
X169880952Y-124177190D01*
X169880952Y-124177190D02*
X169904762Y-124201000D01*
X169904762Y-124201000D02*
X169952381Y-124224809D01*
X169952381Y-124224809D02*
X170047619Y-124224809D01*
X170047619Y-124224809D02*
X170095238Y-124201000D01*
X170095238Y-124201000D02*
X170119047Y-124177190D01*
X170119047Y-124177190D02*
X170142857Y-124129571D01*
X170142857Y-124129571D02*
X170142857Y-124010523D01*
X170142857Y-124010523D02*
X170119047Y-123962904D01*
X170119047Y-123962904D02*
X170095238Y-123939095D01*
X170095238Y-123939095D02*
X170047619Y-123915285D01*
X170047619Y-123915285D02*
X169952381Y-123915285D01*
X169952381Y-123915285D02*
X169904762Y-123939095D01*
X169904762Y-123939095D02*
X169880952Y-123962904D01*
X169880952Y-123962904D02*
X169857143Y-124010523D01*
D10*
X166150057Y-115095238D02*
X166102438Y-115190476D01*
X166102438Y-115190476D02*
X166007200Y-115285714D01*
X166007200Y-115285714D02*
X165864342Y-115428571D01*
X165864342Y-115428571D02*
X165816723Y-115523809D01*
X165816723Y-115523809D02*
X165816723Y-115619047D01*
X166054819Y-115571428D02*
X166007200Y-115666666D01*
X166007200Y-115666666D02*
X165911961Y-115761904D01*
X165911961Y-115761904D02*
X165721485Y-115809523D01*
X165721485Y-115809523D02*
X165388152Y-115809523D01*
X165388152Y-115809523D02*
X165197676Y-115761904D01*
X165197676Y-115761904D02*
X165102438Y-115666666D01*
X165102438Y-115666666D02*
X165054819Y-115571428D01*
X165054819Y-115571428D02*
X165054819Y-115380952D01*
X165054819Y-115380952D02*
X165102438Y-115285714D01*
X165102438Y-115285714D02*
X165197676Y-115190476D01*
X165197676Y-115190476D02*
X165388152Y-115142857D01*
X165388152Y-115142857D02*
X165721485Y-115142857D01*
X165721485Y-115142857D02*
X165911961Y-115190476D01*
X165911961Y-115190476D02*
X166007200Y-115285714D01*
X166007200Y-115285714D02*
X166054819Y-115380952D01*
X166054819Y-115380952D02*
X166054819Y-115571428D01*
X165150057Y-114761904D02*
X165102438Y-114714285D01*
X165102438Y-114714285D02*
X165054819Y-114619047D01*
X165054819Y-114619047D02*
X165054819Y-114380952D01*
X165054819Y-114380952D02*
X165102438Y-114285714D01*
X165102438Y-114285714D02*
X165150057Y-114238095D01*
X165150057Y-114238095D02*
X165245295Y-114190476D01*
X165245295Y-114190476D02*
X165340533Y-114190476D01*
X165340533Y-114190476D02*
X165483390Y-114238095D01*
X165483390Y-114238095D02*
X166054819Y-114809523D01*
X166054819Y-114809523D02*
X166054819Y-114190476D01*
X130011905Y-115454819D02*
X130583333Y-115454819D01*
X130297619Y-116454819D02*
X130297619Y-115454819D01*
X130916667Y-116454819D02*
X130916667Y-115454819D01*
X130916667Y-115454819D02*
X131297619Y-115454819D01*
X131297619Y-115454819D02*
X131392857Y-115502438D01*
X131392857Y-115502438D02*
X131440476Y-115550057D01*
X131440476Y-115550057D02*
X131488095Y-115645295D01*
X131488095Y-115645295D02*
X131488095Y-115788152D01*
X131488095Y-115788152D02*
X131440476Y-115883390D01*
X131440476Y-115883390D02*
X131392857Y-115931009D01*
X131392857Y-115931009D02*
X131297619Y-115978628D01*
X131297619Y-115978628D02*
X130916667Y-115978628D01*
X132440476Y-116454819D02*
X131869048Y-116454819D01*
X132154762Y-116454819D02*
X132154762Y-115454819D01*
X132154762Y-115454819D02*
X132059524Y-115597676D01*
X132059524Y-115597676D02*
X131964286Y-115692914D01*
X131964286Y-115692914D02*
X131869048Y-115740533D01*
X133297619Y-115788152D02*
X133297619Y-116454819D01*
X133059524Y-115407200D02*
X132821429Y-116121485D01*
X132821429Y-116121485D02*
X133440476Y-116121485D01*
X164083333Y-138859580D02*
X164035714Y-138907200D01*
X164035714Y-138907200D02*
X163892857Y-138954819D01*
X163892857Y-138954819D02*
X163797619Y-138954819D01*
X163797619Y-138954819D02*
X163654762Y-138907200D01*
X163654762Y-138907200D02*
X163559524Y-138811961D01*
X163559524Y-138811961D02*
X163511905Y-138716723D01*
X163511905Y-138716723D02*
X163464286Y-138526247D01*
X163464286Y-138526247D02*
X163464286Y-138383390D01*
X163464286Y-138383390D02*
X163511905Y-138192914D01*
X163511905Y-138192914D02*
X163559524Y-138097676D01*
X163559524Y-138097676D02*
X163654762Y-138002438D01*
X163654762Y-138002438D02*
X163797619Y-137954819D01*
X163797619Y-137954819D02*
X163892857Y-137954819D01*
X163892857Y-137954819D02*
X164035714Y-138002438D01*
X164035714Y-138002438D02*
X164083333Y-138050057D01*
X164988095Y-137954819D02*
X164511905Y-137954819D01*
X164511905Y-137954819D02*
X164464286Y-138431009D01*
X164464286Y-138431009D02*
X164511905Y-138383390D01*
X164511905Y-138383390D02*
X164607143Y-138335771D01*
X164607143Y-138335771D02*
X164845238Y-138335771D01*
X164845238Y-138335771D02*
X164940476Y-138383390D01*
X164940476Y-138383390D02*
X164988095Y-138431009D01*
X164988095Y-138431009D02*
X165035714Y-138526247D01*
X165035714Y-138526247D02*
X165035714Y-138764342D01*
X165035714Y-138764342D02*
X164988095Y-138859580D01*
X164988095Y-138859580D02*
X164940476Y-138907200D01*
X164940476Y-138907200D02*
X164845238Y-138954819D01*
X164845238Y-138954819D02*
X164607143Y-138954819D01*
X164607143Y-138954819D02*
X164511905Y-138907200D01*
X164511905Y-138907200D02*
X164464286Y-138859580D01*
X165545238Y-137457533D02*
X166154762Y-137457533D01*
X165850000Y-137762295D02*
X165850000Y-137152771D01*
X130011905Y-119954819D02*
X130583333Y-119954819D01*
X130297619Y-120954819D02*
X130297619Y-119954819D01*
X130916667Y-120954819D02*
X130916667Y-119954819D01*
X130916667Y-119954819D02*
X131297619Y-119954819D01*
X131297619Y-119954819D02*
X131392857Y-120002438D01*
X131392857Y-120002438D02*
X131440476Y-120050057D01*
X131440476Y-120050057D02*
X131488095Y-120145295D01*
X131488095Y-120145295D02*
X131488095Y-120288152D01*
X131488095Y-120288152D02*
X131440476Y-120383390D01*
X131440476Y-120383390D02*
X131392857Y-120431009D01*
X131392857Y-120431009D02*
X131297619Y-120478628D01*
X131297619Y-120478628D02*
X130916667Y-120478628D01*
X132440476Y-120954819D02*
X131869048Y-120954819D01*
X132154762Y-120954819D02*
X132154762Y-119954819D01*
X132154762Y-119954819D02*
X132059524Y-120097676D01*
X132059524Y-120097676D02*
X131964286Y-120192914D01*
X131964286Y-120192914D02*
X131869048Y-120240533D01*
X133392857Y-120954819D02*
X132821429Y-120954819D01*
X133107143Y-120954819D02*
X133107143Y-119954819D01*
X133107143Y-119954819D02*
X133011905Y-120097676D01*
X133011905Y-120097676D02*
X132916667Y-120192914D01*
X132916667Y-120192914D02*
X132821429Y-120240533D01*
X170083333Y-132859580D02*
X170035714Y-132907200D01*
X170035714Y-132907200D02*
X169892857Y-132954819D01*
X169892857Y-132954819D02*
X169797619Y-132954819D01*
X169797619Y-132954819D02*
X169654762Y-132907200D01*
X169654762Y-132907200D02*
X169559524Y-132811961D01*
X169559524Y-132811961D02*
X169511905Y-132716723D01*
X169511905Y-132716723D02*
X169464286Y-132526247D01*
X169464286Y-132526247D02*
X169464286Y-132383390D01*
X169464286Y-132383390D02*
X169511905Y-132192914D01*
X169511905Y-132192914D02*
X169559524Y-132097676D01*
X169559524Y-132097676D02*
X169654762Y-132002438D01*
X169654762Y-132002438D02*
X169797619Y-131954819D01*
X169797619Y-131954819D02*
X169892857Y-131954819D01*
X169892857Y-131954819D02*
X170035714Y-132002438D01*
X170035714Y-132002438D02*
X170083333Y-132050057D01*
X170940476Y-132288152D02*
X170940476Y-132954819D01*
X170702381Y-131907200D02*
X170464286Y-132621485D01*
X170464286Y-132621485D02*
X171083333Y-132621485D01*
X144988095Y-123454819D02*
X144988095Y-124264342D01*
X144988095Y-124264342D02*
X145035714Y-124359580D01*
X145035714Y-124359580D02*
X145083333Y-124407200D01*
X145083333Y-124407200D02*
X145178571Y-124454819D01*
X145178571Y-124454819D02*
X145369047Y-124454819D01*
X145369047Y-124454819D02*
X145464285Y-124407200D01*
X145464285Y-124407200D02*
X145511904Y-124359580D01*
X145511904Y-124359580D02*
X145559523Y-124264342D01*
X145559523Y-124264342D02*
X145559523Y-123454819D01*
X146559523Y-124454819D02*
X145988095Y-124454819D01*
X146273809Y-124454819D02*
X146273809Y-123454819D01*
X146273809Y-123454819D02*
X146178571Y-123597676D01*
X146178571Y-123597676D02*
X146083333Y-123692914D01*
X146083333Y-123692914D02*
X145988095Y-123740533D01*
X163833333Y-125204819D02*
X163500000Y-124728628D01*
X163261905Y-125204819D02*
X163261905Y-124204819D01*
X163261905Y-124204819D02*
X163642857Y-124204819D01*
X163642857Y-124204819D02*
X163738095Y-124252438D01*
X163738095Y-124252438D02*
X163785714Y-124300057D01*
X163785714Y-124300057D02*
X163833333Y-124395295D01*
X163833333Y-124395295D02*
X163833333Y-124538152D01*
X163833333Y-124538152D02*
X163785714Y-124633390D01*
X163785714Y-124633390D02*
X163738095Y-124681009D01*
X163738095Y-124681009D02*
X163642857Y-124728628D01*
X163642857Y-124728628D02*
X163261905Y-124728628D01*
X164214286Y-124300057D02*
X164261905Y-124252438D01*
X164261905Y-124252438D02*
X164357143Y-124204819D01*
X164357143Y-124204819D02*
X164595238Y-124204819D01*
X164595238Y-124204819D02*
X164690476Y-124252438D01*
X164690476Y-124252438D02*
X164738095Y-124300057D01*
X164738095Y-124300057D02*
X164785714Y-124395295D01*
X164785714Y-124395295D02*
X164785714Y-124490533D01*
X164785714Y-124490533D02*
X164738095Y-124633390D01*
X164738095Y-124633390D02*
X164166667Y-125204819D01*
X164166667Y-125204819D02*
X164785714Y-125204819D01*
X176640476Y-135062295D02*
X176640476Y-135709914D01*
X176640476Y-135709914D02*
X176678571Y-135786104D01*
X176678571Y-135786104D02*
X176716666Y-135824200D01*
X176716666Y-135824200D02*
X176792857Y-135862295D01*
X176792857Y-135862295D02*
X176945238Y-135862295D01*
X176945238Y-135862295D02*
X177021428Y-135824200D01*
X177021428Y-135824200D02*
X177059523Y-135786104D01*
X177059523Y-135786104D02*
X177097619Y-135709914D01*
X177097619Y-135709914D02*
X177097619Y-135062295D01*
X177821428Y-135328961D02*
X177821428Y-135862295D01*
X177630952Y-135024200D02*
X177440475Y-135595628D01*
X177440475Y-135595628D02*
X177935714Y-135595628D01*
X130011905Y-124454819D02*
X130583333Y-124454819D01*
X130297619Y-125454819D02*
X130297619Y-124454819D01*
X130916667Y-125454819D02*
X130916667Y-124454819D01*
X130916667Y-124454819D02*
X131297619Y-124454819D01*
X131297619Y-124454819D02*
X131392857Y-124502438D01*
X131392857Y-124502438D02*
X131440476Y-124550057D01*
X131440476Y-124550057D02*
X131488095Y-124645295D01*
X131488095Y-124645295D02*
X131488095Y-124788152D01*
X131488095Y-124788152D02*
X131440476Y-124883390D01*
X131440476Y-124883390D02*
X131392857Y-124931009D01*
X131392857Y-124931009D02*
X131297619Y-124978628D01*
X131297619Y-124978628D02*
X130916667Y-124978628D01*
X132440476Y-125454819D02*
X131869048Y-125454819D01*
X132154762Y-125454819D02*
X132154762Y-124454819D01*
X132154762Y-124454819D02*
X132059524Y-124597676D01*
X132059524Y-124597676D02*
X131964286Y-124692914D01*
X131964286Y-124692914D02*
X131869048Y-124740533D01*
X132773810Y-124454819D02*
X133392857Y-124454819D01*
X133392857Y-124454819D02*
X133059524Y-124835771D01*
X133059524Y-124835771D02*
X133202381Y-124835771D01*
X133202381Y-124835771D02*
X133297619Y-124883390D01*
X133297619Y-124883390D02*
X133345238Y-124931009D01*
X133345238Y-124931009D02*
X133392857Y-125026247D01*
X133392857Y-125026247D02*
X133392857Y-125264342D01*
X133392857Y-125264342D02*
X133345238Y-125359580D01*
X133345238Y-125359580D02*
X133297619Y-125407200D01*
X133297619Y-125407200D02*
X133202381Y-125454819D01*
X133202381Y-125454819D02*
X132916667Y-125454819D01*
X132916667Y-125454819D02*
X132821429Y-125407200D01*
X132821429Y-125407200D02*
X132773810Y-125359580D01*
X130488095Y-126704819D02*
X131059523Y-126704819D01*
X130773809Y-127704819D02*
X130773809Y-126704819D01*
X131392857Y-127704819D02*
X131392857Y-126704819D01*
X131392857Y-126704819D02*
X131773809Y-126704819D01*
X131773809Y-126704819D02*
X131869047Y-126752438D01*
X131869047Y-126752438D02*
X131916666Y-126800057D01*
X131916666Y-126800057D02*
X131964285Y-126895295D01*
X131964285Y-126895295D02*
X131964285Y-127038152D01*
X131964285Y-127038152D02*
X131916666Y-127133390D01*
X131916666Y-127133390D02*
X131869047Y-127181009D01*
X131869047Y-127181009D02*
X131773809Y-127228628D01*
X131773809Y-127228628D02*
X131392857Y-127228628D01*
X132821428Y-126704819D02*
X132630952Y-126704819D01*
X132630952Y-126704819D02*
X132535714Y-126752438D01*
X132535714Y-126752438D02*
X132488095Y-126800057D01*
X132488095Y-126800057D02*
X132392857Y-126942914D01*
X132392857Y-126942914D02*
X132345238Y-127133390D01*
X132345238Y-127133390D02*
X132345238Y-127514342D01*
X132345238Y-127514342D02*
X132392857Y-127609580D01*
X132392857Y-127609580D02*
X132440476Y-127657200D01*
X132440476Y-127657200D02*
X132535714Y-127704819D01*
X132535714Y-127704819D02*
X132726190Y-127704819D01*
X132726190Y-127704819D02*
X132821428Y-127657200D01*
X132821428Y-127657200D02*
X132869047Y-127609580D01*
X132869047Y-127609580D02*
X132916666Y-127514342D01*
X132916666Y-127514342D02*
X132916666Y-127276247D01*
X132916666Y-127276247D02*
X132869047Y-127181009D01*
X132869047Y-127181009D02*
X132821428Y-127133390D01*
X132821428Y-127133390D02*
X132726190Y-127085771D01*
X132726190Y-127085771D02*
X132535714Y-127085771D01*
X132535714Y-127085771D02*
X132440476Y-127133390D01*
X132440476Y-127133390D02*
X132392857Y-127181009D01*
X132392857Y-127181009D02*
X132345238Y-127276247D01*
X182204819Y-115916666D02*
X181728628Y-116249999D01*
X182204819Y-116488094D02*
X181204819Y-116488094D01*
X181204819Y-116488094D02*
X181204819Y-116107142D01*
X181204819Y-116107142D02*
X181252438Y-116011904D01*
X181252438Y-116011904D02*
X181300057Y-115964285D01*
X181300057Y-115964285D02*
X181395295Y-115916666D01*
X181395295Y-115916666D02*
X181538152Y-115916666D01*
X181538152Y-115916666D02*
X181633390Y-115964285D01*
X181633390Y-115964285D02*
X181681009Y-116011904D01*
X181681009Y-116011904D02*
X181728628Y-116107142D01*
X181728628Y-116107142D02*
X181728628Y-116488094D01*
X181633390Y-115345237D02*
X181585771Y-115440475D01*
X181585771Y-115440475D02*
X181538152Y-115488094D01*
X181538152Y-115488094D02*
X181442914Y-115535713D01*
X181442914Y-115535713D02*
X181395295Y-115535713D01*
X181395295Y-115535713D02*
X181300057Y-115488094D01*
X181300057Y-115488094D02*
X181252438Y-115440475D01*
X181252438Y-115440475D02*
X181204819Y-115345237D01*
X181204819Y-115345237D02*
X181204819Y-115154761D01*
X181204819Y-115154761D02*
X181252438Y-115059523D01*
X181252438Y-115059523D02*
X181300057Y-115011904D01*
X181300057Y-115011904D02*
X181395295Y-114964285D01*
X181395295Y-114964285D02*
X181442914Y-114964285D01*
X181442914Y-114964285D02*
X181538152Y-115011904D01*
X181538152Y-115011904D02*
X181585771Y-115059523D01*
X181585771Y-115059523D02*
X181633390Y-115154761D01*
X181633390Y-115154761D02*
X181633390Y-115345237D01*
X181633390Y-115345237D02*
X181681009Y-115440475D01*
X181681009Y-115440475D02*
X181728628Y-115488094D01*
X181728628Y-115488094D02*
X181823866Y-115535713D01*
X181823866Y-115535713D02*
X182014342Y-115535713D01*
X182014342Y-115535713D02*
X182109580Y-115488094D01*
X182109580Y-115488094D02*
X182157200Y-115440475D01*
X182157200Y-115440475D02*
X182204819Y-115345237D01*
X182204819Y-115345237D02*
X182204819Y-115154761D01*
X182204819Y-115154761D02*
X182157200Y-115059523D01*
X182157200Y-115059523D02*
X182109580Y-115011904D01*
X182109580Y-115011904D02*
X182014342Y-114964285D01*
X182014342Y-114964285D02*
X181823866Y-114964285D01*
X181823866Y-114964285D02*
X181728628Y-115011904D01*
X181728628Y-115011904D02*
X181681009Y-115059523D01*
X181681009Y-115059523D02*
X181633390Y-115154761D01*
X171616667Y-130612295D02*
X171350000Y-130231342D01*
X171159524Y-130612295D02*
X171159524Y-129812295D01*
X171159524Y-129812295D02*
X171464286Y-129812295D01*
X171464286Y-129812295D02*
X171540476Y-129850390D01*
X171540476Y-129850390D02*
X171578571Y-129888485D01*
X171578571Y-129888485D02*
X171616667Y-129964676D01*
X171616667Y-129964676D02*
X171616667Y-130078961D01*
X171616667Y-130078961D02*
X171578571Y-130155152D01*
X171578571Y-130155152D02*
X171540476Y-130193247D01*
X171540476Y-130193247D02*
X171464286Y-130231342D01*
X171464286Y-130231342D02*
X171159524Y-130231342D01*
X172302381Y-130078961D02*
X172302381Y-130612295D01*
X172111905Y-129774200D02*
X171921428Y-130345628D01*
X171921428Y-130345628D02*
X172416667Y-130345628D01*
X155738095Y-131954819D02*
X156309523Y-131954819D01*
X156023809Y-132954819D02*
X156023809Y-131954819D01*
X156642857Y-132954819D02*
X156642857Y-131954819D01*
X156642857Y-131954819D02*
X157023809Y-131954819D01*
X157023809Y-131954819D02*
X157119047Y-132002438D01*
X157119047Y-132002438D02*
X157166666Y-132050057D01*
X157166666Y-132050057D02*
X157214285Y-132145295D01*
X157214285Y-132145295D02*
X157214285Y-132288152D01*
X157214285Y-132288152D02*
X157166666Y-132383390D01*
X157166666Y-132383390D02*
X157119047Y-132431009D01*
X157119047Y-132431009D02*
X157023809Y-132478628D01*
X157023809Y-132478628D02*
X156642857Y-132478628D01*
X157547619Y-131954819D02*
X158214285Y-131954819D01*
X158214285Y-131954819D02*
X157785714Y-132954819D01*
X158011905Y-111704819D02*
X158583333Y-111704819D01*
X158297619Y-112704819D02*
X158297619Y-111704819D01*
X158916667Y-112704819D02*
X158916667Y-111704819D01*
X158916667Y-111704819D02*
X159297619Y-111704819D01*
X159297619Y-111704819D02*
X159392857Y-111752438D01*
X159392857Y-111752438D02*
X159440476Y-111800057D01*
X159440476Y-111800057D02*
X159488095Y-111895295D01*
X159488095Y-111895295D02*
X159488095Y-112038152D01*
X159488095Y-112038152D02*
X159440476Y-112133390D01*
X159440476Y-112133390D02*
X159392857Y-112181009D01*
X159392857Y-112181009D02*
X159297619Y-112228628D01*
X159297619Y-112228628D02*
X158916667Y-112228628D01*
X160440476Y-112704819D02*
X159869048Y-112704819D01*
X160154762Y-112704819D02*
X160154762Y-111704819D01*
X160154762Y-111704819D02*
X160059524Y-111847676D01*
X160059524Y-111847676D02*
X159964286Y-111942914D01*
X159964286Y-111942914D02*
X159869048Y-111990533D01*
X161059524Y-111704819D02*
X161154762Y-111704819D01*
X161154762Y-111704819D02*
X161250000Y-111752438D01*
X161250000Y-111752438D02*
X161297619Y-111800057D01*
X161297619Y-111800057D02*
X161345238Y-111895295D01*
X161345238Y-111895295D02*
X161392857Y-112085771D01*
X161392857Y-112085771D02*
X161392857Y-112323866D01*
X161392857Y-112323866D02*
X161345238Y-112514342D01*
X161345238Y-112514342D02*
X161297619Y-112609580D01*
X161297619Y-112609580D02*
X161250000Y-112657200D01*
X161250000Y-112657200D02*
X161154762Y-112704819D01*
X161154762Y-112704819D02*
X161059524Y-112704819D01*
X161059524Y-112704819D02*
X160964286Y-112657200D01*
X160964286Y-112657200D02*
X160916667Y-112609580D01*
X160916667Y-112609580D02*
X160869048Y-112514342D01*
X160869048Y-112514342D02*
X160821429Y-112323866D01*
X160821429Y-112323866D02*
X160821429Y-112085771D01*
X160821429Y-112085771D02*
X160869048Y-111895295D01*
X160869048Y-111895295D02*
X160916667Y-111800057D01*
X160916667Y-111800057D02*
X160964286Y-111752438D01*
X160964286Y-111752438D02*
X161059524Y-111704819D01*
X158238095Y-127954819D02*
X158809523Y-127954819D01*
X158523809Y-128954819D02*
X158523809Y-127954819D01*
X159142857Y-128954819D02*
X159142857Y-127954819D01*
X159142857Y-127954819D02*
X159523809Y-127954819D01*
X159523809Y-127954819D02*
X159619047Y-128002438D01*
X159619047Y-128002438D02*
X159666666Y-128050057D01*
X159666666Y-128050057D02*
X159714285Y-128145295D01*
X159714285Y-128145295D02*
X159714285Y-128288152D01*
X159714285Y-128288152D02*
X159666666Y-128383390D01*
X159666666Y-128383390D02*
X159619047Y-128431009D01*
X159619047Y-128431009D02*
X159523809Y-128478628D01*
X159523809Y-128478628D02*
X159142857Y-128478628D01*
X160666666Y-128954819D02*
X160095238Y-128954819D01*
X160380952Y-128954819D02*
X160380952Y-127954819D01*
X160380952Y-127954819D02*
X160285714Y-128097676D01*
X160285714Y-128097676D02*
X160190476Y-128192914D01*
X160190476Y-128192914D02*
X160095238Y-128240533D01*
X173704819Y-122416666D02*
X173228628Y-122749999D01*
X173704819Y-122988094D02*
X172704819Y-122988094D01*
X172704819Y-122988094D02*
X172704819Y-122607142D01*
X172704819Y-122607142D02*
X172752438Y-122511904D01*
X172752438Y-122511904D02*
X172800057Y-122464285D01*
X172800057Y-122464285D02*
X172895295Y-122416666D01*
X172895295Y-122416666D02*
X173038152Y-122416666D01*
X173038152Y-122416666D02*
X173133390Y-122464285D01*
X173133390Y-122464285D02*
X173181009Y-122511904D01*
X173181009Y-122511904D02*
X173228628Y-122607142D01*
X173228628Y-122607142D02*
X173228628Y-122988094D01*
X172704819Y-122083332D02*
X172704819Y-121464285D01*
X172704819Y-121464285D02*
X173085771Y-121797618D01*
X173085771Y-121797618D02*
X173085771Y-121654761D01*
X173085771Y-121654761D02*
X173133390Y-121559523D01*
X173133390Y-121559523D02*
X173181009Y-121511904D01*
X173181009Y-121511904D02*
X173276247Y-121464285D01*
X173276247Y-121464285D02*
X173514342Y-121464285D01*
X173514342Y-121464285D02*
X173609580Y-121511904D01*
X173609580Y-121511904D02*
X173657200Y-121559523D01*
X173657200Y-121559523D02*
X173704819Y-121654761D01*
X173704819Y-121654761D02*
X173704819Y-121940475D01*
X173704819Y-121940475D02*
X173657200Y-122035713D01*
X173657200Y-122035713D02*
X173609580Y-122083332D01*
X176204819Y-131642857D02*
X175728628Y-131976190D01*
X176204819Y-132214285D02*
X175204819Y-132214285D01*
X175204819Y-132214285D02*
X175204819Y-131833333D01*
X175204819Y-131833333D02*
X175252438Y-131738095D01*
X175252438Y-131738095D02*
X175300057Y-131690476D01*
X175300057Y-131690476D02*
X175395295Y-131642857D01*
X175395295Y-131642857D02*
X175538152Y-131642857D01*
X175538152Y-131642857D02*
X175633390Y-131690476D01*
X175633390Y-131690476D02*
X175681009Y-131738095D01*
X175681009Y-131738095D02*
X175728628Y-131833333D01*
X175728628Y-131833333D02*
X175728628Y-132214285D01*
X176204819Y-130690476D02*
X176204819Y-131261904D01*
X176204819Y-130976190D02*
X175204819Y-130976190D01*
X175204819Y-130976190D02*
X175347676Y-131071428D01*
X175347676Y-131071428D02*
X175442914Y-131166666D01*
X175442914Y-131166666D02*
X175490533Y-131261904D01*
X175204819Y-130357142D02*
X175204819Y-129738095D01*
X175204819Y-129738095D02*
X175585771Y-130071428D01*
X175585771Y-130071428D02*
X175585771Y-129928571D01*
X175585771Y-129928571D02*
X175633390Y-129833333D01*
X175633390Y-129833333D02*
X175681009Y-129785714D01*
X175681009Y-129785714D02*
X175776247Y-129738095D01*
X175776247Y-129738095D02*
X176014342Y-129738095D01*
X176014342Y-129738095D02*
X176109580Y-129785714D01*
X176109580Y-129785714D02*
X176157200Y-129833333D01*
X176157200Y-129833333D02*
X176204819Y-129928571D01*
X176204819Y-129928571D02*
X176204819Y-130214285D01*
X176204819Y-130214285D02*
X176157200Y-130309523D01*
X176157200Y-130309523D02*
X176109580Y-130357142D01*
D12*
%TO.C,R15*%
X142735000Y-136772936D02*
X142735000Y-137227064D01*
X141265000Y-136772936D02*
X141265000Y-137227064D01*
%TO.C,U3*%
X166250000Y-132690000D02*
X165450000Y-132690000D01*
X166250000Y-132690000D02*
X167050000Y-132690000D01*
X166250000Y-135810000D02*
X165450000Y-135810000D01*
X166250000Y-135810000D02*
X167050000Y-135810000D01*
X167790000Y-136090000D02*
X167310000Y-136090000D01*
X167550000Y-135760000D01*
X167790000Y-136090000D01*
G36*
X167790000Y-136090000D02*
G01*
X167310000Y-136090000D01*
X167550000Y-135760000D01*
X167790000Y-136090000D01*
G37*
%TO.C,C1*%
X182488748Y-120765000D02*
X183011252Y-120765000D01*
X182488748Y-122235000D02*
X183011252Y-122235000D01*
%TO.C,R6*%
X167772936Y-111315000D02*
X168227064Y-111315000D01*
X167772936Y-112785000D02*
X168227064Y-112785000D01*
%TO.C,TP2*%
X157700000Y-126000000D02*
G75*
G02*
X156300000Y-126000000I-700000J0D01*
G01*
X156300000Y-126000000D02*
G75*
G02*
X157700000Y-126000000I700000J0D01*
G01*
%TO.C,TP15*%
X135200000Y-118500000D02*
G75*
G02*
X133800000Y-118500000I-700000J0D01*
G01*
X133800000Y-118500000D02*
G75*
G02*
X135200000Y-118500000I700000J0D01*
G01*
%TO.C,R7*%
X183015000Y-118272936D02*
X183015000Y-118727064D01*
X184485000Y-118272936D02*
X184485000Y-118727064D01*
D13*
%TO.C,J1*%
X192200000Y-123450000D02*
X191970000Y-123450000D01*
X192200000Y-131050000D02*
X191970000Y-131050000D01*
X192200000Y-131050000D02*
X192200000Y-123450000D01*
D14*
X186800000Y-128550000D02*
G75*
G02*
X186600000Y-128550000I-100000J0D01*
G01*
X186600000Y-128550000D02*
G75*
G02*
X186800000Y-128550000I100000J0D01*
G01*
D12*
%TO.C,C3*%
X175015000Y-126011252D02*
X175015000Y-125488748D01*
X176485000Y-126011252D02*
X176485000Y-125488748D01*
%TO.C,TP19*%
X180950000Y-124250000D02*
G75*
G02*
X179550000Y-124250000I-700000J0D01*
G01*
X179550000Y-124250000D02*
G75*
G02*
X180950000Y-124250000I700000J0D01*
G01*
%TO.C,TP9*%
X157700000Y-119750000D02*
G75*
G02*
X156300000Y-119750000I-700000J0D01*
G01*
X156300000Y-119750000D02*
G75*
G02*
X157700000Y-119750000I700000J0D01*
G01*
%TO.C,TP8*%
X159950000Y-123000000D02*
G75*
G02*
X158550000Y-123000000I-700000J0D01*
G01*
X158550000Y-123000000D02*
G75*
G02*
X159950000Y-123000000I700000J0D01*
G01*
%TO.C,R9*%
X171522936Y-115065000D02*
X171977064Y-115065000D01*
X171522936Y-116535000D02*
X171977064Y-116535000D01*
D13*
%TO.C,J2*%
X172800000Y-138700000D02*
X178700000Y-138700000D01*
X172800000Y-143200000D02*
X172800000Y-138700000D01*
X178700000Y-138700000D02*
X178700000Y-143200000D01*
X178700000Y-143200000D02*
X172800000Y-143200000D01*
D14*
X176850000Y-143900000D02*
G75*
G02*
X176650000Y-143900000I-100000J0D01*
G01*
X176650000Y-143900000D02*
G75*
G02*
X176850000Y-143900000I100000J0D01*
G01*
D12*
%TO.C,C7*%
X141761252Y-139265000D02*
X141238748Y-139265000D01*
X141761252Y-140735000D02*
X141238748Y-140735000D01*
%TO.C,R14*%
X160227064Y-119265000D02*
X159772936Y-119265000D01*
X160227064Y-120735000D02*
X159772936Y-120735000D01*
D13*
%TO.C,SW2*%
X165400000Y-128130000D02*
X169600000Y-128130000D01*
X165400000Y-129250000D02*
X165400000Y-130250000D01*
X169600000Y-129250000D02*
X169600000Y-130250000D01*
X169600000Y-131370000D02*
X165400000Y-131370000D01*
D14*
X170700000Y-130850000D02*
G75*
G02*
X170500000Y-130850000I-100000J0D01*
G01*
X170500000Y-130850000D02*
G75*
G02*
X170700000Y-130850000I100000J0D01*
G01*
D12*
%TO.C,R10*%
X171515000Y-133977064D02*
X171515000Y-133522936D01*
X172985000Y-133977064D02*
X172985000Y-133522936D01*
%TO.C,C2*%
X173015000Y-126011252D02*
X173015000Y-125488748D01*
X174485000Y-126011252D02*
X174485000Y-125488748D01*
D15*
%TO.C,U5*%
X145050000Y-136350000D02*
G75*
G02*
X144950000Y-136350000I-50000J0D01*
G01*
X144950000Y-136350000D02*
G75*
G02*
X145050000Y-136350000I50000J0D01*
G01*
D13*
X150188500Y-140650000D02*
X150188500Y-139938500D01*
X150188500Y-136850000D02*
X150188500Y-137561500D01*
X144811500Y-140650000D02*
X144811500Y-139938500D01*
X144811500Y-136850000D02*
X144811500Y-137561500D01*
%TO.C,SW1*%
X165400000Y-120130000D02*
X169600000Y-120130000D01*
X165400000Y-121250000D02*
X165400000Y-122250000D01*
X169600000Y-121250000D02*
X169600000Y-122250000D01*
X169600000Y-123370000D02*
X165400000Y-123370000D01*
D14*
X170700000Y-122850000D02*
G75*
G02*
X170500000Y-122850000I-100000J0D01*
G01*
X170500000Y-122850000D02*
G75*
G02*
X170700000Y-122850000I100000J0D01*
G01*
D16*
%TO.C,D1*%
X179221300Y-133675200D02*
X179221300Y-136824800D01*
X181278700Y-136824800D02*
X181278700Y-133675200D01*
D12*
%TO.C,TP20*%
X157700000Y-141500000D02*
G75*
G02*
X156300000Y-141500000I-700000J0D01*
G01*
X156300000Y-141500000D02*
G75*
G02*
X157700000Y-141500000I700000J0D01*
G01*
%TO.C,R11*%
X174015000Y-135522936D02*
X174015000Y-135977064D01*
X175485000Y-135522936D02*
X175485000Y-135977064D01*
%TO.C,TP22*%
X184700000Y-130000000D02*
G75*
G02*
X183300000Y-130000000I-700000J0D01*
G01*
X183300000Y-130000000D02*
G75*
G02*
X184700000Y-130000000I700000J0D01*
G01*
%TO.C,TP4*%
X135200000Y-129750000D02*
G75*
G02*
X133800000Y-129750000I-700000J0D01*
G01*
X133800000Y-129750000D02*
G75*
G02*
X135200000Y-129750000I700000J0D01*
G01*
D13*
%TO.C,U2*%
X174750000Y-115000000D02*
X175249999Y-115000000D01*
X174750000Y-115499999D02*
X174750000Y-115000000D01*
X174750000Y-120000000D02*
X174750000Y-119500001D01*
X174750000Y-120000000D02*
X175249999Y-120000000D01*
X179250001Y-120000000D02*
X179750000Y-120000000D01*
X179750000Y-115000000D02*
X179250001Y-115000000D01*
X179750000Y-115000000D02*
X179750000Y-115499999D01*
X179750000Y-120000000D02*
X179750000Y-119500001D01*
D14*
X175850000Y-121000000D02*
G75*
G02*
X175650000Y-121000000I-100000J0D01*
G01*
X175650000Y-121000000D02*
G75*
G02*
X175850000Y-121000000I100000J0D01*
G01*
D12*
%TO.C,TP3*%
X157700000Y-123750000D02*
G75*
G02*
X156300000Y-123750000I-700000J0D01*
G01*
X156300000Y-123750000D02*
G75*
G02*
X157700000Y-123750000I700000J0D01*
G01*
%TO.C,TP12*%
X135200000Y-123000000D02*
G75*
G02*
X133800000Y-123000000I-700000J0D01*
G01*
X133800000Y-123000000D02*
G75*
G02*
X135200000Y-123000000I700000J0D01*
G01*
%TO.C,R1*%
X166977064Y-126015000D02*
X166522936Y-126015000D01*
X166977064Y-127485000D02*
X166522936Y-127485000D01*
D14*
%TO.C,D3*%
X178500000Y-130717600D02*
X178500000Y-130517600D01*
D15*
X178850000Y-130727600D02*
X179000000Y-130487600D01*
X179000000Y-130487600D02*
X179140000Y-130727600D01*
X179140000Y-130727600D02*
X178850000Y-130727600D01*
D14*
X179500000Y-130517600D02*
X179500000Y-130717600D01*
D12*
%TO.C,TP23*%
X137450000Y-136500000D02*
G75*
G02*
X136050000Y-136500000I-700000J0D01*
G01*
X136050000Y-136500000D02*
G75*
G02*
X137450000Y-136500000I700000J0D01*
G01*
%TO.C,R12*%
X159227064Y-113765000D02*
X158772936Y-113765000D01*
X159227064Y-115235000D02*
X158772936Y-115235000D01*
%TO.C,TP5*%
X135200000Y-132000000D02*
G75*
G02*
X133800000Y-132000000I-700000J0D01*
G01*
X133800000Y-132000000D02*
G75*
G02*
X135200000Y-132000000I700000J0D01*
G01*
%TO.C,TP16*%
X153200000Y-138000000D02*
G75*
G02*
X151800000Y-138000000I-700000J0D01*
G01*
X151800000Y-138000000D02*
G75*
G02*
X153200000Y-138000000I700000J0D01*
G01*
%TO.C,Q1*%
X172000000Y-111440000D02*
X171350000Y-111440000D01*
X172000000Y-111440000D02*
X172650000Y-111440000D01*
X172000000Y-114560000D02*
X171350000Y-114560000D01*
X172000000Y-114560000D02*
X172650000Y-114560000D01*
X173402500Y-114840000D02*
X172922500Y-114840000D01*
X173162500Y-114510000D01*
X173402500Y-114840000D01*
G36*
X173402500Y-114840000D02*
G01*
X172922500Y-114840000D01*
X173162500Y-114510000D01*
X173402500Y-114840000D01*
G37*
%TO.C,TP24*%
X164200000Y-120000000D02*
G75*
G02*
X162800000Y-120000000I-700000J0D01*
G01*
X162800000Y-120000000D02*
G75*
G02*
X164200000Y-120000000I700000J0D01*
G01*
%TO.C,R5*%
X169772936Y-118015000D02*
X170227064Y-118015000D01*
X169772936Y-119485000D02*
X170227064Y-119485000D01*
%TO.C,C6*%
X169015000Y-126261252D02*
X169015000Y-125738748D01*
X170485000Y-126261252D02*
X170485000Y-125738748D01*
%TO.C,Q2*%
X166440000Y-115000000D02*
X166440000Y-114350000D01*
X166440000Y-115000000D02*
X166440000Y-115650000D01*
X169560000Y-115000000D02*
X169560000Y-114350000D01*
X169560000Y-115000000D02*
X169560000Y-115650000D01*
X166490000Y-116162500D02*
X166160000Y-116402500D01*
X166160000Y-115922500D01*
X166490000Y-116162500D01*
G36*
X166490000Y-116162500D02*
G01*
X166160000Y-116402500D01*
X166160000Y-115922500D01*
X166490000Y-116162500D01*
G37*
%TO.C,TP25*%
X164200000Y-116250000D02*
G75*
G02*
X162800000Y-116250000I-700000J0D01*
G01*
X162800000Y-116250000D02*
G75*
G02*
X164200000Y-116250000I700000J0D01*
G01*
%TO.C,TP14*%
X135200000Y-116250000D02*
G75*
G02*
X133800000Y-116250000I-700000J0D01*
G01*
X133800000Y-116250000D02*
G75*
G02*
X135200000Y-116250000I700000J0D01*
G01*
%TO.C,TP17*%
X154700000Y-136500000D02*
G75*
G02*
X153300000Y-136500000I-700000J0D01*
G01*
X153300000Y-136500000D02*
G75*
G02*
X154700000Y-136500000I700000J0D01*
G01*
D14*
%TO.C,C5*%
X166500000Y-138100000D02*
X166500000Y-138400000D01*
X166500000Y-140900000D02*
X166500000Y-140600000D01*
X167350000Y-137250000D02*
X166500000Y-138100000D01*
X167350000Y-141750000D02*
X166500000Y-140900000D01*
X171000000Y-137250000D02*
X167350000Y-137250000D01*
X171000000Y-137250000D02*
X171000000Y-138400000D01*
X171000000Y-141750000D02*
X167350000Y-141750000D01*
X171000000Y-141750000D02*
X171000000Y-140600000D01*
D12*
%TO.C,TP11*%
X135200000Y-120750000D02*
G75*
G02*
X133800000Y-120750000I-700000J0D01*
G01*
X133800000Y-120750000D02*
G75*
G02*
X135200000Y-120750000I700000J0D01*
G01*
%TO.C,TP18*%
X180700000Y-139000000D02*
G75*
G02*
X179300000Y-139000000I-700000J0D01*
G01*
X179300000Y-139000000D02*
G75*
G02*
X180700000Y-139000000I700000J0D01*
G01*
%TO.C,C4*%
X169515000Y-135011252D02*
X169515000Y-134488748D01*
X170985000Y-135011252D02*
X170985000Y-134488748D01*
D14*
%TO.C,U1*%
X135790000Y-110600000D02*
G75*
G02*
X135590000Y-110600000I-100000J0D01*
G01*
X135590000Y-110600000D02*
G75*
G02*
X135790000Y-110600000I100000J0D01*
G01*
D13*
X154850000Y-109710000D02*
X154850000Y-103160000D01*
X154850000Y-103160000D02*
X136850000Y-103160000D01*
X136850000Y-134560000D02*
X154850000Y-134560000D01*
X136850000Y-103160000D02*
X136850000Y-109710000D01*
D12*
%TO.C,R2*%
X166977064Y-124015000D02*
X166522936Y-124015000D01*
X166977064Y-125485000D02*
X166522936Y-125485000D01*
D16*
%TO.C,U4*%
X175700600Y-134890400D02*
X175700600Y-135195200D01*
X175700600Y-135195200D02*
X175700600Y-135804800D01*
X175700600Y-135804800D02*
X175700600Y-136109600D01*
D15*
X175700600Y-135195200D02*
G75*
G02*
X175700600Y-135804800I0J-304800D01*
G01*
D12*
%TO.C,TP13*%
X135200000Y-125250000D02*
G75*
G02*
X133800000Y-125250000I-700000J0D01*
G01*
X133800000Y-125250000D02*
G75*
G02*
X135200000Y-125250000I700000J0D01*
G01*
%TO.C,TP6*%
X135200000Y-127500000D02*
G75*
G02*
X133800000Y-127500000I-700000J0D01*
G01*
X133800000Y-127500000D02*
G75*
G02*
X135200000Y-127500000I700000J0D01*
G01*
%TO.C,R8*%
X181015000Y-118727064D02*
X181015000Y-118272936D01*
X182485000Y-118727064D02*
X182485000Y-118272936D01*
%TO.C,TP21*%
X159200000Y-110500000D02*
G75*
G02*
X157800000Y-110500000I-700000J0D01*
G01*
X157800000Y-110500000D02*
G75*
G02*
X159200000Y-110500000I700000J0D01*
G01*
%TO.C,R4*%
X171015000Y-127977064D02*
X171015000Y-127522936D01*
X172485000Y-127977064D02*
X172485000Y-127522936D01*
%TO.C,TP7*%
X157700000Y-130750000D02*
G75*
G02*
X156300000Y-130750000I-700000J0D01*
G01*
X156300000Y-130750000D02*
G75*
G02*
X157700000Y-130750000I700000J0D01*
G01*
%TO.C,TP10*%
X157450000Y-112000000D02*
G75*
G02*
X156050000Y-112000000I-700000J0D01*
G01*
X156050000Y-112000000D02*
G75*
G02*
X157450000Y-112000000I700000J0D01*
G01*
%TO.C,TP1*%
X157700000Y-128500000D02*
G75*
G02*
X156300000Y-128500000I-700000J0D01*
G01*
X156300000Y-128500000D02*
G75*
G02*
X157700000Y-128500000I700000J0D01*
G01*
%TO.C,R3*%
X171015000Y-123522936D02*
X171015000Y-123977064D01*
X172485000Y-123522936D02*
X172485000Y-123977064D01*
%TO.C,R13*%
X176515000Y-130977064D02*
X176515000Y-130522936D01*
X177985000Y-130977064D02*
X177985000Y-130522936D01*
%TD*%
M02*
