%TF.GenerationSoftware,KiCad,Pcbnew,8.0.8-8.0.8-0~ubuntu24.04.1*%
%TF.CreationDate,2025-02-07T13:21:18-05:00*%
%TF.ProjectId,snowboard,736e6f77-626f-4617-9264-2e6b69636164,rev?*%
%TF.SameCoordinates,Original*%
%TF.FileFunction,Copper,L4,Bot*%
%TF.FilePolarity,Positive*%
%FSLAX46Y46*%
G04 Gerber Fmt 4.6, Leading zero omitted, Abs format (unit mm)*
G04 Created by KiCad (PCBNEW 8.0.8-8.0.8-0~ubuntu24.04.1) date 2025-02-07 13:21:18*
%MOMM*%
%LPD*%
G01*
G04 APERTURE LIST*
%TA.AperFunction,ComponentPad*%
%ADD10O,1.800000X0.900000*%
%TD*%
%TA.AperFunction,ComponentPad*%
%ADD11R,1.308000X1.308000*%
%TD*%
%TA.AperFunction,ComponentPad*%
%ADD12C,1.308000*%
%TD*%
%TA.AperFunction,ComponentPad*%
%ADD13C,0.300000*%
%TD*%
%TA.AperFunction,ViaPad*%
%ADD14C,0.600000*%
%TD*%
%TA.AperFunction,Conductor*%
%ADD15C,0.200000*%
%TD*%
G04 APERTURE END LIST*
D10*
%TO.P,J1,S5,SHIELD__4*%
%TO.N,unconnected-(J1-SHIELD__4-PadS5)*%
X190750000Y-130550000D03*
%TO.P,J1,S6,SHIELD__5*%
%TO.N,unconnected-(J1-SHIELD__5-PadS6)*%
X190750000Y-123950000D03*
%TD*%
D11*
%TO.P,J2,1,1*%
%TO.N,+BATT*%
X176750000Y-141500000D03*
D12*
%TO.P,J2,2,2*%
%TO.N,GND*%
X174750000Y-141500000D03*
%TD*%
D13*
%TO.P,U1,51*%
%TO.N,N/C*%
X145050000Y-119800000D03*
%TO.P,U1,50*%
X143650000Y-119800000D03*
%TO.P,U1,49*%
X145750000Y-119100000D03*
%TO.P,U1,48*%
X144350000Y-119100000D03*
%TO.P,U1,47*%
X142950000Y-119100000D03*
%TO.P,U1,46*%
X145050000Y-118400000D03*
%TO.P,U1,45*%
X143650000Y-118400000D03*
%TO.P,U1,44*%
X145750000Y-117700000D03*
%TO.P,U1,43*%
X144350000Y-117700000D03*
%TO.P,U1,42*%
X142950000Y-117700000D03*
%TO.P,U1,41*%
X145050000Y-117000000D03*
%TO.P,U1,40*%
X143650000Y-117000000D03*
%TD*%
D14*
%TO.N,GND*%
X144160122Y-137339878D03*
X144000000Y-140000000D03*
%TO.N,+3.3V*%
X140500000Y-136000000D03*
X147102040Y-141318205D03*
%TO.N,GND*%
X151000000Y-139000000D03*
X140250000Y-111750000D03*
X177250000Y-117500000D03*
X146750000Y-136000000D03*
X180750000Y-122750000D03*
X176500000Y-122250000D03*
X138000000Y-135500000D03*
X180000000Y-126000000D03*
X139500000Y-128500000D03*
X168750000Y-134250000D03*
X152750000Y-111500000D03*
%TO.N,VBUS*%
X178750000Y-133117600D03*
X179750000Y-120500000D03*
X168750000Y-135250000D03*
X177500000Y-128500000D03*
%TO.N,+3.3V*%
X138750000Y-111750000D03*
X158500000Y-116500000D03*
X158250000Y-139500000D03*
X158500000Y-121750000D03*
X158250000Y-135250000D03*
%TO.N,/D_N*%
X185500000Y-126650000D03*
X186750000Y-127900000D03*
%TO.N,/AEN*%
X139000000Y-113000000D03*
X169750000Y-113300000D03*
X164625000Y-125625000D03*
%TO.N,/IO0*%
X165500000Y-119750000D03*
X168000000Y-115500000D03*
%TO.N,/DTR*%
X168000000Y-116750000D03*
X172250000Y-119000000D03*
%TO.N,/I2C_SCL*%
X151250000Y-136750000D03*
X157905740Y-115917211D03*
%TO.N,/I2C_SDA*%
X151750000Y-135250000D03*
X157170000Y-121250000D03*
%TD*%
D15*
%TO.N,/D_N*%
X185500000Y-126650000D02*
X186750000Y-127900000D01*
%TO.N,/AEN*%
X162500000Y-113000000D02*
X161500000Y-113000000D01*
X164625000Y-116125000D02*
X161500000Y-113000000D01*
X164625000Y-125625000D02*
X164625000Y-116125000D01*
X161500000Y-113000000D02*
X139000000Y-113000000D01*
X169750000Y-113300000D02*
X169450000Y-113000000D01*
X169450000Y-113000000D02*
X162500000Y-113000000D01*
%TO.N,/IO0*%
X168000000Y-115500000D02*
X165500000Y-118000000D01*
X165500000Y-118000000D02*
X165500000Y-119750000D01*
%TO.N,/DTR*%
X168000000Y-116750000D02*
X170250000Y-119000000D01*
X170250000Y-119000000D02*
X172250000Y-119000000D01*
%TO.N,/I2C_SCL*%
X157750000Y-122018529D02*
X157770000Y-121998529D01*
X157770000Y-121998529D02*
X157770000Y-120341471D01*
X157750000Y-130250000D02*
X157750000Y-122018529D01*
X157770000Y-120341471D02*
X157750000Y-120321471D01*
X157750000Y-120321471D02*
X157750000Y-116072951D01*
X157750000Y-116072951D02*
X157905740Y-115917211D01*
X151250000Y-136750000D02*
X157750000Y-130250000D01*
%TO.N,/I2C_SDA*%
X157250000Y-129750000D02*
X157250000Y-121330000D01*
X157250000Y-121330000D02*
X157170000Y-121250000D01*
X151750000Y-135250000D02*
X157250000Y-129750000D01*
%TD*%
M02*
