%TF.GenerationSoftware,KiCad,Pcbnew,8.0.8-8.0.8-0~ubuntu24.04.1*%
%TF.CreationDate,2025-02-07T13:21:18-05:00*%
%TF.ProjectId,snowboard,736e6f77-626f-4617-9264-2e6b69636164,rev?*%
%TF.SameCoordinates,Original*%
%TF.FileFunction,Soldermask,Top*%
%TF.FilePolarity,Negative*%
%FSLAX46Y46*%
G04 Gerber Fmt 4.6, Leading zero omitted, Abs format (unit mm)*
G04 Created by KiCad (PCBNEW 8.0.8-8.0.8-0~ubuntu24.04.1) date 2025-02-07 13:21:18*
%MOMM*%
%LPD*%
G01*
G04 APERTURE LIST*
G04 Aperture macros list*
%AMRoundRect*
0 Rectangle with rounded corners*
0 $1 Rounding radius*
0 $2 $3 $4 $5 $6 $7 $8 $9 X,Y pos of 4 corners*
0 Add a 4 corners polygon primitive as box body*
4,1,4,$2,$3,$4,$5,$6,$7,$8,$9,$2,$3,0*
0 Add four circle primitives for the rounded corners*
1,1,$1+$1,$2,$3*
1,1,$1+$1,$4,$5*
1,1,$1+$1,$6,$7*
1,1,$1+$1,$8,$9*
0 Add four rect primitives between the rounded corners*
20,1,$1+$1,$2,$3,$4,$5,0*
20,1,$1+$1,$4,$5,$6,$7,0*
20,1,$1+$1,$6,$7,$8,$9,0*
20,1,$1+$1,$8,$9,$2,$3,0*%
G04 Aperture macros list end*
%ADD10C,0.010000*%
%ADD11RoundRect,0.250000X-0.450000X0.350000X-0.450000X-0.350000X0.450000X-0.350000X0.450000X0.350000X0*%
%ADD12RoundRect,0.150000X0.512500X0.150000X-0.512500X0.150000X-0.512500X-0.150000X0.512500X-0.150000X0*%
%ADD13RoundRect,0.250000X-0.250000X-0.475000X0.250000X-0.475000X0.250000X0.475000X-0.250000X0.475000X0*%
%ADD14RoundRect,0.250000X-0.350000X-0.450000X0.350000X-0.450000X0.350000X0.450000X-0.350000X0.450000X0*%
%ADD15C,1.000000*%
%ADD16RoundRect,0.102000X0.675000X-0.200000X0.675000X0.200000X-0.675000X0.200000X-0.675000X-0.200000X0*%
%ADD17RoundRect,0.102000X0.700000X-0.800000X0.700000X0.800000X-0.700000X0.800000X-0.700000X-0.800000X0*%
%ADD18RoundRect,0.102000X0.950000X-0.950000X0.950000X0.950000X-0.950000X0.950000X-0.950000X-0.950000X0*%
%ADD19O,2.004000X1.104000*%
%ADD20RoundRect,0.250000X0.475000X-0.250000X0.475000X0.250000X-0.475000X0.250000X-0.475000X-0.250000X0*%
%ADD21RoundRect,0.102000X-0.654000X-0.654000X0.654000X-0.654000X0.654000X0.654000X-0.654000X0.654000X0*%
%ADD22C,1.512000*%
%ADD23RoundRect,0.250000X0.337500X0.475000X-0.337500X0.475000X-0.337500X-0.475000X0.337500X-0.475000X0*%
%ADD24RoundRect,0.250000X0.350000X0.450000X-0.350000X0.450000X-0.350000X-0.450000X0.350000X-0.450000X0*%
%ADD25RoundRect,0.102000X0.525000X0.325000X-0.525000X0.325000X-0.525000X-0.325000X0.525000X-0.325000X0*%
%ADD26RoundRect,0.250000X0.450000X-0.350000X0.450000X0.350000X-0.450000X0.350000X-0.450000X-0.350000X0*%
%ADD27RoundRect,0.102000X-0.125000X-0.337500X0.125000X-0.337500X0.125000X0.337500X-0.125000X0.337500X0*%
%ADD28RoundRect,0.102000X-0.287500X-0.125000X0.287500X-0.125000X0.287500X0.125000X-0.287500X0.125000X0*%
%ADD29R,1.092200X1.143000*%
%ADD30RoundRect,0.102000X-0.400000X0.400000X-0.400000X-0.400000X0.400000X-0.400000X0.400000X0.400000X0*%
%ADD31RoundRect,0.150000X0.587500X0.150000X-0.587500X0.150000X-0.587500X-0.150000X0.587500X-0.150000X0*%
%ADD32RoundRect,0.150000X0.150000X-0.587500X0.150000X0.587500X-0.150000X0.587500X-0.150000X-0.587500X0*%
%ADD33RoundRect,0.102000X1.300000X0.800000X-1.300000X0.800000X-1.300000X-0.800000X1.300000X-0.800000X0*%
%ADD34RoundRect,0.102000X-0.450000X-0.450000X0.450000X-0.450000X0.450000X0.450000X-0.450000X0.450000X0*%
%ADD35RoundRect,0.102000X-0.750000X-0.450000X0.750000X-0.450000X0.750000X0.450000X-0.750000X0.450000X0*%
%ADD36RoundRect,0.102000X0.279400X-0.635000X0.279400X0.635000X-0.279400X0.635000X-0.279400X-0.635000X0*%
G04 APERTURE END LIST*
D10*
%TO.C,U2*%
X178985000Y-119235000D02*
X175797000Y-119235000D01*
X175515000Y-118953000D01*
X175515000Y-115765000D01*
X178985000Y-115765000D01*
X178985000Y-119235000D01*
G36*
X178985000Y-119235000D02*
G01*
X175797000Y-119235000D01*
X175515000Y-118953000D01*
X175515000Y-115765000D01*
X178985000Y-115765000D01*
X178985000Y-119235000D01*
G37*
X175197000Y-115791000D02*
X175208000Y-115793000D01*
X175219000Y-115795000D01*
X175229000Y-115797000D01*
X175240000Y-115800000D01*
X175250000Y-115803999D01*
X175260000Y-115808000D01*
X175270000Y-115812999D01*
X175280000Y-115818000D01*
X175289001Y-115824000D01*
X175298000Y-115830000D01*
X175307000Y-115837000D01*
X175316000Y-115844000D01*
X175323000Y-115852000D01*
X175331000Y-115859000D01*
X175338000Y-115868000D01*
X175345000Y-115877000D01*
X175351000Y-115886000D01*
X175356999Y-115895000D01*
X175362000Y-115905000D01*
X175367000Y-115915000D01*
X175371000Y-115925000D01*
X175375000Y-115935000D01*
X175378000Y-115946000D01*
X175380000Y-115956000D01*
X175382000Y-115967000D01*
X175384000Y-115978000D01*
X175385000Y-115989000D01*
X175385000Y-116000000D01*
X175385000Y-116011000D01*
X175384000Y-116022000D01*
X175382000Y-116033000D01*
X175380000Y-116044000D01*
X175378001Y-116054000D01*
X175375000Y-116065000D01*
X175371000Y-116075000D01*
X175367000Y-116085000D01*
X175361999Y-116095000D01*
X175357000Y-116105000D01*
X175351000Y-116114000D01*
X175345001Y-116123000D01*
X175338000Y-116132000D01*
X175331000Y-116141000D01*
X175323000Y-116148000D01*
X175316000Y-116156000D01*
X175307000Y-116163000D01*
X175298001Y-116170000D01*
X175289000Y-116176000D01*
X175280000Y-116182000D01*
X175270000Y-116187000D01*
X175260000Y-116192000D01*
X175250000Y-116196000D01*
X175240000Y-116200000D01*
X175229000Y-116203000D01*
X175219000Y-116205000D01*
X175208000Y-116207000D01*
X175197000Y-116209000D01*
X175186000Y-116210000D01*
X175175000Y-116210000D01*
X174315000Y-116210000D01*
X174315000Y-115790000D01*
X175175000Y-115790000D01*
X175186000Y-115790000D01*
X175197000Y-115791000D01*
G36*
X175197000Y-115791000D02*
G01*
X175208000Y-115793000D01*
X175219000Y-115795000D01*
X175229000Y-115797000D01*
X175240000Y-115800000D01*
X175250000Y-115803999D01*
X175260000Y-115808000D01*
X175270000Y-115812999D01*
X175280000Y-115818000D01*
X175289001Y-115824000D01*
X175298000Y-115830000D01*
X175307000Y-115837000D01*
X175316000Y-115844000D01*
X175323000Y-115852000D01*
X175331000Y-115859000D01*
X175338000Y-115868000D01*
X175345000Y-115877000D01*
X175351000Y-115886000D01*
X175356999Y-115895000D01*
X175362000Y-115905000D01*
X175367000Y-115915000D01*
X175371000Y-115925000D01*
X175375000Y-115935000D01*
X175378000Y-115946000D01*
X175380000Y-115956000D01*
X175382000Y-115967000D01*
X175384000Y-115978000D01*
X175385000Y-115989000D01*
X175385000Y-116000000D01*
X175385000Y-116011000D01*
X175384000Y-116022000D01*
X175382000Y-116033000D01*
X175380000Y-116044000D01*
X175378001Y-116054000D01*
X175375000Y-116065000D01*
X175371000Y-116075000D01*
X175367000Y-116085000D01*
X175361999Y-116095000D01*
X175357000Y-116105000D01*
X175351000Y-116114000D01*
X175345001Y-116123000D01*
X175338000Y-116132000D01*
X175331000Y-116141000D01*
X175323000Y-116148000D01*
X175316000Y-116156000D01*
X175307000Y-116163000D01*
X175298001Y-116170000D01*
X175289000Y-116176000D01*
X175280000Y-116182000D01*
X175270000Y-116187000D01*
X175260000Y-116192000D01*
X175250000Y-116196000D01*
X175240000Y-116200000D01*
X175229000Y-116203000D01*
X175219000Y-116205000D01*
X175208000Y-116207000D01*
X175197000Y-116209000D01*
X175186000Y-116210000D01*
X175175000Y-116210000D01*
X174315000Y-116210000D01*
X174315000Y-115790000D01*
X175175000Y-115790000D01*
X175186000Y-115790000D01*
X175197000Y-115791000D01*
G37*
X175197000Y-116291000D02*
X175208000Y-116293000D01*
X175219000Y-116295000D01*
X175229000Y-116297000D01*
X175240000Y-116299999D01*
X175250000Y-116304000D01*
X175260000Y-116308000D01*
X175270000Y-116313000D01*
X175280000Y-116318000D01*
X175289000Y-116324000D01*
X175298000Y-116330001D01*
X175307000Y-116337000D01*
X175316000Y-116344000D01*
X175323000Y-116352000D01*
X175331000Y-116359000D01*
X175338000Y-116368000D01*
X175345000Y-116377001D01*
X175351000Y-116386000D01*
X175357000Y-116395000D01*
X175361999Y-116405000D01*
X175367000Y-116415000D01*
X175371000Y-116425000D01*
X175375000Y-116435000D01*
X175378001Y-116446000D01*
X175380000Y-116456000D01*
X175382000Y-116467000D01*
X175384000Y-116478000D01*
X175385000Y-116489000D01*
X175385000Y-116500000D01*
X175385000Y-116511000D01*
X175384000Y-116522000D01*
X175382000Y-116533000D01*
X175380000Y-116544000D01*
X175378000Y-116554000D01*
X175375000Y-116565000D01*
X175371000Y-116575000D01*
X175367000Y-116585000D01*
X175362000Y-116595000D01*
X175356999Y-116605000D01*
X175351000Y-116614000D01*
X175345000Y-116623000D01*
X175338000Y-116632000D01*
X175331000Y-116641000D01*
X175323000Y-116648000D01*
X175316000Y-116655999D01*
X175307000Y-116663000D01*
X175298000Y-116670000D01*
X175289001Y-116676000D01*
X175280000Y-116682000D01*
X175270000Y-116687000D01*
X175260000Y-116692000D01*
X175250000Y-116696000D01*
X175240000Y-116700000D01*
X175229000Y-116703000D01*
X175219000Y-116705000D01*
X175208000Y-116707000D01*
X175197000Y-116709000D01*
X175186000Y-116710000D01*
X175175000Y-116710000D01*
X174315000Y-116710000D01*
X174315000Y-116290000D01*
X175175000Y-116290000D01*
X175186000Y-116290000D01*
X175197000Y-116291000D01*
G36*
X175197000Y-116291000D02*
G01*
X175208000Y-116293000D01*
X175219000Y-116295000D01*
X175229000Y-116297000D01*
X175240000Y-116299999D01*
X175250000Y-116304000D01*
X175260000Y-116308000D01*
X175270000Y-116313000D01*
X175280000Y-116318000D01*
X175289000Y-116324000D01*
X175298000Y-116330001D01*
X175307000Y-116337000D01*
X175316000Y-116344000D01*
X175323000Y-116352000D01*
X175331000Y-116359000D01*
X175338000Y-116368000D01*
X175345000Y-116377001D01*
X175351000Y-116386000D01*
X175357000Y-116395000D01*
X175361999Y-116405000D01*
X175367000Y-116415000D01*
X175371000Y-116425000D01*
X175375000Y-116435000D01*
X175378001Y-116446000D01*
X175380000Y-116456000D01*
X175382000Y-116467000D01*
X175384000Y-116478000D01*
X175385000Y-116489000D01*
X175385000Y-116500000D01*
X175385000Y-116511000D01*
X175384000Y-116522000D01*
X175382000Y-116533000D01*
X175380000Y-116544000D01*
X175378000Y-116554000D01*
X175375000Y-116565000D01*
X175371000Y-116575000D01*
X175367000Y-116585000D01*
X175362000Y-116595000D01*
X175356999Y-116605000D01*
X175351000Y-116614000D01*
X175345000Y-116623000D01*
X175338000Y-116632000D01*
X175331000Y-116641000D01*
X175323000Y-116648000D01*
X175316000Y-116655999D01*
X175307000Y-116663000D01*
X175298000Y-116670000D01*
X175289001Y-116676000D01*
X175280000Y-116682000D01*
X175270000Y-116687000D01*
X175260000Y-116692000D01*
X175250000Y-116696000D01*
X175240000Y-116700000D01*
X175229000Y-116703000D01*
X175219000Y-116705000D01*
X175208000Y-116707000D01*
X175197000Y-116709000D01*
X175186000Y-116710000D01*
X175175000Y-116710000D01*
X174315000Y-116710000D01*
X174315000Y-116290000D01*
X175175000Y-116290000D01*
X175186000Y-116290000D01*
X175197000Y-116291000D01*
G37*
X175197000Y-116791000D02*
X175207999Y-116793000D01*
X175219000Y-116795000D01*
X175229000Y-116797000D01*
X175240000Y-116800000D01*
X175250000Y-116804000D01*
X175260000Y-116808001D01*
X175270000Y-116813000D01*
X175280000Y-116818000D01*
X175289000Y-116824000D01*
X175298000Y-116830000D01*
X175307000Y-116837000D01*
X175316000Y-116843999D01*
X175323000Y-116852000D01*
X175331001Y-116859000D01*
X175338000Y-116868000D01*
X175345000Y-116877000D01*
X175351000Y-116886000D01*
X175356999Y-116895000D01*
X175362000Y-116905000D01*
X175366999Y-116915000D01*
X175371000Y-116925000D01*
X175375000Y-116935000D01*
X175378000Y-116946000D01*
X175380000Y-116956000D01*
X175382000Y-116967001D01*
X175384000Y-116978000D01*
X175385000Y-116989000D01*
X175385000Y-117000000D01*
X175385000Y-117011000D01*
X175384000Y-117022000D01*
X175382000Y-117033001D01*
X175380000Y-117044000D01*
X175378000Y-117053999D01*
X175375000Y-117065000D01*
X175371000Y-117075000D01*
X175367000Y-117085000D01*
X175362000Y-117095000D01*
X175357000Y-117105000D01*
X175351000Y-117114000D01*
X175345000Y-117123000D01*
X175338000Y-117132000D01*
X175331000Y-117141000D01*
X175323000Y-117148000D01*
X175316000Y-117156000D01*
X175307001Y-117163000D01*
X175298000Y-117170000D01*
X175289000Y-117176000D01*
X175280001Y-117182000D01*
X175270000Y-117187000D01*
X175260000Y-117192001D01*
X175250000Y-117196000D01*
X175239999Y-117200000D01*
X175229000Y-117203000D01*
X175219001Y-117205000D01*
X175208000Y-117207000D01*
X175197000Y-117209000D01*
X175186001Y-117210000D01*
X175174999Y-117210000D01*
X174315001Y-117210000D01*
X174315000Y-116790000D01*
X175175000Y-116790000D01*
X175186000Y-116790000D01*
X175197000Y-116791000D01*
G36*
X175197000Y-116791000D02*
G01*
X175207999Y-116793000D01*
X175219000Y-116795000D01*
X175229000Y-116797000D01*
X175240000Y-116800000D01*
X175250000Y-116804000D01*
X175260000Y-116808001D01*
X175270000Y-116813000D01*
X175280000Y-116818000D01*
X175289000Y-116824000D01*
X175298000Y-116830000D01*
X175307000Y-116837000D01*
X175316000Y-116843999D01*
X175323000Y-116852000D01*
X175331001Y-116859000D01*
X175338000Y-116868000D01*
X175345000Y-116877000D01*
X175351000Y-116886000D01*
X175356999Y-116895000D01*
X175362000Y-116905000D01*
X175366999Y-116915000D01*
X175371000Y-116925000D01*
X175375000Y-116935000D01*
X175378000Y-116946000D01*
X175380000Y-116956000D01*
X175382000Y-116967001D01*
X175384000Y-116978000D01*
X175385000Y-116989000D01*
X175385000Y-117000000D01*
X175385000Y-117011000D01*
X175384000Y-117022000D01*
X175382000Y-117033001D01*
X175380000Y-117044000D01*
X175378000Y-117053999D01*
X175375000Y-117065000D01*
X175371000Y-117075000D01*
X175367000Y-117085000D01*
X175362000Y-117095000D01*
X175357000Y-117105000D01*
X175351000Y-117114000D01*
X175345000Y-117123000D01*
X175338000Y-117132000D01*
X175331000Y-117141000D01*
X175323000Y-117148000D01*
X175316000Y-117156000D01*
X175307001Y-117163000D01*
X175298000Y-117170000D01*
X175289000Y-117176000D01*
X175280001Y-117182000D01*
X175270000Y-117187000D01*
X175260000Y-117192001D01*
X175250000Y-117196000D01*
X175239999Y-117200000D01*
X175229000Y-117203000D01*
X175219001Y-117205000D01*
X175208000Y-117207000D01*
X175197000Y-117209000D01*
X175186001Y-117210000D01*
X175174999Y-117210000D01*
X174315001Y-117210000D01*
X174315000Y-116790000D01*
X175175000Y-116790000D01*
X175186000Y-116790000D01*
X175197000Y-116791000D01*
G37*
X175197000Y-117291000D02*
X175208000Y-117293000D01*
X175219000Y-117295000D01*
X175229000Y-117297000D01*
X175240000Y-117300000D01*
X175250000Y-117304001D01*
X175260000Y-117308000D01*
X175270001Y-117313000D01*
X175280000Y-117318000D01*
X175289000Y-117324000D01*
X175298000Y-117330000D01*
X175307000Y-117337000D01*
X175316000Y-117344000D01*
X175323000Y-117352000D01*
X175331000Y-117359000D01*
X175338000Y-117368000D01*
X175345000Y-117376999D01*
X175351000Y-117386000D01*
X175357000Y-117395000D01*
X175362000Y-117404999D01*
X175367000Y-117415000D01*
X175370999Y-117425000D01*
X175375000Y-117435000D01*
X175378000Y-117446000D01*
X175380000Y-117456000D01*
X175382000Y-117467000D01*
X175384000Y-117478000D01*
X175385000Y-117489000D01*
X175385000Y-117500000D01*
X175385000Y-117511000D01*
X175384000Y-117522000D01*
X175382000Y-117533000D01*
X175380000Y-117544000D01*
X175378000Y-117554000D01*
X175375000Y-117565000D01*
X175370999Y-117575000D01*
X175367000Y-117585000D01*
X175362000Y-117595001D01*
X175357000Y-117605000D01*
X175351000Y-117614000D01*
X175345000Y-117623001D01*
X175338000Y-117632000D01*
X175331000Y-117641000D01*
X175323000Y-117648000D01*
X175316000Y-117656000D01*
X175307000Y-117663000D01*
X175298000Y-117670000D01*
X175289000Y-117676000D01*
X175280000Y-117682000D01*
X175270001Y-117687000D01*
X175260000Y-117692000D01*
X175250000Y-117695999D01*
X175240000Y-117700000D01*
X175229000Y-117703000D01*
X175219000Y-117705000D01*
X175208000Y-117707000D01*
X175197000Y-117709000D01*
X175186000Y-117710000D01*
X175175000Y-117710000D01*
X174315000Y-117710000D01*
X174315000Y-117290000D01*
X175175000Y-117290000D01*
X175186000Y-117290000D01*
X175197000Y-117291000D01*
G36*
X175197000Y-117291000D02*
G01*
X175208000Y-117293000D01*
X175219000Y-117295000D01*
X175229000Y-117297000D01*
X175240000Y-117300000D01*
X175250000Y-117304001D01*
X175260000Y-117308000D01*
X175270001Y-117313000D01*
X175280000Y-117318000D01*
X175289000Y-117324000D01*
X175298000Y-117330000D01*
X175307000Y-117337000D01*
X175316000Y-117344000D01*
X175323000Y-117352000D01*
X175331000Y-117359000D01*
X175338000Y-117368000D01*
X175345000Y-117376999D01*
X175351000Y-117386000D01*
X175357000Y-117395000D01*
X175362000Y-117404999D01*
X175367000Y-117415000D01*
X175370999Y-117425000D01*
X175375000Y-117435000D01*
X175378000Y-117446000D01*
X175380000Y-117456000D01*
X175382000Y-117467000D01*
X175384000Y-117478000D01*
X175385000Y-117489000D01*
X175385000Y-117500000D01*
X175385000Y-117511000D01*
X175384000Y-117522000D01*
X175382000Y-117533000D01*
X175380000Y-117544000D01*
X175378000Y-117554000D01*
X175375000Y-117565000D01*
X175370999Y-117575000D01*
X175367000Y-117585000D01*
X175362000Y-117595001D01*
X175357000Y-117605000D01*
X175351000Y-117614000D01*
X175345000Y-117623001D01*
X175338000Y-117632000D01*
X175331000Y-117641000D01*
X175323000Y-117648000D01*
X175316000Y-117656000D01*
X175307000Y-117663000D01*
X175298000Y-117670000D01*
X175289000Y-117676000D01*
X175280000Y-117682000D01*
X175270001Y-117687000D01*
X175260000Y-117692000D01*
X175250000Y-117695999D01*
X175240000Y-117700000D01*
X175229000Y-117703000D01*
X175219000Y-117705000D01*
X175208000Y-117707000D01*
X175197000Y-117709000D01*
X175186000Y-117710000D01*
X175175000Y-117710000D01*
X174315000Y-117710000D01*
X174315000Y-117290000D01*
X175175000Y-117290000D01*
X175186000Y-117290000D01*
X175197000Y-117291000D01*
G37*
X175197000Y-118291000D02*
X175208000Y-118293000D01*
X175219000Y-118295000D01*
X175229000Y-118297000D01*
X175240000Y-118300000D01*
X175250000Y-118304000D01*
X175260000Y-118308000D01*
X175270000Y-118313000D01*
X175280000Y-118318000D01*
X175289001Y-118324000D01*
X175298000Y-118330000D01*
X175307000Y-118337000D01*
X175316000Y-118344001D01*
X175323000Y-118352000D01*
X175331000Y-118359000D01*
X175338000Y-118368000D01*
X175345000Y-118377000D01*
X175351000Y-118386000D01*
X175356999Y-118395000D01*
X175362000Y-118405000D01*
X175367000Y-118415000D01*
X175371000Y-118425000D01*
X175375000Y-118435000D01*
X175378000Y-118446000D01*
X175380000Y-118456000D01*
X175382000Y-118467000D01*
X175384000Y-118478000D01*
X175385000Y-118489000D01*
X175385000Y-118500000D01*
X175385000Y-118511000D01*
X175384000Y-118522000D01*
X175382000Y-118533000D01*
X175380000Y-118544000D01*
X175378001Y-118554000D01*
X175375000Y-118565000D01*
X175371000Y-118575000D01*
X175367000Y-118585000D01*
X175361999Y-118595000D01*
X175357000Y-118605000D01*
X175351000Y-118614000D01*
X175345000Y-118622999D01*
X175338000Y-118632000D01*
X175331000Y-118641000D01*
X175323000Y-118648000D01*
X175316000Y-118656000D01*
X175307000Y-118663000D01*
X175298000Y-118669999D01*
X175289000Y-118676000D01*
X175280000Y-118682000D01*
X175270000Y-118687000D01*
X175260000Y-118692000D01*
X175250000Y-118696000D01*
X175240000Y-118700001D01*
X175229000Y-118703000D01*
X175219000Y-118705000D01*
X175208000Y-118707000D01*
X175197000Y-118709000D01*
X175186000Y-118710000D01*
X175175000Y-118710000D01*
X174315000Y-118710000D01*
X174315000Y-118290000D01*
X175175000Y-118290000D01*
X175186000Y-118290000D01*
X175197000Y-118291000D01*
G36*
X175197000Y-118291000D02*
G01*
X175208000Y-118293000D01*
X175219000Y-118295000D01*
X175229000Y-118297000D01*
X175240000Y-118300000D01*
X175250000Y-118304000D01*
X175260000Y-118308000D01*
X175270000Y-118313000D01*
X175280000Y-118318000D01*
X175289001Y-118324000D01*
X175298000Y-118330000D01*
X175307000Y-118337000D01*
X175316000Y-118344001D01*
X175323000Y-118352000D01*
X175331000Y-118359000D01*
X175338000Y-118368000D01*
X175345000Y-118377000D01*
X175351000Y-118386000D01*
X175356999Y-118395000D01*
X175362000Y-118405000D01*
X175367000Y-118415000D01*
X175371000Y-118425000D01*
X175375000Y-118435000D01*
X175378000Y-118446000D01*
X175380000Y-118456000D01*
X175382000Y-118467000D01*
X175384000Y-118478000D01*
X175385000Y-118489000D01*
X175385000Y-118500000D01*
X175385000Y-118511000D01*
X175384000Y-118522000D01*
X175382000Y-118533000D01*
X175380000Y-118544000D01*
X175378001Y-118554000D01*
X175375000Y-118565000D01*
X175371000Y-118575000D01*
X175367000Y-118585000D01*
X175361999Y-118595000D01*
X175357000Y-118605000D01*
X175351000Y-118614000D01*
X175345000Y-118622999D01*
X175338000Y-118632000D01*
X175331000Y-118641000D01*
X175323000Y-118648000D01*
X175316000Y-118656000D01*
X175307000Y-118663000D01*
X175298000Y-118669999D01*
X175289000Y-118676000D01*
X175280000Y-118682000D01*
X175270000Y-118687000D01*
X175260000Y-118692000D01*
X175250000Y-118696000D01*
X175240000Y-118700001D01*
X175229000Y-118703000D01*
X175219000Y-118705000D01*
X175208000Y-118707000D01*
X175197000Y-118709000D01*
X175186000Y-118710000D01*
X175175000Y-118710000D01*
X174315000Y-118710000D01*
X174315000Y-118290000D01*
X175175000Y-118290000D01*
X175186000Y-118290000D01*
X175197000Y-118291000D01*
G37*
X175197000Y-118791000D02*
X175208000Y-118793000D01*
X175219000Y-118795000D01*
X175229000Y-118797000D01*
X175240000Y-118800000D01*
X175250000Y-118804000D01*
X175260000Y-118808000D01*
X175270000Y-118813000D01*
X175280000Y-118818000D01*
X175289000Y-118824000D01*
X175298001Y-118830000D01*
X175307000Y-118837000D01*
X175316000Y-118844000D01*
X175323000Y-118852000D01*
X175331000Y-118859000D01*
X175338000Y-118868000D01*
X175345001Y-118877000D01*
X175351000Y-118886000D01*
X175357000Y-118895000D01*
X175361999Y-118905000D01*
X175367000Y-118915000D01*
X175371000Y-118925000D01*
X175375000Y-118935000D01*
X175378001Y-118946000D01*
X175380000Y-118956000D01*
X175382000Y-118967000D01*
X175384000Y-118978000D01*
X175385000Y-118989000D01*
X175385000Y-119000000D01*
X175385000Y-119011000D01*
X175384000Y-119022000D01*
X175382000Y-119033000D01*
X175380000Y-119044000D01*
X175378000Y-119054000D01*
X175375000Y-119065000D01*
X175371000Y-119075000D01*
X175367000Y-119085000D01*
X175362000Y-119095000D01*
X175356999Y-119105000D01*
X175351000Y-119114000D01*
X175345000Y-119123000D01*
X175338000Y-119132000D01*
X175331000Y-119141000D01*
X175323000Y-119148000D01*
X175316000Y-119156000D01*
X175307000Y-119163000D01*
X175298000Y-119170000D01*
X175289001Y-119176000D01*
X175280000Y-119182000D01*
X175270000Y-119187001D01*
X175260000Y-119192000D01*
X175250000Y-119196001D01*
X175240000Y-119200000D01*
X175229000Y-119203000D01*
X175219000Y-119205000D01*
X175208000Y-119207000D01*
X175197000Y-119209000D01*
X175186000Y-119210000D01*
X175175000Y-119210000D01*
X174315000Y-119210000D01*
X174315000Y-118790000D01*
X175175000Y-118790000D01*
X175186000Y-118790000D01*
X175197000Y-118791000D01*
G36*
X175197000Y-118791000D02*
G01*
X175208000Y-118793000D01*
X175219000Y-118795000D01*
X175229000Y-118797000D01*
X175240000Y-118800000D01*
X175250000Y-118804000D01*
X175260000Y-118808000D01*
X175270000Y-118813000D01*
X175280000Y-118818000D01*
X175289000Y-118824000D01*
X175298001Y-118830000D01*
X175307000Y-118837000D01*
X175316000Y-118844000D01*
X175323000Y-118852000D01*
X175331000Y-118859000D01*
X175338000Y-118868000D01*
X175345001Y-118877000D01*
X175351000Y-118886000D01*
X175357000Y-118895000D01*
X175361999Y-118905000D01*
X175367000Y-118915000D01*
X175371000Y-118925000D01*
X175375000Y-118935000D01*
X175378001Y-118946000D01*
X175380000Y-118956000D01*
X175382000Y-118967000D01*
X175384000Y-118978000D01*
X175385000Y-118989000D01*
X175385000Y-119000000D01*
X175385000Y-119011000D01*
X175384000Y-119022000D01*
X175382000Y-119033000D01*
X175380000Y-119044000D01*
X175378000Y-119054000D01*
X175375000Y-119065000D01*
X175371000Y-119075000D01*
X175367000Y-119085000D01*
X175362000Y-119095000D01*
X175356999Y-119105000D01*
X175351000Y-119114000D01*
X175345000Y-119123000D01*
X175338000Y-119132000D01*
X175331000Y-119141000D01*
X175323000Y-119148000D01*
X175316000Y-119156000D01*
X175307000Y-119163000D01*
X175298000Y-119170000D01*
X175289001Y-119176000D01*
X175280000Y-119182000D01*
X175270000Y-119187001D01*
X175260000Y-119192000D01*
X175250000Y-119196001D01*
X175240000Y-119200000D01*
X175229000Y-119203000D01*
X175219000Y-119205000D01*
X175208000Y-119207000D01*
X175197000Y-119209000D01*
X175186000Y-119210000D01*
X175175000Y-119210000D01*
X174315000Y-119210000D01*
X174315000Y-118790000D01*
X175175000Y-118790000D01*
X175186000Y-118790000D01*
X175197000Y-118791000D01*
G37*
X175197000Y-117791000D02*
X175208000Y-117793000D01*
X175219001Y-117795000D01*
X175229000Y-117797000D01*
X175239999Y-117800000D01*
X175250000Y-117804000D01*
X175260000Y-117807999D01*
X175270000Y-117813000D01*
X175280001Y-117818000D01*
X175289000Y-117824000D01*
X175298000Y-117830000D01*
X175307001Y-117837000D01*
X175316000Y-117844000D01*
X175323000Y-117852000D01*
X175331000Y-117859000D01*
X175338000Y-117868000D01*
X175345000Y-117877000D01*
X175351000Y-117886000D01*
X175357000Y-117895000D01*
X175362000Y-117905000D01*
X175367000Y-117915000D01*
X175371000Y-117925000D01*
X175375000Y-117935000D01*
X175378000Y-117946001D01*
X175380000Y-117956000D01*
X175382000Y-117966999D01*
X175384000Y-117978000D01*
X175385000Y-117989000D01*
X175385000Y-118000000D01*
X175385000Y-118011000D01*
X175384000Y-118022000D01*
X175382000Y-118032999D01*
X175380000Y-118044000D01*
X175378000Y-118054000D01*
X175375000Y-118065000D01*
X175371000Y-118075000D01*
X175366999Y-118085000D01*
X175362000Y-118095000D01*
X175356999Y-118105000D01*
X175351000Y-118114000D01*
X175345000Y-118123000D01*
X175338000Y-118132000D01*
X175331001Y-118141000D01*
X175323000Y-118148000D01*
X175316000Y-118156001D01*
X175307000Y-118163000D01*
X175298000Y-118170000D01*
X175289000Y-118176000D01*
X175280000Y-118182000D01*
X175270000Y-118187000D01*
X175260000Y-118191999D01*
X175250000Y-118196000D01*
X175240000Y-118200000D01*
X175229000Y-118203000D01*
X175219000Y-118205000D01*
X175207999Y-118207000D01*
X175197000Y-118209000D01*
X175186000Y-118210000D01*
X175175000Y-118210000D01*
X174315000Y-118210000D01*
X174315001Y-117790000D01*
X175174999Y-117790000D01*
X175186001Y-117790000D01*
X175197000Y-117791000D01*
G36*
X175197000Y-117791000D02*
G01*
X175208000Y-117793000D01*
X175219001Y-117795000D01*
X175229000Y-117797000D01*
X175239999Y-117800000D01*
X175250000Y-117804000D01*
X175260000Y-117807999D01*
X175270000Y-117813000D01*
X175280001Y-117818000D01*
X175289000Y-117824000D01*
X175298000Y-117830000D01*
X175307001Y-117837000D01*
X175316000Y-117844000D01*
X175323000Y-117852000D01*
X175331000Y-117859000D01*
X175338000Y-117868000D01*
X175345000Y-117877000D01*
X175351000Y-117886000D01*
X175357000Y-117895000D01*
X175362000Y-117905000D01*
X175367000Y-117915000D01*
X175371000Y-117925000D01*
X175375000Y-117935000D01*
X175378000Y-117946001D01*
X175380000Y-117956000D01*
X175382000Y-117966999D01*
X175384000Y-117978000D01*
X175385000Y-117989000D01*
X175385000Y-118000000D01*
X175385000Y-118011000D01*
X175384000Y-118022000D01*
X175382000Y-118032999D01*
X175380000Y-118044000D01*
X175378000Y-118054000D01*
X175375000Y-118065000D01*
X175371000Y-118075000D01*
X175366999Y-118085000D01*
X175362000Y-118095000D01*
X175356999Y-118105000D01*
X175351000Y-118114000D01*
X175345000Y-118123000D01*
X175338000Y-118132000D01*
X175331001Y-118141000D01*
X175323000Y-118148000D01*
X175316000Y-118156001D01*
X175307000Y-118163000D01*
X175298000Y-118170000D01*
X175289000Y-118176000D01*
X175280000Y-118182000D01*
X175270000Y-118187000D01*
X175260000Y-118191999D01*
X175250000Y-118196000D01*
X175240000Y-118200000D01*
X175229000Y-118203000D01*
X175219000Y-118205000D01*
X175207999Y-118207000D01*
X175197000Y-118209000D01*
X175186000Y-118210000D01*
X175175000Y-118210000D01*
X174315000Y-118210000D01*
X174315001Y-117790000D01*
X175174999Y-117790000D01*
X175186001Y-117790000D01*
X175197000Y-117791000D01*
G37*
X175772000Y-119366000D02*
X175783000Y-119368000D01*
X175794000Y-119370000D01*
X175804000Y-119371999D01*
X175815000Y-119375000D01*
X175825000Y-119379000D01*
X175835000Y-119383000D01*
X175845000Y-119388001D01*
X175855000Y-119393000D01*
X175864000Y-119399000D01*
X175873000Y-119404999D01*
X175882000Y-119412000D01*
X175891000Y-119419000D01*
X175898000Y-119427000D01*
X175906000Y-119434000D01*
X175913000Y-119443000D01*
X175920000Y-119451999D01*
X175926000Y-119461000D01*
X175932000Y-119470000D01*
X175937000Y-119480000D01*
X175942000Y-119490000D01*
X175946000Y-119500000D01*
X175950000Y-119510000D01*
X175953000Y-119521000D01*
X175955000Y-119531000D01*
X175957000Y-119542000D01*
X175959000Y-119553000D01*
X175960000Y-119564000D01*
X175960000Y-119575000D01*
X175960000Y-120435000D01*
X175540000Y-120435000D01*
X175540000Y-119575000D01*
X175540000Y-119564000D01*
X175541000Y-119553000D01*
X175543000Y-119542000D01*
X175545000Y-119531000D01*
X175547000Y-119521000D01*
X175550000Y-119510000D01*
X175553999Y-119500000D01*
X175558000Y-119490000D01*
X175562999Y-119480000D01*
X175568000Y-119470000D01*
X175574000Y-119460999D01*
X175580000Y-119452000D01*
X175587000Y-119443000D01*
X175594000Y-119434000D01*
X175602000Y-119427000D01*
X175609000Y-119419000D01*
X175618000Y-119412000D01*
X175627000Y-119405000D01*
X175636000Y-119399000D01*
X175645000Y-119393001D01*
X175655000Y-119388000D01*
X175665000Y-119383000D01*
X175675000Y-119379000D01*
X175685000Y-119375000D01*
X175696000Y-119372000D01*
X175706000Y-119370000D01*
X175717000Y-119368000D01*
X175728000Y-119366000D01*
X175739000Y-119365000D01*
X175750000Y-119365000D01*
X175761000Y-119365000D01*
X175772000Y-119366000D01*
G36*
X175772000Y-119366000D02*
G01*
X175783000Y-119368000D01*
X175794000Y-119370000D01*
X175804000Y-119371999D01*
X175815000Y-119375000D01*
X175825000Y-119379000D01*
X175835000Y-119383000D01*
X175845000Y-119388001D01*
X175855000Y-119393000D01*
X175864000Y-119399000D01*
X175873000Y-119404999D01*
X175882000Y-119412000D01*
X175891000Y-119419000D01*
X175898000Y-119427000D01*
X175906000Y-119434000D01*
X175913000Y-119443000D01*
X175920000Y-119451999D01*
X175926000Y-119461000D01*
X175932000Y-119470000D01*
X175937000Y-119480000D01*
X175942000Y-119490000D01*
X175946000Y-119500000D01*
X175950000Y-119510000D01*
X175953000Y-119521000D01*
X175955000Y-119531000D01*
X175957000Y-119542000D01*
X175959000Y-119553000D01*
X175960000Y-119564000D01*
X175960000Y-119575000D01*
X175960000Y-120435000D01*
X175540000Y-120435000D01*
X175540000Y-119575000D01*
X175540000Y-119564000D01*
X175541000Y-119553000D01*
X175543000Y-119542000D01*
X175545000Y-119531000D01*
X175547000Y-119521000D01*
X175550000Y-119510000D01*
X175553999Y-119500000D01*
X175558000Y-119490000D01*
X175562999Y-119480000D01*
X175568000Y-119470000D01*
X175574000Y-119460999D01*
X175580000Y-119452000D01*
X175587000Y-119443000D01*
X175594000Y-119434000D01*
X175602000Y-119427000D01*
X175609000Y-119419000D01*
X175618000Y-119412000D01*
X175627000Y-119405000D01*
X175636000Y-119399000D01*
X175645000Y-119393001D01*
X175655000Y-119388000D01*
X175665000Y-119383000D01*
X175675000Y-119379000D01*
X175685000Y-119375000D01*
X175696000Y-119372000D01*
X175706000Y-119370000D01*
X175717000Y-119368000D01*
X175728000Y-119366000D01*
X175739000Y-119365000D01*
X175750000Y-119365000D01*
X175761000Y-119365000D01*
X175772000Y-119366000D01*
G37*
X175960000Y-115425000D02*
X175960000Y-115436000D01*
X175959000Y-115447000D01*
X175957000Y-115458000D01*
X175955000Y-115469000D01*
X175953000Y-115479000D01*
X175950000Y-115490000D01*
X175946000Y-115500000D01*
X175942000Y-115510000D01*
X175937000Y-115520000D01*
X175932000Y-115530000D01*
X175926000Y-115539000D01*
X175920000Y-115548001D01*
X175913000Y-115557000D01*
X175906000Y-115566000D01*
X175898000Y-115573000D01*
X175891000Y-115581000D01*
X175882000Y-115588000D01*
X175873000Y-115595001D01*
X175864000Y-115601000D01*
X175855000Y-115607000D01*
X175845000Y-115611999D01*
X175835000Y-115617000D01*
X175825000Y-115621000D01*
X175815000Y-115625000D01*
X175804000Y-115628001D01*
X175794000Y-115630000D01*
X175783000Y-115632000D01*
X175772000Y-115634000D01*
X175761000Y-115635000D01*
X175750000Y-115635000D01*
X175739000Y-115635000D01*
X175728000Y-115634000D01*
X175717000Y-115632000D01*
X175706000Y-115630000D01*
X175696000Y-115628000D01*
X175685000Y-115625000D01*
X175675000Y-115621000D01*
X175665000Y-115617000D01*
X175655000Y-115612000D01*
X175645000Y-115606999D01*
X175636000Y-115601000D01*
X175627000Y-115595000D01*
X175618000Y-115588000D01*
X175609000Y-115581000D01*
X175602000Y-115573000D01*
X175594000Y-115566000D01*
X175587000Y-115557000D01*
X175580000Y-115548000D01*
X175574000Y-115539001D01*
X175568000Y-115530000D01*
X175562999Y-115520000D01*
X175558000Y-115510000D01*
X175553999Y-115500000D01*
X175550000Y-115490000D01*
X175547000Y-115479000D01*
X175545000Y-115469000D01*
X175543000Y-115458000D01*
X175541000Y-115447000D01*
X175540000Y-115436000D01*
X175540000Y-115425000D01*
X175540000Y-114565000D01*
X175960000Y-114565000D01*
X175960000Y-115425000D01*
G36*
X175960000Y-115425000D02*
G01*
X175960000Y-115436000D01*
X175959000Y-115447000D01*
X175957000Y-115458000D01*
X175955000Y-115469000D01*
X175953000Y-115479000D01*
X175950000Y-115490000D01*
X175946000Y-115500000D01*
X175942000Y-115510000D01*
X175937000Y-115520000D01*
X175932000Y-115530000D01*
X175926000Y-115539000D01*
X175920000Y-115548001D01*
X175913000Y-115557000D01*
X175906000Y-115566000D01*
X175898000Y-115573000D01*
X175891000Y-115581000D01*
X175882000Y-115588000D01*
X175873000Y-115595001D01*
X175864000Y-115601000D01*
X175855000Y-115607000D01*
X175845000Y-115611999D01*
X175835000Y-115617000D01*
X175825000Y-115621000D01*
X175815000Y-115625000D01*
X175804000Y-115628001D01*
X175794000Y-115630000D01*
X175783000Y-115632000D01*
X175772000Y-115634000D01*
X175761000Y-115635000D01*
X175750000Y-115635000D01*
X175739000Y-115635000D01*
X175728000Y-115634000D01*
X175717000Y-115632000D01*
X175706000Y-115630000D01*
X175696000Y-115628000D01*
X175685000Y-115625000D01*
X175675000Y-115621000D01*
X175665000Y-115617000D01*
X175655000Y-115612000D01*
X175645000Y-115606999D01*
X175636000Y-115601000D01*
X175627000Y-115595000D01*
X175618000Y-115588000D01*
X175609000Y-115581000D01*
X175602000Y-115573000D01*
X175594000Y-115566000D01*
X175587000Y-115557000D01*
X175580000Y-115548000D01*
X175574000Y-115539001D01*
X175568000Y-115530000D01*
X175562999Y-115520000D01*
X175558000Y-115510000D01*
X175553999Y-115500000D01*
X175550000Y-115490000D01*
X175547000Y-115479000D01*
X175545000Y-115469000D01*
X175543000Y-115458000D01*
X175541000Y-115447000D01*
X175540000Y-115436000D01*
X175540000Y-115425000D01*
X175540000Y-114565000D01*
X175960000Y-114565000D01*
X175960000Y-115425000D01*
G37*
X176272000Y-119366000D02*
X176283000Y-119368000D01*
X176294000Y-119370000D01*
X176304000Y-119372000D01*
X176315000Y-119375000D01*
X176325000Y-119379000D01*
X176335000Y-119383000D01*
X176345000Y-119388000D01*
X176355000Y-119393001D01*
X176364000Y-119399000D01*
X176373000Y-119405000D01*
X176382000Y-119412000D01*
X176391000Y-119419000D01*
X176398000Y-119427000D01*
X176405999Y-119434000D01*
X176413000Y-119443000D01*
X176420000Y-119452000D01*
X176426000Y-119460999D01*
X176432000Y-119470000D01*
X176437000Y-119480000D01*
X176442000Y-119490000D01*
X176446000Y-119500000D01*
X176450000Y-119510000D01*
X176453000Y-119521000D01*
X176455000Y-119531000D01*
X176457000Y-119542000D01*
X176459000Y-119553000D01*
X176460000Y-119564000D01*
X176460000Y-119575000D01*
X176460000Y-120435000D01*
X176040000Y-120435000D01*
X176040000Y-119575000D01*
X176040000Y-119564000D01*
X176041000Y-119553000D01*
X176043000Y-119542000D01*
X176045000Y-119531000D01*
X176047000Y-119521000D01*
X176049999Y-119510000D01*
X176054000Y-119500000D01*
X176058000Y-119490000D01*
X176063000Y-119480000D01*
X176068000Y-119470000D01*
X176074000Y-119461000D01*
X176080001Y-119452000D01*
X176087000Y-119443000D01*
X176094000Y-119434000D01*
X176102000Y-119427000D01*
X176109000Y-119419000D01*
X176118000Y-119412000D01*
X176127001Y-119405000D01*
X176136000Y-119399000D01*
X176145000Y-119393000D01*
X176155000Y-119388001D01*
X176165000Y-119383000D01*
X176175000Y-119379000D01*
X176185000Y-119375000D01*
X176196000Y-119371999D01*
X176206000Y-119370000D01*
X176217000Y-119368000D01*
X176228000Y-119366000D01*
X176239000Y-119365000D01*
X176250000Y-119365000D01*
X176261000Y-119365000D01*
X176272000Y-119366000D01*
G36*
X176272000Y-119366000D02*
G01*
X176283000Y-119368000D01*
X176294000Y-119370000D01*
X176304000Y-119372000D01*
X176315000Y-119375000D01*
X176325000Y-119379000D01*
X176335000Y-119383000D01*
X176345000Y-119388000D01*
X176355000Y-119393001D01*
X176364000Y-119399000D01*
X176373000Y-119405000D01*
X176382000Y-119412000D01*
X176391000Y-119419000D01*
X176398000Y-119427000D01*
X176405999Y-119434000D01*
X176413000Y-119443000D01*
X176420000Y-119452000D01*
X176426000Y-119460999D01*
X176432000Y-119470000D01*
X176437000Y-119480000D01*
X176442000Y-119490000D01*
X176446000Y-119500000D01*
X176450000Y-119510000D01*
X176453000Y-119521000D01*
X176455000Y-119531000D01*
X176457000Y-119542000D01*
X176459000Y-119553000D01*
X176460000Y-119564000D01*
X176460000Y-119575000D01*
X176460000Y-120435000D01*
X176040000Y-120435000D01*
X176040000Y-119575000D01*
X176040000Y-119564000D01*
X176041000Y-119553000D01*
X176043000Y-119542000D01*
X176045000Y-119531000D01*
X176047000Y-119521000D01*
X176049999Y-119510000D01*
X176054000Y-119500000D01*
X176058000Y-119490000D01*
X176063000Y-119480000D01*
X176068000Y-119470000D01*
X176074000Y-119461000D01*
X176080001Y-119452000D01*
X176087000Y-119443000D01*
X176094000Y-119434000D01*
X176102000Y-119427000D01*
X176109000Y-119419000D01*
X176118000Y-119412000D01*
X176127001Y-119405000D01*
X176136000Y-119399000D01*
X176145000Y-119393000D01*
X176155000Y-119388001D01*
X176165000Y-119383000D01*
X176175000Y-119379000D01*
X176185000Y-119375000D01*
X176196000Y-119371999D01*
X176206000Y-119370000D01*
X176217000Y-119368000D01*
X176228000Y-119366000D01*
X176239000Y-119365000D01*
X176250000Y-119365000D01*
X176261000Y-119365000D01*
X176272000Y-119366000D01*
G37*
X176460000Y-115425000D02*
X176460000Y-115436000D01*
X176459000Y-115447000D01*
X176457000Y-115458000D01*
X176455000Y-115469000D01*
X176453000Y-115479000D01*
X176450000Y-115490000D01*
X176446000Y-115500000D01*
X176442000Y-115510000D01*
X176437000Y-115520000D01*
X176432000Y-115530000D01*
X176426000Y-115539001D01*
X176420000Y-115548000D01*
X176413000Y-115557000D01*
X176405999Y-115566000D01*
X176398000Y-115573000D01*
X176391000Y-115581000D01*
X176382000Y-115588000D01*
X176373000Y-115595000D01*
X176364000Y-115601000D01*
X176355000Y-115606999D01*
X176345000Y-115612000D01*
X176335000Y-115617000D01*
X176325000Y-115621000D01*
X176315000Y-115625000D01*
X176304000Y-115628000D01*
X176294000Y-115630000D01*
X176283000Y-115632000D01*
X176272000Y-115634000D01*
X176261000Y-115635000D01*
X176250000Y-115635000D01*
X176239000Y-115635000D01*
X176228000Y-115634000D01*
X176217000Y-115632000D01*
X176206000Y-115630000D01*
X176196000Y-115628001D01*
X176185000Y-115625000D01*
X176175000Y-115621000D01*
X176165000Y-115617000D01*
X176155000Y-115611999D01*
X176145000Y-115607000D01*
X176136000Y-115601000D01*
X176127001Y-115595000D01*
X176118000Y-115588000D01*
X176109000Y-115581000D01*
X176102000Y-115573000D01*
X176094000Y-115566000D01*
X176087000Y-115557000D01*
X176080001Y-115548000D01*
X176074000Y-115539000D01*
X176068000Y-115530000D01*
X176063000Y-115520000D01*
X176058000Y-115510000D01*
X176054000Y-115500000D01*
X176049999Y-115490000D01*
X176047000Y-115479000D01*
X176045000Y-115469000D01*
X176043000Y-115458000D01*
X176041000Y-115447000D01*
X176040000Y-115436000D01*
X176040000Y-115425000D01*
X176040000Y-114565000D01*
X176460000Y-114565000D01*
X176460000Y-115425000D01*
G36*
X176460000Y-115425000D02*
G01*
X176460000Y-115436000D01*
X176459000Y-115447000D01*
X176457000Y-115458000D01*
X176455000Y-115469000D01*
X176453000Y-115479000D01*
X176450000Y-115490000D01*
X176446000Y-115500000D01*
X176442000Y-115510000D01*
X176437000Y-115520000D01*
X176432000Y-115530000D01*
X176426000Y-115539001D01*
X176420000Y-115548000D01*
X176413000Y-115557000D01*
X176405999Y-115566000D01*
X176398000Y-115573000D01*
X176391000Y-115581000D01*
X176382000Y-115588000D01*
X176373000Y-115595000D01*
X176364000Y-115601000D01*
X176355000Y-115606999D01*
X176345000Y-115612000D01*
X176335000Y-115617000D01*
X176325000Y-115621000D01*
X176315000Y-115625000D01*
X176304000Y-115628000D01*
X176294000Y-115630000D01*
X176283000Y-115632000D01*
X176272000Y-115634000D01*
X176261000Y-115635000D01*
X176250000Y-115635000D01*
X176239000Y-115635000D01*
X176228000Y-115634000D01*
X176217000Y-115632000D01*
X176206000Y-115630000D01*
X176196000Y-115628001D01*
X176185000Y-115625000D01*
X176175000Y-115621000D01*
X176165000Y-115617000D01*
X176155000Y-115611999D01*
X176145000Y-115607000D01*
X176136000Y-115601000D01*
X176127001Y-115595000D01*
X176118000Y-115588000D01*
X176109000Y-115581000D01*
X176102000Y-115573000D01*
X176094000Y-115566000D01*
X176087000Y-115557000D01*
X176080001Y-115548000D01*
X176074000Y-115539000D01*
X176068000Y-115530000D01*
X176063000Y-115520000D01*
X176058000Y-115510000D01*
X176054000Y-115500000D01*
X176049999Y-115490000D01*
X176047000Y-115479000D01*
X176045000Y-115469000D01*
X176043000Y-115458000D01*
X176041000Y-115447000D01*
X176040000Y-115436000D01*
X176040000Y-115425000D01*
X176040000Y-114565000D01*
X176460000Y-114565000D01*
X176460000Y-115425000D01*
G37*
X176772000Y-119366000D02*
X176783001Y-119368000D01*
X176794000Y-119370000D01*
X176803999Y-119372000D01*
X176815000Y-119375000D01*
X176825000Y-119379000D01*
X176835000Y-119383000D01*
X176845000Y-119388000D01*
X176855000Y-119393000D01*
X176864000Y-119399000D01*
X176873000Y-119405000D01*
X176882000Y-119412000D01*
X176891000Y-119419000D01*
X176898000Y-119427000D01*
X176906000Y-119434000D01*
X176913000Y-119442999D01*
X176920000Y-119452000D01*
X176926000Y-119461000D01*
X176932000Y-119469999D01*
X176937000Y-119480000D01*
X176942001Y-119490000D01*
X176946000Y-119500000D01*
X176950000Y-119510001D01*
X176953000Y-119521000D01*
X176955000Y-119530999D01*
X176957000Y-119542000D01*
X176959000Y-119553000D01*
X176960000Y-119563999D01*
X176960000Y-119575001D01*
X176960000Y-120434999D01*
X176540000Y-120435000D01*
X176540000Y-119575000D01*
X176540000Y-119564000D01*
X176541000Y-119553000D01*
X176543000Y-119542001D01*
X176545000Y-119531000D01*
X176547000Y-119521000D01*
X176550000Y-119510000D01*
X176554000Y-119500000D01*
X176558001Y-119490000D01*
X176563000Y-119480000D01*
X176568000Y-119470000D01*
X176574000Y-119461000D01*
X176580000Y-119452000D01*
X176587000Y-119443000D01*
X176593999Y-119434000D01*
X176602000Y-119427000D01*
X176609000Y-119418999D01*
X176618000Y-119412000D01*
X176627000Y-119405000D01*
X176636000Y-119399000D01*
X176645000Y-119393001D01*
X176655000Y-119388000D01*
X176665000Y-119383001D01*
X176675000Y-119379000D01*
X176685000Y-119375000D01*
X176696000Y-119372000D01*
X176706000Y-119370000D01*
X176717001Y-119368000D01*
X176728000Y-119366000D01*
X176739000Y-119365000D01*
X176750000Y-119365000D01*
X176761000Y-119365000D01*
X176772000Y-119366000D01*
G36*
X176772000Y-119366000D02*
G01*
X176783001Y-119368000D01*
X176794000Y-119370000D01*
X176803999Y-119372000D01*
X176815000Y-119375000D01*
X176825000Y-119379000D01*
X176835000Y-119383000D01*
X176845000Y-119388000D01*
X176855000Y-119393000D01*
X176864000Y-119399000D01*
X176873000Y-119405000D01*
X176882000Y-119412000D01*
X176891000Y-119419000D01*
X176898000Y-119427000D01*
X176906000Y-119434000D01*
X176913000Y-119442999D01*
X176920000Y-119452000D01*
X176926000Y-119461000D01*
X176932000Y-119469999D01*
X176937000Y-119480000D01*
X176942001Y-119490000D01*
X176946000Y-119500000D01*
X176950000Y-119510001D01*
X176953000Y-119521000D01*
X176955000Y-119530999D01*
X176957000Y-119542000D01*
X176959000Y-119553000D01*
X176960000Y-119563999D01*
X176960000Y-119575001D01*
X176960000Y-120434999D01*
X176540000Y-120435000D01*
X176540000Y-119575000D01*
X176540000Y-119564000D01*
X176541000Y-119553000D01*
X176543000Y-119542001D01*
X176545000Y-119531000D01*
X176547000Y-119521000D01*
X176550000Y-119510000D01*
X176554000Y-119500000D01*
X176558001Y-119490000D01*
X176563000Y-119480000D01*
X176568000Y-119470000D01*
X176574000Y-119461000D01*
X176580000Y-119452000D01*
X176587000Y-119443000D01*
X176593999Y-119434000D01*
X176602000Y-119427000D01*
X176609000Y-119418999D01*
X176618000Y-119412000D01*
X176627000Y-119405000D01*
X176636000Y-119399000D01*
X176645000Y-119393001D01*
X176655000Y-119388000D01*
X176665000Y-119383001D01*
X176675000Y-119379000D01*
X176685000Y-119375000D01*
X176696000Y-119372000D01*
X176706000Y-119370000D01*
X176717001Y-119368000D01*
X176728000Y-119366000D01*
X176739000Y-119365000D01*
X176750000Y-119365000D01*
X176761000Y-119365000D01*
X176772000Y-119366000D01*
G37*
X176960000Y-114565001D02*
X176960000Y-115424999D01*
X176960000Y-115436001D01*
X176959000Y-115447000D01*
X176957000Y-115458000D01*
X176955000Y-115469001D01*
X176953000Y-115479000D01*
X176950000Y-115489999D01*
X176946000Y-115500000D01*
X176942001Y-115510000D01*
X176937000Y-115520000D01*
X176932000Y-115530001D01*
X176926000Y-115539000D01*
X176920000Y-115548000D01*
X176913000Y-115557001D01*
X176906000Y-115566000D01*
X176898000Y-115573000D01*
X176891000Y-115581000D01*
X176882000Y-115588000D01*
X176873000Y-115595000D01*
X176864000Y-115601000D01*
X176855000Y-115607000D01*
X176845000Y-115612000D01*
X176835000Y-115617000D01*
X176825000Y-115621000D01*
X176815000Y-115625000D01*
X176803999Y-115628000D01*
X176794000Y-115630000D01*
X176783001Y-115632000D01*
X176772000Y-115634000D01*
X176761000Y-115635000D01*
X176750000Y-115635000D01*
X176739000Y-115635000D01*
X176728000Y-115634000D01*
X176717001Y-115632000D01*
X176706000Y-115630000D01*
X176696000Y-115628000D01*
X176685000Y-115625000D01*
X176675000Y-115621000D01*
X176665000Y-115616999D01*
X176655000Y-115612000D01*
X176645000Y-115606999D01*
X176636000Y-115601000D01*
X176627000Y-115595000D01*
X176618000Y-115588000D01*
X176609000Y-115581001D01*
X176602000Y-115573000D01*
X176593999Y-115566000D01*
X176587000Y-115557000D01*
X176580000Y-115548000D01*
X176574000Y-115539000D01*
X176568000Y-115530000D01*
X176563000Y-115520000D01*
X176558001Y-115510000D01*
X176554000Y-115500000D01*
X176550000Y-115490000D01*
X176547000Y-115479000D01*
X176545000Y-115469000D01*
X176543000Y-115457999D01*
X176541000Y-115447000D01*
X176540000Y-115436000D01*
X176540000Y-115425000D01*
X176540000Y-114565000D01*
X176960000Y-114565001D01*
G36*
X176960000Y-114565001D02*
G01*
X176960000Y-115424999D01*
X176960000Y-115436001D01*
X176959000Y-115447000D01*
X176957000Y-115458000D01*
X176955000Y-115469001D01*
X176953000Y-115479000D01*
X176950000Y-115489999D01*
X176946000Y-115500000D01*
X176942001Y-115510000D01*
X176937000Y-115520000D01*
X176932000Y-115530001D01*
X176926000Y-115539000D01*
X176920000Y-115548000D01*
X176913000Y-115557001D01*
X176906000Y-115566000D01*
X176898000Y-115573000D01*
X176891000Y-115581000D01*
X176882000Y-115588000D01*
X176873000Y-115595000D01*
X176864000Y-115601000D01*
X176855000Y-115607000D01*
X176845000Y-115612000D01*
X176835000Y-115617000D01*
X176825000Y-115621000D01*
X176815000Y-115625000D01*
X176803999Y-115628000D01*
X176794000Y-115630000D01*
X176783001Y-115632000D01*
X176772000Y-115634000D01*
X176761000Y-115635000D01*
X176750000Y-115635000D01*
X176739000Y-115635000D01*
X176728000Y-115634000D01*
X176717001Y-115632000D01*
X176706000Y-115630000D01*
X176696000Y-115628000D01*
X176685000Y-115625000D01*
X176675000Y-115621000D01*
X176665000Y-115616999D01*
X176655000Y-115612000D01*
X176645000Y-115606999D01*
X176636000Y-115601000D01*
X176627000Y-115595000D01*
X176618000Y-115588000D01*
X176609000Y-115581001D01*
X176602000Y-115573000D01*
X176593999Y-115566000D01*
X176587000Y-115557000D01*
X176580000Y-115548000D01*
X176574000Y-115539000D01*
X176568000Y-115530000D01*
X176563000Y-115520000D01*
X176558001Y-115510000D01*
X176554000Y-115500000D01*
X176550000Y-115490000D01*
X176547000Y-115479000D01*
X176545000Y-115469000D01*
X176543000Y-115457999D01*
X176541000Y-115447000D01*
X176540000Y-115436000D01*
X176540000Y-115425000D01*
X176540000Y-114565000D01*
X176960000Y-114565001D01*
G37*
X177272000Y-119366000D02*
X177283000Y-119368000D01*
X177294000Y-119370000D01*
X177304000Y-119372000D01*
X177315000Y-119375000D01*
X177325000Y-119379001D01*
X177335000Y-119383000D01*
X177345001Y-119388000D01*
X177355000Y-119393000D01*
X177364000Y-119399000D01*
X177373001Y-119405000D01*
X177382000Y-119412000D01*
X177391000Y-119419000D01*
X177398000Y-119427000D01*
X177406000Y-119434000D01*
X177413000Y-119443000D01*
X177420000Y-119452000D01*
X177426000Y-119461000D01*
X177432000Y-119470000D01*
X177437000Y-119479999D01*
X177442000Y-119490000D01*
X177445999Y-119500000D01*
X177450000Y-119510000D01*
X177453000Y-119521000D01*
X177455000Y-119531000D01*
X177457000Y-119542000D01*
X177459000Y-119553000D01*
X177460000Y-119564000D01*
X177460000Y-119575000D01*
X177460000Y-120435000D01*
X177040000Y-120435000D01*
X177040000Y-119575000D01*
X177040000Y-119564000D01*
X177041000Y-119553000D01*
X177043000Y-119542000D01*
X177045000Y-119531000D01*
X177047000Y-119521000D01*
X177050000Y-119510000D01*
X177054001Y-119500000D01*
X177058000Y-119490000D01*
X177063000Y-119479999D01*
X177068000Y-119470000D01*
X177074000Y-119461000D01*
X177080000Y-119452000D01*
X177087000Y-119443000D01*
X177094000Y-119434000D01*
X177102000Y-119427000D01*
X177109000Y-119419000D01*
X177118000Y-119412000D01*
X177126999Y-119405000D01*
X177136000Y-119399000D01*
X177145000Y-119393000D01*
X177154999Y-119388000D01*
X177165000Y-119383000D01*
X177175000Y-119379001D01*
X177185000Y-119375000D01*
X177196000Y-119372000D01*
X177206000Y-119370000D01*
X177217000Y-119368000D01*
X177228000Y-119366000D01*
X177239000Y-119365000D01*
X177250000Y-119365000D01*
X177261000Y-119365000D01*
X177272000Y-119366000D01*
G36*
X177272000Y-119366000D02*
G01*
X177283000Y-119368000D01*
X177294000Y-119370000D01*
X177304000Y-119372000D01*
X177315000Y-119375000D01*
X177325000Y-119379001D01*
X177335000Y-119383000D01*
X177345001Y-119388000D01*
X177355000Y-119393000D01*
X177364000Y-119399000D01*
X177373001Y-119405000D01*
X177382000Y-119412000D01*
X177391000Y-119419000D01*
X177398000Y-119427000D01*
X177406000Y-119434000D01*
X177413000Y-119443000D01*
X177420000Y-119452000D01*
X177426000Y-119461000D01*
X177432000Y-119470000D01*
X177437000Y-119479999D01*
X177442000Y-119490000D01*
X177445999Y-119500000D01*
X177450000Y-119510000D01*
X177453000Y-119521000D01*
X177455000Y-119531000D01*
X177457000Y-119542000D01*
X177459000Y-119553000D01*
X177460000Y-119564000D01*
X177460000Y-119575000D01*
X177460000Y-120435000D01*
X177040000Y-120435000D01*
X177040000Y-119575000D01*
X177040000Y-119564000D01*
X177041000Y-119553000D01*
X177043000Y-119542000D01*
X177045000Y-119531000D01*
X177047000Y-119521000D01*
X177050000Y-119510000D01*
X177054001Y-119500000D01*
X177058000Y-119490000D01*
X177063000Y-119479999D01*
X177068000Y-119470000D01*
X177074000Y-119461000D01*
X177080000Y-119452000D01*
X177087000Y-119443000D01*
X177094000Y-119434000D01*
X177102000Y-119427000D01*
X177109000Y-119419000D01*
X177118000Y-119412000D01*
X177126999Y-119405000D01*
X177136000Y-119399000D01*
X177145000Y-119393000D01*
X177154999Y-119388000D01*
X177165000Y-119383000D01*
X177175000Y-119379001D01*
X177185000Y-119375000D01*
X177196000Y-119372000D01*
X177206000Y-119370000D01*
X177217000Y-119368000D01*
X177228000Y-119366000D01*
X177239000Y-119365000D01*
X177250000Y-119365000D01*
X177261000Y-119365000D01*
X177272000Y-119366000D01*
G37*
X177460000Y-115425000D02*
X177460000Y-115436000D01*
X177459000Y-115447000D01*
X177457000Y-115458000D01*
X177455000Y-115469000D01*
X177453000Y-115479000D01*
X177450000Y-115490000D01*
X177445999Y-115500000D01*
X177442000Y-115510000D01*
X177437000Y-115520001D01*
X177432000Y-115530000D01*
X177426000Y-115539000D01*
X177420000Y-115548000D01*
X177413000Y-115557000D01*
X177406000Y-115566000D01*
X177398000Y-115573000D01*
X177391000Y-115581000D01*
X177382000Y-115588000D01*
X177373001Y-115595000D01*
X177364000Y-115601000D01*
X177355000Y-115607000D01*
X177345001Y-115612000D01*
X177335000Y-115617000D01*
X177325000Y-115620999D01*
X177315000Y-115625000D01*
X177304000Y-115628000D01*
X177294000Y-115630000D01*
X177283000Y-115632000D01*
X177272000Y-115634000D01*
X177261000Y-115635000D01*
X177250000Y-115635000D01*
X177239000Y-115635000D01*
X177228000Y-115634000D01*
X177217000Y-115632000D01*
X177206000Y-115630000D01*
X177196000Y-115628000D01*
X177185000Y-115625000D01*
X177175000Y-115620999D01*
X177165000Y-115617000D01*
X177154999Y-115612000D01*
X177145000Y-115607000D01*
X177136000Y-115601000D01*
X177126999Y-115595000D01*
X177118000Y-115588000D01*
X177109000Y-115581000D01*
X177102000Y-115573000D01*
X177094000Y-115566000D01*
X177087000Y-115557000D01*
X177080000Y-115548000D01*
X177074000Y-115539000D01*
X177068000Y-115530000D01*
X177063000Y-115520001D01*
X177058000Y-115510000D01*
X177054001Y-115500000D01*
X177050000Y-115490000D01*
X177047000Y-115479000D01*
X177045000Y-115469000D01*
X177043000Y-115458000D01*
X177041000Y-115447000D01*
X177040000Y-115436000D01*
X177040000Y-115425000D01*
X177040000Y-114565000D01*
X177460000Y-114565000D01*
X177460000Y-115425000D01*
G36*
X177460000Y-115425000D02*
G01*
X177460000Y-115436000D01*
X177459000Y-115447000D01*
X177457000Y-115458000D01*
X177455000Y-115469000D01*
X177453000Y-115479000D01*
X177450000Y-115490000D01*
X177445999Y-115500000D01*
X177442000Y-115510000D01*
X177437000Y-115520001D01*
X177432000Y-115530000D01*
X177426000Y-115539000D01*
X177420000Y-115548000D01*
X177413000Y-115557000D01*
X177406000Y-115566000D01*
X177398000Y-115573000D01*
X177391000Y-115581000D01*
X177382000Y-115588000D01*
X177373001Y-115595000D01*
X177364000Y-115601000D01*
X177355000Y-115607000D01*
X177345001Y-115612000D01*
X177335000Y-115617000D01*
X177325000Y-115620999D01*
X177315000Y-115625000D01*
X177304000Y-115628000D01*
X177294000Y-115630000D01*
X177283000Y-115632000D01*
X177272000Y-115634000D01*
X177261000Y-115635000D01*
X177250000Y-115635000D01*
X177239000Y-115635000D01*
X177228000Y-115634000D01*
X177217000Y-115632000D01*
X177206000Y-115630000D01*
X177196000Y-115628000D01*
X177185000Y-115625000D01*
X177175000Y-115620999D01*
X177165000Y-115617000D01*
X177154999Y-115612000D01*
X177145000Y-115607000D01*
X177136000Y-115601000D01*
X177126999Y-115595000D01*
X177118000Y-115588000D01*
X177109000Y-115581000D01*
X177102000Y-115573000D01*
X177094000Y-115566000D01*
X177087000Y-115557000D01*
X177080000Y-115548000D01*
X177074000Y-115539000D01*
X177068000Y-115530000D01*
X177063000Y-115520001D01*
X177058000Y-115510000D01*
X177054001Y-115500000D01*
X177050000Y-115490000D01*
X177047000Y-115479000D01*
X177045000Y-115469000D01*
X177043000Y-115458000D01*
X177041000Y-115447000D01*
X177040000Y-115436000D01*
X177040000Y-115425000D01*
X177040000Y-114565000D01*
X177460000Y-114565000D01*
X177460000Y-115425000D01*
G37*
X177772000Y-119366000D02*
X177782999Y-119368000D01*
X177794000Y-119370000D01*
X177804000Y-119372000D01*
X177815000Y-119375000D01*
X177825000Y-119379000D01*
X177835000Y-119383001D01*
X177845000Y-119388000D01*
X177855000Y-119393001D01*
X177864000Y-119399000D01*
X177873000Y-119405000D01*
X177882000Y-119412000D01*
X177891000Y-119418999D01*
X177898000Y-119427000D01*
X177906001Y-119434000D01*
X177913000Y-119443000D01*
X177920000Y-119452000D01*
X177926000Y-119461000D01*
X177932000Y-119470000D01*
X177937000Y-119480000D01*
X177941999Y-119490000D01*
X177946000Y-119500000D01*
X177950000Y-119510000D01*
X177953000Y-119521000D01*
X177955000Y-119531000D01*
X177957000Y-119542001D01*
X177959000Y-119553000D01*
X177960000Y-119564000D01*
X177960000Y-119575000D01*
X177960000Y-120435000D01*
X177540000Y-120434999D01*
X177540000Y-119575001D01*
X177540000Y-119563999D01*
X177541000Y-119553000D01*
X177543000Y-119542000D01*
X177545000Y-119530999D01*
X177547000Y-119521000D01*
X177550000Y-119510001D01*
X177554000Y-119500000D01*
X177557999Y-119490000D01*
X177563000Y-119480000D01*
X177568000Y-119469999D01*
X177574000Y-119461000D01*
X177580000Y-119452000D01*
X177587000Y-119442999D01*
X177594000Y-119434000D01*
X177602000Y-119427000D01*
X177609000Y-119419000D01*
X177618000Y-119412000D01*
X177627000Y-119405000D01*
X177636000Y-119399000D01*
X177645000Y-119393000D01*
X177655000Y-119388000D01*
X177665000Y-119383000D01*
X177675000Y-119379000D01*
X177685000Y-119375000D01*
X177696001Y-119372000D01*
X177706000Y-119370000D01*
X177716999Y-119368000D01*
X177728000Y-119366000D01*
X177739000Y-119365000D01*
X177750000Y-119365000D01*
X177761000Y-119365000D01*
X177772000Y-119366000D01*
G36*
X177772000Y-119366000D02*
G01*
X177782999Y-119368000D01*
X177794000Y-119370000D01*
X177804000Y-119372000D01*
X177815000Y-119375000D01*
X177825000Y-119379000D01*
X177835000Y-119383001D01*
X177845000Y-119388000D01*
X177855000Y-119393001D01*
X177864000Y-119399000D01*
X177873000Y-119405000D01*
X177882000Y-119412000D01*
X177891000Y-119418999D01*
X177898000Y-119427000D01*
X177906001Y-119434000D01*
X177913000Y-119443000D01*
X177920000Y-119452000D01*
X177926000Y-119461000D01*
X177932000Y-119470000D01*
X177937000Y-119480000D01*
X177941999Y-119490000D01*
X177946000Y-119500000D01*
X177950000Y-119510000D01*
X177953000Y-119521000D01*
X177955000Y-119531000D01*
X177957000Y-119542001D01*
X177959000Y-119553000D01*
X177960000Y-119564000D01*
X177960000Y-119575000D01*
X177960000Y-120435000D01*
X177540000Y-120434999D01*
X177540000Y-119575001D01*
X177540000Y-119563999D01*
X177541000Y-119553000D01*
X177543000Y-119542000D01*
X177545000Y-119530999D01*
X177547000Y-119521000D01*
X177550000Y-119510001D01*
X177554000Y-119500000D01*
X177557999Y-119490000D01*
X177563000Y-119480000D01*
X177568000Y-119469999D01*
X177574000Y-119461000D01*
X177580000Y-119452000D01*
X177587000Y-119442999D01*
X177594000Y-119434000D01*
X177602000Y-119427000D01*
X177609000Y-119419000D01*
X177618000Y-119412000D01*
X177627000Y-119405000D01*
X177636000Y-119399000D01*
X177645000Y-119393000D01*
X177655000Y-119388000D01*
X177665000Y-119383000D01*
X177675000Y-119379000D01*
X177685000Y-119375000D01*
X177696001Y-119372000D01*
X177706000Y-119370000D01*
X177716999Y-119368000D01*
X177728000Y-119366000D01*
X177739000Y-119365000D01*
X177750000Y-119365000D01*
X177761000Y-119365000D01*
X177772000Y-119366000D01*
G37*
X177960000Y-115425000D02*
X177960000Y-115436000D01*
X177959000Y-115447000D01*
X177957000Y-115457999D01*
X177955000Y-115469000D01*
X177953000Y-115479000D01*
X177950000Y-115490000D01*
X177946000Y-115500000D01*
X177941999Y-115510000D01*
X177937000Y-115520000D01*
X177932000Y-115530000D01*
X177926000Y-115539000D01*
X177920000Y-115548000D01*
X177913000Y-115557000D01*
X177906001Y-115566000D01*
X177898000Y-115573000D01*
X177891000Y-115581001D01*
X177882000Y-115588000D01*
X177873000Y-115595000D01*
X177864000Y-115601000D01*
X177855000Y-115606999D01*
X177845000Y-115612000D01*
X177835000Y-115616999D01*
X177825000Y-115621000D01*
X177815000Y-115625000D01*
X177804000Y-115628000D01*
X177794000Y-115630000D01*
X177782999Y-115632000D01*
X177772000Y-115634000D01*
X177761000Y-115635000D01*
X177750000Y-115635000D01*
X177739000Y-115635000D01*
X177728000Y-115634000D01*
X177716999Y-115632000D01*
X177706000Y-115630000D01*
X177696001Y-115628000D01*
X177685000Y-115625000D01*
X177675000Y-115621000D01*
X177665000Y-115617000D01*
X177655000Y-115612000D01*
X177645000Y-115607000D01*
X177636000Y-115601000D01*
X177627000Y-115595000D01*
X177618000Y-115588000D01*
X177609000Y-115581000D01*
X177602000Y-115573000D01*
X177594000Y-115566000D01*
X177587000Y-115557001D01*
X177580000Y-115548000D01*
X177574000Y-115539000D01*
X177568000Y-115530001D01*
X177563000Y-115520000D01*
X177557999Y-115510000D01*
X177554000Y-115500000D01*
X177550000Y-115489999D01*
X177547000Y-115479000D01*
X177545000Y-115469001D01*
X177543000Y-115458000D01*
X177541000Y-115447000D01*
X177540000Y-115436001D01*
X177540000Y-115424999D01*
X177540000Y-114565001D01*
X177960000Y-114565000D01*
X177960000Y-115425000D01*
G36*
X177960000Y-115425000D02*
G01*
X177960000Y-115436000D01*
X177959000Y-115447000D01*
X177957000Y-115457999D01*
X177955000Y-115469000D01*
X177953000Y-115479000D01*
X177950000Y-115490000D01*
X177946000Y-115500000D01*
X177941999Y-115510000D01*
X177937000Y-115520000D01*
X177932000Y-115530000D01*
X177926000Y-115539000D01*
X177920000Y-115548000D01*
X177913000Y-115557000D01*
X177906001Y-115566000D01*
X177898000Y-115573000D01*
X177891000Y-115581001D01*
X177882000Y-115588000D01*
X177873000Y-115595000D01*
X177864000Y-115601000D01*
X177855000Y-115606999D01*
X177845000Y-115612000D01*
X177835000Y-115616999D01*
X177825000Y-115621000D01*
X177815000Y-115625000D01*
X177804000Y-115628000D01*
X177794000Y-115630000D01*
X177782999Y-115632000D01*
X177772000Y-115634000D01*
X177761000Y-115635000D01*
X177750000Y-115635000D01*
X177739000Y-115635000D01*
X177728000Y-115634000D01*
X177716999Y-115632000D01*
X177706000Y-115630000D01*
X177696001Y-115628000D01*
X177685000Y-115625000D01*
X177675000Y-115621000D01*
X177665000Y-115617000D01*
X177655000Y-115612000D01*
X177645000Y-115607000D01*
X177636000Y-115601000D01*
X177627000Y-115595000D01*
X177618000Y-115588000D01*
X177609000Y-115581000D01*
X177602000Y-115573000D01*
X177594000Y-115566000D01*
X177587000Y-115557001D01*
X177580000Y-115548000D01*
X177574000Y-115539000D01*
X177568000Y-115530001D01*
X177563000Y-115520000D01*
X177557999Y-115510000D01*
X177554000Y-115500000D01*
X177550000Y-115489999D01*
X177547000Y-115479000D01*
X177545000Y-115469001D01*
X177543000Y-115458000D01*
X177541000Y-115447000D01*
X177540000Y-115436001D01*
X177540000Y-115424999D01*
X177540000Y-114565001D01*
X177960000Y-114565000D01*
X177960000Y-115425000D01*
G37*
X178272000Y-119366000D02*
X178283000Y-119368000D01*
X178294000Y-119370000D01*
X178304000Y-119371999D01*
X178315000Y-119375000D01*
X178325000Y-119379000D01*
X178335000Y-119383000D01*
X178345000Y-119388001D01*
X178355000Y-119393000D01*
X178364000Y-119399000D01*
X178372999Y-119405000D01*
X178382000Y-119412000D01*
X178391000Y-119419000D01*
X178398000Y-119427000D01*
X178406000Y-119434000D01*
X178413000Y-119443000D01*
X178419999Y-119452000D01*
X178426000Y-119461000D01*
X178432000Y-119470000D01*
X178437000Y-119480000D01*
X178442000Y-119490000D01*
X178446000Y-119500000D01*
X178450001Y-119510000D01*
X178453000Y-119521000D01*
X178455000Y-119531000D01*
X178457000Y-119542000D01*
X178459000Y-119553000D01*
X178460000Y-119564000D01*
X178460000Y-119575000D01*
X178460000Y-120435000D01*
X178040000Y-120435000D01*
X178040000Y-119575000D01*
X178040000Y-119564000D01*
X178041000Y-119553000D01*
X178043000Y-119542000D01*
X178045000Y-119531000D01*
X178047000Y-119521000D01*
X178050000Y-119510000D01*
X178054000Y-119500000D01*
X178058000Y-119490000D01*
X178063000Y-119480000D01*
X178068000Y-119470000D01*
X178074000Y-119460999D01*
X178080000Y-119452000D01*
X178087000Y-119443000D01*
X178094001Y-119434000D01*
X178102000Y-119427000D01*
X178109000Y-119419000D01*
X178118000Y-119412000D01*
X178127000Y-119405000D01*
X178136000Y-119399000D01*
X178145000Y-119393001D01*
X178155000Y-119388000D01*
X178165000Y-119383000D01*
X178175000Y-119379000D01*
X178185000Y-119375000D01*
X178196000Y-119372000D01*
X178206000Y-119370000D01*
X178217000Y-119368000D01*
X178228000Y-119366000D01*
X178239000Y-119365000D01*
X178250000Y-119365000D01*
X178261000Y-119365000D01*
X178272000Y-119366000D01*
G36*
X178272000Y-119366000D02*
G01*
X178283000Y-119368000D01*
X178294000Y-119370000D01*
X178304000Y-119371999D01*
X178315000Y-119375000D01*
X178325000Y-119379000D01*
X178335000Y-119383000D01*
X178345000Y-119388001D01*
X178355000Y-119393000D01*
X178364000Y-119399000D01*
X178372999Y-119405000D01*
X178382000Y-119412000D01*
X178391000Y-119419000D01*
X178398000Y-119427000D01*
X178406000Y-119434000D01*
X178413000Y-119443000D01*
X178419999Y-119452000D01*
X178426000Y-119461000D01*
X178432000Y-119470000D01*
X178437000Y-119480000D01*
X178442000Y-119490000D01*
X178446000Y-119500000D01*
X178450001Y-119510000D01*
X178453000Y-119521000D01*
X178455000Y-119531000D01*
X178457000Y-119542000D01*
X178459000Y-119553000D01*
X178460000Y-119564000D01*
X178460000Y-119575000D01*
X178460000Y-120435000D01*
X178040000Y-120435000D01*
X178040000Y-119575000D01*
X178040000Y-119564000D01*
X178041000Y-119553000D01*
X178043000Y-119542000D01*
X178045000Y-119531000D01*
X178047000Y-119521000D01*
X178050000Y-119510000D01*
X178054000Y-119500000D01*
X178058000Y-119490000D01*
X178063000Y-119480000D01*
X178068000Y-119470000D01*
X178074000Y-119460999D01*
X178080000Y-119452000D01*
X178087000Y-119443000D01*
X178094001Y-119434000D01*
X178102000Y-119427000D01*
X178109000Y-119419000D01*
X178118000Y-119412000D01*
X178127000Y-119405000D01*
X178136000Y-119399000D01*
X178145000Y-119393001D01*
X178155000Y-119388000D01*
X178165000Y-119383000D01*
X178175000Y-119379000D01*
X178185000Y-119375000D01*
X178196000Y-119372000D01*
X178206000Y-119370000D01*
X178217000Y-119368000D01*
X178228000Y-119366000D01*
X178239000Y-119365000D01*
X178250000Y-119365000D01*
X178261000Y-119365000D01*
X178272000Y-119366000D01*
G37*
X178460000Y-115425000D02*
X178460000Y-115436000D01*
X178459000Y-115447000D01*
X178457000Y-115458000D01*
X178455000Y-115469000D01*
X178453000Y-115479000D01*
X178450001Y-115490000D01*
X178446000Y-115500000D01*
X178442000Y-115510000D01*
X178437000Y-115520000D01*
X178432000Y-115530000D01*
X178426000Y-115539000D01*
X178419999Y-115548000D01*
X178413000Y-115557000D01*
X178406000Y-115566000D01*
X178398000Y-115573000D01*
X178391000Y-115581000D01*
X178382000Y-115588000D01*
X178372999Y-115595000D01*
X178364000Y-115601000D01*
X178355000Y-115607000D01*
X178345000Y-115611999D01*
X178335000Y-115617000D01*
X178325000Y-115621000D01*
X178315000Y-115625000D01*
X178304000Y-115628001D01*
X178294000Y-115630000D01*
X178283000Y-115632000D01*
X178272000Y-115634000D01*
X178261000Y-115635000D01*
X178250000Y-115635000D01*
X178239000Y-115635000D01*
X178228000Y-115634000D01*
X178217000Y-115632000D01*
X178206000Y-115630000D01*
X178196000Y-115628000D01*
X178185000Y-115625000D01*
X178175000Y-115621000D01*
X178165000Y-115617000D01*
X178155000Y-115612000D01*
X178145000Y-115606999D01*
X178136000Y-115601000D01*
X178127000Y-115595000D01*
X178118000Y-115588000D01*
X178109000Y-115581000D01*
X178102000Y-115573000D01*
X178094001Y-115566000D01*
X178087000Y-115557000D01*
X178080000Y-115548000D01*
X178074000Y-115539001D01*
X178068000Y-115530000D01*
X178063000Y-115520000D01*
X178058000Y-115510000D01*
X178054000Y-115500000D01*
X178050000Y-115490000D01*
X178047000Y-115479000D01*
X178045000Y-115469000D01*
X178043000Y-115458000D01*
X178041000Y-115447000D01*
X178040000Y-115436000D01*
X178040000Y-115425000D01*
X178040000Y-114565000D01*
X178460000Y-114565000D01*
X178460000Y-115425000D01*
G36*
X178460000Y-115425000D02*
G01*
X178460000Y-115436000D01*
X178459000Y-115447000D01*
X178457000Y-115458000D01*
X178455000Y-115469000D01*
X178453000Y-115479000D01*
X178450001Y-115490000D01*
X178446000Y-115500000D01*
X178442000Y-115510000D01*
X178437000Y-115520000D01*
X178432000Y-115530000D01*
X178426000Y-115539000D01*
X178419999Y-115548000D01*
X178413000Y-115557000D01*
X178406000Y-115566000D01*
X178398000Y-115573000D01*
X178391000Y-115581000D01*
X178382000Y-115588000D01*
X178372999Y-115595000D01*
X178364000Y-115601000D01*
X178355000Y-115607000D01*
X178345000Y-115611999D01*
X178335000Y-115617000D01*
X178325000Y-115621000D01*
X178315000Y-115625000D01*
X178304000Y-115628001D01*
X178294000Y-115630000D01*
X178283000Y-115632000D01*
X178272000Y-115634000D01*
X178261000Y-115635000D01*
X178250000Y-115635000D01*
X178239000Y-115635000D01*
X178228000Y-115634000D01*
X178217000Y-115632000D01*
X178206000Y-115630000D01*
X178196000Y-115628000D01*
X178185000Y-115625000D01*
X178175000Y-115621000D01*
X178165000Y-115617000D01*
X178155000Y-115612000D01*
X178145000Y-115606999D01*
X178136000Y-115601000D01*
X178127000Y-115595000D01*
X178118000Y-115588000D01*
X178109000Y-115581000D01*
X178102000Y-115573000D01*
X178094001Y-115566000D01*
X178087000Y-115557000D01*
X178080000Y-115548000D01*
X178074000Y-115539001D01*
X178068000Y-115530000D01*
X178063000Y-115520000D01*
X178058000Y-115510000D01*
X178054000Y-115500000D01*
X178050000Y-115490000D01*
X178047000Y-115479000D01*
X178045000Y-115469000D01*
X178043000Y-115458000D01*
X178041000Y-115447000D01*
X178040000Y-115436000D01*
X178040000Y-115425000D01*
X178040000Y-114565000D01*
X178460000Y-114565000D01*
X178460000Y-115425000D01*
G37*
X178772000Y-119366000D02*
X178783000Y-119368000D01*
X178794000Y-119370000D01*
X178804000Y-119372000D01*
X178815000Y-119375000D01*
X178825000Y-119379000D01*
X178835000Y-119383000D01*
X178845000Y-119388000D01*
X178855000Y-119393001D01*
X178864000Y-119399000D01*
X178873000Y-119405000D01*
X178882000Y-119412000D01*
X178891000Y-119419000D01*
X178898000Y-119427000D01*
X178906000Y-119434000D01*
X178913000Y-119443000D01*
X178920000Y-119452000D01*
X178926000Y-119460999D01*
X178932000Y-119470000D01*
X178937001Y-119480000D01*
X178942000Y-119490000D01*
X178946001Y-119500000D01*
X178950000Y-119510000D01*
X178953000Y-119521000D01*
X178955000Y-119531000D01*
X178957000Y-119542000D01*
X178959000Y-119553000D01*
X178960000Y-119564000D01*
X178960000Y-119575000D01*
X178960000Y-120435000D01*
X178540000Y-120435000D01*
X178540000Y-119575000D01*
X178540000Y-119564000D01*
X178541000Y-119553000D01*
X178543000Y-119542000D01*
X178545000Y-119531000D01*
X178547000Y-119521000D01*
X178550000Y-119510000D01*
X178554000Y-119500000D01*
X178558000Y-119490000D01*
X178563000Y-119480000D01*
X178568000Y-119470000D01*
X178574000Y-119461000D01*
X178580000Y-119451999D01*
X178587000Y-119443000D01*
X178594000Y-119434000D01*
X178602000Y-119427000D01*
X178609000Y-119419000D01*
X178618000Y-119412000D01*
X178627000Y-119404999D01*
X178636000Y-119399000D01*
X178645000Y-119393000D01*
X178655000Y-119388001D01*
X178665000Y-119383000D01*
X178675000Y-119379000D01*
X178685000Y-119375000D01*
X178696000Y-119371999D01*
X178706000Y-119370000D01*
X178717000Y-119368000D01*
X178728000Y-119366000D01*
X178739000Y-119365000D01*
X178750000Y-119365000D01*
X178761000Y-119365000D01*
X178772000Y-119366000D01*
G36*
X178772000Y-119366000D02*
G01*
X178783000Y-119368000D01*
X178794000Y-119370000D01*
X178804000Y-119372000D01*
X178815000Y-119375000D01*
X178825000Y-119379000D01*
X178835000Y-119383000D01*
X178845000Y-119388000D01*
X178855000Y-119393001D01*
X178864000Y-119399000D01*
X178873000Y-119405000D01*
X178882000Y-119412000D01*
X178891000Y-119419000D01*
X178898000Y-119427000D01*
X178906000Y-119434000D01*
X178913000Y-119443000D01*
X178920000Y-119452000D01*
X178926000Y-119460999D01*
X178932000Y-119470000D01*
X178937001Y-119480000D01*
X178942000Y-119490000D01*
X178946001Y-119500000D01*
X178950000Y-119510000D01*
X178953000Y-119521000D01*
X178955000Y-119531000D01*
X178957000Y-119542000D01*
X178959000Y-119553000D01*
X178960000Y-119564000D01*
X178960000Y-119575000D01*
X178960000Y-120435000D01*
X178540000Y-120435000D01*
X178540000Y-119575000D01*
X178540000Y-119564000D01*
X178541000Y-119553000D01*
X178543000Y-119542000D01*
X178545000Y-119531000D01*
X178547000Y-119521000D01*
X178550000Y-119510000D01*
X178554000Y-119500000D01*
X178558000Y-119490000D01*
X178563000Y-119480000D01*
X178568000Y-119470000D01*
X178574000Y-119461000D01*
X178580000Y-119451999D01*
X178587000Y-119443000D01*
X178594000Y-119434000D01*
X178602000Y-119427000D01*
X178609000Y-119419000D01*
X178618000Y-119412000D01*
X178627000Y-119404999D01*
X178636000Y-119399000D01*
X178645000Y-119393000D01*
X178655000Y-119388001D01*
X178665000Y-119383000D01*
X178675000Y-119379000D01*
X178685000Y-119375000D01*
X178696000Y-119371999D01*
X178706000Y-119370000D01*
X178717000Y-119368000D01*
X178728000Y-119366000D01*
X178739000Y-119365000D01*
X178750000Y-119365000D01*
X178761000Y-119365000D01*
X178772000Y-119366000D01*
G37*
X178960000Y-115425000D02*
X178960000Y-115436000D01*
X178959000Y-115447000D01*
X178957000Y-115458000D01*
X178955000Y-115469000D01*
X178953000Y-115479000D01*
X178950000Y-115490000D01*
X178946001Y-115500000D01*
X178942000Y-115510000D01*
X178937001Y-115520000D01*
X178932000Y-115530000D01*
X178926000Y-115539001D01*
X178920000Y-115548000D01*
X178913000Y-115557000D01*
X178906000Y-115566000D01*
X178898000Y-115573000D01*
X178891000Y-115581000D01*
X178882000Y-115588000D01*
X178873000Y-115595000D01*
X178864000Y-115601000D01*
X178855000Y-115606999D01*
X178845000Y-115612000D01*
X178835000Y-115617000D01*
X178825000Y-115621000D01*
X178815000Y-115625000D01*
X178804000Y-115628000D01*
X178794000Y-115630000D01*
X178783000Y-115632000D01*
X178772000Y-115634000D01*
X178761000Y-115635000D01*
X178750000Y-115635000D01*
X178739000Y-115635000D01*
X178728000Y-115634000D01*
X178717000Y-115632000D01*
X178706000Y-115630000D01*
X178696000Y-115628001D01*
X178685000Y-115625000D01*
X178675000Y-115621000D01*
X178665000Y-115617000D01*
X178655000Y-115611999D01*
X178645000Y-115607000D01*
X178636000Y-115601000D01*
X178627000Y-115595001D01*
X178618000Y-115588000D01*
X178609000Y-115581000D01*
X178602000Y-115573000D01*
X178594000Y-115566000D01*
X178587000Y-115557000D01*
X178580000Y-115548001D01*
X178574000Y-115539000D01*
X178568000Y-115530000D01*
X178563000Y-115520000D01*
X178558000Y-115510000D01*
X178554000Y-115500000D01*
X178550000Y-115490000D01*
X178547000Y-115479000D01*
X178545000Y-115469000D01*
X178543000Y-115458000D01*
X178541000Y-115447000D01*
X178540000Y-115436000D01*
X178540000Y-115425000D01*
X178540000Y-114565000D01*
X178960000Y-114565000D01*
X178960000Y-115425000D01*
G36*
X178960000Y-115425000D02*
G01*
X178960000Y-115436000D01*
X178959000Y-115447000D01*
X178957000Y-115458000D01*
X178955000Y-115469000D01*
X178953000Y-115479000D01*
X178950000Y-115490000D01*
X178946001Y-115500000D01*
X178942000Y-115510000D01*
X178937001Y-115520000D01*
X178932000Y-115530000D01*
X178926000Y-115539001D01*
X178920000Y-115548000D01*
X178913000Y-115557000D01*
X178906000Y-115566000D01*
X178898000Y-115573000D01*
X178891000Y-115581000D01*
X178882000Y-115588000D01*
X178873000Y-115595000D01*
X178864000Y-115601000D01*
X178855000Y-115606999D01*
X178845000Y-115612000D01*
X178835000Y-115617000D01*
X178825000Y-115621000D01*
X178815000Y-115625000D01*
X178804000Y-115628000D01*
X178794000Y-115630000D01*
X178783000Y-115632000D01*
X178772000Y-115634000D01*
X178761000Y-115635000D01*
X178750000Y-115635000D01*
X178739000Y-115635000D01*
X178728000Y-115634000D01*
X178717000Y-115632000D01*
X178706000Y-115630000D01*
X178696000Y-115628001D01*
X178685000Y-115625000D01*
X178675000Y-115621000D01*
X178665000Y-115617000D01*
X178655000Y-115611999D01*
X178645000Y-115607000D01*
X178636000Y-115601000D01*
X178627000Y-115595001D01*
X178618000Y-115588000D01*
X178609000Y-115581000D01*
X178602000Y-115573000D01*
X178594000Y-115566000D01*
X178587000Y-115557000D01*
X178580000Y-115548001D01*
X178574000Y-115539000D01*
X178568000Y-115530000D01*
X178563000Y-115520000D01*
X178558000Y-115510000D01*
X178554000Y-115500000D01*
X178550000Y-115490000D01*
X178547000Y-115479000D01*
X178545000Y-115469000D01*
X178543000Y-115458000D01*
X178541000Y-115447000D01*
X178540000Y-115436000D01*
X178540000Y-115425000D01*
X178540000Y-114565000D01*
X178960000Y-114565000D01*
X178960000Y-115425000D01*
G37*
X180184999Y-117210000D02*
X179325001Y-117210000D01*
X179313999Y-117210000D01*
X179303000Y-117209000D01*
X179292000Y-117207000D01*
X179280999Y-117205000D01*
X179271000Y-117203000D01*
X179260001Y-117200000D01*
X179250000Y-117196000D01*
X179240000Y-117192001D01*
X179230000Y-117187000D01*
X179219999Y-117182000D01*
X179211000Y-117176000D01*
X179202000Y-117170000D01*
X179192999Y-117163000D01*
X179184000Y-117156000D01*
X179177000Y-117148000D01*
X179169000Y-117141000D01*
X179162000Y-117132000D01*
X179155000Y-117123000D01*
X179149000Y-117114000D01*
X179143000Y-117105000D01*
X179138000Y-117095000D01*
X179133000Y-117085000D01*
X179129000Y-117075000D01*
X179125000Y-117065000D01*
X179122000Y-117053999D01*
X179120000Y-117044000D01*
X179118000Y-117033001D01*
X179116000Y-117022000D01*
X179115000Y-117011000D01*
X179115000Y-117000000D01*
X179115000Y-116989000D01*
X179116000Y-116978000D01*
X179118000Y-116967001D01*
X179120000Y-116956000D01*
X179122000Y-116946000D01*
X179125000Y-116935000D01*
X179129000Y-116925000D01*
X179133001Y-116915000D01*
X179138000Y-116905000D01*
X179143001Y-116895000D01*
X179149000Y-116886000D01*
X179155000Y-116877000D01*
X179162000Y-116868000D01*
X179168999Y-116859000D01*
X179177000Y-116852000D01*
X179184000Y-116843999D01*
X179193000Y-116837000D01*
X179202000Y-116830000D01*
X179211000Y-116824000D01*
X179220000Y-116818000D01*
X179230000Y-116813000D01*
X179240000Y-116808001D01*
X179250000Y-116804000D01*
X179260000Y-116800000D01*
X179271000Y-116797000D01*
X179281000Y-116795000D01*
X179292001Y-116793000D01*
X179303000Y-116791000D01*
X179314000Y-116790000D01*
X179325000Y-116790000D01*
X180185000Y-116790000D01*
X180184999Y-117210000D01*
G36*
X180184999Y-117210000D02*
G01*
X179325001Y-117210000D01*
X179313999Y-117210000D01*
X179303000Y-117209000D01*
X179292000Y-117207000D01*
X179280999Y-117205000D01*
X179271000Y-117203000D01*
X179260001Y-117200000D01*
X179250000Y-117196000D01*
X179240000Y-117192001D01*
X179230000Y-117187000D01*
X179219999Y-117182000D01*
X179211000Y-117176000D01*
X179202000Y-117170000D01*
X179192999Y-117163000D01*
X179184000Y-117156000D01*
X179177000Y-117148000D01*
X179169000Y-117141000D01*
X179162000Y-117132000D01*
X179155000Y-117123000D01*
X179149000Y-117114000D01*
X179143000Y-117105000D01*
X179138000Y-117095000D01*
X179133000Y-117085000D01*
X179129000Y-117075000D01*
X179125000Y-117065000D01*
X179122000Y-117053999D01*
X179120000Y-117044000D01*
X179118000Y-117033001D01*
X179116000Y-117022000D01*
X179115000Y-117011000D01*
X179115000Y-117000000D01*
X179115000Y-116989000D01*
X179116000Y-116978000D01*
X179118000Y-116967001D01*
X179120000Y-116956000D01*
X179122000Y-116946000D01*
X179125000Y-116935000D01*
X179129000Y-116925000D01*
X179133001Y-116915000D01*
X179138000Y-116905000D01*
X179143001Y-116895000D01*
X179149000Y-116886000D01*
X179155000Y-116877000D01*
X179162000Y-116868000D01*
X179168999Y-116859000D01*
X179177000Y-116852000D01*
X179184000Y-116843999D01*
X179193000Y-116837000D01*
X179202000Y-116830000D01*
X179211000Y-116824000D01*
X179220000Y-116818000D01*
X179230000Y-116813000D01*
X179240000Y-116808001D01*
X179250000Y-116804000D01*
X179260000Y-116800000D01*
X179271000Y-116797000D01*
X179281000Y-116795000D01*
X179292001Y-116793000D01*
X179303000Y-116791000D01*
X179314000Y-116790000D01*
X179325000Y-116790000D01*
X180185000Y-116790000D01*
X180184999Y-117210000D01*
G37*
X180185000Y-116210000D02*
X179325000Y-116210000D01*
X179314000Y-116210000D01*
X179303000Y-116209000D01*
X179292000Y-116207000D01*
X179281000Y-116205000D01*
X179271000Y-116203000D01*
X179260000Y-116200000D01*
X179250000Y-116196000D01*
X179240000Y-116192000D01*
X179230000Y-116187000D01*
X179220000Y-116182000D01*
X179211000Y-116176000D01*
X179201999Y-116170000D01*
X179193000Y-116163000D01*
X179184000Y-116156000D01*
X179177000Y-116148000D01*
X179169000Y-116141000D01*
X179162000Y-116132000D01*
X179154999Y-116123000D01*
X179149000Y-116114000D01*
X179143000Y-116105000D01*
X179138001Y-116095000D01*
X179133000Y-116085000D01*
X179129000Y-116075000D01*
X179125000Y-116065000D01*
X179121999Y-116054000D01*
X179120000Y-116044000D01*
X179118000Y-116033000D01*
X179116000Y-116022000D01*
X179115000Y-116011000D01*
X179115000Y-116000000D01*
X179115000Y-115989000D01*
X179116000Y-115978000D01*
X179118000Y-115967000D01*
X179120000Y-115956000D01*
X179122000Y-115946000D01*
X179125000Y-115935000D01*
X179129000Y-115925000D01*
X179133000Y-115915000D01*
X179138000Y-115905000D01*
X179143001Y-115895000D01*
X179149000Y-115886000D01*
X179155000Y-115877000D01*
X179162000Y-115868000D01*
X179169000Y-115859000D01*
X179177000Y-115852000D01*
X179184000Y-115844000D01*
X179193000Y-115837000D01*
X179202000Y-115830000D01*
X179210999Y-115824000D01*
X179220000Y-115818000D01*
X179230000Y-115812999D01*
X179240000Y-115808000D01*
X179250000Y-115803999D01*
X179260000Y-115800000D01*
X179271000Y-115797000D01*
X179281000Y-115795000D01*
X179292000Y-115793000D01*
X179303000Y-115791000D01*
X179314000Y-115790000D01*
X179325000Y-115790000D01*
X180185000Y-115790000D01*
X180185000Y-116210000D01*
G36*
X180185000Y-116210000D02*
G01*
X179325000Y-116210000D01*
X179314000Y-116210000D01*
X179303000Y-116209000D01*
X179292000Y-116207000D01*
X179281000Y-116205000D01*
X179271000Y-116203000D01*
X179260000Y-116200000D01*
X179250000Y-116196000D01*
X179240000Y-116192000D01*
X179230000Y-116187000D01*
X179220000Y-116182000D01*
X179211000Y-116176000D01*
X179201999Y-116170000D01*
X179193000Y-116163000D01*
X179184000Y-116156000D01*
X179177000Y-116148000D01*
X179169000Y-116141000D01*
X179162000Y-116132000D01*
X179154999Y-116123000D01*
X179149000Y-116114000D01*
X179143000Y-116105000D01*
X179138001Y-116095000D01*
X179133000Y-116085000D01*
X179129000Y-116075000D01*
X179125000Y-116065000D01*
X179121999Y-116054000D01*
X179120000Y-116044000D01*
X179118000Y-116033000D01*
X179116000Y-116022000D01*
X179115000Y-116011000D01*
X179115000Y-116000000D01*
X179115000Y-115989000D01*
X179116000Y-115978000D01*
X179118000Y-115967000D01*
X179120000Y-115956000D01*
X179122000Y-115946000D01*
X179125000Y-115935000D01*
X179129000Y-115925000D01*
X179133000Y-115915000D01*
X179138000Y-115905000D01*
X179143001Y-115895000D01*
X179149000Y-115886000D01*
X179155000Y-115877000D01*
X179162000Y-115868000D01*
X179169000Y-115859000D01*
X179177000Y-115852000D01*
X179184000Y-115844000D01*
X179193000Y-115837000D01*
X179202000Y-115830000D01*
X179210999Y-115824000D01*
X179220000Y-115818000D01*
X179230000Y-115812999D01*
X179240000Y-115808000D01*
X179250000Y-115803999D01*
X179260000Y-115800000D01*
X179271000Y-115797000D01*
X179281000Y-115795000D01*
X179292000Y-115793000D01*
X179303000Y-115791000D01*
X179314000Y-115790000D01*
X179325000Y-115790000D01*
X180185000Y-115790000D01*
X180185000Y-116210000D01*
G37*
X180185000Y-116710000D02*
X179325000Y-116710000D01*
X179314000Y-116710000D01*
X179303000Y-116709000D01*
X179292000Y-116707000D01*
X179281000Y-116705000D01*
X179271000Y-116703000D01*
X179260000Y-116700000D01*
X179250000Y-116696000D01*
X179240000Y-116692000D01*
X179230000Y-116687000D01*
X179220000Y-116682000D01*
X179210999Y-116676000D01*
X179202000Y-116670000D01*
X179193000Y-116663000D01*
X179184000Y-116655999D01*
X179177000Y-116648000D01*
X179169000Y-116641000D01*
X179162000Y-116632000D01*
X179155000Y-116623000D01*
X179149000Y-116614000D01*
X179143001Y-116605000D01*
X179138000Y-116595000D01*
X179133000Y-116585000D01*
X179129000Y-116575000D01*
X179125000Y-116565000D01*
X179122000Y-116554000D01*
X179120000Y-116544000D01*
X179118000Y-116533000D01*
X179116000Y-116522000D01*
X179115000Y-116511000D01*
X179115000Y-116500000D01*
X179115000Y-116489000D01*
X179116000Y-116478000D01*
X179118000Y-116467000D01*
X179120000Y-116456000D01*
X179121999Y-116446000D01*
X179125000Y-116435000D01*
X179129000Y-116425000D01*
X179133000Y-116415000D01*
X179138001Y-116405000D01*
X179143000Y-116395000D01*
X179149000Y-116386000D01*
X179155000Y-116377001D01*
X179162000Y-116368000D01*
X179169000Y-116359000D01*
X179177000Y-116352000D01*
X179184000Y-116344000D01*
X179193000Y-116337000D01*
X179202000Y-116330001D01*
X179211000Y-116324000D01*
X179220000Y-116318000D01*
X179230000Y-116313000D01*
X179240000Y-116308000D01*
X179250000Y-116304000D01*
X179260000Y-116299999D01*
X179271000Y-116297000D01*
X179281000Y-116295000D01*
X179292000Y-116293000D01*
X179303000Y-116291000D01*
X179314000Y-116290000D01*
X179325000Y-116290000D01*
X180185000Y-116290000D01*
X180185000Y-116710000D01*
G36*
X180185000Y-116710000D02*
G01*
X179325000Y-116710000D01*
X179314000Y-116710000D01*
X179303000Y-116709000D01*
X179292000Y-116707000D01*
X179281000Y-116705000D01*
X179271000Y-116703000D01*
X179260000Y-116700000D01*
X179250000Y-116696000D01*
X179240000Y-116692000D01*
X179230000Y-116687000D01*
X179220000Y-116682000D01*
X179210999Y-116676000D01*
X179202000Y-116670000D01*
X179193000Y-116663000D01*
X179184000Y-116655999D01*
X179177000Y-116648000D01*
X179169000Y-116641000D01*
X179162000Y-116632000D01*
X179155000Y-116623000D01*
X179149000Y-116614000D01*
X179143001Y-116605000D01*
X179138000Y-116595000D01*
X179133000Y-116585000D01*
X179129000Y-116575000D01*
X179125000Y-116565000D01*
X179122000Y-116554000D01*
X179120000Y-116544000D01*
X179118000Y-116533000D01*
X179116000Y-116522000D01*
X179115000Y-116511000D01*
X179115000Y-116500000D01*
X179115000Y-116489000D01*
X179116000Y-116478000D01*
X179118000Y-116467000D01*
X179120000Y-116456000D01*
X179121999Y-116446000D01*
X179125000Y-116435000D01*
X179129000Y-116425000D01*
X179133000Y-116415000D01*
X179138001Y-116405000D01*
X179143000Y-116395000D01*
X179149000Y-116386000D01*
X179155000Y-116377001D01*
X179162000Y-116368000D01*
X179169000Y-116359000D01*
X179177000Y-116352000D01*
X179184000Y-116344000D01*
X179193000Y-116337000D01*
X179202000Y-116330001D01*
X179211000Y-116324000D01*
X179220000Y-116318000D01*
X179230000Y-116313000D01*
X179240000Y-116308000D01*
X179250000Y-116304000D01*
X179260000Y-116299999D01*
X179271000Y-116297000D01*
X179281000Y-116295000D01*
X179292000Y-116293000D01*
X179303000Y-116291000D01*
X179314000Y-116290000D01*
X179325000Y-116290000D01*
X180185000Y-116290000D01*
X180185000Y-116710000D01*
G37*
X180185000Y-117710000D02*
X179325000Y-117710000D01*
X179314000Y-117710000D01*
X179303000Y-117709000D01*
X179292000Y-117707000D01*
X179281000Y-117705000D01*
X179271000Y-117703000D01*
X179260000Y-117700000D01*
X179250000Y-117695999D01*
X179240000Y-117692000D01*
X179229999Y-117687000D01*
X179220000Y-117682000D01*
X179211000Y-117676000D01*
X179202000Y-117670000D01*
X179193000Y-117663000D01*
X179184000Y-117656000D01*
X179177000Y-117648000D01*
X179169000Y-117641000D01*
X179162000Y-117632000D01*
X179155000Y-117623001D01*
X179149000Y-117614000D01*
X179143000Y-117605000D01*
X179138000Y-117595001D01*
X179133000Y-117585000D01*
X179129001Y-117575000D01*
X179125000Y-117565000D01*
X179122000Y-117554000D01*
X179120000Y-117544000D01*
X179118000Y-117533000D01*
X179116000Y-117522000D01*
X179115000Y-117511000D01*
X179115000Y-117500000D01*
X179115000Y-117489000D01*
X179116000Y-117478000D01*
X179118000Y-117467000D01*
X179120000Y-117456000D01*
X179122000Y-117446000D01*
X179125000Y-117435000D01*
X179129001Y-117425000D01*
X179133000Y-117415000D01*
X179138000Y-117404999D01*
X179143000Y-117395000D01*
X179149000Y-117386000D01*
X179155000Y-117376999D01*
X179162000Y-117368000D01*
X179169000Y-117359000D01*
X179177000Y-117352000D01*
X179184000Y-117344000D01*
X179193000Y-117337000D01*
X179202000Y-117330000D01*
X179211000Y-117324000D01*
X179220000Y-117318000D01*
X179229999Y-117313000D01*
X179240000Y-117308000D01*
X179250000Y-117304001D01*
X179260000Y-117300000D01*
X179271000Y-117297000D01*
X179281000Y-117295000D01*
X179292000Y-117293000D01*
X179303000Y-117291000D01*
X179314000Y-117290000D01*
X179325000Y-117290000D01*
X180185000Y-117290000D01*
X180185000Y-117710000D01*
G36*
X180185000Y-117710000D02*
G01*
X179325000Y-117710000D01*
X179314000Y-117710000D01*
X179303000Y-117709000D01*
X179292000Y-117707000D01*
X179281000Y-117705000D01*
X179271000Y-117703000D01*
X179260000Y-117700000D01*
X179250000Y-117695999D01*
X179240000Y-117692000D01*
X179229999Y-117687000D01*
X179220000Y-117682000D01*
X179211000Y-117676000D01*
X179202000Y-117670000D01*
X179193000Y-117663000D01*
X179184000Y-117656000D01*
X179177000Y-117648000D01*
X179169000Y-117641000D01*
X179162000Y-117632000D01*
X179155000Y-117623001D01*
X179149000Y-117614000D01*
X179143000Y-117605000D01*
X179138000Y-117595001D01*
X179133000Y-117585000D01*
X179129001Y-117575000D01*
X179125000Y-117565000D01*
X179122000Y-117554000D01*
X179120000Y-117544000D01*
X179118000Y-117533000D01*
X179116000Y-117522000D01*
X179115000Y-117511000D01*
X179115000Y-117500000D01*
X179115000Y-117489000D01*
X179116000Y-117478000D01*
X179118000Y-117467000D01*
X179120000Y-117456000D01*
X179122000Y-117446000D01*
X179125000Y-117435000D01*
X179129001Y-117425000D01*
X179133000Y-117415000D01*
X179138000Y-117404999D01*
X179143000Y-117395000D01*
X179149000Y-117386000D01*
X179155000Y-117376999D01*
X179162000Y-117368000D01*
X179169000Y-117359000D01*
X179177000Y-117352000D01*
X179184000Y-117344000D01*
X179193000Y-117337000D01*
X179202000Y-117330000D01*
X179211000Y-117324000D01*
X179220000Y-117318000D01*
X179229999Y-117313000D01*
X179240000Y-117308000D01*
X179250000Y-117304001D01*
X179260000Y-117300000D01*
X179271000Y-117297000D01*
X179281000Y-117295000D01*
X179292000Y-117293000D01*
X179303000Y-117291000D01*
X179314000Y-117290000D01*
X179325000Y-117290000D01*
X180185000Y-117290000D01*
X180185000Y-117710000D01*
G37*
X180185000Y-118210000D02*
X179325000Y-118210000D01*
X179314000Y-118210000D01*
X179303000Y-118209000D01*
X179292001Y-118207000D01*
X179281000Y-118205000D01*
X179271000Y-118203000D01*
X179260000Y-118200000D01*
X179250000Y-118196000D01*
X179240000Y-118191999D01*
X179230000Y-118187000D01*
X179220000Y-118182000D01*
X179211000Y-118176000D01*
X179202000Y-118170000D01*
X179193000Y-118163000D01*
X179184000Y-118156001D01*
X179177000Y-118148000D01*
X179168999Y-118141000D01*
X179162000Y-118132000D01*
X179155000Y-118123000D01*
X179149000Y-118114000D01*
X179143001Y-118105000D01*
X179138000Y-118095000D01*
X179133001Y-118085000D01*
X179129000Y-118075000D01*
X179125000Y-118065000D01*
X179122000Y-118054000D01*
X179120000Y-118044000D01*
X179118000Y-118032999D01*
X179116000Y-118022000D01*
X179115000Y-118011000D01*
X179115000Y-118000000D01*
X179115000Y-117989000D01*
X179116000Y-117978000D01*
X179118000Y-117966999D01*
X179120000Y-117956000D01*
X179122000Y-117946001D01*
X179125000Y-117935000D01*
X179129000Y-117925000D01*
X179133000Y-117915000D01*
X179138000Y-117905000D01*
X179143000Y-117895000D01*
X179149000Y-117886000D01*
X179155000Y-117877000D01*
X179162000Y-117868000D01*
X179169000Y-117859000D01*
X179177000Y-117852000D01*
X179184000Y-117844000D01*
X179192999Y-117837000D01*
X179202000Y-117830000D01*
X179211000Y-117824000D01*
X179219999Y-117818000D01*
X179230000Y-117813000D01*
X179240000Y-117807999D01*
X179250000Y-117804000D01*
X179260001Y-117800000D01*
X179271000Y-117797000D01*
X179280999Y-117795000D01*
X179292000Y-117793000D01*
X179303000Y-117791000D01*
X179313999Y-117790000D01*
X179325001Y-117790000D01*
X180184999Y-117790000D01*
X180185000Y-118210000D01*
G36*
X180185000Y-118210000D02*
G01*
X179325000Y-118210000D01*
X179314000Y-118210000D01*
X179303000Y-118209000D01*
X179292001Y-118207000D01*
X179281000Y-118205000D01*
X179271000Y-118203000D01*
X179260000Y-118200000D01*
X179250000Y-118196000D01*
X179240000Y-118191999D01*
X179230000Y-118187000D01*
X179220000Y-118182000D01*
X179211000Y-118176000D01*
X179202000Y-118170000D01*
X179193000Y-118163000D01*
X179184000Y-118156001D01*
X179177000Y-118148000D01*
X179168999Y-118141000D01*
X179162000Y-118132000D01*
X179155000Y-118123000D01*
X179149000Y-118114000D01*
X179143001Y-118105000D01*
X179138000Y-118095000D01*
X179133001Y-118085000D01*
X179129000Y-118075000D01*
X179125000Y-118065000D01*
X179122000Y-118054000D01*
X179120000Y-118044000D01*
X179118000Y-118032999D01*
X179116000Y-118022000D01*
X179115000Y-118011000D01*
X179115000Y-118000000D01*
X179115000Y-117989000D01*
X179116000Y-117978000D01*
X179118000Y-117966999D01*
X179120000Y-117956000D01*
X179122000Y-117946001D01*
X179125000Y-117935000D01*
X179129000Y-117925000D01*
X179133000Y-117915000D01*
X179138000Y-117905000D01*
X179143000Y-117895000D01*
X179149000Y-117886000D01*
X179155000Y-117877000D01*
X179162000Y-117868000D01*
X179169000Y-117859000D01*
X179177000Y-117852000D01*
X179184000Y-117844000D01*
X179192999Y-117837000D01*
X179202000Y-117830000D01*
X179211000Y-117824000D01*
X179219999Y-117818000D01*
X179230000Y-117813000D01*
X179240000Y-117807999D01*
X179250000Y-117804000D01*
X179260001Y-117800000D01*
X179271000Y-117797000D01*
X179280999Y-117795000D01*
X179292000Y-117793000D01*
X179303000Y-117791000D01*
X179313999Y-117790000D01*
X179325001Y-117790000D01*
X180184999Y-117790000D01*
X180185000Y-118210000D01*
G37*
X180185000Y-118710000D02*
X179325000Y-118710000D01*
X179314000Y-118710000D01*
X179303000Y-118709000D01*
X179292000Y-118707000D01*
X179281000Y-118705000D01*
X179271000Y-118703000D01*
X179260000Y-118700001D01*
X179250000Y-118696000D01*
X179240000Y-118692000D01*
X179230000Y-118687000D01*
X179220000Y-118682000D01*
X179211000Y-118676000D01*
X179202000Y-118669999D01*
X179193000Y-118663000D01*
X179184000Y-118656000D01*
X179177000Y-118648000D01*
X179169000Y-118641000D01*
X179162000Y-118632000D01*
X179155000Y-118622999D01*
X179149000Y-118614000D01*
X179143000Y-118605000D01*
X179138001Y-118595000D01*
X179133000Y-118585000D01*
X179129000Y-118575000D01*
X179125000Y-118565000D01*
X179121999Y-118554000D01*
X179120000Y-118544000D01*
X179118000Y-118533000D01*
X179116000Y-118522000D01*
X179115000Y-118511000D01*
X179115000Y-118500000D01*
X179115000Y-118489000D01*
X179116000Y-118478000D01*
X179118000Y-118467000D01*
X179120000Y-118456000D01*
X179122000Y-118446000D01*
X179125000Y-118435000D01*
X179129000Y-118425000D01*
X179133000Y-118415000D01*
X179138000Y-118405000D01*
X179143001Y-118395000D01*
X179149000Y-118386000D01*
X179155000Y-118377000D01*
X179162000Y-118368000D01*
X179169000Y-118359000D01*
X179177000Y-118352000D01*
X179184000Y-118344001D01*
X179193000Y-118337000D01*
X179202000Y-118330000D01*
X179210999Y-118324000D01*
X179220000Y-118318000D01*
X179230000Y-118313000D01*
X179240000Y-118308000D01*
X179250000Y-118304000D01*
X179260000Y-118300000D01*
X179271000Y-118297000D01*
X179281000Y-118295000D01*
X179292000Y-118293000D01*
X179303000Y-118291000D01*
X179314000Y-118290000D01*
X179325000Y-118290000D01*
X180185000Y-118290000D01*
X180185000Y-118710000D01*
G36*
X180185000Y-118710000D02*
G01*
X179325000Y-118710000D01*
X179314000Y-118710000D01*
X179303000Y-118709000D01*
X179292000Y-118707000D01*
X179281000Y-118705000D01*
X179271000Y-118703000D01*
X179260000Y-118700001D01*
X179250000Y-118696000D01*
X179240000Y-118692000D01*
X179230000Y-118687000D01*
X179220000Y-118682000D01*
X179211000Y-118676000D01*
X179202000Y-118669999D01*
X179193000Y-118663000D01*
X179184000Y-118656000D01*
X179177000Y-118648000D01*
X179169000Y-118641000D01*
X179162000Y-118632000D01*
X179155000Y-118622999D01*
X179149000Y-118614000D01*
X179143000Y-118605000D01*
X179138001Y-118595000D01*
X179133000Y-118585000D01*
X179129000Y-118575000D01*
X179125000Y-118565000D01*
X179121999Y-118554000D01*
X179120000Y-118544000D01*
X179118000Y-118533000D01*
X179116000Y-118522000D01*
X179115000Y-118511000D01*
X179115000Y-118500000D01*
X179115000Y-118489000D01*
X179116000Y-118478000D01*
X179118000Y-118467000D01*
X179120000Y-118456000D01*
X179122000Y-118446000D01*
X179125000Y-118435000D01*
X179129000Y-118425000D01*
X179133000Y-118415000D01*
X179138000Y-118405000D01*
X179143001Y-118395000D01*
X179149000Y-118386000D01*
X179155000Y-118377000D01*
X179162000Y-118368000D01*
X179169000Y-118359000D01*
X179177000Y-118352000D01*
X179184000Y-118344001D01*
X179193000Y-118337000D01*
X179202000Y-118330000D01*
X179210999Y-118324000D01*
X179220000Y-118318000D01*
X179230000Y-118313000D01*
X179240000Y-118308000D01*
X179250000Y-118304000D01*
X179260000Y-118300000D01*
X179271000Y-118297000D01*
X179281000Y-118295000D01*
X179292000Y-118293000D01*
X179303000Y-118291000D01*
X179314000Y-118290000D01*
X179325000Y-118290000D01*
X180185000Y-118290000D01*
X180185000Y-118710000D01*
G37*
X180185000Y-119210000D02*
X179325000Y-119210000D01*
X179314000Y-119210000D01*
X179303000Y-119209000D01*
X179292000Y-119207000D01*
X179281000Y-119205000D01*
X179271000Y-119203000D01*
X179260000Y-119200000D01*
X179250000Y-119196001D01*
X179240000Y-119192000D01*
X179230000Y-119187001D01*
X179220000Y-119182000D01*
X179210999Y-119176000D01*
X179202000Y-119170000D01*
X179193000Y-119163000D01*
X179184000Y-119156000D01*
X179177000Y-119148000D01*
X179169000Y-119141000D01*
X179162000Y-119132000D01*
X179155000Y-119123000D01*
X179149000Y-119114000D01*
X179143001Y-119105000D01*
X179138000Y-119095000D01*
X179133000Y-119085000D01*
X179129000Y-119075000D01*
X179125000Y-119065000D01*
X179122000Y-119054000D01*
X179120000Y-119044000D01*
X179118000Y-119033000D01*
X179116000Y-119022000D01*
X179115000Y-119011000D01*
X179115000Y-119000000D01*
X179115000Y-118989000D01*
X179116000Y-118978000D01*
X179118000Y-118967000D01*
X179120000Y-118956000D01*
X179121999Y-118946000D01*
X179125000Y-118935000D01*
X179129000Y-118925000D01*
X179133000Y-118915000D01*
X179138001Y-118905000D01*
X179143000Y-118895000D01*
X179149000Y-118886000D01*
X179154999Y-118877000D01*
X179162000Y-118868000D01*
X179169000Y-118859000D01*
X179177000Y-118852000D01*
X179184000Y-118844000D01*
X179193000Y-118837000D01*
X179201999Y-118830000D01*
X179211000Y-118824000D01*
X179220000Y-118818000D01*
X179230000Y-118813000D01*
X179240000Y-118808000D01*
X179250000Y-118804000D01*
X179260000Y-118800000D01*
X179271000Y-118797000D01*
X179281000Y-118795000D01*
X179292000Y-118793000D01*
X179303000Y-118791000D01*
X179314000Y-118790000D01*
X179325000Y-118790000D01*
X180185000Y-118790000D01*
X180185000Y-119210000D01*
G36*
X180185000Y-119210000D02*
G01*
X179325000Y-119210000D01*
X179314000Y-119210000D01*
X179303000Y-119209000D01*
X179292000Y-119207000D01*
X179281000Y-119205000D01*
X179271000Y-119203000D01*
X179260000Y-119200000D01*
X179250000Y-119196001D01*
X179240000Y-119192000D01*
X179230000Y-119187001D01*
X179220000Y-119182000D01*
X179210999Y-119176000D01*
X179202000Y-119170000D01*
X179193000Y-119163000D01*
X179184000Y-119156000D01*
X179177000Y-119148000D01*
X179169000Y-119141000D01*
X179162000Y-119132000D01*
X179155000Y-119123000D01*
X179149000Y-119114000D01*
X179143001Y-119105000D01*
X179138000Y-119095000D01*
X179133000Y-119085000D01*
X179129000Y-119075000D01*
X179125000Y-119065000D01*
X179122000Y-119054000D01*
X179120000Y-119044000D01*
X179118000Y-119033000D01*
X179116000Y-119022000D01*
X179115000Y-119011000D01*
X179115000Y-119000000D01*
X179115000Y-118989000D01*
X179116000Y-118978000D01*
X179118000Y-118967000D01*
X179120000Y-118956000D01*
X179121999Y-118946000D01*
X179125000Y-118935000D01*
X179129000Y-118925000D01*
X179133000Y-118915000D01*
X179138001Y-118905000D01*
X179143000Y-118895000D01*
X179149000Y-118886000D01*
X179154999Y-118877000D01*
X179162000Y-118868000D01*
X179169000Y-118859000D01*
X179177000Y-118852000D01*
X179184000Y-118844000D01*
X179193000Y-118837000D01*
X179201999Y-118830000D01*
X179211000Y-118824000D01*
X179220000Y-118818000D01*
X179230000Y-118813000D01*
X179240000Y-118808000D01*
X179250000Y-118804000D01*
X179260000Y-118800000D01*
X179271000Y-118797000D01*
X179281000Y-118795000D01*
X179292000Y-118793000D01*
X179303000Y-118791000D01*
X179314000Y-118790000D01*
X179325000Y-118790000D01*
X180185000Y-118790000D01*
X180185000Y-119210000D01*
G37*
%TD*%
D11*
%TO.C,R15*%
X142000000Y-138000000D03*
X142000000Y-136000000D03*
%TD*%
D12*
%TO.C,U3*%
X167387500Y-135200000D03*
X167387500Y-134250000D03*
X167387500Y-133300000D03*
X165112500Y-133300000D03*
X165112500Y-135200000D03*
%TD*%
D13*
%TO.C,C1*%
X181800000Y-121500000D03*
X183700000Y-121500000D03*
%TD*%
D14*
%TO.C,R6*%
X167000000Y-112050000D03*
X169000000Y-112050000D03*
%TD*%
D15*
%TO.C,TP2*%
X157000000Y-126000000D03*
%TD*%
%TO.C,TP15*%
X134500000Y-118500000D03*
%TD*%
D11*
%TO.C,R7*%
X183750000Y-117500000D03*
X183750000Y-119500000D03*
%TD*%
D16*
%TO.C,J1*%
X188075000Y-128550000D03*
X188075000Y-127900000D03*
X188075000Y-127250000D03*
X188075000Y-126600000D03*
X188075000Y-125950000D03*
D17*
X188300000Y-130450000D03*
X188300000Y-124050000D03*
D18*
X190750000Y-126050000D03*
X190750000Y-128450000D03*
D19*
X190750000Y-130550000D03*
X190750000Y-123950000D03*
%TD*%
D20*
%TO.C,C3*%
X175750000Y-126700000D03*
X175750000Y-124800000D03*
%TD*%
D15*
%TO.C,TP19*%
X180250000Y-124250000D03*
%TD*%
%TO.C,TP9*%
X157000000Y-119750000D03*
%TD*%
%TO.C,TP8*%
X159250000Y-123000000D03*
%TD*%
D14*
%TO.C,R9*%
X170750000Y-115800000D03*
X172750000Y-115800000D03*
%TD*%
D21*
%TO.C,J2*%
X176750000Y-141500000D03*
D22*
X174750000Y-141500000D03*
%TD*%
D23*
%TO.C,C7*%
X140462500Y-140000000D03*
X142537500Y-140000000D03*
%TD*%
D24*
%TO.C,R14*%
X161000000Y-120000000D03*
X159000000Y-120000000D03*
%TD*%
D25*
%TO.C,SW2*%
X169575000Y-130825000D03*
X165425000Y-130825000D03*
X169575000Y-128675000D03*
X165425000Y-128675000D03*
%TD*%
D26*
%TO.C,R10*%
X172250000Y-134750000D03*
X172250000Y-132750000D03*
%TD*%
D20*
%TO.C,C2*%
X173750000Y-126700000D03*
X173750000Y-124800000D03*
%TD*%
D27*
%TO.C,U5*%
X145750000Y-137187500D03*
X146250000Y-137187500D03*
X146750000Y-137187500D03*
X147250000Y-137187500D03*
X147750000Y-137187500D03*
X148250000Y-137187500D03*
X148750000Y-137187500D03*
X149250000Y-137187500D03*
X149750000Y-137187500D03*
D28*
X149812500Y-138000000D03*
X149812500Y-138500000D03*
X149812500Y-139000000D03*
X149812500Y-139500000D03*
D27*
X149750000Y-140312500D03*
X149250000Y-140312500D03*
X148750000Y-140312500D03*
X148250000Y-140312500D03*
X147750000Y-140312500D03*
X147250000Y-140312500D03*
X146750000Y-140312500D03*
X146250000Y-140312500D03*
X145750000Y-140312500D03*
X145250000Y-140312500D03*
D28*
X145187500Y-139500000D03*
X145187500Y-139000000D03*
X145187500Y-138500000D03*
X145187500Y-138000000D03*
D27*
X145250000Y-137187500D03*
%TD*%
D25*
%TO.C,SW1*%
X169575000Y-122825000D03*
X165425000Y-122825000D03*
X169575000Y-120675000D03*
X165425000Y-120675000D03*
%TD*%
D29*
%TO.C,D1*%
X180250000Y-133713300D03*
X180250000Y-136786700D03*
%TD*%
D15*
%TO.C,TP20*%
X157000000Y-141500000D03*
%TD*%
D11*
%TO.C,R11*%
X174750000Y-134750000D03*
X174750000Y-136750000D03*
%TD*%
D15*
%TO.C,TP22*%
X184000000Y-130000000D03*
%TD*%
%TO.C,TP4*%
X134500000Y-129750000D03*
%TD*%
%TO.C,TP3*%
X157000000Y-123750000D03*
%TD*%
%TO.C,TP12*%
X134500000Y-123000000D03*
%TD*%
D24*
%TO.C,R1*%
X167750000Y-126750000D03*
X165750000Y-126750000D03*
%TD*%
D30*
%TO.C,D3*%
X179000000Y-129817600D03*
X179000000Y-131417600D03*
%TD*%
D15*
%TO.C,TP23*%
X136750000Y-136500000D03*
%TD*%
D24*
%TO.C,R12*%
X160000000Y-114500000D03*
X158000000Y-114500000D03*
%TD*%
D15*
%TO.C,TP5*%
X134500000Y-132000000D03*
%TD*%
%TO.C,TP16*%
X152500000Y-138000000D03*
%TD*%
D31*
%TO.C,Q1*%
X172937500Y-113950000D03*
X172937500Y-112050000D03*
X171062500Y-113000000D03*
%TD*%
D15*
%TO.C,TP24*%
X163500000Y-120000000D03*
%TD*%
D14*
%TO.C,R5*%
X169000000Y-118750000D03*
X171000000Y-118750000D03*
%TD*%
D20*
%TO.C,C6*%
X169750000Y-126950000D03*
X169750000Y-125050000D03*
%TD*%
D32*
%TO.C,Q2*%
X167050000Y-115937500D03*
X168950000Y-115937500D03*
X168000000Y-114062500D03*
%TD*%
D15*
%TO.C,TP25*%
X163500000Y-116250000D03*
%TD*%
%TO.C,TP14*%
X134500000Y-116250000D03*
%TD*%
%TO.C,TP17*%
X154000000Y-136500000D03*
%TD*%
D33*
%TO.C,C5*%
X166950000Y-139500000D03*
X170550000Y-139500000D03*
%TD*%
D15*
%TO.C,TP11*%
X134500000Y-120750000D03*
%TD*%
%TO.C,TP18*%
X180000000Y-139000000D03*
%TD*%
D20*
%TO.C,C4*%
X170250000Y-135700000D03*
X170250000Y-133800000D03*
%TD*%
D34*
%TO.C,U1*%
X145750000Y-119800000D03*
X144350000Y-119800000D03*
X142950000Y-119800000D03*
X145750000Y-118400000D03*
X144350000Y-118400000D03*
X142950000Y-118400000D03*
X145750000Y-117000000D03*
X144350000Y-117000000D03*
X142950000Y-117000000D03*
D35*
X154600000Y-110600000D03*
X154600000Y-111870000D03*
X154600000Y-113140000D03*
X154600000Y-114410000D03*
X154600000Y-115680000D03*
X154600000Y-116950000D03*
X154600000Y-118220000D03*
X154600000Y-119490000D03*
X154600000Y-120760000D03*
X154600000Y-122030000D03*
X154600000Y-123300000D03*
X154600000Y-124570000D03*
X154600000Y-125840000D03*
X154600000Y-127110000D03*
X154600000Y-128380000D03*
X154600000Y-129650000D03*
X154600000Y-130920000D03*
X154600000Y-132190000D03*
X154600000Y-133460000D03*
X137100000Y-133460000D03*
X137100000Y-132190000D03*
X137100000Y-130920000D03*
X137100000Y-129650000D03*
X137100000Y-128380000D03*
X137100000Y-127110000D03*
X137100000Y-125840000D03*
X137100000Y-124570000D03*
X137100000Y-123300000D03*
X137100000Y-122030000D03*
X137100000Y-120760000D03*
X137100000Y-119490000D03*
X137100000Y-118220000D03*
X137100000Y-116950000D03*
X137100000Y-115680000D03*
X137100000Y-114410000D03*
X137100000Y-113140000D03*
X137100000Y-111870000D03*
X137100000Y-110600000D03*
%TD*%
D24*
%TO.C,R2*%
X167750000Y-124750000D03*
X165750000Y-124750000D03*
%TD*%
D36*
%TO.C,U4*%
X176310200Y-136795400D03*
X177250000Y-136795400D03*
X178189800Y-136795400D03*
X178189800Y-134204600D03*
X176310200Y-134204600D03*
%TD*%
D15*
%TO.C,TP13*%
X134500000Y-125250000D03*
%TD*%
%TO.C,TP6*%
X134500000Y-127500000D03*
%TD*%
D26*
%TO.C,R8*%
X181750000Y-119500000D03*
X181750000Y-117500000D03*
%TD*%
D15*
%TO.C,TP21*%
X158500000Y-110500000D03*
%TD*%
D26*
%TO.C,R4*%
X171750000Y-128750000D03*
X171750000Y-126750000D03*
%TD*%
D15*
%TO.C,TP7*%
X157000000Y-130750000D03*
%TD*%
%TO.C,TP10*%
X156750000Y-112000000D03*
%TD*%
%TO.C,TP1*%
X157000000Y-128500000D03*
%TD*%
D11*
%TO.C,R3*%
X171750000Y-122750000D03*
X171750000Y-124750000D03*
%TD*%
D26*
%TO.C,R13*%
X177250000Y-131750000D03*
X177250000Y-129750000D03*
%TD*%
M02*
