%TF.GenerationSoftware,KiCad,Pcbnew,8.0.8-8.0.8-0~ubuntu24.04.1*%
%TF.CreationDate,2025-02-07T13:21:18-05:00*%
%TF.ProjectId,snowboard,736e6f77-626f-4617-9264-2e6b69636164,rev?*%
%TF.SameCoordinates,Original*%
%TF.FileFunction,Copper,L3,Inr*%
%TF.FilePolarity,Positive*%
%FSLAX46Y46*%
G04 Gerber Fmt 4.6, Leading zero omitted, Abs format (unit mm)*
G04 Created by KiCad (PCBNEW 8.0.8-8.0.8-0~ubuntu24.04.1) date 2025-02-07 13:21:18*
%MOMM*%
%LPD*%
G01*
G04 APERTURE LIST*
%TA.AperFunction,ComponentPad*%
%ADD10O,1.800000X0.900000*%
%TD*%
%TA.AperFunction,ComponentPad*%
%ADD11R,1.308000X1.308000*%
%TD*%
%TA.AperFunction,ComponentPad*%
%ADD12C,1.308000*%
%TD*%
%TA.AperFunction,ComponentPad*%
%ADD13C,0.300000*%
%TD*%
%TA.AperFunction,ViaPad*%
%ADD14C,0.600000*%
%TD*%
G04 APERTURE END LIST*
D10*
%TO.N,unconnected-(J1-SHIELD__4-PadS5)*%
%TO.C,J1*%
X190750000Y-130550000D03*
%TO.N,unconnected-(J1-SHIELD__5-PadS6)*%
X190750000Y-123950000D03*
%TD*%
D11*
%TO.N,+BATT*%
%TO.C,J2*%
X176750000Y-141500000D03*
D12*
%TO.N,GND*%
X174750000Y-141500000D03*
%TD*%
D13*
%TO.N,N/C*%
%TO.C,U1*%
X145050000Y-119800000D03*
X143650000Y-119800000D03*
X145750000Y-119100000D03*
X144350000Y-119100000D03*
X142950000Y-119100000D03*
X145050000Y-118400000D03*
X143650000Y-118400000D03*
X145750000Y-117700000D03*
X144350000Y-117700000D03*
X142950000Y-117700000D03*
X145050000Y-117000000D03*
X143650000Y-117000000D03*
%TD*%
D14*
%TO.N,GND*%
X144160122Y-137339878D03*
X144000000Y-140000000D03*
%TO.N,+3.3V*%
X140500000Y-136000000D03*
X147102040Y-141318205D03*
%TO.N,GND*%
X151000000Y-139000000D03*
X140250000Y-111750000D03*
X177250000Y-117500000D03*
X146750000Y-136000000D03*
X180750000Y-122750000D03*
X176500000Y-122250000D03*
X138000000Y-135500000D03*
X180000000Y-126000000D03*
X139500000Y-128500000D03*
X168750000Y-134250000D03*
X152750000Y-111500000D03*
%TO.N,VBUS*%
X178750000Y-133117600D03*
X179750000Y-120500000D03*
X168750000Y-135250000D03*
X177500000Y-128500000D03*
%TO.N,+3.3V*%
X138750000Y-111750000D03*
X158500000Y-116500000D03*
X158250000Y-139500000D03*
X158500000Y-121750000D03*
X158250000Y-135250000D03*
%TO.N,/D_N*%
X185500000Y-126650000D03*
X186750000Y-127900000D03*
%TO.N,/AEN*%
X139000000Y-113000000D03*
X169750000Y-113300000D03*
X164625000Y-125625000D03*
%TO.N,/IO0*%
X165500000Y-119750000D03*
X168000000Y-115500000D03*
%TO.N,/DTR*%
X168000000Y-116750000D03*
X172250000Y-119000000D03*
%TO.N,/I2C_SCL*%
X151250000Y-136750000D03*
X157905740Y-115917211D03*
%TO.N,/I2C_SDA*%
X151750000Y-135250000D03*
X157170000Y-121250000D03*
%TD*%
%TA.AperFunction,Conductor*%
%TO.N,VBUS*%
G36*
X180073822Y-111519685D02*
G01*
X180119577Y-111572489D01*
X180130557Y-111631487D01*
X180123388Y-111750000D01*
X180142538Y-112066597D01*
X180142538Y-112066602D01*
X180142539Y-112066603D01*
X180199713Y-112378589D01*
X180294075Y-112681409D01*
X180424251Y-112970647D01*
X180588340Y-113242084D01*
X180588345Y-113242092D01*
X180783955Y-113491769D01*
X181008230Y-113716044D01*
X181257907Y-113911654D01*
X181257910Y-113911655D01*
X181257914Y-113911659D01*
X181529353Y-114075749D01*
X181818591Y-114205925D01*
X182121411Y-114300287D01*
X182433397Y-114357461D01*
X182633487Y-114369564D01*
X182699215Y-114393260D01*
X182741699Y-114448731D01*
X182750000Y-114493338D01*
X182750000Y-139006661D01*
X182730315Y-139073700D01*
X182677511Y-139119455D01*
X182633487Y-139130435D01*
X182433402Y-139142538D01*
X182121410Y-139199713D01*
X181818596Y-139294073D01*
X181818592Y-139294074D01*
X181818591Y-139294075D01*
X181657721Y-139366477D01*
X181529357Y-139424249D01*
X181529355Y-139424250D01*
X181257915Y-139588340D01*
X181257907Y-139588345D01*
X181008230Y-139783955D01*
X180783955Y-140008230D01*
X180588345Y-140257907D01*
X180588340Y-140257915D01*
X180535393Y-140345501D01*
X180448977Y-140488452D01*
X180424250Y-140529355D01*
X180424249Y-140529357D01*
X180294073Y-140818596D01*
X180199713Y-141121410D01*
X180142538Y-141433402D01*
X180123388Y-141750000D01*
X180142538Y-142066597D01*
X180199713Y-142378589D01*
X180285689Y-142654499D01*
X180294075Y-142681409D01*
X180358750Y-142825110D01*
X180368313Y-142894321D01*
X180338940Y-142957716D01*
X180279955Y-142995167D01*
X180245674Y-143000000D01*
X161874000Y-143000000D01*
X161806961Y-142980315D01*
X161761206Y-142927511D01*
X161750000Y-142876000D01*
X161750000Y-141499999D01*
X173590554Y-141499999D01*
X173590554Y-141500000D01*
X173610295Y-141713047D01*
X173610296Y-141713050D01*
X173668846Y-141918835D01*
X173668849Y-141918840D01*
X173764219Y-142110370D01*
X173893159Y-142281114D01*
X174051278Y-142425258D01*
X174051283Y-142425261D01*
X174051286Y-142425263D01*
X174233186Y-142537891D01*
X174233187Y-142537891D01*
X174233190Y-142537893D01*
X174432703Y-142615185D01*
X174643020Y-142654500D01*
X174643022Y-142654500D01*
X174856978Y-142654500D01*
X174856980Y-142654500D01*
X175067297Y-142615185D01*
X175266810Y-142537893D01*
X175448722Y-142425258D01*
X175481593Y-142395291D01*
X175544395Y-142364675D01*
X175613782Y-142372872D01*
X175664395Y-142412616D01*
X175738454Y-142511546D01*
X175773646Y-142537891D01*
X175853664Y-142597793D01*
X175853671Y-142597797D01*
X175988517Y-142648091D01*
X175988516Y-142648091D01*
X175995444Y-142648835D01*
X176048127Y-142654500D01*
X177451872Y-142654499D01*
X177511483Y-142648091D01*
X177646331Y-142597796D01*
X177761546Y-142511546D01*
X177847796Y-142396331D01*
X177898091Y-142261483D01*
X177904500Y-142201873D01*
X177904499Y-140798128D01*
X177898091Y-140738517D01*
X177890769Y-140718887D01*
X177847797Y-140603671D01*
X177847793Y-140603664D01*
X177761547Y-140488455D01*
X177761544Y-140488452D01*
X177646335Y-140402206D01*
X177646328Y-140402202D01*
X177511482Y-140351908D01*
X177511483Y-140351908D01*
X177451883Y-140345501D01*
X177451881Y-140345500D01*
X177451873Y-140345500D01*
X177451864Y-140345500D01*
X176048129Y-140345500D01*
X176048123Y-140345501D01*
X175988516Y-140351908D01*
X175853671Y-140402202D01*
X175853664Y-140402206D01*
X175738455Y-140488452D01*
X175664396Y-140587382D01*
X175608462Y-140629252D01*
X175538770Y-140634236D01*
X175481594Y-140604709D01*
X175448722Y-140574742D01*
X175448716Y-140574738D01*
X175448713Y-140574736D01*
X175266813Y-140462108D01*
X175266807Y-140462106D01*
X175067297Y-140384815D01*
X174856980Y-140345500D01*
X174643020Y-140345500D01*
X174432703Y-140384815D01*
X174387812Y-140402206D01*
X174233192Y-140462106D01*
X174233186Y-140462108D01*
X174051286Y-140574736D01*
X174051283Y-140574738D01*
X174051279Y-140574740D01*
X174051278Y-140574742D01*
X173986016Y-140634236D01*
X173893158Y-140718887D01*
X173764219Y-140889629D01*
X173668849Y-141081158D01*
X173668846Y-141081164D01*
X173610296Y-141286949D01*
X173610295Y-141286952D01*
X173590554Y-141499999D01*
X161750000Y-141499999D01*
X161750000Y-134249996D01*
X167944435Y-134249996D01*
X167944435Y-134250003D01*
X167964630Y-134429249D01*
X167964631Y-134429254D01*
X168024211Y-134599523D01*
X168120184Y-134752262D01*
X168247738Y-134879816D01*
X168400478Y-134975789D01*
X168570745Y-135035368D01*
X168570750Y-135035369D01*
X168749996Y-135055565D01*
X168750000Y-135055565D01*
X168750004Y-135055565D01*
X168929249Y-135035369D01*
X168929252Y-135035368D01*
X168929255Y-135035368D01*
X169099522Y-134975789D01*
X169252262Y-134879816D01*
X169379816Y-134752262D01*
X169475789Y-134599522D01*
X169535368Y-134429255D01*
X169555565Y-134250000D01*
X169535368Y-134070745D01*
X169475789Y-133900478D01*
X169379816Y-133747738D01*
X169252262Y-133620184D01*
X169099523Y-133524211D01*
X168929254Y-133464631D01*
X168929249Y-133464630D01*
X168750004Y-133444435D01*
X168749996Y-133444435D01*
X168570750Y-133464630D01*
X168570745Y-133464631D01*
X168400476Y-133524211D01*
X168247737Y-133620184D01*
X168120184Y-133747737D01*
X168024211Y-133900476D01*
X167964631Y-134070745D01*
X167964630Y-134070750D01*
X167944435Y-134249996D01*
X161750000Y-134249996D01*
X161750000Y-125624996D01*
X163819435Y-125624996D01*
X163819435Y-125625003D01*
X163839630Y-125804249D01*
X163839631Y-125804254D01*
X163899211Y-125974523D01*
X163995184Y-126127262D01*
X164122738Y-126254816D01*
X164213080Y-126311582D01*
X164273461Y-126349522D01*
X164275478Y-126350789D01*
X164445745Y-126410368D01*
X164445750Y-126410369D01*
X164624996Y-126430565D01*
X164625000Y-126430565D01*
X164625004Y-126430565D01*
X164804249Y-126410369D01*
X164804252Y-126410368D01*
X164804255Y-126410368D01*
X164974522Y-126350789D01*
X165127262Y-126254816D01*
X165254816Y-126127262D01*
X165334783Y-125999996D01*
X179194435Y-125999996D01*
X179194435Y-126000003D01*
X179214630Y-126179249D01*
X179214631Y-126179254D01*
X179274211Y-126349523D01*
X179370184Y-126502262D01*
X179497738Y-126629816D01*
X179650478Y-126725789D01*
X179820745Y-126785368D01*
X179820750Y-126785369D01*
X179999996Y-126805565D01*
X180000000Y-126805565D01*
X180000004Y-126805565D01*
X180179249Y-126785369D01*
X180179252Y-126785368D01*
X180179255Y-126785368D01*
X180349522Y-126725789D01*
X180502262Y-126629816D01*
X180629816Y-126502262D01*
X180725789Y-126349522D01*
X180785368Y-126179255D01*
X180805565Y-126000000D01*
X180802694Y-125974523D01*
X180785369Y-125820750D01*
X180785368Y-125820745D01*
X180725788Y-125650476D01*
X180629815Y-125497737D01*
X180502262Y-125370184D01*
X180349523Y-125274211D01*
X180179254Y-125214631D01*
X180179249Y-125214630D01*
X180000004Y-125194435D01*
X179999996Y-125194435D01*
X179820750Y-125214630D01*
X179820745Y-125214631D01*
X179650476Y-125274211D01*
X179497737Y-125370184D01*
X179370184Y-125497737D01*
X179274211Y-125650476D01*
X179214631Y-125820745D01*
X179214630Y-125820750D01*
X179194435Y-125999996D01*
X165334783Y-125999996D01*
X165350789Y-125974522D01*
X165410368Y-125804255D01*
X165410369Y-125804249D01*
X165430565Y-125625003D01*
X165430565Y-125624996D01*
X165410369Y-125445750D01*
X165410368Y-125445745D01*
X165350788Y-125275476D01*
X165254815Y-125122737D01*
X165127262Y-124995184D01*
X164974523Y-124899211D01*
X164804254Y-124839631D01*
X164804249Y-124839630D01*
X164625004Y-124819435D01*
X164624996Y-124819435D01*
X164445750Y-124839630D01*
X164445745Y-124839631D01*
X164275476Y-124899211D01*
X164122737Y-124995184D01*
X163995184Y-125122737D01*
X163899211Y-125275476D01*
X163839631Y-125445745D01*
X163839630Y-125445750D01*
X163819435Y-125624996D01*
X161750000Y-125624996D01*
X161750000Y-122249996D01*
X175694435Y-122249996D01*
X175694435Y-122250003D01*
X175714630Y-122429249D01*
X175714631Y-122429254D01*
X175774211Y-122599523D01*
X175868760Y-122749996D01*
X175870184Y-122752262D01*
X175997738Y-122879816D01*
X176150478Y-122975789D01*
X176320745Y-123035368D01*
X176320750Y-123035369D01*
X176499996Y-123055565D01*
X176500000Y-123055565D01*
X176500004Y-123055565D01*
X176679249Y-123035369D01*
X176679252Y-123035368D01*
X176679255Y-123035368D01*
X176849522Y-122975789D01*
X177002262Y-122879816D01*
X177129816Y-122752262D01*
X177131240Y-122749996D01*
X179944435Y-122749996D01*
X179944435Y-122750003D01*
X179964630Y-122929249D01*
X179964631Y-122929254D01*
X180024211Y-123099523D01*
X180120184Y-123252262D01*
X180247738Y-123379816D01*
X180400478Y-123475789D01*
X180570745Y-123535368D01*
X180570750Y-123535369D01*
X180749996Y-123555565D01*
X180750000Y-123555565D01*
X180750004Y-123555565D01*
X180929249Y-123535369D01*
X180929252Y-123535368D01*
X180929255Y-123535368D01*
X181099522Y-123475789D01*
X181252262Y-123379816D01*
X181379816Y-123252262D01*
X181475789Y-123099522D01*
X181535368Y-122929255D01*
X181535369Y-122929249D01*
X181555565Y-122750003D01*
X181555565Y-122749996D01*
X181535369Y-122570750D01*
X181535368Y-122570745D01*
X181475789Y-122400478D01*
X181379816Y-122247738D01*
X181252262Y-122120184D01*
X181099523Y-122024211D01*
X180929254Y-121964631D01*
X180929249Y-121964630D01*
X180750004Y-121944435D01*
X180749996Y-121944435D01*
X180570750Y-121964630D01*
X180570745Y-121964631D01*
X180400476Y-122024211D01*
X180247737Y-122120184D01*
X180120184Y-122247737D01*
X180024211Y-122400476D01*
X179964631Y-122570745D01*
X179964630Y-122570750D01*
X179944435Y-122749996D01*
X177131240Y-122749996D01*
X177225789Y-122599522D01*
X177285368Y-122429255D01*
X177285369Y-122429249D01*
X177305565Y-122250003D01*
X177305565Y-122249996D01*
X177285369Y-122070750D01*
X177285368Y-122070745D01*
X177225788Y-121900476D01*
X177129815Y-121747737D01*
X177002262Y-121620184D01*
X176849523Y-121524211D01*
X176679254Y-121464631D01*
X176679249Y-121464630D01*
X176500004Y-121444435D01*
X176499996Y-121444435D01*
X176320750Y-121464630D01*
X176320745Y-121464631D01*
X176150476Y-121524211D01*
X175997737Y-121620184D01*
X175870184Y-121747737D01*
X175774211Y-121900476D01*
X175714631Y-122070745D01*
X175714630Y-122070750D01*
X175694435Y-122249996D01*
X161750000Y-122249996D01*
X161750000Y-119749996D01*
X164694435Y-119749996D01*
X164694435Y-119750003D01*
X164714630Y-119929249D01*
X164714631Y-119929254D01*
X164774211Y-120099523D01*
X164870184Y-120252262D01*
X164997738Y-120379816D01*
X165150478Y-120475789D01*
X165320745Y-120535368D01*
X165320750Y-120535369D01*
X165499996Y-120555565D01*
X165500000Y-120555565D01*
X165500004Y-120555565D01*
X165679249Y-120535369D01*
X165679252Y-120535368D01*
X165679255Y-120535368D01*
X165849522Y-120475789D01*
X166002262Y-120379816D01*
X166129816Y-120252262D01*
X166225789Y-120099522D01*
X166285368Y-119929255D01*
X166285369Y-119929249D01*
X166305565Y-119750003D01*
X166305565Y-119749996D01*
X166285369Y-119570750D01*
X166285368Y-119570745D01*
X166225788Y-119400476D01*
X166129815Y-119247737D01*
X166002262Y-119120184D01*
X165849523Y-119024211D01*
X165780321Y-118999996D01*
X171444435Y-118999996D01*
X171444435Y-119000003D01*
X171464630Y-119179249D01*
X171464631Y-119179254D01*
X171524211Y-119349523D01*
X171620184Y-119502262D01*
X171747738Y-119629816D01*
X171900478Y-119725789D01*
X171969678Y-119750003D01*
X172070745Y-119785368D01*
X172070750Y-119785369D01*
X172249996Y-119805565D01*
X172250000Y-119805565D01*
X172250004Y-119805565D01*
X172429249Y-119785369D01*
X172429252Y-119785368D01*
X172429255Y-119785368D01*
X172599522Y-119725789D01*
X172752262Y-119629816D01*
X172879816Y-119502262D01*
X172975789Y-119349522D01*
X173035368Y-119179255D01*
X173055565Y-119000000D01*
X173049304Y-118944435D01*
X173035369Y-118820750D01*
X173035368Y-118820745D01*
X172975788Y-118650476D01*
X172879815Y-118497737D01*
X172752262Y-118370184D01*
X172599523Y-118274211D01*
X172429254Y-118214631D01*
X172429249Y-118214630D01*
X172250004Y-118194435D01*
X172249996Y-118194435D01*
X172070750Y-118214630D01*
X172070745Y-118214631D01*
X171900476Y-118274211D01*
X171747737Y-118370184D01*
X171620184Y-118497737D01*
X171524211Y-118650476D01*
X171464631Y-118820745D01*
X171464630Y-118820750D01*
X171444435Y-118999996D01*
X165780321Y-118999996D01*
X165679254Y-118964631D01*
X165679249Y-118964630D01*
X165500004Y-118944435D01*
X165499996Y-118944435D01*
X165320750Y-118964630D01*
X165320745Y-118964631D01*
X165150476Y-119024211D01*
X164997737Y-119120184D01*
X164870184Y-119247737D01*
X164774211Y-119400476D01*
X164714631Y-119570745D01*
X164714630Y-119570750D01*
X164694435Y-119749996D01*
X161750000Y-119749996D01*
X161750000Y-115499996D01*
X167194435Y-115499996D01*
X167194435Y-115500003D01*
X167214630Y-115679249D01*
X167214631Y-115679254D01*
X167274211Y-115849523D01*
X167370184Y-116002262D01*
X167405241Y-116037319D01*
X167438726Y-116098642D01*
X167433742Y-116168334D01*
X167405241Y-116212681D01*
X167370184Y-116247737D01*
X167274211Y-116400476D01*
X167214631Y-116570745D01*
X167214630Y-116570750D01*
X167194435Y-116749996D01*
X167194435Y-116750003D01*
X167214630Y-116929249D01*
X167214631Y-116929254D01*
X167274211Y-117099523D01*
X167370184Y-117252262D01*
X167497738Y-117379816D01*
X167650478Y-117475789D01*
X167719678Y-117500003D01*
X167820745Y-117535368D01*
X167820750Y-117535369D01*
X167999996Y-117555565D01*
X168000000Y-117555565D01*
X168000004Y-117555565D01*
X168179249Y-117535369D01*
X168179252Y-117535368D01*
X168179255Y-117535368D01*
X168280342Y-117499996D01*
X176444435Y-117499996D01*
X176444435Y-117500003D01*
X176464630Y-117679249D01*
X176464631Y-117679254D01*
X176524211Y-117849523D01*
X176620184Y-118002262D01*
X176747738Y-118129816D01*
X176838080Y-118186582D01*
X176882721Y-118214632D01*
X176900478Y-118225789D01*
X177038860Y-118274211D01*
X177070745Y-118285368D01*
X177070750Y-118285369D01*
X177249996Y-118305565D01*
X177250000Y-118305565D01*
X177250004Y-118305565D01*
X177429249Y-118285369D01*
X177429252Y-118285368D01*
X177429255Y-118285368D01*
X177599522Y-118225789D01*
X177752262Y-118129816D01*
X177879816Y-118002262D01*
X177975789Y-117849522D01*
X178035368Y-117679255D01*
X178035369Y-117679249D01*
X178055565Y-117500003D01*
X178055565Y-117499996D01*
X178035369Y-117320750D01*
X178035368Y-117320745D01*
X177975788Y-117150476D01*
X177879815Y-116997737D01*
X177752262Y-116870184D01*
X177599523Y-116774211D01*
X177429254Y-116714631D01*
X177429249Y-116714630D01*
X177250004Y-116694435D01*
X177249996Y-116694435D01*
X177070750Y-116714630D01*
X177070745Y-116714631D01*
X176900476Y-116774211D01*
X176747737Y-116870184D01*
X176620184Y-116997737D01*
X176524211Y-117150476D01*
X176464631Y-117320745D01*
X176464630Y-117320750D01*
X176444435Y-117499996D01*
X168280342Y-117499996D01*
X168349522Y-117475789D01*
X168502262Y-117379816D01*
X168629816Y-117252262D01*
X168725789Y-117099522D01*
X168785368Y-116929255D01*
X168805565Y-116750000D01*
X168799304Y-116694435D01*
X168785369Y-116570750D01*
X168785368Y-116570745D01*
X168725788Y-116400476D01*
X168629815Y-116247737D01*
X168594759Y-116212681D01*
X168561274Y-116151358D01*
X168566258Y-116081666D01*
X168594759Y-116037319D01*
X168629816Y-116002262D01*
X168725789Y-115849522D01*
X168785368Y-115679255D01*
X168805565Y-115500000D01*
X168785368Y-115320745D01*
X168725789Y-115150478D01*
X168629816Y-114997738D01*
X168502262Y-114870184D01*
X168349523Y-114774211D01*
X168179254Y-114714631D01*
X168179249Y-114714630D01*
X168000004Y-114694435D01*
X167999996Y-114694435D01*
X167820750Y-114714630D01*
X167820745Y-114714631D01*
X167650476Y-114774211D01*
X167497737Y-114870184D01*
X167370184Y-114997737D01*
X167274211Y-115150476D01*
X167214631Y-115320745D01*
X167214630Y-115320750D01*
X167194435Y-115499996D01*
X161750000Y-115499996D01*
X161750000Y-113299996D01*
X168944435Y-113299996D01*
X168944435Y-113300003D01*
X168964630Y-113479249D01*
X168964631Y-113479254D01*
X169024211Y-113649523D01*
X169066011Y-113716047D01*
X169120184Y-113802262D01*
X169247738Y-113929816D01*
X169400478Y-114025789D01*
X169543258Y-114075750D01*
X169570745Y-114085368D01*
X169570750Y-114085369D01*
X169749996Y-114105565D01*
X169750000Y-114105565D01*
X169750004Y-114105565D01*
X169929249Y-114085369D01*
X169929252Y-114085368D01*
X169929255Y-114085368D01*
X170099522Y-114025789D01*
X170252262Y-113929816D01*
X170379816Y-113802262D01*
X170475789Y-113649522D01*
X170535368Y-113479255D01*
X170555565Y-113300000D01*
X170554606Y-113291491D01*
X170535369Y-113120750D01*
X170535368Y-113120745D01*
X170482845Y-112970644D01*
X170475789Y-112950478D01*
X170379816Y-112797738D01*
X170252262Y-112670184D01*
X170099523Y-112574211D01*
X169929254Y-112514631D01*
X169929249Y-112514630D01*
X169750004Y-112494435D01*
X169749996Y-112494435D01*
X169570750Y-112514630D01*
X169570745Y-112514631D01*
X169400476Y-112574211D01*
X169247737Y-112670184D01*
X169120184Y-112797737D01*
X169024211Y-112950476D01*
X168964631Y-113120745D01*
X168964630Y-113120750D01*
X168944435Y-113299996D01*
X161750000Y-113299996D01*
X161750000Y-111624000D01*
X161769685Y-111556961D01*
X161822489Y-111511206D01*
X161874000Y-111500000D01*
X180006783Y-111500000D01*
X180073822Y-111519685D01*
G37*
%TD.AperFunction*%
%TD*%
%TA.AperFunction,Conductor*%
%TO.N,+3.3V*%
G36*
X139635599Y-111019685D02*
G01*
X139681354Y-111072489D01*
X139691298Y-111141647D01*
X139662273Y-111205203D01*
X139656241Y-111211681D01*
X139620184Y-111247737D01*
X139524211Y-111400476D01*
X139464631Y-111570745D01*
X139464630Y-111570750D01*
X139444435Y-111749996D01*
X139444435Y-111750003D01*
X139464630Y-111929249D01*
X139464631Y-111929254D01*
X139524212Y-112099525D01*
X139530504Y-112109539D01*
X139549504Y-112176776D01*
X139529136Y-112243611D01*
X139475867Y-112288824D01*
X139406611Y-112298061D01*
X139359539Y-112280504D01*
X139349525Y-112274212D01*
X139179254Y-112214631D01*
X139179249Y-112214630D01*
X139000004Y-112194435D01*
X138999996Y-112194435D01*
X138820750Y-112214630D01*
X138820745Y-112214631D01*
X138650476Y-112274211D01*
X138497737Y-112370184D01*
X138370184Y-112497737D01*
X138274211Y-112650476D01*
X138214631Y-112820745D01*
X138214630Y-112820750D01*
X138194435Y-112999996D01*
X138194435Y-113000003D01*
X138214630Y-113179249D01*
X138214631Y-113179254D01*
X138274211Y-113349523D01*
X138287593Y-113370820D01*
X138370184Y-113502262D01*
X138497738Y-113629816D01*
X138588080Y-113686582D01*
X138634973Y-113716047D01*
X138650478Y-113725789D01*
X138820745Y-113785368D01*
X138820750Y-113785369D01*
X138999996Y-113805565D01*
X139000000Y-113805565D01*
X139000004Y-113805565D01*
X139179249Y-113785369D01*
X139179252Y-113785368D01*
X139179255Y-113785368D01*
X139349522Y-113725789D01*
X139502262Y-113629816D01*
X139629816Y-113502262D01*
X139725789Y-113349522D01*
X139785368Y-113179255D01*
X139785369Y-113179249D01*
X139805565Y-113000003D01*
X139805565Y-112999996D01*
X139785369Y-112820750D01*
X139785368Y-112820745D01*
X139725788Y-112650475D01*
X139719496Y-112640462D01*
X139700495Y-112573225D01*
X139720862Y-112506390D01*
X139774130Y-112461176D01*
X139843386Y-112451937D01*
X139890462Y-112469496D01*
X139900475Y-112475788D01*
X140070745Y-112535368D01*
X140070750Y-112535369D01*
X140249996Y-112555565D01*
X140250000Y-112555565D01*
X140250004Y-112555565D01*
X140429249Y-112535369D01*
X140429252Y-112535368D01*
X140429255Y-112535368D01*
X140599522Y-112475789D01*
X140752262Y-112379816D01*
X140879816Y-112252262D01*
X140975789Y-112099522D01*
X141035368Y-111929255D01*
X141055565Y-111750000D01*
X141047593Y-111679249D01*
X141035369Y-111570750D01*
X141035368Y-111570745D01*
X141009370Y-111496448D01*
X140975789Y-111400478D01*
X140879816Y-111247738D01*
X140843759Y-111211681D01*
X140810274Y-111150358D01*
X140815258Y-111080666D01*
X140857130Y-111024733D01*
X140922594Y-111000316D01*
X140931440Y-111000000D01*
X151902103Y-111000000D01*
X151969142Y-111019685D01*
X152014897Y-111072489D01*
X152024841Y-111141647D01*
X152019145Y-111164954D01*
X151964632Y-111320742D01*
X151964630Y-111320750D01*
X151944435Y-111499996D01*
X151944435Y-111500003D01*
X151964630Y-111679249D01*
X151964631Y-111679254D01*
X152024211Y-111849523D01*
X152120184Y-112002262D01*
X152247738Y-112129816D01*
X152322474Y-112176776D01*
X152382721Y-112214632D01*
X152400478Y-112225789D01*
X152570745Y-112285368D01*
X152570750Y-112285369D01*
X152749996Y-112305565D01*
X152750000Y-112305565D01*
X152750004Y-112305565D01*
X152929249Y-112285369D01*
X152929252Y-112285368D01*
X152929255Y-112285368D01*
X153099522Y-112225789D01*
X153252262Y-112129816D01*
X153379816Y-112002262D01*
X153475789Y-111849522D01*
X153535368Y-111679255D01*
X153535369Y-111679249D01*
X153555565Y-111500003D01*
X153555565Y-111499996D01*
X153535369Y-111320750D01*
X153535367Y-111320742D01*
X153480855Y-111164954D01*
X153477294Y-111095176D01*
X153512023Y-111034548D01*
X153574016Y-111002321D01*
X153597897Y-111000000D01*
X158626000Y-111000000D01*
X158693039Y-111019685D01*
X158738794Y-111072489D01*
X158750000Y-111124000D01*
X158750000Y-115330031D01*
X158730315Y-115397070D01*
X158677511Y-115442825D01*
X158608353Y-115452769D01*
X158544797Y-115423744D01*
X158538319Y-115417712D01*
X158408002Y-115287395D01*
X158255263Y-115191422D01*
X158084994Y-115131842D01*
X158084989Y-115131841D01*
X157905744Y-115111646D01*
X157905736Y-115111646D01*
X157726490Y-115131841D01*
X157726485Y-115131842D01*
X157556216Y-115191422D01*
X157403477Y-115287395D01*
X157275924Y-115414948D01*
X157179951Y-115567687D01*
X157120371Y-115737956D01*
X157120370Y-115737961D01*
X157100175Y-115917207D01*
X157100175Y-115917214D01*
X157120370Y-116096460D01*
X157120371Y-116096465D01*
X157179951Y-116266734D01*
X157274188Y-116416710D01*
X157275924Y-116419473D01*
X157403478Y-116547027D01*
X157556218Y-116643000D01*
X157706183Y-116695475D01*
X157726485Y-116702579D01*
X157726490Y-116702580D01*
X157905736Y-116722776D01*
X157905740Y-116722776D01*
X157905744Y-116722776D01*
X158084989Y-116702580D01*
X158084992Y-116702579D01*
X158084995Y-116702579D01*
X158255262Y-116643000D01*
X158408002Y-116547027D01*
X158535556Y-116419473D01*
X158535556Y-116419472D01*
X158538319Y-116416710D01*
X158599642Y-116383225D01*
X158669334Y-116388209D01*
X158725267Y-116430081D01*
X158749684Y-116495545D01*
X158750000Y-116504391D01*
X158750000Y-143376000D01*
X158730315Y-143443039D01*
X158677511Y-143488794D01*
X158626000Y-143500000D01*
X134714268Y-143500000D01*
X134647229Y-143480315D01*
X134601474Y-143427511D01*
X134591530Y-143358353D01*
X134616658Y-143299526D01*
X134661652Y-143242095D01*
X134661652Y-143242094D01*
X134661659Y-143242086D01*
X134825749Y-142970647D01*
X134955925Y-142681409D01*
X135050287Y-142378589D01*
X135107461Y-142066603D01*
X135126612Y-141750000D01*
X135107461Y-141433397D01*
X135050287Y-141121411D01*
X134955925Y-140818591D01*
X134825749Y-140529353D01*
X134661659Y-140257914D01*
X134560802Y-140129180D01*
X134466044Y-140008230D01*
X134457810Y-139999996D01*
X143194435Y-139999996D01*
X143194435Y-140000003D01*
X143214630Y-140179249D01*
X143214631Y-140179254D01*
X143274211Y-140349523D01*
X143370184Y-140502262D01*
X143497738Y-140629816D01*
X143650478Y-140725789D01*
X143820745Y-140785368D01*
X143820750Y-140785369D01*
X143999996Y-140805565D01*
X144000000Y-140805565D01*
X144000004Y-140805565D01*
X144179249Y-140785369D01*
X144179252Y-140785368D01*
X144179255Y-140785368D01*
X144349522Y-140725789D01*
X144502262Y-140629816D01*
X144629816Y-140502262D01*
X144725789Y-140349522D01*
X144785368Y-140179255D01*
X144791010Y-140129180D01*
X144805565Y-140000003D01*
X144805565Y-139999996D01*
X144785369Y-139820750D01*
X144785368Y-139820745D01*
X144725788Y-139650476D01*
X144686582Y-139588080D01*
X144629816Y-139497738D01*
X144502262Y-139370184D01*
X144469379Y-139349522D01*
X144349523Y-139274211D01*
X144179254Y-139214631D01*
X144179249Y-139214630D01*
X144000004Y-139194435D01*
X143999996Y-139194435D01*
X143820750Y-139214630D01*
X143820745Y-139214631D01*
X143650476Y-139274211D01*
X143497737Y-139370184D01*
X143370184Y-139497737D01*
X143274211Y-139650476D01*
X143214631Y-139820745D01*
X143214630Y-139820750D01*
X143194435Y-139999996D01*
X134457810Y-139999996D01*
X134241769Y-139783955D01*
X133992092Y-139588345D01*
X133992084Y-139588340D01*
X133849693Y-139502262D01*
X133720647Y-139424251D01*
X133720643Y-139424249D01*
X133720642Y-139424248D01*
X133523498Y-139335521D01*
X133431409Y-139294075D01*
X133431406Y-139294074D01*
X133431396Y-139294070D01*
X133337109Y-139264689D01*
X133278962Y-139225951D01*
X133250988Y-139161926D01*
X133250000Y-139146304D01*
X133250000Y-138999996D01*
X150194435Y-138999996D01*
X150194435Y-139000003D01*
X150214630Y-139179249D01*
X150214631Y-139179254D01*
X150274211Y-139349523D01*
X150321166Y-139424251D01*
X150370184Y-139502262D01*
X150497738Y-139629816D01*
X150650478Y-139725789D01*
X150816701Y-139783953D01*
X150820745Y-139785368D01*
X150820750Y-139785369D01*
X150999996Y-139805565D01*
X151000000Y-139805565D01*
X151000004Y-139805565D01*
X151179249Y-139785369D01*
X151179252Y-139785368D01*
X151179255Y-139785368D01*
X151349522Y-139725789D01*
X151502262Y-139629816D01*
X151629816Y-139502262D01*
X151725789Y-139349522D01*
X151785368Y-139179255D01*
X151785369Y-139179249D01*
X151805565Y-139000003D01*
X151805565Y-138999996D01*
X151785369Y-138820750D01*
X151785368Y-138820745D01*
X151725788Y-138650476D01*
X151629815Y-138497737D01*
X151502262Y-138370184D01*
X151349523Y-138274211D01*
X151179254Y-138214631D01*
X151179249Y-138214630D01*
X151000004Y-138194435D01*
X150999996Y-138194435D01*
X150820750Y-138214630D01*
X150820745Y-138214631D01*
X150650476Y-138274211D01*
X150497737Y-138370184D01*
X150370184Y-138497737D01*
X150274211Y-138650476D01*
X150214631Y-138820745D01*
X150214630Y-138820750D01*
X150194435Y-138999996D01*
X133250000Y-138999996D01*
X133250000Y-137339874D01*
X143354557Y-137339874D01*
X143354557Y-137339881D01*
X143374752Y-137519127D01*
X143374753Y-137519132D01*
X143434333Y-137689401D01*
X143530306Y-137842140D01*
X143657860Y-137969694D01*
X143810600Y-138065667D01*
X143980867Y-138125246D01*
X143980872Y-138125247D01*
X144160118Y-138145443D01*
X144160122Y-138145443D01*
X144160126Y-138145443D01*
X144339371Y-138125247D01*
X144339374Y-138125246D01*
X144339377Y-138125246D01*
X144509644Y-138065667D01*
X144662384Y-137969694D01*
X144789938Y-137842140D01*
X144885911Y-137689400D01*
X144945490Y-137519133D01*
X144961187Y-137379816D01*
X144965687Y-137339881D01*
X144965687Y-137339874D01*
X144945491Y-137160628D01*
X144945490Y-137160623D01*
X144885910Y-136990354D01*
X144789937Y-136837615D01*
X144662384Y-136710062D01*
X144509645Y-136614089D01*
X144339376Y-136554509D01*
X144339371Y-136554508D01*
X144160126Y-136534313D01*
X144160118Y-136534313D01*
X143980872Y-136554508D01*
X143980867Y-136554509D01*
X143810598Y-136614089D01*
X143657859Y-136710062D01*
X143530306Y-136837615D01*
X143434333Y-136990354D01*
X143374753Y-137160623D01*
X143374752Y-137160628D01*
X143354557Y-137339874D01*
X133250000Y-137339874D01*
X133250000Y-135499996D01*
X137194435Y-135499996D01*
X137194435Y-135500003D01*
X137214630Y-135679249D01*
X137214631Y-135679254D01*
X137274211Y-135849523D01*
X137345094Y-135962332D01*
X137370184Y-136002262D01*
X137497738Y-136129816D01*
X137650478Y-136225789D01*
X137698713Y-136242667D01*
X137820745Y-136285368D01*
X137820750Y-136285369D01*
X137999996Y-136305565D01*
X138000000Y-136305565D01*
X138000004Y-136305565D01*
X138179249Y-136285369D01*
X138179252Y-136285368D01*
X138179255Y-136285368D01*
X138349522Y-136225789D01*
X138502262Y-136129816D01*
X138629816Y-136002262D01*
X138631240Y-135999996D01*
X145944435Y-135999996D01*
X145944435Y-136000003D01*
X145964630Y-136179249D01*
X145964631Y-136179254D01*
X146024211Y-136349523D01*
X146120184Y-136502262D01*
X146247738Y-136629816D01*
X146338080Y-136686582D01*
X146375448Y-136710062D01*
X146400478Y-136725789D01*
X146469678Y-136750003D01*
X146570745Y-136785368D01*
X146570750Y-136785369D01*
X146749996Y-136805565D01*
X146750000Y-136805565D01*
X146750004Y-136805565D01*
X146929249Y-136785369D01*
X146929252Y-136785368D01*
X146929255Y-136785368D01*
X147030342Y-136749996D01*
X150444435Y-136749996D01*
X150444435Y-136750003D01*
X150464630Y-136929249D01*
X150464631Y-136929254D01*
X150524211Y-137099523D01*
X150562603Y-137160623D01*
X150620184Y-137252262D01*
X150747738Y-137379816D01*
X150900478Y-137475789D01*
X151024331Y-137519127D01*
X151070745Y-137535368D01*
X151070750Y-137535369D01*
X151249996Y-137555565D01*
X151250000Y-137555565D01*
X151250004Y-137555565D01*
X151429249Y-137535369D01*
X151429252Y-137535368D01*
X151429255Y-137535368D01*
X151599522Y-137475789D01*
X151752262Y-137379816D01*
X151879816Y-137252262D01*
X151975789Y-137099522D01*
X152035368Y-136929255D01*
X152045693Y-136837616D01*
X152055565Y-136750003D01*
X152055565Y-136749996D01*
X152035369Y-136570750D01*
X152035368Y-136570745D01*
X151975788Y-136400476D01*
X151903461Y-136285369D01*
X151879816Y-136247738D01*
X151874745Y-136242667D01*
X151841260Y-136181344D01*
X151846244Y-136111652D01*
X151888116Y-136055719D01*
X151923301Y-136039439D01*
X151922682Y-136037668D01*
X151929255Y-136035368D01*
X152099522Y-135975789D01*
X152252262Y-135879816D01*
X152379816Y-135752262D01*
X152475789Y-135599522D01*
X152535368Y-135429255D01*
X152542024Y-135370184D01*
X152555565Y-135250003D01*
X152555565Y-135249996D01*
X152535369Y-135070750D01*
X152535368Y-135070745D01*
X152475788Y-134900476D01*
X152379815Y-134747737D01*
X152252262Y-134620184D01*
X152099523Y-134524211D01*
X151929254Y-134464631D01*
X151929249Y-134464630D01*
X151750004Y-134444435D01*
X151749996Y-134444435D01*
X151570750Y-134464630D01*
X151570745Y-134464631D01*
X151400476Y-134524211D01*
X151247737Y-134620184D01*
X151120184Y-134747737D01*
X151024211Y-134900476D01*
X150964631Y-135070745D01*
X150964630Y-135070750D01*
X150944435Y-135249996D01*
X150944435Y-135250003D01*
X150964630Y-135429249D01*
X150964631Y-135429254D01*
X151024211Y-135599523D01*
X151120184Y-135752262D01*
X151125254Y-135757332D01*
X151158739Y-135818655D01*
X151153755Y-135888347D01*
X151111883Y-135944280D01*
X151076703Y-135960577D01*
X151077318Y-135962332D01*
X150900476Y-136024211D01*
X150747737Y-136120184D01*
X150620184Y-136247737D01*
X150524211Y-136400476D01*
X150464631Y-136570745D01*
X150464630Y-136570750D01*
X150444435Y-136749996D01*
X147030342Y-136749996D01*
X147099522Y-136725789D01*
X147252262Y-136629816D01*
X147379816Y-136502262D01*
X147475789Y-136349522D01*
X147535368Y-136179255D01*
X147535369Y-136179249D01*
X147555565Y-136000003D01*
X147555565Y-135999996D01*
X147535369Y-135820750D01*
X147535368Y-135820745D01*
X147511405Y-135752262D01*
X147475789Y-135650478D01*
X147379816Y-135497738D01*
X147252262Y-135370184D01*
X147099523Y-135274211D01*
X146929254Y-135214631D01*
X146929249Y-135214630D01*
X146750004Y-135194435D01*
X146749996Y-135194435D01*
X146570750Y-135214630D01*
X146570745Y-135214631D01*
X146400476Y-135274211D01*
X146247737Y-135370184D01*
X146120184Y-135497737D01*
X146024211Y-135650476D01*
X145964631Y-135820745D01*
X145964630Y-135820750D01*
X145944435Y-135999996D01*
X138631240Y-135999996D01*
X138725789Y-135849522D01*
X138785368Y-135679255D01*
X138785369Y-135679249D01*
X138805565Y-135500003D01*
X138805565Y-135499996D01*
X138785369Y-135320750D01*
X138785368Y-135320745D01*
X138725788Y-135150476D01*
X138686582Y-135088080D01*
X138629816Y-134997738D01*
X138502262Y-134870184D01*
X138349523Y-134774211D01*
X138179254Y-134714631D01*
X138179249Y-134714630D01*
X138000004Y-134694435D01*
X137999996Y-134694435D01*
X137820750Y-134714630D01*
X137820745Y-134714631D01*
X137650476Y-134774211D01*
X137497737Y-134870184D01*
X137370184Y-134997737D01*
X137274211Y-135150476D01*
X137214631Y-135320745D01*
X137214630Y-135320750D01*
X137194435Y-135499996D01*
X133250000Y-135499996D01*
X133250000Y-128499996D01*
X138694435Y-128499996D01*
X138694435Y-128500003D01*
X138714630Y-128679249D01*
X138714631Y-128679254D01*
X138774211Y-128849523D01*
X138870184Y-129002262D01*
X138997738Y-129129816D01*
X139150478Y-129225789D01*
X139320745Y-129285368D01*
X139320750Y-129285369D01*
X139499996Y-129305565D01*
X139500000Y-129305565D01*
X139500004Y-129305565D01*
X139679249Y-129285369D01*
X139679252Y-129285368D01*
X139679255Y-129285368D01*
X139849522Y-129225789D01*
X140002262Y-129129816D01*
X140129816Y-129002262D01*
X140225789Y-128849522D01*
X140285368Y-128679255D01*
X140305565Y-128500000D01*
X140285368Y-128320745D01*
X140225789Y-128150478D01*
X140129816Y-127997738D01*
X140002262Y-127870184D01*
X139849523Y-127774211D01*
X139679254Y-127714631D01*
X139679249Y-127714630D01*
X139500004Y-127694435D01*
X139499996Y-127694435D01*
X139320750Y-127714630D01*
X139320745Y-127714631D01*
X139150476Y-127774211D01*
X138997737Y-127870184D01*
X138870184Y-127997737D01*
X138774211Y-128150476D01*
X138714631Y-128320745D01*
X138714630Y-128320750D01*
X138694435Y-128499996D01*
X133250000Y-128499996D01*
X133250000Y-121249996D01*
X156364435Y-121249996D01*
X156364435Y-121250003D01*
X156384630Y-121429249D01*
X156384631Y-121429254D01*
X156444211Y-121599523D01*
X156540184Y-121752262D01*
X156667738Y-121879816D01*
X156820478Y-121975789D01*
X156990745Y-122035368D01*
X156990750Y-122035369D01*
X157169996Y-122055565D01*
X157170000Y-122055565D01*
X157170004Y-122055565D01*
X157349249Y-122035369D01*
X157349252Y-122035368D01*
X157349255Y-122035368D01*
X157519522Y-121975789D01*
X157672262Y-121879816D01*
X157799816Y-121752262D01*
X157895789Y-121599522D01*
X157955368Y-121429255D01*
X157975565Y-121250000D01*
X157955368Y-121070745D01*
X157895789Y-120900478D01*
X157799816Y-120747738D01*
X157672262Y-120620184D01*
X157519523Y-120524211D01*
X157349254Y-120464631D01*
X157349249Y-120464630D01*
X157170004Y-120444435D01*
X157169996Y-120444435D01*
X156990750Y-120464630D01*
X156990745Y-120464631D01*
X156820476Y-120524211D01*
X156667737Y-120620184D01*
X156540184Y-120747737D01*
X156444211Y-120900476D01*
X156384631Y-121070745D01*
X156384630Y-121070750D01*
X156364435Y-121249996D01*
X133250000Y-121249996D01*
X133250000Y-117699999D01*
X142294722Y-117699999D01*
X142294722Y-117700000D01*
X142313762Y-117856818D01*
X142369780Y-118004523D01*
X142459517Y-118134530D01*
X142577760Y-118239283D01*
X142637599Y-118270689D01*
X142674780Y-118290204D01*
X142724992Y-118338789D01*
X142740966Y-118406808D01*
X142717630Y-118472666D01*
X142674780Y-118509796D01*
X142577761Y-118560716D01*
X142459516Y-118665471D01*
X142369781Y-118795475D01*
X142369780Y-118795476D01*
X142313762Y-118943181D01*
X142294722Y-119099999D01*
X142294722Y-119100000D01*
X142313762Y-119256818D01*
X142369780Y-119404523D01*
X142459517Y-119534530D01*
X142577760Y-119639283D01*
X142577762Y-119639284D01*
X142717634Y-119712696D01*
X142871014Y-119750500D01*
X142871015Y-119750500D01*
X142878857Y-119750500D01*
X142945896Y-119770185D01*
X142991651Y-119822989D01*
X143001953Y-119859554D01*
X143013762Y-119956818D01*
X143060307Y-120079544D01*
X143069780Y-120104523D01*
X143159517Y-120234530D01*
X143277760Y-120339283D01*
X143277762Y-120339284D01*
X143417634Y-120412696D01*
X143571014Y-120450500D01*
X143571015Y-120450500D01*
X143728985Y-120450500D01*
X143882365Y-120412696D01*
X144022240Y-120339283D01*
X144140483Y-120234530D01*
X144230220Y-120104523D01*
X144234058Y-120094400D01*
X144276236Y-120038700D01*
X144341833Y-120014642D01*
X144410023Y-120029869D01*
X144459157Y-120079544D01*
X144465942Y-120094402D01*
X144469780Y-120104524D01*
X144527627Y-120188330D01*
X144559517Y-120234530D01*
X144677760Y-120339283D01*
X144677762Y-120339284D01*
X144817634Y-120412696D01*
X144971014Y-120450500D01*
X144971015Y-120450500D01*
X145128985Y-120450500D01*
X145282365Y-120412696D01*
X145422240Y-120339283D01*
X145540483Y-120234530D01*
X145630220Y-120104523D01*
X145686237Y-119956818D01*
X145698047Y-119859554D01*
X145725669Y-119795376D01*
X145783603Y-119756319D01*
X145821143Y-119750500D01*
X145828985Y-119750500D01*
X145982365Y-119712696D01*
X146122240Y-119639283D01*
X146240483Y-119534530D01*
X146330220Y-119404523D01*
X146386237Y-119256818D01*
X146405278Y-119100000D01*
X146386237Y-118943182D01*
X146330220Y-118795477D01*
X146240483Y-118665470D01*
X146122240Y-118560717D01*
X146122238Y-118560716D01*
X146122237Y-118560715D01*
X146025220Y-118509796D01*
X145975007Y-118461212D01*
X145959033Y-118393193D01*
X145982368Y-118327335D01*
X146025220Y-118290204D01*
X146060348Y-118271766D01*
X146122240Y-118239283D01*
X146240483Y-118134530D01*
X146330220Y-118004523D01*
X146386237Y-117856818D01*
X146405278Y-117700000D01*
X146386237Y-117543182D01*
X146330220Y-117395477D01*
X146240483Y-117265470D01*
X146122240Y-117160717D01*
X146122238Y-117160716D01*
X146122237Y-117160715D01*
X145982365Y-117087303D01*
X145828986Y-117049500D01*
X145828985Y-117049500D01*
X145821143Y-117049500D01*
X145754104Y-117029815D01*
X145708349Y-116977011D01*
X145698047Y-116940446D01*
X145686237Y-116843181D01*
X145639692Y-116720453D01*
X145630220Y-116695477D01*
X145540483Y-116565470D01*
X145422240Y-116460717D01*
X145422238Y-116460716D01*
X145422237Y-116460715D01*
X145282365Y-116387303D01*
X145128986Y-116349500D01*
X145128985Y-116349500D01*
X144971015Y-116349500D01*
X144971014Y-116349500D01*
X144817634Y-116387303D01*
X144677762Y-116460715D01*
X144559516Y-116565471D01*
X144469781Y-116695475D01*
X144469779Y-116695478D01*
X144465941Y-116705599D01*
X144423763Y-116761301D01*
X144358165Y-116785357D01*
X144289975Y-116770129D01*
X144240842Y-116720453D01*
X144234059Y-116705599D01*
X144230220Y-116695478D01*
X144230220Y-116695477D01*
X144140483Y-116565470D01*
X144022240Y-116460717D01*
X144022238Y-116460716D01*
X144022237Y-116460715D01*
X143882365Y-116387303D01*
X143728986Y-116349500D01*
X143728985Y-116349500D01*
X143571015Y-116349500D01*
X143571014Y-116349500D01*
X143417634Y-116387303D01*
X143277762Y-116460715D01*
X143159516Y-116565471D01*
X143069781Y-116695475D01*
X143069780Y-116695476D01*
X143013762Y-116843181D01*
X143001953Y-116940446D01*
X142974331Y-117004624D01*
X142916397Y-117043681D01*
X142878857Y-117049500D01*
X142871014Y-117049500D01*
X142717634Y-117087303D01*
X142577762Y-117160715D01*
X142459516Y-117265471D01*
X142369781Y-117395475D01*
X142369780Y-117395476D01*
X142313762Y-117543181D01*
X142294722Y-117699999D01*
X133250000Y-117699999D01*
X133250000Y-114353695D01*
X133269685Y-114286656D01*
X133322489Y-114240901D01*
X133337101Y-114235312D01*
X133431409Y-114205925D01*
X133720647Y-114075749D01*
X133992086Y-113911659D01*
X134241766Y-113716047D01*
X134466047Y-113491766D01*
X134661659Y-113242086D01*
X134825749Y-112970647D01*
X134955925Y-112681409D01*
X135050287Y-112378589D01*
X135107461Y-112066603D01*
X135126612Y-111750000D01*
X135107461Y-111433397D01*
X135054857Y-111146349D01*
X135062135Y-111076862D01*
X135105826Y-111022339D01*
X135172060Y-111000092D01*
X135176826Y-111000000D01*
X139568560Y-111000000D01*
X139635599Y-111019685D01*
G37*
%TD.AperFunction*%
%TD*%
M02*
