%TF.GenerationSoftware,KiCad,Pcbnew,8.0.8-8.0.8-0~ubuntu24.04.1*%
%TF.CreationDate,2025-02-07T13:21:18-05:00*%
%TF.ProjectId,snowboard,736e6f77-626f-4617-9264-2e6b69636164,rev?*%
%TF.SameCoordinates,Original*%
%TF.FileFunction,Copper,L2,Inr*%
%TF.FilePolarity,Positive*%
%FSLAX46Y46*%
G04 Gerber Fmt 4.6, Leading zero omitted, Abs format (unit mm)*
G04 Created by KiCad (PCBNEW 8.0.8-8.0.8-0~ubuntu24.04.1) date 2025-02-07 13:21:18*
%MOMM*%
%LPD*%
G01*
G04 APERTURE LIST*
%TA.AperFunction,ComponentPad*%
%ADD10O,1.800000X0.900000*%
%TD*%
%TA.AperFunction,ComponentPad*%
%ADD11R,1.308000X1.308000*%
%TD*%
%TA.AperFunction,ComponentPad*%
%ADD12C,1.308000*%
%TD*%
%TA.AperFunction,ComponentPad*%
%ADD13C,0.300000*%
%TD*%
%TA.AperFunction,ViaPad*%
%ADD14C,0.600000*%
%TD*%
G04 APERTURE END LIST*
D10*
%TO.N,unconnected-(J1-SHIELD__4-PadS5)*%
%TO.C,J1*%
X190750000Y-130550000D03*
%TO.N,unconnected-(J1-SHIELD__5-PadS6)*%
X190750000Y-123950000D03*
%TD*%
D11*
%TO.N,+BATT*%
%TO.C,J2*%
X176750000Y-141500000D03*
D12*
%TO.N,GND*%
X174750000Y-141500000D03*
%TD*%
D13*
%TO.N,N/C*%
%TO.C,U1*%
X145050000Y-119800000D03*
X143650000Y-119800000D03*
X145750000Y-119100000D03*
X144350000Y-119100000D03*
X142950000Y-119100000D03*
X145050000Y-118400000D03*
X143650000Y-118400000D03*
X145750000Y-117700000D03*
X144350000Y-117700000D03*
X142950000Y-117700000D03*
X145050000Y-117000000D03*
X143650000Y-117000000D03*
%TD*%
D14*
%TO.N,GND*%
X144160122Y-137339878D03*
X144000000Y-140000000D03*
%TO.N,+3.3V*%
X140500000Y-136000000D03*
X147102040Y-141318205D03*
%TO.N,GND*%
X151000000Y-139000000D03*
X140250000Y-111750000D03*
X177250000Y-117500000D03*
X146750000Y-136000000D03*
X180750000Y-122750000D03*
X176500000Y-122250000D03*
X138000000Y-135500000D03*
X180000000Y-126000000D03*
X139500000Y-128500000D03*
X168750000Y-134250000D03*
X152750000Y-111500000D03*
%TO.N,VBUS*%
X178750000Y-133117600D03*
X179750000Y-120500000D03*
X168750000Y-135250000D03*
X177500000Y-128500000D03*
%TO.N,+3.3V*%
X138750000Y-111750000D03*
X158500000Y-116500000D03*
X158250000Y-139500000D03*
X158500000Y-121750000D03*
X158250000Y-135250000D03*
%TO.N,/D_N*%
X185500000Y-126650000D03*
X186750000Y-127900000D03*
%TO.N,/AEN*%
X139000000Y-113000000D03*
X169750000Y-113300000D03*
X164625000Y-125625000D03*
%TO.N,/IO0*%
X165500000Y-119750000D03*
X168000000Y-115500000D03*
%TO.N,/DTR*%
X168000000Y-116750000D03*
X172250000Y-119000000D03*
%TO.N,/I2C_SCL*%
X151250000Y-136750000D03*
X157905740Y-115917211D03*
%TO.N,/I2C_SDA*%
X151750000Y-135250000D03*
X157170000Y-121250000D03*
%TD*%
%TA.AperFunction,Conductor*%
%TO.N,GND*%
G36*
X138135599Y-111019685D02*
G01*
X138181354Y-111072489D01*
X138191298Y-111141647D01*
X138162273Y-111205203D01*
X138156241Y-111211681D01*
X138120184Y-111247737D01*
X138024211Y-111400476D01*
X137964631Y-111570745D01*
X137964630Y-111570750D01*
X137944435Y-111749996D01*
X137944435Y-111750003D01*
X137964630Y-111929249D01*
X137964631Y-111929254D01*
X138024211Y-112099523D01*
X138103826Y-112226228D01*
X138120184Y-112252262D01*
X138247738Y-112379816D01*
X138283652Y-112402382D01*
X138329943Y-112454717D01*
X138340591Y-112523770D01*
X138322674Y-112573347D01*
X138274212Y-112650474D01*
X138214631Y-112820745D01*
X138214630Y-112820750D01*
X138194435Y-112999996D01*
X138194435Y-113000003D01*
X138214630Y-113179249D01*
X138214631Y-113179254D01*
X138274211Y-113349523D01*
X138287593Y-113370820D01*
X138370184Y-113502262D01*
X138497738Y-113629816D01*
X138564068Y-113671494D01*
X138634973Y-113716047D01*
X138650478Y-113725789D01*
X138745890Y-113759175D01*
X138820745Y-113785368D01*
X138820750Y-113785369D01*
X138999996Y-113805565D01*
X139000000Y-113805565D01*
X139000004Y-113805565D01*
X139179249Y-113785369D01*
X139179252Y-113785368D01*
X139179255Y-113785368D01*
X139349522Y-113725789D01*
X139502262Y-113629816D01*
X139629816Y-113502262D01*
X139725789Y-113349522D01*
X139743119Y-113299996D01*
X168944435Y-113299996D01*
X168944435Y-113300003D01*
X168964630Y-113479249D01*
X168964631Y-113479254D01*
X169024211Y-113649523D01*
X169109569Y-113785368D01*
X169120184Y-113802262D01*
X169247738Y-113929816D01*
X169400478Y-114025789D01*
X169543258Y-114075750D01*
X169570745Y-114085368D01*
X169570750Y-114085369D01*
X169749996Y-114105565D01*
X169750000Y-114105565D01*
X169750004Y-114105565D01*
X169929249Y-114085369D01*
X169929252Y-114085368D01*
X169929255Y-114085368D01*
X170099522Y-114025789D01*
X170252262Y-113929816D01*
X170379816Y-113802262D01*
X170475789Y-113649522D01*
X170535368Y-113479255D01*
X170549985Y-113349523D01*
X170555565Y-113300003D01*
X170555565Y-113299996D01*
X170535369Y-113120750D01*
X170535368Y-113120745D01*
X170514557Y-113061271D01*
X170475789Y-112950478D01*
X170379816Y-112797738D01*
X170252262Y-112670184D01*
X170220894Y-112650474D01*
X170099523Y-112574211D01*
X169929254Y-112514631D01*
X169929249Y-112514630D01*
X169750004Y-112494435D01*
X169749996Y-112494435D01*
X169570750Y-112514630D01*
X169570745Y-112514631D01*
X169400476Y-112574211D01*
X169247737Y-112670184D01*
X169120184Y-112797737D01*
X169024211Y-112950476D01*
X168964631Y-113120745D01*
X168964630Y-113120750D01*
X168944435Y-113299996D01*
X139743119Y-113299996D01*
X139785368Y-113179255D01*
X139791960Y-113120750D01*
X139805565Y-113000003D01*
X139805565Y-112999996D01*
X139785369Y-112820750D01*
X139785368Y-112820745D01*
X139725789Y-112650478D01*
X139725786Y-112650474D01*
X139640431Y-112514632D01*
X139629816Y-112497738D01*
X139502262Y-112370184D01*
X139502260Y-112370182D01*
X139466346Y-112347616D01*
X139420056Y-112295281D01*
X139409408Y-112226228D01*
X139427326Y-112176650D01*
X139475788Y-112099524D01*
X139535368Y-111929254D01*
X139535369Y-111929249D01*
X139555565Y-111750003D01*
X139555565Y-111749996D01*
X139535369Y-111570750D01*
X139535368Y-111570745D01*
X139509370Y-111496448D01*
X139475789Y-111400478D01*
X139379816Y-111247738D01*
X139343759Y-111211681D01*
X139310274Y-111150358D01*
X139315258Y-111080666D01*
X139357130Y-111024733D01*
X139422594Y-111000316D01*
X139431440Y-111000000D01*
X180073174Y-111000000D01*
X180140213Y-111019685D01*
X180185968Y-111072489D01*
X180195912Y-111141647D01*
X180195148Y-111146319D01*
X180176563Y-111247737D01*
X180142538Y-111433402D01*
X180123388Y-111750000D01*
X180142538Y-112066597D01*
X180199713Y-112378589D01*
X180284436Y-112650478D01*
X180294075Y-112681409D01*
X180424251Y-112970647D01*
X180588340Y-113242084D01*
X180588345Y-113242092D01*
X180783955Y-113491769D01*
X181008230Y-113716044D01*
X181257907Y-113911654D01*
X181257910Y-113911655D01*
X181257914Y-113911659D01*
X181529353Y-114075749D01*
X181818591Y-114205925D01*
X182121411Y-114300287D01*
X182433397Y-114357461D01*
X182750000Y-114376612D01*
X182868516Y-114369443D01*
X182936618Y-114385043D01*
X182985478Y-114434987D01*
X183000000Y-114493216D01*
X183000000Y-139006782D01*
X182980315Y-139073821D01*
X182927511Y-139119576D01*
X182868514Y-139130556D01*
X182750000Y-139123388D01*
X182433402Y-139142538D01*
X182121410Y-139199713D01*
X181818596Y-139294073D01*
X181818592Y-139294074D01*
X181818591Y-139294075D01*
X181759333Y-139320745D01*
X181529357Y-139424249D01*
X181529355Y-139424250D01*
X181257915Y-139588340D01*
X181257907Y-139588345D01*
X181008230Y-139783955D01*
X180783955Y-140008230D01*
X180588345Y-140257907D01*
X180588340Y-140257915D01*
X180535393Y-140345501D01*
X180425957Y-140526532D01*
X180424250Y-140529355D01*
X180424249Y-140529357D01*
X180294073Y-140818596D01*
X180199713Y-141121410D01*
X180142538Y-141433402D01*
X180123388Y-141750000D01*
X180142538Y-142066597D01*
X180142538Y-142066602D01*
X180142539Y-142066603D01*
X180152776Y-142122465D01*
X180199713Y-142378589D01*
X180285689Y-142654499D01*
X180294075Y-142681409D01*
X180424251Y-142970647D01*
X180424253Y-142970651D01*
X180424254Y-142970652D01*
X180479385Y-143061851D01*
X180497221Y-143129406D01*
X180475703Y-143195879D01*
X180421662Y-143240167D01*
X180373268Y-143250000D01*
X134876732Y-143250000D01*
X134809693Y-143230315D01*
X134763938Y-143177511D01*
X134753994Y-143108353D01*
X134770615Y-143061851D01*
X134790230Y-143029402D01*
X134825749Y-142970647D01*
X134955925Y-142681409D01*
X135050287Y-142378589D01*
X135107461Y-142066603D01*
X135126612Y-141750000D01*
X135107461Y-141433397D01*
X135086350Y-141318201D01*
X146296475Y-141318201D01*
X146296475Y-141318208D01*
X146316670Y-141497454D01*
X146316671Y-141497459D01*
X146376251Y-141667728D01*
X146471981Y-141820080D01*
X146472224Y-141820467D01*
X146599778Y-141948021D01*
X146611883Y-141955627D01*
X146751424Y-142043307D01*
X146752518Y-142043994D01*
X146817114Y-142066597D01*
X146922785Y-142103573D01*
X146922790Y-142103574D01*
X147102036Y-142123770D01*
X147102040Y-142123770D01*
X147102044Y-142123770D01*
X147281289Y-142103574D01*
X147281292Y-142103573D01*
X147281295Y-142103573D01*
X147451562Y-142043994D01*
X147604302Y-141948021D01*
X147731856Y-141820467D01*
X147827829Y-141667727D01*
X147886520Y-141499999D01*
X173591056Y-141499999D01*
X173591056Y-141500000D01*
X173610788Y-141712954D01*
X173610789Y-141712956D01*
X173669315Y-141918654D01*
X173669321Y-141918669D01*
X173764642Y-142110099D01*
X173764647Y-142110107D01*
X173773980Y-142122465D01*
X174350000Y-141546445D01*
X174350000Y-141552661D01*
X174377259Y-141654394D01*
X174429920Y-141745606D01*
X174504394Y-141820080D01*
X174595606Y-141872741D01*
X174697339Y-141900000D01*
X174703554Y-141900000D01*
X174130086Y-142473465D01*
X174233413Y-142537443D01*
X174233414Y-142537444D01*
X174432837Y-142614700D01*
X174643068Y-142654000D01*
X174856932Y-142654000D01*
X175067162Y-142614700D01*
X175266585Y-142537444D01*
X175266589Y-142537442D01*
X175369911Y-142473466D01*
X175369911Y-142473465D01*
X174796447Y-141900000D01*
X174802661Y-141900000D01*
X174904394Y-141872741D01*
X174995606Y-141820080D01*
X175070080Y-141745606D01*
X175122741Y-141654394D01*
X175150000Y-141552661D01*
X175150000Y-141546446D01*
X175559181Y-141955627D01*
X175592666Y-142016950D01*
X175595500Y-142043307D01*
X175595500Y-142201869D01*
X175595501Y-142201876D01*
X175601908Y-142261483D01*
X175652202Y-142396328D01*
X175652206Y-142396335D01*
X175738452Y-142511544D01*
X175738455Y-142511547D01*
X175853664Y-142597793D01*
X175853671Y-142597797D01*
X175988517Y-142648091D01*
X175988516Y-142648091D01*
X175995444Y-142648835D01*
X176048127Y-142654500D01*
X177451872Y-142654499D01*
X177511483Y-142648091D01*
X177646331Y-142597796D01*
X177761546Y-142511546D01*
X177847796Y-142396331D01*
X177898091Y-142261483D01*
X177904500Y-142201873D01*
X177904499Y-140798128D01*
X177898091Y-140738517D01*
X177879394Y-140688389D01*
X177847797Y-140603671D01*
X177847793Y-140603664D01*
X177761547Y-140488455D01*
X177761544Y-140488452D01*
X177646335Y-140402206D01*
X177646328Y-140402202D01*
X177511482Y-140351908D01*
X177511483Y-140351908D01*
X177451883Y-140345501D01*
X177451881Y-140345500D01*
X177451873Y-140345500D01*
X177451864Y-140345500D01*
X176048129Y-140345500D01*
X176048123Y-140345501D01*
X175988516Y-140351908D01*
X175853671Y-140402202D01*
X175853664Y-140402206D01*
X175738455Y-140488452D01*
X175738452Y-140488455D01*
X175652206Y-140603664D01*
X175652202Y-140603671D01*
X175601908Y-140738517D01*
X175595588Y-140797306D01*
X175595501Y-140798123D01*
X175595500Y-140798135D01*
X175595500Y-140956691D01*
X175575815Y-141023730D01*
X175559181Y-141044372D01*
X175150000Y-141453553D01*
X175150000Y-141447339D01*
X175122741Y-141345606D01*
X175070080Y-141254394D01*
X174995606Y-141179920D01*
X174904394Y-141127259D01*
X174802661Y-141100000D01*
X174796447Y-141100000D01*
X175369912Y-140526533D01*
X175266586Y-140462556D01*
X175266585Y-140462555D01*
X175067162Y-140385299D01*
X174856932Y-140346000D01*
X174643068Y-140346000D01*
X174432837Y-140385299D01*
X174233416Y-140462554D01*
X174233410Y-140462557D01*
X174130087Y-140526532D01*
X174130086Y-140526533D01*
X174703554Y-141100000D01*
X174697339Y-141100000D01*
X174595606Y-141127259D01*
X174504394Y-141179920D01*
X174429920Y-141254394D01*
X174377259Y-141345606D01*
X174350000Y-141447339D01*
X174350000Y-141453553D01*
X173773980Y-140877533D01*
X173764646Y-140889893D01*
X173669321Y-141081330D01*
X173669315Y-141081345D01*
X173610789Y-141287043D01*
X173610788Y-141287045D01*
X173591056Y-141499999D01*
X147886520Y-141499999D01*
X147887408Y-141497460D01*
X147887522Y-141496448D01*
X147907605Y-141318208D01*
X147907605Y-141318201D01*
X147887409Y-141138955D01*
X147887408Y-141138950D01*
X147827828Y-140968681D01*
X147778322Y-140889893D01*
X147731856Y-140815943D01*
X147604302Y-140688389D01*
X147451563Y-140592416D01*
X147281294Y-140532836D01*
X147281289Y-140532835D01*
X147102044Y-140512640D01*
X147102036Y-140512640D01*
X146922790Y-140532835D01*
X146922785Y-140532836D01*
X146752516Y-140592416D01*
X146599777Y-140688389D01*
X146472224Y-140815942D01*
X146376251Y-140968681D01*
X146316671Y-141138950D01*
X146316670Y-141138955D01*
X146296475Y-141318201D01*
X135086350Y-141318201D01*
X135050287Y-141121411D01*
X134955925Y-140818591D01*
X134825749Y-140529353D01*
X134661659Y-140257914D01*
X134560802Y-140129180D01*
X134466044Y-140008230D01*
X134286319Y-139828505D01*
X134252834Y-139767182D01*
X134250000Y-139740824D01*
X134250000Y-139499996D01*
X157444435Y-139499996D01*
X157444435Y-139500003D01*
X157464630Y-139679249D01*
X157464631Y-139679254D01*
X157524211Y-139849523D01*
X157620184Y-140002262D01*
X157747738Y-140129816D01*
X157900478Y-140225789D01*
X157992266Y-140257907D01*
X158070745Y-140285368D01*
X158070750Y-140285369D01*
X158249996Y-140305565D01*
X158250000Y-140305565D01*
X158250004Y-140305565D01*
X158429249Y-140285369D01*
X158429252Y-140285368D01*
X158429255Y-140285368D01*
X158599522Y-140225789D01*
X158752262Y-140129816D01*
X158879816Y-140002262D01*
X158975789Y-139849522D01*
X159035368Y-139679255D01*
X159045611Y-139588345D01*
X159055565Y-139500003D01*
X159055565Y-139499996D01*
X159035369Y-139320750D01*
X159035368Y-139320745D01*
X158975788Y-139150476D01*
X158927622Y-139073821D01*
X158879816Y-138997738D01*
X158752262Y-138870184D01*
X158599523Y-138774211D01*
X158429254Y-138714631D01*
X158429249Y-138714630D01*
X158250004Y-138694435D01*
X158249996Y-138694435D01*
X158070750Y-138714630D01*
X158070745Y-138714631D01*
X157900476Y-138774211D01*
X157747737Y-138870184D01*
X157620184Y-138997737D01*
X157524211Y-139150476D01*
X157464631Y-139320745D01*
X157464630Y-139320750D01*
X157444435Y-139499996D01*
X134250000Y-139499996D01*
X134250000Y-135999996D01*
X139694435Y-135999996D01*
X139694435Y-136000003D01*
X139714630Y-136179249D01*
X139714631Y-136179254D01*
X139774211Y-136349523D01*
X139870184Y-136502262D01*
X139997738Y-136629816D01*
X140150478Y-136725789D01*
X140219678Y-136750003D01*
X140320745Y-136785368D01*
X140320750Y-136785369D01*
X140499996Y-136805565D01*
X140500000Y-136805565D01*
X140500004Y-136805565D01*
X140679249Y-136785369D01*
X140679252Y-136785368D01*
X140679255Y-136785368D01*
X140780342Y-136749996D01*
X150444435Y-136749996D01*
X150444435Y-136750003D01*
X150464630Y-136929249D01*
X150464631Y-136929254D01*
X150524211Y-137099523D01*
X150620184Y-137252262D01*
X150747738Y-137379816D01*
X150900478Y-137475789D01*
X151070745Y-137535368D01*
X151070750Y-137535369D01*
X151249996Y-137555565D01*
X151250000Y-137555565D01*
X151250004Y-137555565D01*
X151429249Y-137535369D01*
X151429252Y-137535368D01*
X151429255Y-137535368D01*
X151599522Y-137475789D01*
X151752262Y-137379816D01*
X151879816Y-137252262D01*
X151975789Y-137099522D01*
X152035368Y-136929255D01*
X152035369Y-136929249D01*
X152055565Y-136750003D01*
X152055565Y-136749996D01*
X152035369Y-136570750D01*
X152035368Y-136570745D01*
X151975788Y-136400476D01*
X151879815Y-136247737D01*
X151874745Y-136242667D01*
X151841260Y-136181344D01*
X151846244Y-136111652D01*
X151888116Y-136055719D01*
X151923301Y-136039439D01*
X151922682Y-136037668D01*
X151929255Y-136035368D01*
X152099522Y-135975789D01*
X152252262Y-135879816D01*
X152379816Y-135752262D01*
X152475789Y-135599522D01*
X152535368Y-135429255D01*
X152555565Y-135250000D01*
X152555565Y-135249996D01*
X157444435Y-135249996D01*
X157444435Y-135250003D01*
X157464630Y-135429249D01*
X157464631Y-135429254D01*
X157524211Y-135599523D01*
X157620184Y-135752262D01*
X157747738Y-135879816D01*
X157761315Y-135888347D01*
X157882721Y-135964632D01*
X157900478Y-135975789D01*
X157969678Y-136000003D01*
X158070745Y-136035368D01*
X158070750Y-136035369D01*
X158249996Y-136055565D01*
X158250000Y-136055565D01*
X158250004Y-136055565D01*
X158429249Y-136035369D01*
X158429252Y-136035368D01*
X158429255Y-136035368D01*
X158599522Y-135975789D01*
X158752262Y-135879816D01*
X158879816Y-135752262D01*
X158975789Y-135599522D01*
X159035368Y-135429255D01*
X159055565Y-135250000D01*
X159055565Y-135249996D01*
X167944435Y-135249996D01*
X167944435Y-135250003D01*
X167964630Y-135429249D01*
X167964631Y-135429254D01*
X168024211Y-135599523D01*
X168120184Y-135752262D01*
X168247738Y-135879816D01*
X168261315Y-135888347D01*
X168382721Y-135964632D01*
X168400478Y-135975789D01*
X168469678Y-136000003D01*
X168570745Y-136035368D01*
X168570750Y-136035369D01*
X168749996Y-136055565D01*
X168750000Y-136055565D01*
X168750004Y-136055565D01*
X168929249Y-136035369D01*
X168929252Y-136035368D01*
X168929255Y-136035368D01*
X169099522Y-135975789D01*
X169252262Y-135879816D01*
X169379816Y-135752262D01*
X169475789Y-135599522D01*
X169535368Y-135429255D01*
X169555565Y-135250000D01*
X169549304Y-135194435D01*
X169535369Y-135070750D01*
X169535368Y-135070745D01*
X169475788Y-134900476D01*
X169379815Y-134747737D01*
X169252262Y-134620184D01*
X169099523Y-134524211D01*
X168929254Y-134464631D01*
X168929249Y-134464630D01*
X168750004Y-134444435D01*
X168749996Y-134444435D01*
X168570750Y-134464630D01*
X168570745Y-134464631D01*
X168400476Y-134524211D01*
X168247737Y-134620184D01*
X168120184Y-134747737D01*
X168024211Y-134900476D01*
X167964631Y-135070745D01*
X167964630Y-135070750D01*
X167944435Y-135249996D01*
X159055565Y-135249996D01*
X159049304Y-135194435D01*
X159035369Y-135070750D01*
X159035368Y-135070745D01*
X158975788Y-134900476D01*
X158879815Y-134747737D01*
X158752262Y-134620184D01*
X158599523Y-134524211D01*
X158429254Y-134464631D01*
X158429249Y-134464630D01*
X158250004Y-134444435D01*
X158249996Y-134444435D01*
X158070750Y-134464630D01*
X158070745Y-134464631D01*
X157900476Y-134524211D01*
X157747737Y-134620184D01*
X157620184Y-134747737D01*
X157524211Y-134900476D01*
X157464631Y-135070745D01*
X157464630Y-135070750D01*
X157444435Y-135249996D01*
X152555565Y-135249996D01*
X152549304Y-135194435D01*
X152535369Y-135070750D01*
X152535368Y-135070745D01*
X152475788Y-134900476D01*
X152379815Y-134747737D01*
X152252262Y-134620184D01*
X152099523Y-134524211D01*
X151929254Y-134464631D01*
X151929249Y-134464630D01*
X151750004Y-134444435D01*
X151749996Y-134444435D01*
X151570750Y-134464630D01*
X151570745Y-134464631D01*
X151400476Y-134524211D01*
X151247737Y-134620184D01*
X151120184Y-134747737D01*
X151024211Y-134900476D01*
X150964631Y-135070745D01*
X150964630Y-135070750D01*
X150944435Y-135249996D01*
X150944435Y-135250003D01*
X150964630Y-135429249D01*
X150964631Y-135429254D01*
X151024211Y-135599523D01*
X151120184Y-135752262D01*
X151125254Y-135757332D01*
X151158739Y-135818655D01*
X151153755Y-135888347D01*
X151111883Y-135944280D01*
X151076703Y-135960577D01*
X151077318Y-135962332D01*
X150900476Y-136024211D01*
X150747737Y-136120184D01*
X150620184Y-136247737D01*
X150524211Y-136400476D01*
X150464631Y-136570745D01*
X150464630Y-136570750D01*
X150444435Y-136749996D01*
X140780342Y-136749996D01*
X140849522Y-136725789D01*
X141002262Y-136629816D01*
X141129816Y-136502262D01*
X141225789Y-136349522D01*
X141285368Y-136179255D01*
X141299287Y-136055719D01*
X141305565Y-136000003D01*
X141305565Y-135999996D01*
X141285369Y-135820750D01*
X141285368Y-135820745D01*
X141225788Y-135650476D01*
X141129815Y-135497737D01*
X141002262Y-135370184D01*
X140849523Y-135274211D01*
X140679254Y-135214631D01*
X140679249Y-135214630D01*
X140500004Y-135194435D01*
X140499996Y-135194435D01*
X140320750Y-135214630D01*
X140320745Y-135214631D01*
X140150476Y-135274211D01*
X139997737Y-135370184D01*
X139870184Y-135497737D01*
X139774211Y-135650476D01*
X139714631Y-135820745D01*
X139714630Y-135820750D01*
X139694435Y-135999996D01*
X134250000Y-135999996D01*
X134250000Y-133117596D01*
X177944435Y-133117596D01*
X177944435Y-133117603D01*
X177964630Y-133296849D01*
X177964631Y-133296854D01*
X178024211Y-133467123D01*
X178120184Y-133619862D01*
X178247738Y-133747416D01*
X178400478Y-133843389D01*
X178570745Y-133902968D01*
X178570750Y-133902969D01*
X178749996Y-133923165D01*
X178750000Y-133923165D01*
X178750004Y-133923165D01*
X178929249Y-133902969D01*
X178929252Y-133902968D01*
X178929255Y-133902968D01*
X179099522Y-133843389D01*
X179252262Y-133747416D01*
X179379816Y-133619862D01*
X179475789Y-133467122D01*
X179535368Y-133296855D01*
X179555565Y-133117600D01*
X179535368Y-132938345D01*
X179475789Y-132768078D01*
X179379816Y-132615338D01*
X179252262Y-132487784D01*
X179099523Y-132391811D01*
X178929254Y-132332231D01*
X178929249Y-132332230D01*
X178750004Y-132312035D01*
X178749996Y-132312035D01*
X178570750Y-132332230D01*
X178570745Y-132332231D01*
X178400476Y-132391811D01*
X178247737Y-132487784D01*
X178120184Y-132615337D01*
X178024211Y-132768076D01*
X177964631Y-132938345D01*
X177964630Y-132938350D01*
X177944435Y-133117596D01*
X134250000Y-133117596D01*
X134250000Y-128499996D01*
X176694435Y-128499996D01*
X176694435Y-128500003D01*
X176714630Y-128679249D01*
X176714631Y-128679254D01*
X176774211Y-128849523D01*
X176870184Y-129002262D01*
X176997738Y-129129816D01*
X177150478Y-129225789D01*
X177320745Y-129285368D01*
X177320750Y-129285369D01*
X177499996Y-129305565D01*
X177500000Y-129305565D01*
X177500004Y-129305565D01*
X177679249Y-129285369D01*
X177679252Y-129285368D01*
X177679255Y-129285368D01*
X177849522Y-129225789D01*
X178002262Y-129129816D01*
X178129816Y-129002262D01*
X178225789Y-128849522D01*
X178285368Y-128679255D01*
X178305565Y-128500000D01*
X178285368Y-128320745D01*
X178225789Y-128150478D01*
X178129816Y-127997738D01*
X178002262Y-127870184D01*
X177849523Y-127774211D01*
X177679254Y-127714631D01*
X177679249Y-127714630D01*
X177500004Y-127694435D01*
X177499996Y-127694435D01*
X177320750Y-127714630D01*
X177320745Y-127714631D01*
X177150476Y-127774211D01*
X176997737Y-127870184D01*
X176870184Y-127997737D01*
X176774211Y-128150476D01*
X176714631Y-128320745D01*
X176714630Y-128320750D01*
X176694435Y-128499996D01*
X134250000Y-128499996D01*
X134250000Y-125624996D01*
X163819435Y-125624996D01*
X163819435Y-125625003D01*
X163839630Y-125804249D01*
X163839631Y-125804254D01*
X163899211Y-125974523D01*
X163995184Y-126127262D01*
X164122738Y-126254816D01*
X164275478Y-126350789D01*
X164445745Y-126410368D01*
X164445750Y-126410369D01*
X164624996Y-126430565D01*
X164625000Y-126430565D01*
X164625004Y-126430565D01*
X164804249Y-126410369D01*
X164804252Y-126410368D01*
X164804255Y-126410368D01*
X164974522Y-126350789D01*
X165127262Y-126254816D01*
X165254816Y-126127262D01*
X165350789Y-125974522D01*
X165410368Y-125804255D01*
X165430565Y-125625000D01*
X165410368Y-125445745D01*
X165350789Y-125275478D01*
X165254816Y-125122738D01*
X165127262Y-124995184D01*
X164974523Y-124899211D01*
X164804254Y-124839631D01*
X164804249Y-124839630D01*
X164625004Y-124819435D01*
X164624996Y-124819435D01*
X164445750Y-124839630D01*
X164445745Y-124839631D01*
X164275476Y-124899211D01*
X164122737Y-124995184D01*
X163995184Y-125122737D01*
X163899211Y-125275476D01*
X163839631Y-125445745D01*
X163839630Y-125445750D01*
X163819435Y-125624996D01*
X134250000Y-125624996D01*
X134250000Y-121249996D01*
X156364435Y-121249996D01*
X156364435Y-121250003D01*
X156384630Y-121429249D01*
X156384631Y-121429254D01*
X156444211Y-121599523D01*
X156538760Y-121749996D01*
X156540184Y-121752262D01*
X156667738Y-121879816D01*
X156746410Y-121929249D01*
X156820474Y-121975787D01*
X156820478Y-121975789D01*
X156928727Y-122013667D01*
X156990745Y-122035368D01*
X156990750Y-122035369D01*
X157169996Y-122055565D01*
X157170000Y-122055565D01*
X157170004Y-122055565D01*
X157349249Y-122035369D01*
X157349252Y-122035368D01*
X157349255Y-122035368D01*
X157519522Y-121975789D01*
X157561154Y-121949629D01*
X157628389Y-121930628D01*
X157695225Y-121950994D01*
X157740440Y-122004261D01*
X157744169Y-122013667D01*
X157774211Y-122099522D01*
X157870184Y-122252262D01*
X157997738Y-122379816D01*
X158150478Y-122475789D01*
X158320745Y-122535368D01*
X158320750Y-122535369D01*
X158499996Y-122555565D01*
X158500000Y-122555565D01*
X158500004Y-122555565D01*
X158679249Y-122535369D01*
X158679252Y-122535368D01*
X158679255Y-122535368D01*
X158849522Y-122475789D01*
X159002262Y-122379816D01*
X159129816Y-122252262D01*
X159225789Y-122099522D01*
X159285368Y-121929255D01*
X159285369Y-121929249D01*
X159305565Y-121750003D01*
X159305565Y-121749996D01*
X159285369Y-121570750D01*
X159285368Y-121570745D01*
X159225789Y-121400478D01*
X159129816Y-121247738D01*
X159002262Y-121120184D01*
X158849523Y-121024211D01*
X158679254Y-120964631D01*
X158679249Y-120964630D01*
X158500004Y-120944435D01*
X158499996Y-120944435D01*
X158320750Y-120964630D01*
X158320745Y-120964631D01*
X158150476Y-121024211D01*
X158108844Y-121050371D01*
X158041607Y-121069371D01*
X157974772Y-121049003D01*
X157929558Y-120995735D01*
X157925830Y-120986331D01*
X157895789Y-120900478D01*
X157799815Y-120747737D01*
X157672262Y-120620184D01*
X157519523Y-120524211D01*
X157349254Y-120464631D01*
X157349249Y-120464630D01*
X157170004Y-120444435D01*
X157169996Y-120444435D01*
X156990750Y-120464630D01*
X156990745Y-120464631D01*
X156820476Y-120524211D01*
X156667737Y-120620184D01*
X156540184Y-120747737D01*
X156444211Y-120900476D01*
X156384631Y-121070745D01*
X156384630Y-121070750D01*
X156364435Y-121249996D01*
X134250000Y-121249996D01*
X134250000Y-117699999D01*
X142294722Y-117699999D01*
X142294722Y-117700000D01*
X142313762Y-117856818D01*
X142369780Y-118004523D01*
X142459517Y-118134530D01*
X142577760Y-118239283D01*
X142637599Y-118270689D01*
X142674780Y-118290204D01*
X142724992Y-118338789D01*
X142740966Y-118406808D01*
X142717630Y-118472666D01*
X142674780Y-118509796D01*
X142577761Y-118560716D01*
X142459516Y-118665471D01*
X142369781Y-118795475D01*
X142369780Y-118795476D01*
X142313762Y-118943181D01*
X142294722Y-119099999D01*
X142294722Y-119100000D01*
X142313762Y-119256818D01*
X142348921Y-119349522D01*
X142369780Y-119404523D01*
X142459517Y-119534530D01*
X142577760Y-119639283D01*
X142577762Y-119639284D01*
X142717634Y-119712696D01*
X142871014Y-119750500D01*
X142871015Y-119750500D01*
X142878857Y-119750500D01*
X142945896Y-119770185D01*
X142991651Y-119822989D01*
X143001953Y-119859554D01*
X143013762Y-119956818D01*
X143060307Y-120079544D01*
X143069780Y-120104523D01*
X143159517Y-120234530D01*
X143277760Y-120339283D01*
X143277762Y-120339284D01*
X143417634Y-120412696D01*
X143571014Y-120450500D01*
X143571015Y-120450500D01*
X143728985Y-120450500D01*
X143882365Y-120412696D01*
X144022240Y-120339283D01*
X144140483Y-120234530D01*
X144230220Y-120104523D01*
X144234058Y-120094400D01*
X144276236Y-120038700D01*
X144341833Y-120014642D01*
X144410023Y-120029869D01*
X144459157Y-120079544D01*
X144465942Y-120094402D01*
X144469780Y-120104524D01*
X144501499Y-120150476D01*
X144559517Y-120234530D01*
X144677760Y-120339283D01*
X144677762Y-120339284D01*
X144817634Y-120412696D01*
X144971014Y-120450500D01*
X144971015Y-120450500D01*
X145128985Y-120450500D01*
X145282365Y-120412696D01*
X145422240Y-120339283D01*
X145540483Y-120234530D01*
X145630220Y-120104523D01*
X145686237Y-119956818D01*
X145698047Y-119859554D01*
X145725669Y-119795376D01*
X145783603Y-119756319D01*
X145821143Y-119750500D01*
X145828985Y-119750500D01*
X145831030Y-119749996D01*
X164694435Y-119749996D01*
X164694435Y-119750003D01*
X164714630Y-119929249D01*
X164714631Y-119929254D01*
X164774211Y-120099523D01*
X164859041Y-120234528D01*
X164870184Y-120252262D01*
X164997738Y-120379816D01*
X165050066Y-120412696D01*
X165132721Y-120464632D01*
X165150478Y-120475789D01*
X165219678Y-120500003D01*
X165320745Y-120535368D01*
X165320750Y-120535369D01*
X165499996Y-120555565D01*
X165500000Y-120555565D01*
X165500004Y-120555565D01*
X165679249Y-120535369D01*
X165679252Y-120535368D01*
X165679255Y-120535368D01*
X165780342Y-120499996D01*
X178944435Y-120499996D01*
X178944435Y-120500003D01*
X178964630Y-120679249D01*
X178964631Y-120679254D01*
X179024211Y-120849523D01*
X179083849Y-120944435D01*
X179120184Y-121002262D01*
X179247738Y-121129816D01*
X179400478Y-121225789D01*
X179469678Y-121250003D01*
X179570745Y-121285368D01*
X179570750Y-121285369D01*
X179749996Y-121305565D01*
X179750000Y-121305565D01*
X179750004Y-121305565D01*
X179929249Y-121285369D01*
X179929252Y-121285368D01*
X179929255Y-121285368D01*
X180099522Y-121225789D01*
X180252262Y-121129816D01*
X180379816Y-121002262D01*
X180475789Y-120849522D01*
X180535368Y-120679255D01*
X180542024Y-120620184D01*
X180555565Y-120500003D01*
X180555565Y-120499996D01*
X180535369Y-120320750D01*
X180535368Y-120320745D01*
X180475788Y-120150476D01*
X180379815Y-119997737D01*
X180252262Y-119870184D01*
X180099523Y-119774211D01*
X179929254Y-119714631D01*
X179929249Y-119714630D01*
X179750004Y-119694435D01*
X179749996Y-119694435D01*
X179570750Y-119714630D01*
X179570745Y-119714631D01*
X179400476Y-119774211D01*
X179247737Y-119870184D01*
X179120184Y-119997737D01*
X179024211Y-120150476D01*
X178964631Y-120320745D01*
X178964630Y-120320750D01*
X178944435Y-120499996D01*
X165780342Y-120499996D01*
X165849522Y-120475789D01*
X166002262Y-120379816D01*
X166129816Y-120252262D01*
X166225789Y-120099522D01*
X166285368Y-119929255D01*
X166292024Y-119870184D01*
X166305565Y-119750003D01*
X166305565Y-119749996D01*
X166285369Y-119570750D01*
X166285368Y-119570745D01*
X166261405Y-119502262D01*
X166225789Y-119400478D01*
X166129816Y-119247738D01*
X166002262Y-119120184D01*
X165849523Y-119024211D01*
X165780321Y-118999996D01*
X171444435Y-118999996D01*
X171444435Y-119000003D01*
X171464630Y-119179249D01*
X171464631Y-119179254D01*
X171524211Y-119349523D01*
X171558770Y-119404523D01*
X171620184Y-119502262D01*
X171747738Y-119629816D01*
X171838080Y-119686582D01*
X171882721Y-119714632D01*
X171900478Y-119725789D01*
X172038860Y-119774211D01*
X172070745Y-119785368D01*
X172070750Y-119785369D01*
X172249996Y-119805565D01*
X172250000Y-119805565D01*
X172250004Y-119805565D01*
X172429249Y-119785369D01*
X172429252Y-119785368D01*
X172429255Y-119785368D01*
X172599522Y-119725789D01*
X172752262Y-119629816D01*
X172879816Y-119502262D01*
X172975789Y-119349522D01*
X173035368Y-119179255D01*
X173055565Y-119000000D01*
X173049304Y-118944435D01*
X173035369Y-118820750D01*
X173035368Y-118820745D01*
X172975788Y-118650476D01*
X172919387Y-118560715D01*
X172879816Y-118497738D01*
X172752262Y-118370184D01*
X172720935Y-118350500D01*
X172599523Y-118274211D01*
X172429254Y-118214631D01*
X172429249Y-118214630D01*
X172250004Y-118194435D01*
X172249996Y-118194435D01*
X172070750Y-118214630D01*
X172070745Y-118214631D01*
X171900476Y-118274211D01*
X171747737Y-118370184D01*
X171620184Y-118497737D01*
X171524211Y-118650476D01*
X171464631Y-118820745D01*
X171464630Y-118820750D01*
X171444435Y-118999996D01*
X165780321Y-118999996D01*
X165679254Y-118964631D01*
X165679249Y-118964630D01*
X165500004Y-118944435D01*
X165499996Y-118944435D01*
X165320750Y-118964630D01*
X165320745Y-118964631D01*
X165150476Y-119024211D01*
X164997737Y-119120184D01*
X164870184Y-119247737D01*
X164774211Y-119400476D01*
X164714631Y-119570745D01*
X164714630Y-119570750D01*
X164694435Y-119749996D01*
X145831030Y-119749996D01*
X145982365Y-119712696D01*
X146017158Y-119694435D01*
X146122240Y-119639283D01*
X146240483Y-119534530D01*
X146330220Y-119404523D01*
X146386237Y-119256818D01*
X146405278Y-119100000D01*
X146393136Y-118999996D01*
X146386237Y-118943181D01*
X146364992Y-118887164D01*
X146330220Y-118795477D01*
X146240483Y-118665470D01*
X146122240Y-118560717D01*
X146122238Y-118560716D01*
X146122237Y-118560715D01*
X146025220Y-118509796D01*
X145975007Y-118461212D01*
X145959033Y-118393193D01*
X145982368Y-118327335D01*
X146025220Y-118290204D01*
X146060348Y-118271766D01*
X146122240Y-118239283D01*
X146240483Y-118134530D01*
X146330220Y-118004523D01*
X146386237Y-117856818D01*
X146405278Y-117700000D01*
X146386237Y-117543182D01*
X146330220Y-117395477D01*
X146240483Y-117265470D01*
X146122240Y-117160717D01*
X146122238Y-117160716D01*
X146122237Y-117160715D01*
X145982365Y-117087303D01*
X145828986Y-117049500D01*
X145828985Y-117049500D01*
X145821143Y-117049500D01*
X145754104Y-117029815D01*
X145708349Y-116977011D01*
X145698047Y-116940446D01*
X145686237Y-116843181D01*
X145639692Y-116720453D01*
X145630220Y-116695477D01*
X145540483Y-116565470D01*
X145422240Y-116460717D01*
X145422238Y-116460716D01*
X145422237Y-116460715D01*
X145282365Y-116387303D01*
X145128986Y-116349500D01*
X145128985Y-116349500D01*
X144971015Y-116349500D01*
X144971014Y-116349500D01*
X144817634Y-116387303D01*
X144677762Y-116460715D01*
X144559516Y-116565471D01*
X144469781Y-116695475D01*
X144469779Y-116695478D01*
X144465941Y-116705599D01*
X144423763Y-116761301D01*
X144358165Y-116785357D01*
X144289975Y-116770129D01*
X144240842Y-116720453D01*
X144234059Y-116705599D01*
X144230220Y-116695478D01*
X144230220Y-116695477D01*
X144140483Y-116565470D01*
X144022240Y-116460717D01*
X144022238Y-116460716D01*
X144022237Y-116460715D01*
X143882365Y-116387303D01*
X143728986Y-116349500D01*
X143728985Y-116349500D01*
X143571015Y-116349500D01*
X143571014Y-116349500D01*
X143417634Y-116387303D01*
X143277762Y-116460715D01*
X143159516Y-116565471D01*
X143069781Y-116695475D01*
X143069780Y-116695476D01*
X143013762Y-116843181D01*
X143001953Y-116940446D01*
X142974331Y-117004624D01*
X142916397Y-117043681D01*
X142878857Y-117049500D01*
X142871014Y-117049500D01*
X142717634Y-117087303D01*
X142577762Y-117160715D01*
X142459516Y-117265471D01*
X142369781Y-117395475D01*
X142369780Y-117395476D01*
X142313762Y-117543181D01*
X142294722Y-117699999D01*
X134250000Y-117699999D01*
X134250000Y-115917207D01*
X157100175Y-115917207D01*
X157100175Y-115917214D01*
X157120370Y-116096460D01*
X157120371Y-116096465D01*
X157179951Y-116266734D01*
X157213889Y-116320745D01*
X157275924Y-116419473D01*
X157403478Y-116547027D01*
X157441225Y-116570745D01*
X157556218Y-116643000D01*
X157665913Y-116681384D01*
X157722689Y-116722106D01*
X157742000Y-116757470D01*
X157774211Y-116849523D01*
X157774212Y-116849524D01*
X157831342Y-116940446D01*
X157870184Y-117002262D01*
X157997738Y-117129816D01*
X158150478Y-117225789D01*
X158263880Y-117265470D01*
X158320745Y-117285368D01*
X158320750Y-117285369D01*
X158499996Y-117305565D01*
X158500000Y-117305565D01*
X158500004Y-117305565D01*
X158679249Y-117285369D01*
X158679252Y-117285368D01*
X158679255Y-117285368D01*
X158849522Y-117225789D01*
X159002262Y-117129816D01*
X159129816Y-117002262D01*
X159225789Y-116849522D01*
X159285368Y-116679255D01*
X159289453Y-116643000D01*
X159305565Y-116500003D01*
X159305565Y-116499996D01*
X159285369Y-116320750D01*
X159285368Y-116320745D01*
X159225788Y-116150476D01*
X159186582Y-116088080D01*
X159129816Y-115997738D01*
X159002262Y-115870184D01*
X158849522Y-115774211D01*
X158849523Y-115774211D01*
X158849521Y-115774210D01*
X158739825Y-115735826D01*
X158683049Y-115695105D01*
X158663738Y-115659739D01*
X158631528Y-115567687D01*
X158588995Y-115499996D01*
X167194435Y-115499996D01*
X167194435Y-115500003D01*
X167214630Y-115679249D01*
X167214631Y-115679254D01*
X167274211Y-115849523D01*
X167370184Y-116002262D01*
X167405241Y-116037319D01*
X167438726Y-116098642D01*
X167433742Y-116168334D01*
X167405241Y-116212681D01*
X167370184Y-116247737D01*
X167274211Y-116400476D01*
X167214631Y-116570745D01*
X167214630Y-116570750D01*
X167194435Y-116749996D01*
X167194435Y-116750003D01*
X167214630Y-116929249D01*
X167214631Y-116929254D01*
X167274211Y-117099523D01*
X167312661Y-117160715D01*
X167370184Y-117252262D01*
X167497738Y-117379816D01*
X167650478Y-117475789D01*
X167820745Y-117535368D01*
X167820750Y-117535369D01*
X167999996Y-117555565D01*
X168000000Y-117555565D01*
X168000004Y-117555565D01*
X168179249Y-117535369D01*
X168179252Y-117535368D01*
X168179255Y-117535368D01*
X168349522Y-117475789D01*
X168502262Y-117379816D01*
X168629816Y-117252262D01*
X168725789Y-117099522D01*
X168785368Y-116929255D01*
X168785369Y-116929249D01*
X168805565Y-116750003D01*
X168805565Y-116749996D01*
X168785369Y-116570750D01*
X168785368Y-116570745D01*
X168760612Y-116499996D01*
X168725789Y-116400478D01*
X168629816Y-116247738D01*
X168594759Y-116212681D01*
X168561274Y-116151358D01*
X168566258Y-116081666D01*
X168594759Y-116037319D01*
X168629816Y-116002262D01*
X168725789Y-115849522D01*
X168785368Y-115679255D01*
X168787567Y-115659739D01*
X168805565Y-115500003D01*
X168805565Y-115499996D01*
X168785369Y-115320750D01*
X168785368Y-115320745D01*
X168725788Y-115150476D01*
X168629815Y-114997737D01*
X168502262Y-114870184D01*
X168349523Y-114774211D01*
X168179254Y-114714631D01*
X168179249Y-114714630D01*
X168000004Y-114694435D01*
X167999996Y-114694435D01*
X167820750Y-114714630D01*
X167820745Y-114714631D01*
X167650476Y-114774211D01*
X167497737Y-114870184D01*
X167370184Y-114997737D01*
X167274211Y-115150476D01*
X167214631Y-115320745D01*
X167214630Y-115320750D01*
X167194435Y-115499996D01*
X158588995Y-115499996D01*
X158535555Y-115414948D01*
X158408002Y-115287395D01*
X158255263Y-115191422D01*
X158084994Y-115131842D01*
X158084989Y-115131841D01*
X157905744Y-115111646D01*
X157905736Y-115111646D01*
X157726490Y-115131841D01*
X157726485Y-115131842D01*
X157556216Y-115191422D01*
X157403477Y-115287395D01*
X157275924Y-115414948D01*
X157179951Y-115567687D01*
X157120371Y-115737956D01*
X157120370Y-115737961D01*
X157100175Y-115917207D01*
X134250000Y-115917207D01*
X134250000Y-113759175D01*
X134269685Y-113692136D01*
X134286319Y-113671494D01*
X134466044Y-113491769D01*
X134466047Y-113491766D01*
X134661659Y-113242086D01*
X134825749Y-112970647D01*
X134955925Y-112681409D01*
X135050287Y-112378589D01*
X135107461Y-112066603D01*
X135126612Y-111750000D01*
X135107461Y-111433397D01*
X135054857Y-111146349D01*
X135062135Y-111076862D01*
X135105826Y-111022339D01*
X135172060Y-111000092D01*
X135176826Y-111000000D01*
X138068560Y-111000000D01*
X138135599Y-111019685D01*
G37*
%TD.AperFunction*%
%TD*%
M02*
