%TF.GenerationSoftware,KiCad,Pcbnew,8.0.8-8.0.8-0~ubuntu24.04.1*%
%TF.CreationDate,2025-02-07T13:21:18-05:00*%
%TF.ProjectId,snowboard,736e6f77-626f-4617-9264-2e6b69636164,rev?*%
%TF.SameCoordinates,Original*%
%TF.FileFunction,Copper,L1,Top*%
%TF.FilePolarity,Positive*%
%FSLAX46Y46*%
G04 Gerber Fmt 4.6, Leading zero omitted, Abs format (unit mm)*
G04 Created by KiCad (PCBNEW 8.0.8-8.0.8-0~ubuntu24.04.1) date 2025-02-07 13:21:18*
%MOMM*%
%LPD*%
G01*
G04 APERTURE LIST*
G04 Aperture macros list*
%AMRoundRect*
0 Rectangle with rounded corners*
0 $1 Rounding radius*
0 $2 $3 $4 $5 $6 $7 $8 $9 X,Y pos of 4 corners*
0 Add a 4 corners polygon primitive as box body*
4,1,4,$2,$3,$4,$5,$6,$7,$8,$9,$2,$3,0*
0 Add four circle primitives for the rounded corners*
1,1,$1+$1,$2,$3*
1,1,$1+$1,$4,$5*
1,1,$1+$1,$6,$7*
1,1,$1+$1,$8,$9*
0 Add four rect primitives between the rounded corners*
20,1,$1+$1,$2,$3,$4,$5,0*
20,1,$1+$1,$4,$5,$6,$7,0*
20,1,$1+$1,$6,$7,$8,$9,0*
20,1,$1+$1,$8,$9,$2,$3,0*%
%AMFreePoly0*
4,1,95,0.333620,0.154961,0.341620,0.153961,0.341707,0.153950,0.348700,0.152951,0.356620,0.151961,0.357213,0.151851,0.365213,0.149851,0.365374,0.149808,0.372374,0.147808,0.372756,0.147682,0.380756,0.144682,0.380970,0.144596,0.394970,0.138596,0.395481,0.138341,0.409481,0.130341,0.410201,0.129841,0.415995,0.125012,0.421774,0.121160,0.422536,0.120536,0.428381,0.114691,
0.434201,0.109841,0.434841,0.109201,0.439691,0.103381,0.445536,0.097536,0.446160,0.096774,0.450012,0.090995,0.454841,0.085201,0.455341,0.084481,0.463341,0.070481,0.463596,0.069970,0.469596,0.055970,0.469682,0.055756,0.472682,0.047756,0.472808,0.047374,0.474808,0.040374,0.474851,0.040213,0.476851,0.032213,0.476961,0.031620,0.477950,0.023707,0.478950,0.016707,
0.478961,0.016620,0.479961,0.008620,0.480000,0.008000,0.480000,-0.008000,0.479961,-0.008620,0.478961,-0.016620,0.478950,-0.016707,0.477950,-0.023707,0.476961,-0.031620,0.476851,-0.032213,0.474851,-0.040213,0.474808,-0.040374,0.472808,-0.047374,0.472682,-0.047756,0.469682,-0.055756,0.469596,-0.055970,0.463596,-0.069970,0.463341,-0.070481,0.455341,-0.084481,0.454841,-0.085201,
0.450012,-0.090995,0.446160,-0.096774,0.445536,-0.097536,0.439691,-0.103381,0.434841,-0.109201,0.434201,-0.109841,0.428381,-0.114691,0.422536,-0.120536,0.421774,-0.121160,0.415995,-0.125012,0.410201,-0.129841,0.409481,-0.130341,0.395481,-0.138341,0.394970,-0.138596,0.380970,-0.144596,0.380756,-0.144682,0.372756,-0.147682,0.372374,-0.147808,0.365374,-0.149808,0.365213,-0.149851,
0.357213,-0.151851,0.356620,-0.151961,0.348700,-0.152951,0.341707,-0.153950,0.341620,-0.153961,0.333620,-0.154961,0.333000,-0.155000,-0.475000,-0.155000,-0.478536,-0.153536,-0.480000,-0.150000,-0.480000,0.150000,-0.478536,0.153536,-0.475000,0.155000,0.333000,0.155000,0.333620,0.154961,0.333620,0.154961,$1*%
%AMFreePoly1*
4,1,95,0.008620,0.479961,0.016620,0.478961,0.016707,0.478950,0.023700,0.477951,0.031620,0.476961,0.032213,0.476851,0.040213,0.474851,0.040374,0.474808,0.047374,0.472808,0.047756,0.472682,0.055756,0.469682,0.055970,0.469596,0.069970,0.463596,0.070481,0.463341,0.084481,0.455341,0.085201,0.454841,0.090995,0.450012,0.096774,0.446160,0.097536,0.445536,0.103381,0.439691,
0.109201,0.434841,0.109841,0.434201,0.114691,0.428381,0.120536,0.422536,0.121160,0.421774,0.125012,0.415995,0.129841,0.410201,0.130341,0.409481,0.138341,0.395481,0.138596,0.394970,0.144596,0.380970,0.144682,0.380756,0.147682,0.372756,0.147808,0.372374,0.149808,0.365374,0.149851,0.365213,0.151851,0.357213,0.151961,0.356620,0.152950,0.348707,0.153950,0.341707,
0.153961,0.341620,0.154961,0.333620,0.155000,0.333000,0.155000,-0.475000,0.153536,-0.478536,0.150000,-0.480000,-0.150000,-0.480000,-0.153536,-0.478536,-0.155000,-0.475000,-0.155000,0.333000,-0.154961,0.333620,-0.153961,0.341620,-0.153950,0.341707,-0.152950,0.348707,-0.151961,0.356620,-0.151851,0.357213,-0.149851,0.365213,-0.149808,0.365374,-0.147808,0.372374,-0.147682,0.372756,
-0.144682,0.380756,-0.144596,0.380970,-0.138596,0.394970,-0.138341,0.395481,-0.130341,0.409481,-0.129841,0.410201,-0.125012,0.415995,-0.121160,0.421774,-0.120536,0.422536,-0.114691,0.428381,-0.109841,0.434201,-0.109201,0.434841,-0.103381,0.439691,-0.097536,0.445536,-0.096774,0.446160,-0.090995,0.450012,-0.085201,0.454841,-0.084481,0.455341,-0.070481,0.463341,-0.069970,0.463596,
-0.055970,0.469596,-0.055756,0.469682,-0.047756,0.472682,-0.047374,0.472808,-0.040374,0.474808,-0.040213,0.474851,-0.032213,0.476851,-0.031620,0.476961,-0.023700,0.477951,-0.016707,0.478950,-0.016620,0.478961,-0.008620,0.479961,-0.008000,0.480000,0.008000,0.480000,0.008620,0.479961,0.008620,0.479961,$1*%
%AMFreePoly2*
4,1,95,0.478536,0.153536,0.480000,0.150000,0.480000,-0.150000,0.478536,-0.153536,0.475000,-0.155000,-0.333000,-0.155000,-0.333620,-0.154961,-0.341620,-0.153961,-0.341707,-0.153950,-0.348700,-0.152951,-0.356620,-0.151961,-0.357213,-0.151851,-0.365213,-0.149851,-0.365374,-0.149808,-0.372374,-0.147808,-0.372756,-0.147682,-0.380756,-0.144682,-0.380970,-0.144596,-0.394970,-0.138596,-0.395481,-0.138341,
-0.409481,-0.130341,-0.410201,-0.129841,-0.415995,-0.125012,-0.421774,-0.121160,-0.422536,-0.120536,-0.428381,-0.114691,-0.434201,-0.109841,-0.434841,-0.109201,-0.439691,-0.103381,-0.445536,-0.097536,-0.446160,-0.096774,-0.450012,-0.090995,-0.454841,-0.085201,-0.455341,-0.084481,-0.463341,-0.070481,-0.463596,-0.069970,-0.469596,-0.055970,-0.469682,-0.055756,-0.472682,-0.047756,-0.472808,-0.047374,
-0.474808,-0.040374,-0.474851,-0.040213,-0.476851,-0.032213,-0.476961,-0.031620,-0.477950,-0.023707,-0.478950,-0.016707,-0.478961,-0.016620,-0.479961,-0.008620,-0.480000,-0.008000,-0.480000,0.008000,-0.479961,0.008620,-0.478961,0.016620,-0.478950,0.016707,-0.477950,0.023707,-0.476961,0.031620,-0.476851,0.032213,-0.474851,0.040213,-0.474808,0.040374,-0.472808,0.047374,-0.472682,0.047756,
-0.469682,0.055756,-0.469596,0.055970,-0.463596,0.069970,-0.463341,0.070481,-0.455341,0.084481,-0.454841,0.085201,-0.450012,0.090995,-0.446160,0.096774,-0.445536,0.097536,-0.439691,0.103381,-0.434841,0.109201,-0.434201,0.109841,-0.428381,0.114691,-0.422536,0.120536,-0.421774,0.121160,-0.415995,0.125012,-0.410201,0.129841,-0.409481,0.130341,-0.395481,0.138341,-0.394970,0.138596,
-0.380970,0.144596,-0.380756,0.144682,-0.372756,0.147682,-0.372374,0.147808,-0.365374,0.149808,-0.365213,0.149851,-0.357213,0.151851,-0.356620,0.151961,-0.348700,0.152951,-0.341707,0.153950,-0.341620,0.153961,-0.333620,0.154961,-0.333000,0.155000,0.475000,0.155000,0.478536,0.153536,0.478536,0.153536,$1*%
%AMFreePoly3*
4,1,95,0.153536,0.478536,0.155000,0.475000,0.155000,-0.333000,0.154961,-0.333620,0.153961,-0.341620,0.153950,-0.341707,0.152950,-0.348707,0.151961,-0.356620,0.151851,-0.357213,0.149851,-0.365213,0.149808,-0.365374,0.147808,-0.372374,0.147682,-0.372756,0.144682,-0.380756,0.144596,-0.380970,0.138596,-0.394970,0.138341,-0.395481,0.130341,-0.409481,0.129841,-0.410201,0.125012,-0.415995,
0.121160,-0.421774,0.120536,-0.422536,0.114691,-0.428381,0.109841,-0.434201,0.109201,-0.434841,0.103381,-0.439691,0.097536,-0.445536,0.096774,-0.446160,0.090995,-0.450012,0.085201,-0.454841,0.084481,-0.455341,0.070481,-0.463341,0.069970,-0.463596,0.055970,-0.469596,0.055756,-0.469682,0.047756,-0.472682,0.047374,-0.472808,0.040374,-0.474808,0.040213,-0.474851,0.032213,-0.476851,
0.031620,-0.476961,0.023700,-0.477951,0.016707,-0.478950,0.016620,-0.478961,0.008620,-0.479961,0.008000,-0.480000,-0.008000,-0.480000,-0.008620,-0.479961,-0.016620,-0.478961,-0.016707,-0.478950,-0.023700,-0.477951,-0.031620,-0.476961,-0.032213,-0.476851,-0.040213,-0.474851,-0.040374,-0.474808,-0.047374,-0.472808,-0.047756,-0.472682,-0.055756,-0.469682,-0.055970,-0.469596,-0.069970,-0.463596,
-0.070481,-0.463341,-0.084481,-0.455341,-0.085201,-0.454841,-0.090995,-0.450012,-0.096774,-0.446160,-0.097536,-0.445536,-0.103381,-0.439691,-0.109201,-0.434841,-0.109841,-0.434201,-0.114691,-0.428381,-0.120536,-0.422536,-0.121160,-0.421774,-0.125012,-0.415995,-0.129841,-0.410201,-0.130341,-0.409481,-0.138341,-0.395481,-0.138596,-0.394970,-0.144596,-0.380970,-0.144682,-0.380756,-0.147682,-0.372756,
-0.147808,-0.372374,-0.149808,-0.365374,-0.149851,-0.365213,-0.151851,-0.357213,-0.151961,-0.356620,-0.152950,-0.348707,-0.153950,-0.341707,-0.153961,-0.341620,-0.154961,-0.333620,-0.155000,-0.333000,-0.155000,0.475000,-0.153536,0.478536,-0.150000,0.480000,0.150000,0.480000,0.153536,0.478536,0.153536,0.478536,$1*%
%AMFreePoly4*
4,1,14,1.678536,1.678536,1.680000,1.675000,1.680000,-1.675000,1.678536,-1.678536,1.675000,-1.680000,-1.675000,-1.680000,-1.678536,-1.678536,-1.680000,-1.675000,-1.680000,1.425000,-1.678536,1.428536,-1.428536,1.678536,-1.425000,1.680000,1.675000,1.680000,1.678536,1.678536,1.678536,1.678536,$1*%
G04 Aperture macros list end*
%TA.AperFunction,SMDPad,CuDef*%
%ADD10RoundRect,0.250000X-0.450000X0.350000X-0.450000X-0.350000X0.450000X-0.350000X0.450000X0.350000X0*%
%TD*%
%TA.AperFunction,SMDPad,CuDef*%
%ADD11RoundRect,0.150000X0.512500X0.150000X-0.512500X0.150000X-0.512500X-0.150000X0.512500X-0.150000X0*%
%TD*%
%TA.AperFunction,SMDPad,CuDef*%
%ADD12RoundRect,0.250000X-0.250000X-0.475000X0.250000X-0.475000X0.250000X0.475000X-0.250000X0.475000X0*%
%TD*%
%TA.AperFunction,SMDPad,CuDef*%
%ADD13RoundRect,0.250000X-0.350000X-0.450000X0.350000X-0.450000X0.350000X0.450000X-0.350000X0.450000X0*%
%TD*%
%TA.AperFunction,SMDPad,CuDef*%
%ADD14C,1.000000*%
%TD*%
%TA.AperFunction,SMDPad,CuDef*%
%ADD15R,1.350000X0.400000*%
%TD*%
%TA.AperFunction,SMDPad,CuDef*%
%ADD16R,1.400000X1.600000*%
%TD*%
%TA.AperFunction,SMDPad,CuDef*%
%ADD17R,1.900000X1.900000*%
%TD*%
%TA.AperFunction,ComponentPad*%
%ADD18O,1.800000X0.900000*%
%TD*%
%TA.AperFunction,SMDPad,CuDef*%
%ADD19RoundRect,0.250000X0.475000X-0.250000X0.475000X0.250000X-0.475000X0.250000X-0.475000X-0.250000X0*%
%TD*%
%TA.AperFunction,ComponentPad*%
%ADD20R,1.308000X1.308000*%
%TD*%
%TA.AperFunction,ComponentPad*%
%ADD21C,1.308000*%
%TD*%
%TA.AperFunction,SMDPad,CuDef*%
%ADD22RoundRect,0.250000X0.337500X0.475000X-0.337500X0.475000X-0.337500X-0.475000X0.337500X-0.475000X0*%
%TD*%
%TA.AperFunction,SMDPad,CuDef*%
%ADD23RoundRect,0.250000X0.350000X0.450000X-0.350000X0.450000X-0.350000X-0.450000X0.350000X-0.450000X0*%
%TD*%
%TA.AperFunction,SMDPad,CuDef*%
%ADD24R,1.050000X0.650000*%
%TD*%
%TA.AperFunction,SMDPad,CuDef*%
%ADD25RoundRect,0.250000X0.450000X-0.350000X0.450000X0.350000X-0.450000X0.350000X-0.450000X-0.350000X0*%
%TD*%
%TA.AperFunction,SMDPad,CuDef*%
%ADD26R,0.250000X0.675000*%
%TD*%
%TA.AperFunction,SMDPad,CuDef*%
%ADD27R,0.575000X0.250000*%
%TD*%
%TA.AperFunction,SMDPad,CuDef*%
%ADD28R,1.092200X1.143000*%
%TD*%
%TA.AperFunction,SMDPad,CuDef*%
%ADD29FreePoly0,90.000000*%
%TD*%
%TA.AperFunction,SMDPad,CuDef*%
%ADD30FreePoly1,90.000000*%
%TD*%
%TA.AperFunction,SMDPad,CuDef*%
%ADD31FreePoly2,90.000000*%
%TD*%
%TA.AperFunction,SMDPad,CuDef*%
%ADD32FreePoly3,90.000000*%
%TD*%
%TA.AperFunction,SMDPad,CuDef*%
%ADD33FreePoly4,180.000000*%
%TD*%
%TA.AperFunction,SMDPad,CuDef*%
%ADD34R,0.800000X0.800000*%
%TD*%
%TA.AperFunction,SMDPad,CuDef*%
%ADD35RoundRect,0.150000X0.587500X0.150000X-0.587500X0.150000X-0.587500X-0.150000X0.587500X-0.150000X0*%
%TD*%
%TA.AperFunction,SMDPad,CuDef*%
%ADD36RoundRect,0.150000X0.150000X-0.587500X0.150000X0.587500X-0.150000X0.587500X-0.150000X-0.587500X0*%
%TD*%
%TA.AperFunction,SMDPad,CuDef*%
%ADD37R,2.600000X1.600000*%
%TD*%
%TA.AperFunction,ComponentPad*%
%ADD38C,0.300000*%
%TD*%
%TA.AperFunction,SMDPad,CuDef*%
%ADD39R,0.900000X0.900000*%
%TD*%
%TA.AperFunction,SMDPad,CuDef*%
%ADD40R,1.500000X0.900000*%
%TD*%
%TA.AperFunction,SMDPad,CuDef*%
%ADD41R,0.558800X1.270000*%
%TD*%
%TA.AperFunction,ViaPad*%
%ADD42C,0.600000*%
%TD*%
%TA.AperFunction,Conductor*%
%ADD43C,0.200000*%
%TD*%
G04 APERTURE END LIST*
D10*
%TO.P,R15,2*%
%TO.N,Net-(U5-~{BOOT})*%
X142000000Y-138000000D03*
%TO.P,R15,1*%
%TO.N,+3.3V*%
X142000000Y-136000000D03*
%TD*%
D11*
%TO.P,U3,1,IN*%
%TO.N,VBUS*%
X167387500Y-135200000D03*
%TO.P,U3,2,GND*%
%TO.N,GND*%
X167387500Y-134250000D03*
%TO.P,U3,3,EN*%
%TO.N,Net-(U3-EN)*%
X167387500Y-133300000D03*
%TO.P,U3,4,BP*%
%TO.N,GND*%
X165112500Y-133300000D03*
%TO.P,U3,5,OUT*%
%TO.N,+3.3V*%
X165112500Y-135200000D03*
%TD*%
D12*
%TO.P,C1,1*%
%TO.N,Net-(U2-VDD)*%
X181800000Y-121500000D03*
%TO.P,C1,2*%
%TO.N,GND*%
X183700000Y-121500000D03*
%TD*%
D13*
%TO.P,R6,1*%
%TO.N,/DTR*%
X167000000Y-112050000D03*
%TO.P,R6,2*%
%TO.N,Net-(Q1-B)*%
X169000000Y-112050000D03*
%TD*%
D14*
%TO.P,TP2,1,1*%
%TO.N,Net-(U1-IO4)*%
X157000000Y-126000000D03*
%TD*%
%TO.P,TP15,1,1*%
%TO.N,/BNO_NRST*%
X134500000Y-118500000D03*
%TD*%
D10*
%TO.P,R7,1*%
%TO.N,Net-(U2-VBUS)*%
X183750000Y-117500000D03*
%TO.P,R7,2*%
%TO.N,GND*%
X183750000Y-119500000D03*
%TD*%
D15*
%TO.P,J1,1,VUSB*%
%TO.N,VBUS*%
X188075000Y-128550000D03*
%TO.P,J1,2,D-*%
%TO.N,/D_N*%
X188075000Y-127900000D03*
%TO.P,J1,3,D+*%
%TO.N,/D_P*%
X188075000Y-127250000D03*
%TO.P,J1,4,ID*%
%TO.N,unconnected-(J1-ID-Pad4)*%
X188075000Y-126600000D03*
%TO.P,J1,5,GND*%
%TO.N,GND*%
X188075000Y-125950000D03*
D16*
%TO.P,J1,S1,SHIELD*%
%TO.N,unconnected-(J1-SHIELD-PadS1)*%
X188300000Y-130450000D03*
%TO.P,J1,S2,SHIELD__1*%
%TO.N,unconnected-(J1-SHIELD__1-PadS2)*%
X188300000Y-124050000D03*
D17*
%TO.P,J1,S3,SHIELD__2*%
%TO.N,unconnected-(J1-SHIELD__2-PadS3)*%
X190750000Y-126050000D03*
%TO.P,J1,S4,SHIELD__3*%
%TO.N,unconnected-(J1-SHIELD__3-PadS4)*%
X190750000Y-128450000D03*
D18*
%TO.P,J1,S5,SHIELD__4*%
%TO.N,unconnected-(J1-SHIELD__4-PadS5)*%
X190750000Y-130550000D03*
%TO.P,J1,S6,SHIELD__5*%
%TO.N,unconnected-(J1-SHIELD__5-PadS6)*%
X190750000Y-123950000D03*
%TD*%
D19*
%TO.P,C3,1*%
%TO.N,VBUS*%
X175750000Y-126700000D03*
%TO.P,C3,2*%
%TO.N,GND*%
X175750000Y-124800000D03*
%TD*%
D14*
%TO.P,TP19,1,1*%
%TO.N,GND*%
X180250000Y-124250000D03*
%TD*%
%TO.P,TP9,1,1*%
%TO.N,Net-(U1-IO19)*%
X157000000Y-119750000D03*
%TD*%
%TO.P,TP8,1,1*%
%TO.N,Net-(U1-IO18)*%
X159250000Y-123000000D03*
%TD*%
D13*
%TO.P,R9,1*%
%TO.N,Net-(Q2-B)*%
X170750000Y-115800000D03*
%TO.P,R9,2*%
%TO.N,/RTS*%
X172750000Y-115800000D03*
%TD*%
D20*
%TO.P,J2,1,1*%
%TO.N,+BATT*%
X176750000Y-141500000D03*
D21*
%TO.P,J2,2,2*%
%TO.N,GND*%
X174750000Y-141500000D03*
%TD*%
D22*
%TO.P,C7,2*%
%TO.N,Net-(U5-CAP)*%
X140462500Y-140000000D03*
%TO.P,C7,1*%
%TO.N,GND*%
X142537500Y-140000000D03*
%TD*%
D23*
%TO.P,R14,1*%
%TO.N,+3.3V*%
X161000000Y-120000000D03*
%TO.P,R14,2*%
%TO.N,/I2C_SDA*%
X159000000Y-120000000D03*
%TD*%
D24*
%TO.P,SW2,1*%
%TO.N,Net-(R4-Pad1)*%
X169575000Y-130825000D03*
%TO.P,SW2,2*%
%TO.N,unconnected-(SW2-Pad2)*%
X165425000Y-130825000D03*
%TO.P,SW2,3*%
%TO.N,unconnected-(SW2-Pad3)*%
X169575000Y-128675000D03*
%TO.P,SW2,4*%
%TO.N,/AEN*%
X165425000Y-128675000D03*
%TD*%
D25*
%TO.P,R10,1*%
%TO.N,VBUS*%
X172250000Y-134750000D03*
%TO.P,R10,2*%
%TO.N,Net-(U3-EN)*%
X172250000Y-132750000D03*
%TD*%
D19*
%TO.P,C2,1*%
%TO.N,VBUS*%
X173750000Y-126700000D03*
%TO.P,C2,2*%
%TO.N,GND*%
X173750000Y-124800000D03*
%TD*%
D26*
%TO.P,U5,28,VDDIO*%
%TO.N,+3.3V*%
X145750000Y-137187500D03*
%TO.P,U5,27,XIN32*%
%TO.N,unconnected-(U5-XIN32-Pad27)*%
X146250000Y-137187500D03*
%TO.P,U5,26,XOUT32/CLKSEL1*%
%TO.N,GND*%
X146750000Y-137187500D03*
%TO.P,U5,25,GNDIO*%
X147250000Y-137187500D03*
%TO.P,U5,24*%
%TO.N,N/C*%
X147750000Y-137187500D03*
%TO.P,U5,23*%
X148250000Y-137187500D03*
%TO.P,U5,22*%
X148750000Y-137187500D03*
%TO.P,U5,21*%
X149250000Y-137187500D03*
%TO.P,U5,20,H_SDA/H_MISO/TX*%
%TO.N,/I2C_SDA*%
X149750000Y-137187500D03*
D27*
%TO.P,U5,19,H_SCL/SCK/RX*%
%TO.N,/I2C_SCL*%
X149812500Y-138000000D03*
%TO.P,U5,18,~{H_CS}*%
%TO.N,unconnected-(U5-~{H_CS}-Pad18)*%
X149812500Y-138500000D03*
%TO.P,U5,17,SA0/H_MOSI*%
%TO.N,GND*%
X149812500Y-139000000D03*
%TO.P,U5,16,ENV_SDA*%
%TO.N,unconnected-(U5-ENV_SDA-Pad16)*%
X149812500Y-139500000D03*
D26*
%TO.P,U5,15,ENV_SCL*%
%TO.N,unconnected-(U5-ENV_SCL-Pad15)*%
X149750000Y-140312500D03*
%TO.P,U5,14,~{H_INT}*%
%TO.N,/BNO_HINTN*%
X149250000Y-140312500D03*
%TO.P,U5,13*%
%TO.N,N/C*%
X148750000Y-140312500D03*
%TO.P,U5,12*%
X148250000Y-140312500D03*
%TO.P,U5,11,~{RST}*%
%TO.N,/BNO_NRST*%
X147750000Y-140312500D03*
%TO.P,U5,10,CLKSEL0*%
%TO.N,+3.3V*%
X147250000Y-140312500D03*
%TO.P,U5,9,CAP*%
%TO.N,Net-(U5-CAP)*%
X146750000Y-140312500D03*
%TO.P,U5,8*%
%TO.N,N/C*%
X146250000Y-140312500D03*
%TO.P,U5,7*%
X145750000Y-140312500D03*
%TO.P,U5,6,PS0/WAKE*%
%TO.N,GND*%
X145250000Y-140312500D03*
D27*
%TO.P,U5,5,PS1*%
X145187500Y-139500000D03*
%TO.P,U5,4,~{BOOT}*%
%TO.N,Net-(U5-~{BOOT})*%
X145187500Y-139000000D03*
%TO.P,U5,3,VDD*%
%TO.N,+3.3V*%
X145187500Y-138500000D03*
%TO.P,U5,2,GND*%
%TO.N,GND*%
X145187500Y-138000000D03*
D26*
%TO.P,U5,1*%
%TO.N,N/C*%
X145250000Y-137187500D03*
%TD*%
D24*
%TO.P,SW1,1*%
%TO.N,Net-(R3-Pad1)*%
X169575000Y-122825000D03*
%TO.P,SW1,2*%
%TO.N,unconnected-(SW1-Pad2)*%
X165425000Y-122825000D03*
%TO.P,SW1,3*%
%TO.N,unconnected-(SW1-Pad3)*%
X169575000Y-120675000D03*
%TO.P,SW1,4*%
%TO.N,/IO0*%
X165425000Y-120675000D03*
%TD*%
D28*
%TO.P,D1,1,K*%
%TO.N,VBUS*%
X180250000Y-133713300D03*
%TO.P,D1,2,A*%
%TO.N,+BATT*%
X180250000Y-136786700D03*
%TD*%
D14*
%TO.P,TP20,1,1*%
%TO.N,+3.3V*%
X157000000Y-141500000D03*
%TD*%
D10*
%TO.P,R11,1*%
%TO.N,Net-(U4-PROG)*%
X174750000Y-134750000D03*
%TO.P,R11,2*%
%TO.N,GND*%
X174750000Y-136750000D03*
%TD*%
D14*
%TO.P,TP22,1,1*%
%TO.N,VBUS*%
X184000000Y-130000000D03*
%TD*%
%TO.P,TP4,1,1*%
%TO.N,Net-(U1-IO12)*%
X134500000Y-129750000D03*
%TD*%
D29*
%TO.P,U2,1,DCD*%
%TO.N,unconnected-(U2-DCD-Pad1)*%
X175750000Y-119900000D03*
%TO.P,U2,2,RI/CLK*%
%TO.N,unconnected-(U2-RI{slash}CLK-Pad2)*%
X176250000Y-119900000D03*
%TO.P,U2,3,GND*%
%TO.N,GND*%
X176750000Y-119900000D03*
%TO.P,U2,4,D+*%
%TO.N,/D_P*%
X177250000Y-119900000D03*
%TO.P,U2,5,D-*%
%TO.N,/D_N*%
X177750000Y-119900000D03*
%TO.P,U2,6,VDD*%
%TO.N,Net-(U2-VDD)*%
X178250000Y-119900000D03*
%TO.P,U2,7,VREGIN*%
%TO.N,VBUS*%
X178750000Y-119900000D03*
D30*
%TO.P,U2,8,VBUS*%
%TO.N,Net-(U2-VBUS)*%
X179650000Y-119000000D03*
%TO.P,U2,9,~{RST}*%
%TO.N,unconnected-(U2-~{RST}-Pad9)*%
X179650000Y-118500000D03*
%TO.P,U2,10,NC*%
%TO.N,unconnected-(U2-NC-Pad10)*%
X179650000Y-118000000D03*
%TO.P,U2,11,~{SUSPEND}*%
%TO.N,unconnected-(U2-~{SUSPEND}-Pad11)*%
X179650000Y-117500000D03*
%TO.P,U2,12,SUSPEND*%
%TO.N,unconnected-(U2-SUSPEND-Pad12)*%
X179650000Y-117000000D03*
%TO.P,U2,13,CHREN*%
%TO.N,unconnected-(U2-CHREN-Pad13)*%
X179650000Y-116500000D03*
%TO.P,U2,14,CHR1*%
%TO.N,unconnected-(U2-CHR1-Pad14)*%
X179650000Y-116000000D03*
D31*
%TO.P,U2,15,CHR0*%
%TO.N,unconnected-(U2-CHR0-Pad15)*%
X178750000Y-115100000D03*
%TO.P,U2,16,GPIO3_WAKEUP*%
%TO.N,unconnected-(U2-GPIO3_WAKEUP-Pad16)*%
X178250000Y-115100000D03*
%TO.P,U2,17,GPIO2_RS485*%
%TO.N,unconnected-(U2-GPIO2_RS485-Pad17)*%
X177750000Y-115100000D03*
%TO.P,U2,18,GPIO1_RXT*%
%TO.N,unconnected-(U2-GPIO1_RXT-Pad18)*%
X177250000Y-115100000D03*
%TO.P,U2,19,GPIO0_TXT*%
%TO.N,unconnected-(U2-GPIO0_TXT-Pad19)*%
X176750000Y-115100000D03*
%TO.P,U2,20,GPIO6*%
%TO.N,unconnected-(U2-GPIO6-Pad20)*%
X176250000Y-115100000D03*
%TO.P,U2,21,GPIO5*%
%TO.N,unconnected-(U2-GPIO5-Pad21)*%
X175750000Y-115100000D03*
D32*
%TO.P,U2,22,GPIO4*%
%TO.N,unconnected-(U2-GPIO4-Pad22)*%
X174850000Y-116000000D03*
%TO.P,U2,23,CTS*%
%TO.N,unconnected-(U2-CTS-Pad23)*%
X174850000Y-116500000D03*
%TO.P,U2,24,RTS*%
%TO.N,/RTS*%
X174850000Y-117000000D03*
%TO.P,U2,25,RXD*%
%TO.N,/TX*%
X174850000Y-117500000D03*
%TO.P,U2,26,TXD*%
%TO.N,Net-(U2-TXD)*%
X174850000Y-118000000D03*
%TO.P,U2,27,DSR*%
%TO.N,unconnected-(U2-DSR-Pad27)*%
X174850000Y-118500000D03*
%TO.P,U2,28,DTR*%
%TO.N,/DTR*%
X174850000Y-119000000D03*
D33*
%TO.P,U2,29,EXP*%
%TO.N,GND*%
X177250000Y-117500000D03*
%TD*%
D14*
%TO.P,TP3,1,1*%
%TO.N,Net-(U1-IO5)*%
X157000000Y-123750000D03*
%TD*%
%TO.P,TP12,1,1*%
%TO.N,Net-(U1-IO26)*%
X134500000Y-123000000D03*
%TD*%
D23*
%TO.P,R1,1*%
%TO.N,+3.3V*%
X167750000Y-126750000D03*
%TO.P,R1,2*%
%TO.N,/AEN*%
X165750000Y-126750000D03*
%TD*%
D34*
%TO.P,D3,1,K*%
%TO.N,Net-(D3-K)*%
X179000000Y-129817600D03*
%TO.P,D3,2,A*%
%TO.N,VBUS*%
X179000000Y-131417600D03*
%TD*%
D14*
%TO.P,TP23,1,1*%
%TO.N,GND*%
X136750000Y-136500000D03*
%TD*%
D23*
%TO.P,R12,1*%
%TO.N,+3.3V*%
X160000000Y-114500000D03*
%TO.P,R12,2*%
%TO.N,/I2C_SCL*%
X158000000Y-114500000D03*
%TD*%
D14*
%TO.P,TP5,1,1*%
%TO.N,Net-(U1-IO13)*%
X134500000Y-132000000D03*
%TD*%
%TO.P,TP16,1,1*%
%TO.N,/I2C_SCL*%
X152500000Y-138000000D03*
%TD*%
D35*
%TO.P,Q1,1,E*%
%TO.N,/RTS*%
X172937500Y-113950000D03*
%TO.P,Q1,2,B*%
%TO.N,Net-(Q1-B)*%
X172937500Y-112050000D03*
%TO.P,Q1,3,C*%
%TO.N,/AEN*%
X171062500Y-113000000D03*
%TD*%
D14*
%TO.P,TP24,1,1*%
%TO.N,/RX*%
X163500000Y-120000000D03*
%TD*%
D13*
%TO.P,R5,1*%
%TO.N,/RX*%
X169000000Y-118750000D03*
%TO.P,R5,2*%
%TO.N,Net-(U2-TXD)*%
X171000000Y-118750000D03*
%TD*%
D19*
%TO.P,C6,1*%
%TO.N,+3.3V*%
X169750000Y-126950000D03*
%TO.P,C6,2*%
%TO.N,GND*%
X169750000Y-125050000D03*
%TD*%
D36*
%TO.P,Q2,1,E*%
%TO.N,/DTR*%
X167050000Y-115937500D03*
%TO.P,Q2,2,B*%
%TO.N,Net-(Q2-B)*%
X168950000Y-115937500D03*
%TO.P,Q2,3,C*%
%TO.N,/IO0*%
X168000000Y-114062500D03*
%TD*%
D14*
%TO.P,TP25,1,1*%
%TO.N,/TX*%
X163500000Y-116250000D03*
%TD*%
%TO.P,TP14,1,1*%
%TO.N,/BNO_HINTN*%
X134500000Y-116250000D03*
%TD*%
%TO.P,TP17,1,1*%
%TO.N,/I2C_SDA*%
X154000000Y-136500000D03*
%TD*%
D37*
%TO.P,C5,1*%
%TO.N,+3.3V*%
X166950000Y-139500000D03*
%TO.P,C5,2*%
%TO.N,GND*%
X170550000Y-139500000D03*
%TD*%
D14*
%TO.P,TP11,1,1*%
%TO.N,Net-(U1-IO25)*%
X134500000Y-120750000D03*
%TD*%
%TO.P,TP18,1,1*%
%TO.N,+BATT*%
X180000000Y-139000000D03*
%TD*%
D19*
%TO.P,C4,1*%
%TO.N,VBUS*%
X170250000Y-135700000D03*
%TO.P,C4,2*%
%TO.N,GND*%
X170250000Y-133800000D03*
%TD*%
D38*
%TO.P,U1,51*%
%TO.N,N/C*%
X145050000Y-119800000D03*
%TO.P,U1,50*%
X143650000Y-119800000D03*
%TO.P,U1,49*%
X145750000Y-119100000D03*
%TO.P,U1,48*%
X144350000Y-119100000D03*
%TO.P,U1,47*%
X142950000Y-119100000D03*
%TO.P,U1,46*%
X145050000Y-118400000D03*
%TO.P,U1,45*%
X143650000Y-118400000D03*
%TO.P,U1,44*%
X145750000Y-117700000D03*
%TO.P,U1,43*%
X144350000Y-117700000D03*
%TO.P,U1,42*%
X142950000Y-117700000D03*
%TO.P,U1,41*%
X145050000Y-117000000D03*
%TO.P,U1,40*%
X143650000Y-117000000D03*
D39*
%TO.P,U1,39_9,EXP__8*%
%TO.N,unconnected-(U1-EXP__8-Pad39_9)*%
X145750000Y-119800000D03*
%TO.P,U1,39_8,EXP__7*%
%TO.N,unconnected-(U1-EXP__7-Pad39_8)*%
X144350000Y-119800000D03*
%TO.P,U1,39_7,EXP__6*%
%TO.N,unconnected-(U1-EXP__6-Pad39_7)*%
X142950000Y-119800000D03*
%TO.P,U1,39_6,EXP__5*%
%TO.N,unconnected-(U1-EXP__5-Pad39_6)*%
X145750000Y-118400000D03*
%TO.P,U1,39_5,EXP__4*%
%TO.N,unconnected-(U1-EXP__4-Pad39_5)*%
X144350000Y-118400000D03*
%TO.P,U1,39_4,EXP__3*%
%TO.N,unconnected-(U1-EXP__3-Pad39_4)*%
X142950000Y-118400000D03*
%TO.P,U1,39_3,EXP__2*%
%TO.N,unconnected-(U1-EXP__2-Pad39_3)*%
X145750000Y-117000000D03*
%TO.P,U1,39_2,EXP__1*%
%TO.N,unconnected-(U1-EXP__1-Pad39_2)*%
X144350000Y-117000000D03*
%TO.P,U1,39_1,EXP*%
%TO.N,unconnected-(U1-EXP-Pad39_1)*%
X142950000Y-117000000D03*
D40*
%TO.P,U1,38,GND__2*%
%TO.N,GND*%
X154600000Y-110600000D03*
%TO.P,U1,37,IO23*%
%TO.N,Net-(U1-IO23)*%
X154600000Y-111870000D03*
%TO.P,U1,36,IO22*%
%TO.N,/I2C_SCL*%
X154600000Y-113140000D03*
%TO.P,U1,35,TXD0*%
%TO.N,/TX*%
X154600000Y-114410000D03*
%TO.P,U1,34,RXD0*%
%TO.N,/RX*%
X154600000Y-115680000D03*
%TO.P,U1,33,IO21*%
%TO.N,/I2C_SDA*%
X154600000Y-116950000D03*
%TO.P,U1,32,NC__8*%
%TO.N,unconnected-(U1-NC__8-Pad32)*%
X154600000Y-118220000D03*
%TO.P,U1,31,IO19*%
%TO.N,Net-(U1-IO19)*%
X154600000Y-119490000D03*
%TO.P,U1,30,IO18*%
%TO.N,Net-(U1-IO18)*%
X154600000Y-120760000D03*
%TO.P,U1,29,IO5*%
%TO.N,Net-(U1-IO5)*%
X154600000Y-122030000D03*
%TO.P,U1,28,NC__7*%
%TO.N,unconnected-(U1-NC__7-Pad28)*%
X154600000Y-123300000D03*
%TO.P,U1,27,NC__6*%
%TO.N,unconnected-(U1-NC__6-Pad27)*%
X154600000Y-124570000D03*
%TO.P,U1,26,IO4*%
%TO.N,Net-(U1-IO4)*%
X154600000Y-125840000D03*
%TO.P,U1,25,IO0*%
%TO.N,/IO0*%
X154600000Y-127110000D03*
%TO.P,U1,24,IO2*%
%TO.N,Net-(U1-IO2)*%
X154600000Y-128380000D03*
%TO.P,U1,23,IO15*%
%TO.N,Net-(U1-IO15)*%
X154600000Y-129650000D03*
%TO.P,U1,22,NC__5*%
%TO.N,unconnected-(U1-NC__5-Pad22)*%
X154600000Y-130920000D03*
%TO.P,U1,21,NC__4*%
%TO.N,unconnected-(U1-NC__4-Pad21)*%
X154600000Y-132190000D03*
%TO.P,U1,20,NC__3*%
%TO.N,unconnected-(U1-NC__3-Pad20)*%
X154600000Y-133460000D03*
%TO.P,U1,19,NC__2*%
%TO.N,unconnected-(U1-NC__2-Pad19)*%
X137100000Y-133460000D03*
%TO.P,U1,18,NC__1*%
%TO.N,unconnected-(U1-NC__1-Pad18)*%
X137100000Y-132190000D03*
%TO.P,U1,17,NC*%
%TO.N,unconnected-(U1-NC-Pad17)*%
X137100000Y-130920000D03*
%TO.P,U1,16,IO13*%
%TO.N,Net-(U1-IO13)*%
X137100000Y-129650000D03*
%TO.P,U1,15,GND__1*%
%TO.N,GND*%
X137100000Y-128380000D03*
%TO.P,U1,14,IO12*%
%TO.N,Net-(U1-IO12)*%
X137100000Y-127110000D03*
%TO.P,U1,13,IO14*%
%TO.N,Net-(U1-IO14)*%
X137100000Y-125840000D03*
%TO.P,U1,12,IO27*%
%TO.N,Net-(U1-IO27)*%
X137100000Y-124570000D03*
%TO.P,U1,11,IO26*%
%TO.N,Net-(U1-IO26)*%
X137100000Y-123300000D03*
%TO.P,U1,10,IO25*%
%TO.N,Net-(U1-IO25)*%
X137100000Y-122030000D03*
%TO.P,U1,9,IO33*%
%TO.N,/BNO_NRST*%
X137100000Y-120760000D03*
%TO.P,U1,8,IO32*%
%TO.N,/BNO_HINTN*%
X137100000Y-119490000D03*
%TO.P,U1,7,IO35*%
%TO.N,unconnected-(U1-IO35-Pad7)*%
X137100000Y-118220000D03*
%TO.P,U1,6,IO34*%
%TO.N,unconnected-(U1-IO34-Pad6)*%
X137100000Y-116950000D03*
%TO.P,U1,5,SENSOR_VN*%
%TO.N,unconnected-(U1-SENSOR_VN-Pad5)*%
X137100000Y-115680000D03*
%TO.P,U1,4,SENSOR_VP*%
%TO.N,unconnected-(U1-SENSOR_VP-Pad4)*%
X137100000Y-114410000D03*
%TO.P,U1,3,EN*%
%TO.N,/AEN*%
X137100000Y-113140000D03*
%TO.P,U1,2,3V3*%
%TO.N,+3.3V*%
X137100000Y-111870000D03*
%TO.P,U1,1,GND*%
%TO.N,GND*%
X137100000Y-110600000D03*
%TD*%
D23*
%TO.P,R2,1*%
%TO.N,+3.3V*%
X167750000Y-124750000D03*
%TO.P,R2,2*%
%TO.N,/IO0*%
X165750000Y-124750000D03*
%TD*%
D41*
%TO.P,U4,1,STAT*%
%TO.N,Net-(U4-STAT)*%
X176310200Y-136795400D03*
%TO.P,U4,2,VSS*%
%TO.N,GND*%
X177250000Y-136795400D03*
%TO.P,U4,3,VBAT*%
%TO.N,+BATT*%
X178189800Y-136795400D03*
%TO.P,U4,4,VDD*%
%TO.N,VBUS*%
X178189800Y-134204600D03*
%TO.P,U4,5,PROG*%
%TO.N,Net-(U4-PROG)*%
X176310200Y-134204600D03*
%TD*%
D14*
%TO.P,TP13,1,1*%
%TO.N,Net-(U1-IO27)*%
X134500000Y-125250000D03*
%TD*%
%TO.P,TP6,1,1*%
%TO.N,Net-(U1-IO14)*%
X134500000Y-127500000D03*
%TD*%
D25*
%TO.P,R8,1*%
%TO.N,VBUS*%
X181750000Y-119500000D03*
%TO.P,R8,2*%
%TO.N,Net-(U2-VBUS)*%
X181750000Y-117500000D03*
%TD*%
D14*
%TO.P,TP21,1,1*%
%TO.N,GND*%
X158500000Y-110500000D03*
%TD*%
D25*
%TO.P,R4,1*%
%TO.N,Net-(R4-Pad1)*%
X171750000Y-128750000D03*
%TO.P,R4,2*%
%TO.N,GND*%
X171750000Y-126750000D03*
%TD*%
D14*
%TO.P,TP7,1,1*%
%TO.N,Net-(U1-IO15)*%
X157000000Y-130750000D03*
%TD*%
%TO.P,TP10,1,1*%
%TO.N,Net-(U1-IO23)*%
X156750000Y-112000000D03*
%TD*%
%TO.P,TP1,1,1*%
%TO.N,Net-(U1-IO2)*%
X157000000Y-128500000D03*
%TD*%
D10*
%TO.P,R3,1*%
%TO.N,Net-(R3-Pad1)*%
X171750000Y-122750000D03*
%TO.P,R3,2*%
%TO.N,GND*%
X171750000Y-124750000D03*
%TD*%
D25*
%TO.P,R13,1*%
%TO.N,Net-(U4-STAT)*%
X177250000Y-131750000D03*
%TO.P,R13,2*%
%TO.N,Net-(D3-K)*%
X177250000Y-129750000D03*
%TD*%
D42*
%TO.N,GND*%
X144160122Y-137339878D03*
X144000000Y-140000000D03*
%TO.N,+3.3V*%
X140500000Y-136000000D03*
X147102040Y-141318205D03*
%TO.N,GND*%
X151000000Y-139000000D03*
X140250000Y-111750000D03*
X177250000Y-117500000D03*
X146750000Y-136000000D03*
X180750000Y-122750000D03*
X176500000Y-122250000D03*
X138000000Y-135500000D03*
X180000000Y-126000000D03*
X139500000Y-128500000D03*
X168750000Y-134250000D03*
X152750000Y-111500000D03*
%TO.N,VBUS*%
X178750000Y-133117600D03*
X179750000Y-120500000D03*
X168750000Y-135250000D03*
X177500000Y-128500000D03*
%TO.N,+3.3V*%
X138750000Y-111750000D03*
X158500000Y-116500000D03*
X158250000Y-139500000D03*
X158500000Y-121750000D03*
X158250000Y-135250000D03*
%TO.N,/D_N*%
X185500000Y-126650000D03*
X186750000Y-127900000D03*
%TO.N,/AEN*%
X139000000Y-113000000D03*
X169750000Y-113300000D03*
X164625000Y-125625000D03*
%TO.N,/IO0*%
X165500000Y-119750000D03*
X168000000Y-115500000D03*
%TO.N,/DTR*%
X168000000Y-116750000D03*
X172250000Y-119000000D03*
%TO.N,/I2C_SCL*%
X151250000Y-136750000D03*
X157905740Y-115917211D03*
%TO.N,/I2C_SDA*%
X151750000Y-135250000D03*
X157170000Y-121250000D03*
%TD*%
D43*
%TO.N,GND*%
X145187500Y-138000000D02*
X144820244Y-138000000D01*
X144820244Y-138000000D02*
X144160122Y-137339878D01*
%TO.N,+3.3V*%
X145750000Y-137187500D02*
X145750000Y-136750000D01*
X145750000Y-136750000D02*
X145000000Y-136000000D01*
X145000000Y-136000000D02*
X142000000Y-136000000D01*
%TO.N,/BNO_HINTN*%
X149250000Y-140312500D02*
X149250000Y-140750000D01*
X149250000Y-140750000D02*
X147500000Y-142500000D01*
X147500000Y-142500000D02*
X140464034Y-142500000D01*
X133000000Y-117750000D02*
X134500000Y-116250000D01*
X140464034Y-142500000D02*
X133000000Y-135035966D01*
X133000000Y-135035966D02*
X133000000Y-117750000D01*
%TO.N,/BNO_NRST*%
X147750000Y-140312500D02*
X147750000Y-141490489D01*
X147750000Y-141490489D02*
X147240489Y-142000000D01*
X147240489Y-142000000D02*
X140893540Y-142000000D01*
X140893540Y-142000000D02*
X133500000Y-134606460D01*
X133500000Y-134606460D02*
X133500000Y-119500000D01*
X133500000Y-119500000D02*
X134500000Y-118500000D01*
%TO.N,+3.3V*%
X147102040Y-141318205D02*
X147250000Y-141170245D01*
X147250000Y-141170245D02*
X147250000Y-140312500D01*
%TO.N,GND*%
X142537500Y-140000000D02*
X144000000Y-140000000D01*
X145250000Y-140312500D02*
X144312500Y-140312500D01*
X144312500Y-140312500D02*
X144000000Y-140000000D01*
%TO.N,+3.3V*%
X142000000Y-136000000D02*
X140500000Y-136000000D01*
X145187500Y-138500000D02*
X144500000Y-138500000D01*
X144500000Y-138500000D02*
X142000000Y-136000000D01*
%TO.N,Net-(U5-~{BOOT})*%
X145187500Y-139000000D02*
X143000000Y-139000000D01*
X143000000Y-139000000D02*
X142000000Y-138000000D01*
%TO.N,GND*%
X145187500Y-139500000D02*
X145187500Y-140250000D01*
X145187500Y-140250000D02*
X145250000Y-140312500D01*
X142850000Y-140312500D02*
X142537500Y-140000000D01*
%TO.N,Net-(U5-CAP)*%
X146750000Y-140312500D02*
X146750000Y-140850000D01*
X146595000Y-141005000D02*
X141467500Y-141005000D01*
X146750000Y-140850000D02*
X146595000Y-141005000D01*
X141467500Y-141005000D02*
X140462500Y-140000000D01*
%TO.N,Net-(U2-VDD)*%
X178250000Y-120441654D02*
X178250000Y-119900000D01*
X179308346Y-121500000D02*
X178250000Y-120441654D01*
X181800000Y-121500000D02*
X179308346Y-121500000D01*
%TO.N,GND*%
X183700000Y-121500000D02*
X182450000Y-122750000D01*
X168750000Y-134250000D02*
X168500000Y-134250000D01*
X137220000Y-128500000D02*
X137100000Y-128380000D01*
X167400000Y-134250000D02*
X166050000Y-134250000D01*
X173750000Y-124800000D02*
X175750000Y-124800000D01*
X176500000Y-122250000D02*
X176750000Y-122000000D01*
X158400000Y-110600000D02*
X158500000Y-110500000D01*
X175750000Y-123000000D02*
X175750000Y-124800000D01*
X171750000Y-126750000D02*
X171750000Y-124750000D01*
X139100000Y-110600000D02*
X137100000Y-110600000D01*
X170050000Y-124750000D02*
X169750000Y-125050000D01*
X169800000Y-134250000D02*
X170250000Y-133800000D01*
X166050000Y-134250000D02*
X165100000Y-133300000D01*
X183750000Y-119750000D02*
X183700000Y-119800000D01*
X173750000Y-124800000D02*
X173300000Y-124800000D01*
X137000000Y-136500000D02*
X138000000Y-135500000D01*
X176500000Y-122250000D02*
X175750000Y-123000000D01*
X177250000Y-139000000D02*
X174750000Y-141500000D01*
X174750000Y-141500000D02*
X174750000Y-136750000D01*
X139500000Y-128500000D02*
X137220000Y-128500000D01*
X183750000Y-119500000D02*
X183750000Y-119750000D01*
X153650000Y-110600000D02*
X154600000Y-110600000D01*
X188075000Y-125950000D02*
X186700000Y-125950000D01*
X180250000Y-123250000D02*
X180750000Y-122750000D01*
X136750000Y-136500000D02*
X137000000Y-136500000D01*
X183700000Y-119800000D02*
X183700000Y-121500000D01*
X154600000Y-110600000D02*
X158400000Y-110600000D01*
X186700000Y-125950000D02*
X183700000Y-122950000D01*
X146750000Y-136000000D02*
X146750000Y-137187500D01*
X172750000Y-139500000D02*
X174750000Y-141500000D01*
X180050000Y-125950000D02*
X188325000Y-125950000D01*
X170550000Y-139500000D02*
X172750000Y-139500000D01*
X147250000Y-137187500D02*
X146750000Y-137187500D01*
X167400000Y-134250000D02*
X168750000Y-134250000D01*
X152750000Y-111500000D02*
X153650000Y-110600000D01*
X149812500Y-139000000D02*
X151000000Y-139000000D01*
X180250000Y-124250000D02*
X180250000Y-123250000D01*
X177250000Y-136795400D02*
X177250000Y-139000000D01*
X173250000Y-124750000D02*
X171750000Y-124750000D01*
X183700000Y-122950000D02*
X183700000Y-121500000D01*
X176750000Y-122000000D02*
X176750000Y-119900000D01*
X180000000Y-126000000D02*
X180050000Y-125950000D01*
X140250000Y-111750000D02*
X139100000Y-110600000D01*
X173300000Y-124800000D02*
X173250000Y-124750000D01*
X171750000Y-124750000D02*
X170050000Y-124750000D01*
X182450000Y-122750000D02*
X180750000Y-122750000D01*
X168750000Y-134250000D02*
X169800000Y-134250000D01*
X188325000Y-125950000D02*
X188150000Y-125950000D01*
%TO.N,VBUS*%
X177550000Y-128500000D02*
X177600000Y-128550000D01*
X170250000Y-135700000D02*
X171300000Y-135700000D01*
X178750000Y-133117600D02*
X178750000Y-133644400D01*
X179654300Y-133117600D02*
X180250000Y-133713300D01*
X179000000Y-131417600D02*
X179000000Y-132867600D01*
X180750000Y-119500000D02*
X179750000Y-120500000D01*
X179150000Y-119900000D02*
X179750000Y-120500000D01*
X188075000Y-128550000D02*
X185450000Y-128550000D01*
X167400000Y-135200000D02*
X168700000Y-135200000D01*
X185450000Y-128550000D02*
X184000000Y-130000000D01*
X178750000Y-119900000D02*
X179150000Y-119900000D01*
X178750000Y-133117600D02*
X179654300Y-133117600D01*
X181750000Y-119500000D02*
X180750000Y-119500000D01*
X177500000Y-128500000D02*
X177500000Y-128450000D01*
X178750000Y-133644400D02*
X178189800Y-134204600D01*
X171300000Y-135700000D02*
X172250000Y-134750000D01*
X168700000Y-135200000D02*
X168750000Y-135250000D01*
X169800000Y-135250000D02*
X170250000Y-135700000D01*
X177600000Y-128550000D02*
X188325000Y-128550000D01*
X175750000Y-126700000D02*
X173750000Y-126700000D01*
X182100000Y-119900000D02*
X182250000Y-119750000D01*
X179000000Y-132867600D02*
X178750000Y-133117600D01*
X177500000Y-128500000D02*
X177550000Y-128500000D01*
X177500000Y-128450000D02*
X175750000Y-126700000D01*
X168750000Y-135250000D02*
X169800000Y-135250000D01*
%TO.N,+3.3V*%
X165112500Y-135200000D02*
X164000000Y-135200000D01*
X158250000Y-135250000D02*
X160400000Y-135250000D01*
X167950000Y-126950000D02*
X167750000Y-126750000D01*
X160400000Y-135250000D02*
X160450000Y-135200000D01*
X166000000Y-129750000D02*
X164500000Y-129750000D01*
X137100000Y-111870000D02*
X138630000Y-111870000D01*
X164000000Y-130250000D02*
X164000000Y-135200000D01*
X167750000Y-128000000D02*
X166000000Y-129750000D01*
X167750000Y-126750000D02*
X167750000Y-128000000D01*
X158250000Y-139500000D02*
X168150000Y-139500000D01*
X169750000Y-126950000D02*
X167950000Y-126950000D01*
X157000000Y-140750000D02*
X157000000Y-141500000D01*
X158250000Y-139500000D02*
X157000000Y-140750000D01*
X167750000Y-124750000D02*
X167750000Y-126750000D01*
X164500000Y-129750000D02*
X164000000Y-130250000D01*
X159250000Y-121750000D02*
X161000000Y-120000000D01*
X138630000Y-111870000D02*
X138750000Y-111750000D01*
X160450000Y-135200000D02*
X164000000Y-135200000D01*
X169700000Y-126750000D02*
X169750000Y-126700000D01*
X167800000Y-126700000D02*
X167750000Y-126750000D01*
X158500000Y-116500000D02*
X158500000Y-116000000D01*
X137220000Y-111750000D02*
X137100000Y-111870000D01*
X158500000Y-121750000D02*
X159250000Y-121750000D01*
X158500000Y-116000000D02*
X160000000Y-114500000D01*
%TO.N,+BATT*%
X178189800Y-140000000D02*
X178189800Y-140060200D01*
X178189800Y-140000000D02*
X179189800Y-139000000D01*
X178189800Y-140060200D02*
X176750000Y-141500000D01*
X179189800Y-139000000D02*
X180000000Y-139000000D01*
X178000000Y-136985200D02*
X178189800Y-136795400D01*
X178189800Y-136795400D02*
X178189800Y-140000000D01*
X178198500Y-136786700D02*
X178189800Y-136795400D01*
X180250000Y-136786700D02*
X178198500Y-136786700D01*
%TO.N,Net-(D3-K)*%
X177250000Y-129750000D02*
X178932400Y-129750000D01*
X178932400Y-129750000D02*
X179000000Y-129817600D01*
%TO.N,/D_N*%
X177750000Y-126250000D02*
X177750000Y-119900000D01*
X186750000Y-127900000D02*
X188325000Y-127900000D01*
X178150000Y-126650000D02*
X177750000Y-126250000D01*
X185500000Y-126650000D02*
X178150000Y-126650000D01*
%TO.N,/D_P*%
X178000000Y-127250000D02*
X177250000Y-126500000D01*
X177250000Y-126500000D02*
X177250000Y-119900000D01*
X188325000Y-127250000D02*
X178000000Y-127250000D01*
%TO.N,/AEN*%
X137240000Y-113000000D02*
X137100000Y-113140000D01*
X170875000Y-113000000D02*
X170050000Y-113000000D01*
X165425000Y-128675000D02*
X165425000Y-127075000D01*
X165425000Y-127075000D02*
X165750000Y-126750000D01*
X164625000Y-125625000D02*
X165750000Y-126750000D01*
X170050000Y-113000000D02*
X169750000Y-113300000D01*
X139000000Y-113000000D02*
X137240000Y-113000000D01*
%TO.N,/RTS*%
X172750000Y-115719938D02*
X172750000Y-113950000D01*
X174600000Y-117000000D02*
X174030062Y-117000000D01*
X174030062Y-117000000D02*
X172750000Y-115719938D01*
%TO.N,Net-(Q1-B)*%
X172750000Y-112050000D02*
X169000000Y-112050000D01*
%TO.N,/IO0*%
X165500000Y-119750000D02*
X165500000Y-120600000D01*
X164000000Y-124750000D02*
X164000000Y-122100000D01*
X164000000Y-124750000D02*
X165750000Y-124750000D01*
X164000000Y-122100000D02*
X165425000Y-120675000D01*
X154600000Y-127110000D02*
X161640000Y-127110000D01*
X161640000Y-127110000D02*
X164000000Y-124750000D01*
X168000000Y-114050000D02*
X168000000Y-115500000D01*
X154600000Y-127110000D02*
X154710000Y-127000000D01*
X165500000Y-120600000D02*
X165425000Y-120675000D01*
%TO.N,/DTR*%
X167000000Y-115875000D02*
X167050000Y-115925000D01*
X167175000Y-115925000D02*
X167050000Y-115925000D01*
X168000000Y-116750000D02*
X167175000Y-115925000D01*
X172250000Y-119000000D02*
X174600000Y-119000000D01*
X167000000Y-112050000D02*
X167000000Y-115875000D01*
%TO.N,Net-(Q2-B)*%
X169075000Y-115800000D02*
X168950000Y-115925000D01*
X170750000Y-115800000D02*
X169075000Y-115800000D01*
%TO.N,Net-(R3-Pad1)*%
X171750000Y-122750000D02*
X169650000Y-122750000D01*
X169650000Y-122750000D02*
X169575000Y-122825000D01*
%TO.N,Net-(R4-Pad1)*%
X169575000Y-130825000D02*
X171650000Y-128750000D01*
X171650000Y-128750000D02*
X171750000Y-128750000D01*
%TO.N,Net-(U2-TXD)*%
X172000000Y-118000000D02*
X174600000Y-118000000D01*
X171000000Y-118750000D02*
X171250000Y-118750000D01*
X171250000Y-118750000D02*
X172000000Y-118000000D01*
%TO.N,/RX*%
X158200000Y-118750000D02*
X155130000Y-115680000D01*
X169000000Y-118750000D02*
X163500000Y-118750000D01*
X155130000Y-115680000D02*
X154600000Y-115680000D01*
X163500000Y-118750000D02*
X163500000Y-120000000D01*
X163500000Y-118750000D02*
X158200000Y-118750000D01*
%TO.N,Net-(U2-VBUS)*%
X180250000Y-119000000D02*
X179650000Y-119000000D01*
X181750000Y-117500000D02*
X180250000Y-119000000D01*
X181750000Y-117500000D02*
X183750000Y-117500000D01*
%TO.N,Net-(U3-EN)*%
X167950000Y-132750000D02*
X167400000Y-133300000D01*
X172250000Y-132750000D02*
X167950000Y-132750000D01*
%TO.N,Net-(U4-PROG)*%
X174750000Y-134750000D02*
X175764800Y-134750000D01*
X175764800Y-134750000D02*
X176310200Y-134204600D01*
%TO.N,Net-(U4-STAT)*%
X177250000Y-131750000D02*
X177250000Y-135281000D01*
X177250000Y-135281000D02*
X176310200Y-136220800D01*
X176310200Y-136220800D02*
X176310200Y-136795400D01*
%TO.N,Net-(U1-IO19)*%
X154600000Y-119490000D02*
X156740000Y-119490000D01*
X156740000Y-119490000D02*
X157000000Y-119750000D01*
%TO.N,Net-(U1-IO2)*%
X156880000Y-128380000D02*
X157000000Y-128500000D01*
X154600000Y-128380000D02*
X156880000Y-128380000D01*
%TO.N,Net-(U1-IO13)*%
X136150000Y-129650000D02*
X134500000Y-131300000D01*
X137100000Y-129650000D02*
X136150000Y-129650000D01*
X134500000Y-131300000D02*
X134500000Y-132000000D01*
%TO.N,Net-(U1-IO26)*%
X134800000Y-123300000D02*
X134500000Y-123000000D01*
X137100000Y-123300000D02*
X134800000Y-123300000D01*
%TO.N,Net-(U1-IO14)*%
X136160000Y-125840000D02*
X134500000Y-127500000D01*
X137100000Y-125840000D02*
X136160000Y-125840000D01*
%TO.N,Net-(U1-IO15)*%
X154600000Y-129650000D02*
X155900000Y-129650000D01*
X155900000Y-129650000D02*
X157000000Y-130750000D01*
%TO.N,Net-(U1-IO23)*%
X154600000Y-111870000D02*
X156620000Y-111870000D01*
X156620000Y-111870000D02*
X156750000Y-112000000D01*
%TO.N,Net-(U1-IO5)*%
X154600000Y-122030000D02*
X155280000Y-122030000D01*
X155280000Y-122030000D02*
X157000000Y-123750000D01*
%TO.N,Net-(U1-IO4)*%
X156840000Y-125840000D02*
X157000000Y-126000000D01*
X154600000Y-125840000D02*
X156840000Y-125840000D01*
%TO.N,Net-(U1-IO12)*%
X137100000Y-127110000D02*
X136610000Y-127110000D01*
X136610000Y-127110000D02*
X134500000Y-129220000D01*
X134500000Y-129220000D02*
X134500000Y-129750000D01*
%TO.N,Net-(U1-IO25)*%
X135780000Y-122030000D02*
X134500000Y-120750000D01*
X137100000Y-122030000D02*
X135780000Y-122030000D01*
%TO.N,Net-(U1-IO27)*%
X135180000Y-124570000D02*
X134500000Y-125250000D01*
X137100000Y-124570000D02*
X135180000Y-124570000D01*
%TO.N,/BNO_HINTN*%
X137100000Y-119490000D02*
X136610000Y-119490000D01*
X134500000Y-117380000D02*
X134500000Y-116250000D01*
X136610000Y-119490000D02*
X134500000Y-117380000D01*
%TO.N,/TX*%
X163500000Y-117500000D02*
X163500000Y-116250000D01*
X155550000Y-114410000D02*
X154600000Y-114410000D01*
X163750000Y-117500000D02*
X163500000Y-117500000D01*
X174600000Y-117500000D02*
X163750000Y-117500000D01*
X158640000Y-117500000D02*
X155550000Y-114410000D01*
X163500000Y-117500000D02*
X158640000Y-117500000D01*
%TO.N,Net-(U1-IO18)*%
X154600000Y-120760000D02*
X155859756Y-120760000D01*
X158099756Y-123000000D02*
X159250000Y-123000000D01*
X155859756Y-120760000D02*
X158099756Y-123000000D01*
%TO.N,/BNO_NRST*%
X137100000Y-120760000D02*
X136760000Y-120760000D01*
X136760000Y-120760000D02*
X134500000Y-118500000D01*
%TO.N,/I2C_SCL*%
X151250000Y-136750000D02*
X152500000Y-138000000D01*
X158000000Y-114500000D02*
X157905740Y-114594260D01*
X151250000Y-136750000D02*
X150000000Y-138000000D01*
X156640000Y-113140000D02*
X158000000Y-114500000D01*
X157905740Y-114594260D02*
X157905740Y-115917211D01*
X154600000Y-113140000D02*
X156640000Y-113140000D01*
X150000000Y-138000000D02*
X149812500Y-138000000D01*
%TO.N,/I2C_SDA*%
X158420000Y-120000000D02*
X157170000Y-121250000D01*
X153000000Y-136500000D02*
X154000000Y-136500000D01*
X155862598Y-116950000D02*
X158912598Y-120000000D01*
X154600000Y-116950000D02*
X155862598Y-116950000D01*
X151750000Y-135250000D02*
X153000000Y-136500000D01*
X149803551Y-137241051D02*
X149750000Y-137187500D01*
X158912598Y-120000000D02*
X159000000Y-120000000D01*
X159000000Y-120000000D02*
X158420000Y-120000000D01*
X151750000Y-135250000D02*
X149812500Y-137187500D01*
X149812500Y-137187500D02*
X149750000Y-137187500D01*
%TD*%
M02*
