M48
; DRILL file {KiCad 8.0.8-8.0.8-0~ubuntu24.04.1} date 2025-02-07T13:21:25-0500
; FORMAT={-:-/ absolute / inch / decimal}
; #@! TF.CreationDate,2025-02-07T13:21:25-05:00
; #@! TF.GenerationSoftware,Kicad,Pcbnew,8.0.8-8.0.8-0~ubuntu24.04.1
; #@! TF.FileFunction,Plated,1,4,PTH
FMAT,2
INCH
; #@! TA.AperFunction,Plated,PTH,ComponentDrill
T1C0.0079
; #@! TA.AperFunction,Plated,PTH,ViaDrill
T2C0.0118
; #@! TA.AperFunction,Plated,PTH,ComponentDrill
T3C0.0197
; #@! TA.AperFunction,Plated,PTH,ComponentDrill
T4C0.0315
%
G90
G05
T1
X5.628Y-4.6339
X5.628Y-4.689
X5.6555Y-4.6063
X5.6555Y-4.6614
X5.6555Y-4.7165
X5.6831Y-4.6339
X5.6831Y-4.689
X5.7106Y-4.6063
X5.7106Y-4.6614
X5.7106Y-4.7165
X5.7382Y-4.6339
X5.7382Y-4.689
T2
X5.4331Y-5.3346
X5.4626Y-4.3996
X5.4724Y-4.4488
X5.4921Y-5.0591
X5.5217Y-4.3996
X5.5315Y-5.3543
X5.6693Y-5.5118
X5.6756Y-5.4071
X5.7776Y-5.3543
X5.7914Y-5.5637
X5.9449Y-5.4724
X5.9547Y-5.3839
X5.9744Y-5.3248
X6.0138Y-4.3898
X6.1878Y-4.7736
X6.2168Y-4.5637
X6.2303Y-5.3248
X6.2303Y-5.4921
X6.2402Y-4.5866
X6.2402Y-4.7933
X6.4813Y-4.9459
X6.5157Y-4.7146
X6.6142Y-4.5472
X6.6142Y-4.5965
X6.6437Y-5.2854
X6.6437Y-5.3248
X6.6831Y-4.4606
X6.7815Y-4.685
X6.9488Y-4.813
X6.9783Y-4.626
X6.9882Y-5.0591
X7.0374Y-5.2409
X7.0768Y-4.7441
X7.0866Y-4.9606
X7.1161Y-4.8327
X7.3031Y-4.9862
X7.3524Y-5.0354
T4
X6.8799Y-5.5709
X6.9587Y-5.5709
T3
G00X7.4961Y-4.8799
M15
G01X7.5236Y-4.8799
M16
G05
G00X7.4961Y-5.1398
M15
G01X7.5236Y-5.1398
M16
G05
M30
